<svg width="1035" height="634" viewBox="0 0 1035 634" fill="none" xmlns="http://www.w3.org/2000/svg">
<circle cx="94" cy="94" r="94" transform="translate(426 92)" fill="#FF8641"/>
<circle cx="94" cy="94" r="93" transform="translate(426 92)" stroke="#FFDD2D" stroke-opacity="0.5" stroke-width="2" stroke-linejoin="round" stroke-dasharray="3 3"/>
<ellipse cx="54.1538" cy="54.1538" rx="54.1538" ry="54.1538" transform="translate(465.847 131.846)" fill="url(#paint0_linear)"/>
<path d="M116.233 59.3665C116.233 90.773 90.773 116.233 59.3665 116.233C27.96 116.233 2.5 90.773 2.5 59.3665C2.5 27.96 27.96 2.5 59.3665 2.5C90.773 2.5 116.233 27.96 116.233 59.3665Z" transform="translate(460.634 126.634)" stroke="#FF9D43" stroke-width="5"/>
<circle cx="64" cy="64" r="63" transform="translate(456 122)" stroke="#FAB400" stroke-opacity="0.4" stroke-width="2"/>
<circle cx="48.9412" cy="48.9412" r="48.9412" transform="translate(471.059 137.059)" fill="url(#paint1_linear)"/>
<circle cx="36.1991" cy="36.1991" r="36.1991" transform="translate(483.801 149.801)" fill="url(#paint2_linear)"/>
<path d="M7.429 6.567C3.591 6.567 0.665 9.379 0.665 13.35C0.665 17.321 3.591 20.114 7.448 20.114C10.982 20.114 13.395 17.644 13.927 14.946V12.628H6.745V14.661H11.305C10.906 16.542 9.595 17.72 7.543 17.72C5.073 17.72 3.401 16.048 3.401 13.35C3.401 10.709 5.054 9.018 7.429 9.018C8.835 9.018 9.937 9.607 10.545 10.728H13.604C12.749 8.068 10.393 6.567 7.429 6.567ZM26.06 14.737C26.06 11.412 23.685 9.303 20.645 9.303C17.605 9.303 15.23 11.412 15.23 14.737C15.23 18.043 17.529 20.171 20.569 20.171C23.628 20.171 26.06 18.043 26.06 14.737ZM17.928 14.737C17.928 12.628 19.201 11.621 20.607 11.621C22.013 11.621 23.324 12.628 23.324 14.737C23.324 16.827 21.975 17.853 20.569 17.853C19.144 17.853 17.928 16.827 17.928 14.737ZM33.4642 17.283L29.8162 6.738H26.9662L31.8302 20H35.0602L39.9242 6.738H37.0932L33.4642 17.283ZM41.519 20H44.179V9.474H41.519V20ZM42.868 8.22C43.799 8.22 44.502 7.536 44.502 6.662C44.502 5.788 43.799 5.104 42.868 5.104C41.918 5.104 41.234 5.788 41.234 6.662C41.234 7.536 41.918 8.22 42.868 8.22ZM46.1231 14.699C46.1231 17.986 48.2511 20.171 50.9301 20.171C52.5831 20.171 53.7611 19.411 54.3881 18.442V20H57.0861V5.94H54.3881V10.937C53.6661 9.949 52.3361 9.303 50.9491 9.303C48.2511 9.303 46.1231 11.412 46.1231 14.699ZM54.4071 14.737C54.4071 16.732 53.0771 17.834 51.6141 17.834C50.1891 17.834 48.8401 16.694 48.8401 14.699C48.8401 12.704 50.1891 11.64 51.6141 11.64C53.0771 11.64 54.4071 12.742 54.4071 14.737ZM59 14.699C59 17.986 61.128 20.171 63.807 20.171C65.46 20.171 66.638 19.411 67.265 18.442V20H69.963V5.94H67.265V10.937C66.543 9.949 65.213 9.303 63.826 9.303C61.128 9.303 59 11.412 59 14.699ZM67.284 14.737C67.284 16.732 65.954 17.834 64.491 17.834C63.066 17.834 61.717 16.694 61.717 14.699C61.717 12.704 63.066 11.64 64.491 11.64C65.954 11.64 67.284 12.742 67.284 14.737ZM82.726 14.737C82.726 11.412 80.351 9.303 77.311 9.303C74.271 9.303 71.896 11.412 71.896 14.737C71.896 18.043 74.195 20.171 77.235 20.171C80.294 20.171 82.726 18.043 82.726 14.737ZM74.594 14.737C74.594 12.628 75.867 11.621 77.273 11.621C78.679 11.621 79.99 12.628 79.99 14.737C79.99 16.827 78.641 17.853 77.235 17.853C75.81 17.853 74.594 16.827 74.594 14.737Z" transform="translate(478.176 172.135)" fill="white"/>
<g filter="url(#filter0_d)">
<circle cx="50.7692" cy="50.7692" r="50.7692" transform="translate(34.2314 135.231)" fill="url(#paint3_linear)"/>
<circle cx="55.6561" cy="55.6561" r="53.1561" transform="translate(29.3438 130.344)" stroke="#FFA13E" stroke-width="5"/>
<circle cx="60" cy="60" r="59" transform="translate(25 126)" stroke="#FAB400" stroke-opacity="0.4" stroke-width="2"/>
<circle cx="45.8824" cy="45.8824" r="45.8824" transform="translate(39.1182 140.118)" fill="url(#paint4_linear)"/>
<circle cx="33.9366" cy="33.9366" r="33.9366" transform="translate(51.0635 152.063)" fill="url(#paint5_linear)"/>
<path d="M3.971 12.761V8.904H6.08C7.581 8.904 8.246 9.626 8.246 10.842C8.246 12.02 7.581 12.761 6.08 12.761H3.971ZM10.982 10.842C10.982 8.543 9.386 6.738 6.194 6.738H1.311V20H3.971V14.908H6.194C9.614 14.908 10.982 12.856 10.982 10.842ZM15.5306 14.756C15.5306 12.723 16.4806 12.115 18.0576 12.115H18.7606V9.322C17.2976 9.322 16.1956 10.025 15.5306 11.108V9.474H12.8706V20H15.5306V14.756ZM30.7172 14.737C30.7172 11.412 28.3422 9.303 25.3022 9.303C22.2622 9.303 19.8872 11.412 19.8872 14.737C19.8872 18.043 22.1862 20.171 25.2262 20.171C28.2852 20.171 30.7172 18.043 30.7172 14.737ZM22.5852 14.737C22.5852 12.628 23.8582 11.621 25.2642 11.621C26.6702 11.621 27.9812 12.628 27.9812 14.737C27.9812 16.827 26.6322 17.853 25.2262 17.853C23.8012 17.853 22.5852 16.827 22.5852 14.737ZM31.9844 14.699C31.9844 17.986 34.1124 20.171 36.7914 20.171C38.4444 20.171 39.6224 19.411 40.2494 18.442V20H42.9474V5.94H40.2494V10.937C39.5274 9.949 38.1974 9.303 36.8104 9.303C34.1124 9.303 31.9844 11.412 31.9844 14.699ZM40.2684 14.737C40.2684 16.732 38.9384 17.834 37.4754 17.834C36.0504 17.834 34.7014 16.694 34.7014 14.699C34.7014 12.704 36.0504 11.64 37.4754 11.64C38.9384 11.64 40.2684 12.742 40.2684 14.737ZM55.4824 9.474H52.8034V15.269C52.8034 16.96 51.8914 17.872 50.4474 17.872C49.0414 17.872 48.1104 16.96 48.1104 15.269V9.474H45.4504V15.649C45.4504 18.537 47.2174 20.133 49.6684 20.133C50.9794 20.133 52.1384 19.563 52.8034 18.67V20H55.4824V9.474ZM57.4229 14.737C57.4229 18.043 59.5889 20.171 62.6289 20.171C65.2509 20.171 67.0179 18.689 67.5879 16.447H64.7189C64.3959 17.397 63.7119 17.891 62.6099 17.891C61.1279 17.891 60.1399 16.789 60.1399 14.737C60.1399 12.685 61.1279 11.564 62.6099 11.564C63.7119 11.564 64.4149 12.134 64.7189 13.027H67.5879C67.0179 10.671 65.2509 9.303 62.6289 9.303C59.5889 9.303 57.4229 11.431 57.4229 14.737ZM74.0586 11.488C75.4266 11.488 76.5286 12.362 76.5666 13.749H71.5696C71.7786 12.305 72.7856 11.488 74.0586 11.488ZM79.0556 16.694H76.1866C75.8446 17.397 75.2176 17.967 74.0776 17.967C72.7476 17.967 71.6836 17.093 71.5506 15.535H79.2456C79.3026 15.193 79.3216 14.851 79.3216 14.509C79.3216 11.374 77.1746 9.303 74.1346 9.303C71.0186 9.303 68.8526 11.412 68.8526 14.737C68.8526 18.043 71.0756 20.171 74.1346 20.171C76.7376 20.171 78.4856 18.632 79.0556 16.694ZM83.9231 14.756C83.9231 12.723 84.8731 12.115 86.4501 12.115H87.1531V9.322C85.6901 9.322 84.5881 10.025 83.9231 11.108V9.474H81.2631V20H83.9231V14.756Z" transform="translate(43 175)" fill="white"/>
</g>
<g filter="url(#filter1_d)">
<circle cx="50.7692" cy="50.7692" r="50.7692" transform="translate(899.231 135.231)" fill="url(#paint6_linear)"/>
<circle cx="55.6561" cy="55.6561" r="53.1561" transform="translate(894.344 130.344)" stroke="#FFA13E" stroke-width="5"/>
<circle cx="60" cy="60" r="59" transform="translate(890 126)" stroke="#FAB400" stroke-opacity="0.4" stroke-width="2"/>
<circle cx="45.8824" cy="45.8824" r="45.8824" transform="translate(904.118 140.118)" fill="url(#paint7_linear)"/>
<circle cx="33.9366" cy="33.9366" r="33.9366" transform="translate(916.063 152.063)" fill="url(#paint8_linear)"/>
<path d="M6.764 17.283L3.116 6.738H0.266L5.13 20H8.36L13.224 6.738H10.393L6.764 17.283ZM14.8188 20H17.4788V9.474H14.8188V20ZM16.1678 8.22C17.0988 8.22 17.8018 7.536 17.8018 6.662C17.8018 5.788 17.0988 5.104 16.1678 5.104C15.2178 5.104 14.5338 5.788 14.5338 6.662C14.5338 7.536 15.2178 8.22 16.1678 8.22ZM24.6289 11.488C25.9969 11.488 27.0989 12.362 27.1369 13.749H22.1399C22.3489 12.305 23.3559 11.488 24.6289 11.488ZM29.6259 16.694H26.7569C26.4149 17.397 25.7879 17.967 24.6479 17.967C23.3179 17.967 22.2539 17.093 22.1209 15.535H29.8159C29.8729 15.193 29.8919 14.851 29.8919 14.509C29.8919 11.374 27.7449 9.303 24.7049 9.303C21.5889 9.303 19.4229 11.412 19.4229 14.737C19.4229 18.043 21.6459 20.171 24.7049 20.171C27.3079 20.171 29.0559 18.632 29.6259 16.694ZM33.7525 20H36.6405L38.5595 12.647L40.4785 20H43.3475L46.4255 9.474H43.8795L42.0175 17.473L40.0415 9.474H37.2295L35.2155 17.492L33.3535 9.474H30.6555L33.7525 20ZM52.3867 11.488C53.7547 11.488 54.8567 12.362 54.8947 13.749H49.8977C50.1067 12.305 51.1137 11.488 52.3867 11.488ZM57.3837 16.694H54.5147C54.1727 17.397 53.5457 17.967 52.4057 17.967C51.0757 17.967 50.0117 17.093 49.8787 15.535H57.5737C57.6307 15.193 57.6497 14.851 57.6497 14.509C57.6497 11.374 55.5027 9.303 52.4627 9.303C49.3467 9.303 47.1807 11.412 47.1807 14.737C47.1807 18.043 49.4037 20.171 52.4627 20.171C55.0657 20.171 56.8137 18.632 57.3837 16.694ZM62.2513 14.756C62.2513 12.723 63.2013 12.115 64.7783 12.115H65.4813V9.322C64.0183 9.322 62.9163 10.025 62.2513 11.108V9.474H59.5913V20H62.2513V14.756Z" transform="translate(917 174)" fill="white"/>
</g>
<g filter="url(#filter2_d)">
<circle cx="50.7692" cy="50.7692" r="50.7692" transform="translate(899.231 494.23)" fill="url(#paint9_linear)"/>
<circle cx="55.6561" cy="55.6561" r="53.1561" transform="translate(894.344 489.344)" stroke="#FFA13E" stroke-width="5"/>
<circle cx="60" cy="60" r="59" transform="translate(890 485)" stroke="#FAB400" stroke-opacity="0.4" stroke-width="2"/>
<circle cx="45.8824" cy="45.8824" r="45.8824" transform="translate(904.118 499.118)" fill="url(#paint10_linear)"/>
<circle cx="33.9366" cy="33.9366" r="33.9366" transform="translate(916.063 511.063)" fill="url(#paint11_linear)"/>
<path d="M10.317 20H13.129L8.36 6.719H5.263L0.494 20H3.287L4.161 17.473H9.443L10.317 20ZM8.721 15.345H4.883L6.802 9.797L8.721 15.345ZM14.2276 14.699C14.2276 17.986 16.3556 20.171 19.0346 20.171C20.6876 20.171 21.8656 19.411 22.4926 18.442V20H25.1906V5.94H22.4926V10.937C21.7706 9.949 20.4406 9.303 19.0536 9.303C16.3556 9.303 14.2276 11.412 14.2276 14.699ZM22.5116 14.737C22.5116 16.732 21.1816 17.834 19.7186 17.834C18.2936 17.834 16.9446 16.694 16.9446 14.699C16.9446 12.704 18.2936 11.64 19.7186 11.64C21.1816 11.64 22.5116 12.742 22.5116 14.737ZM26.6675 9.474L30.5435 20H33.7735L37.6685 9.474H34.8375L32.1775 17.549L29.5175 9.474H26.6675ZM43.6846 11.488C45.0526 11.488 46.1546 12.362 46.1926 13.749H41.1956C41.4046 12.305 42.4116 11.488 43.6846 11.488ZM48.6816 16.694H45.8126C45.4706 17.397 44.8436 17.967 43.7036 17.967C42.3736 17.967 41.3096 17.093 41.1766 15.535H48.8716C48.9286 15.193 48.9476 14.851 48.9476 14.509C48.9476 11.374 46.8006 9.303 43.7606 9.303C40.6446 9.303 38.4786 11.412 38.4786 14.737C38.4786 18.043 40.7016 20.171 43.7606 20.171C46.3636 20.171 48.1116 18.632 48.6816 16.694ZM53.5491 14.756C53.5491 12.723 54.4991 12.115 56.0761 12.115H56.7791V9.322C55.3161 9.322 54.2141 10.025 53.5491 11.108V9.474H50.8891V20H53.5491V14.756ZM58.9888 16.732C58.9888 19.145 60.3378 20 62.3518 20H64.0238V17.758H62.7888C61.9528 17.758 61.6678 17.454 61.6678 16.751V11.659H64.0238V9.474H61.6678V6.871H58.9888V9.474H57.7348V11.659H58.9888V16.732ZM65.937 20H68.597V9.474H65.937V20ZM67.286 8.22C68.217 8.22 68.92 7.536 68.92 6.662C68.92 5.788 68.217 5.104 67.286 5.104C66.336 5.104 65.652 5.788 65.652 6.662C65.652 7.536 66.336 8.22 67.286 8.22ZM79.3951 16.998C79.3191 13.141 73.4861 14.338 73.4861 12.419C73.4861 11.811 73.9991 11.412 74.9871 11.412C76.0321 11.412 76.6781 11.963 76.7541 12.78H79.3001C79.1481 10.69 77.6091 9.303 75.0631 9.303C72.4601 9.303 70.9021 10.709 70.9021 12.457C70.9021 16.314 76.8491 15.117 76.8491 16.998C76.8491 17.606 76.2791 18.081 75.2341 18.081C74.1701 18.081 73.4291 17.473 73.3341 16.675H70.6551C70.7691 18.632 72.6121 20.171 75.2531 20.171C77.8181 20.171 79.3951 18.803 79.3951 16.998ZM86.1006 11.488C87.4686 11.488 88.5706 12.362 88.6086 13.749H83.6116C83.8206 12.305 84.8276 11.488 86.1006 11.488ZM91.0976 16.694H88.2286C87.8866 17.397 87.2596 17.967 86.1196 17.967C84.7896 17.967 83.7256 17.093 83.5926 15.535H91.2876C91.3446 15.193 91.3636 14.851 91.3636 14.509C91.3636 11.374 89.2166 9.303 86.1766 9.303C83.0606 9.303 80.8946 11.412 80.8946 14.737C80.8946 18.043 83.1176 20.171 86.1766 20.171C88.7796 20.171 90.5276 18.632 91.0976 16.694ZM95.9651 14.756C95.9651 12.723 96.9151 12.115 98.4921 12.115H99.1951V9.322C97.7321 9.322 96.6301 10.025 95.9651 11.108V9.474H93.3051V20H95.9651V14.756Z" transform="translate(902 534)" fill="white"/>
</g>
<g filter="url(#filter3_d)">
<circle cx="50.7692" cy="50.7692" r="50.7692" transform="translate(34.2314 494.23)" fill="url(#paint12_linear)"/>
<circle cx="55.6561" cy="55.6561" r="53.1561" transform="translate(29.3438 489.344)" stroke="#FFA13E" stroke-width="5"/>
<circle cx="60" cy="60" r="59" transform="translate(25 485)" stroke="#FAB400" stroke-opacity="0.4" stroke-width="2"/>
<circle cx="45.8824" cy="45.8824" r="45.8824" transform="translate(39.1182 499.118)" fill="url(#paint13_linear)"/>
<circle cx="33.9366" cy="33.9366" r="33.9366" transform="translate(51.0635 511.063)" fill="url(#paint14_linear)"/>
<path d="M10.583 16.162C10.583 11.488 3.781 12.97 3.781 10.31C3.781 9.227 4.56 8.714 5.605 8.752C6.745 8.771 7.448 9.455 7.505 10.329H10.431C10.26 7.935 8.398 6.548 5.681 6.548C2.945 6.548 1.007 7.992 1.007 10.386C0.988 15.193 7.828 13.464 7.828 16.333C7.828 17.283 7.087 17.948 5.833 17.948C4.598 17.948 3.895 17.245 3.819 16.181H0.969C1.007 18.689 3.135 20.133 5.89 20.133C8.911 20.133 10.583 18.252 10.583 16.162ZM15.5491 10.994V9.474H12.8891V25.016H15.5491V18.499C16.1951 19.354 17.3731 20.171 19.0261 20.171C21.7241 20.171 23.8331 17.986 23.8331 14.699C23.8331 11.412 21.7241 9.303 19.0261 9.303C17.3921 9.303 16.1761 10.101 15.5491 10.994ZM21.1161 14.699C21.1161 16.694 19.7671 17.834 18.3231 17.834C16.8981 17.834 15.5491 16.732 15.5491 14.737C15.5491 12.742 16.8981 11.64 18.3231 11.64C19.7671 11.64 21.1161 12.704 21.1161 14.699ZM35.9311 14.737C35.9311 11.412 33.5561 9.303 30.5161 9.303C27.4761 9.303 25.1011 11.412 25.1011 14.737C25.1011 18.043 27.4001 20.171 30.4401 20.171C33.4991 20.171 35.9311 18.043 35.9311 14.737ZM27.7991 14.737C27.7991 12.628 29.0721 11.621 30.4781 11.621C31.8841 11.621 33.1951 12.628 33.1951 14.737C33.1951 16.827 31.8461 17.853 30.4401 17.853C29.0151 17.853 27.7991 16.827 27.7991 14.737ZM45.2543 20H47.9143V13.825C47.9143 10.918 46.1663 9.322 43.7153 9.322C42.3663 9.322 41.2263 9.892 40.5423 10.785V9.474H37.8823V20H40.5423V14.186C40.5423 12.495 41.4733 11.583 42.9173 11.583C44.3233 11.583 45.2543 12.495 45.2543 14.186V20ZM58.6138 16.998C58.5378 13.141 52.7048 14.338 52.7048 12.419C52.7048 11.811 53.2178 11.412 54.2058 11.412C55.2508 11.412 55.8968 11.963 55.9728 12.78H58.5188C58.3668 10.69 56.8278 9.303 54.2818 9.303C51.6788 9.303 50.1208 10.709 50.1208 12.457C50.1208 16.314 56.0678 15.117 56.0678 16.998C56.0678 17.606 55.4978 18.081 54.4528 18.081C53.3888 18.081 52.6478 17.473 52.5528 16.675H49.8738C49.9878 18.632 51.8308 20.171 54.4718 20.171C57.0368 20.171 58.6138 18.803 58.6138 16.998ZM70.9623 14.737C70.9623 11.412 68.5873 9.303 65.5473 9.303C62.5073 9.303 60.1323 11.412 60.1323 14.737C60.1323 18.043 62.4313 20.171 65.4713 20.171C68.5303 20.171 70.9623 18.043 70.9623 14.737ZM62.8303 14.737C62.8303 12.628 64.1033 11.621 65.5093 11.621C66.9153 11.621 68.2263 12.628 68.2263 14.737C68.2263 16.827 66.8773 17.853 65.4713 17.853C64.0463 17.853 62.8303 16.827 62.8303 14.737ZM75.5735 14.756C75.5735 12.723 76.5235 12.115 78.1005 12.115H78.8035V9.322C77.3405 9.322 76.2385 10.025 75.5735 11.108V9.474H72.9135V20H75.5735V14.756Z" transform="translate(45 533)" fill="white"/>
</g>
<path d="M0 0L10 5.7735V-5.7735L0 0ZM9 1H231V-1H9V1Z" transform="translate(169 179) scale(1 -1)" fill="#FD975E"/>
<ellipse opacity="0.85" cx="7.34778" cy="7.22222" rx="7.34778" ry="7.22222" transform="translate(368 171.778) scale(-1 1)" fill="#FFD480" fill-opacity="0.86"/>
<ellipse opacity="0.85" cx="7.91299" cy="7.77778" rx="7.91299" ry="7.77778" transform="translate(357.826 171.222) scale(-1 1)" fill="#FFD480" fill-opacity="0.86"/>
<ellipse opacity="0.85" cx="10.1738" cy="10" rx="10.1738" ry="10" transform="translate(341.348 169) scale(-1 1)" fill="#FFDB49" fill-opacity="0.66"/>
<ellipse opacity="0.85" cx="7.34778" cy="7.22222" rx="7.34778" ry="7.22222" transform="translate(245 171.778) scale(-1 1)" fill="#FFB257" fill-opacity="0.91"/>
<ellipse opacity="0.85" cx="7.91299" cy="7.77778" rx="7.91299" ry="7.77778" transform="translate(234.826 171.222) scale(-1 1)" fill="#FFD480" fill-opacity="0.86"/>
<ellipse opacity="0.85" cx="10.1738" cy="10" rx="10.1738" ry="10" transform="translate(226.348 169) scale(-1 1)" fill="#FFEA30" fill-opacity="0.57"/>
<circle cx="27.5" cy="27.5" r="27.5" transform="translate(308 152) scale(-1 1)" fill="url(#paint15_linear)"/>
<path d="M11.339 9.497C5.481 9.497 1.015 13.789 1.015 19.85C1.015 25.911 5.481 30.174 11.368 30.174C16.762 30.174 20.445 26.404 21.257 22.286V18.748H10.295V21.851H17.255C16.646 24.722 14.645 26.52 11.513 26.52C7.743 26.52 5.191 23.968 5.191 19.85C5.191 15.819 7.714 13.238 11.339 13.238C13.485 13.238 15.167 14.137 16.095 15.848H20.764C19.459 11.788 15.863 9.497 11.339 9.497ZM39.7758 21.967C39.7758 16.892 36.1508 13.673 31.5108 13.673C26.8708 13.673 23.2458 16.892 23.2458 21.967C23.2458 27.013 26.7548 30.261 31.3948 30.261C36.0638 30.261 39.7758 27.013 39.7758 21.967ZM27.3638 21.967C27.3638 18.748 29.3068 17.211 31.4528 17.211C33.5988 17.211 35.5998 18.748 35.5998 21.967C35.5998 25.157 33.5408 26.723 31.3948 26.723C29.2198 26.723 27.3638 25.157 27.3638 21.967Z" transform="translate(261 158)" fill="white"/>
<ellipse cx="6" cy="5" rx="6" ry="5" transform="translate(287 175)" fill="white"/>
<path d="M5.24407 0.872872C5.64284 0.41241 6.35716 0.41241 6.75593 0.872872L9.76318 4.34535C10.3241 4.99299 9.864 6 9.00725 6H2.99275C2.136 6 1.67594 4.99299 2.23682 4.34535L5.24407 0.872872Z" transform="translate(297 174) rotate(90)" fill="#FF8B14"/>
<path d="M0 0L10 5.7735V-5.7735L0 0ZM9 1H231V-1H9V1Z" transform="translate(869 179) rotate(180)" fill="#FD975E"/>
<ellipse opacity="0.85" cx="7.34778" cy="7.22222" rx="7.34778" ry="7.22222" transform="translate(670 171.778)" fill="#FFD480" fill-opacity="0.86"/>
<ellipse opacity="0.85" cx="7.91299" cy="7.77778" rx="7.91299" ry="7.77778" transform="translate(680.174 171.222)" fill="#FFD480" fill-opacity="0.86"/>
<ellipse opacity="0.85" cx="10.1738" cy="10" rx="10.1738" ry="10" transform="translate(696.652 169)" fill="#FFDB49" fill-opacity="0.66"/>
<ellipse opacity="0.85" cx="7.34778" cy="7.22222" rx="7.34778" ry="7.22222" transform="translate(793 171.778)" fill="#FFB257" fill-opacity="0.91"/>
<ellipse opacity="0.85" cx="7.91299" cy="7.77778" rx="7.91299" ry="7.77778" transform="translate(803.174 171.222)" fill="#FFD480" fill-opacity="0.86"/>
<ellipse opacity="0.85" cx="10.1738" cy="10" rx="10.1738" ry="10" transform="translate(811.652 169)" fill="#FFEA30" fill-opacity="0.57"/>
<circle cx="27.5" cy="27.5" r="27.5" transform="translate(730 152)" fill="url(#paint16_linear)"/>
<path d="M11.339 9.497C5.481 9.497 1.015 13.789 1.015 19.85C1.015 25.911 5.481 30.174 11.368 30.174C16.762 30.174 20.445 26.404 21.257 22.286V18.748H10.295V21.851H17.255C16.646 24.722 14.645 26.52 11.513 26.52C7.743 26.52 5.191 23.968 5.191 19.85C5.191 15.819 7.714 13.238 11.339 13.238C13.485 13.238 15.167 14.137 16.095 15.848H20.764C19.459 11.788 15.863 9.497 11.339 9.497ZM39.7758 21.967C39.7758 16.892 36.1508 13.673 31.5108 13.673C26.8708 13.673 23.2458 16.892 23.2458 21.967C23.2458 27.013 26.7548 30.261 31.3948 30.261C36.0638 30.261 39.7758 27.013 39.7758 21.967ZM27.3638 21.967C27.3638 18.748 29.3068 17.211 31.4528 17.211C33.5988 17.211 35.5998 18.748 35.5998 21.967C35.5998 25.157 33.5408 26.723 31.3948 26.723C29.2198 26.723 27.3638 25.157 27.3638 21.967Z" transform="translate(738 158)" fill="white"/>
<path d="M5.895 5.425C2.955 5.425 0.645 7.63 0.645 10.765C0.645 13.9 2.955 16.09 5.895 16.09C8.73 16.09 10.785 14.005 11.025 11.41V10.36H5.4V11.47H9.57C9.36 13.54 7.95 14.86 5.895 14.86C3.69 14.86 2.04 13.27 2.04 10.765C2.04 8.245 3.69 6.655 5.895 6.655C7.365 6.655 8.505 7.36 9.075 8.575H10.71C9.93 6.565 8.1 5.425 5.895 5.425ZM22.8198 10.765C22.8198 7.63 20.5248 5.425 17.5698 5.425C14.6298 5.425 12.3198 7.63 12.3198 10.765C12.3198 13.9 14.6298 16.105 17.5698 16.105C20.5248 16.105 22.8198 13.9 22.8198 10.765ZM13.7148 10.765C13.7148 8.2 15.3648 6.61 17.5698 6.61C19.7748 6.61 21.4248 8.2 21.4248 10.765C21.4248 13.315 19.7748 14.92 17.5698 14.92C15.3648 14.92 13.7148 13.315 13.7148 10.765ZM23.9768 6.655H26.8418V16H28.2068V6.655H31.0568V5.545H23.9768V6.655ZM42.727 10.765C42.727 7.63 40.432 5.425 37.477 5.425C34.537 5.425 32.227 7.63 32.227 10.765C32.227 13.9 34.537 16.105 37.477 16.105C40.432 16.105 42.727 13.9 42.727 10.765ZM33.622 10.765C33.622 8.2 35.272 6.61 37.477 6.61C39.682 6.61 41.332 8.2 41.332 10.765C41.332 13.315 39.682 14.92 37.477 14.92C35.272 14.92 33.622 13.315 33.622 10.765ZM50.199 16H51.984L47.199 10.78L51.939 5.545H50.214L45.894 10.39V5.545H44.529V16H45.894V11.23L50.199 16ZM59.1335 5.53H53.5085V16H59.1335V14.875H54.8735V11.275H58.6835V10.15H54.8735V6.655H59.1335V5.53ZM68.0539 5.53V13.84L62.5639 5.53H61.1989V16H62.5639V7.675L68.0539 16H69.4189V5.53H68.0539ZM81.3398 8.62C81.3398 9.79 80.6648 10.63 79.1198 10.63H77.1098V6.67H79.1198C80.6798 6.67 81.3398 7.435 81.3398 8.62ZM75.7448 5.545V16H77.1098V11.725H78.7598L81.2498 16H82.8848L80.2598 11.62C82.0148 11.23 82.7498 9.955 82.7498 8.62C82.7498 6.91 81.5798 5.545 79.1198 5.545H75.7448ZM90.4958 5.53H84.8708V16H90.4958V14.875H86.2358V11.275H90.0458V10.15H86.2358V6.655H90.4958V5.53ZM94.6762 16.015L96.1913 16L98.7112 7.585L101.141 16H102.671L105.701 5.545H104.231L101.936 14.38L99.5362 5.545H98.0062L95.4863 14.41L93.2062 5.545H91.7513L94.6762 16.015ZM114.215 16H115.655L111.89 5.605H110.315L106.535 16H107.975L108.815 13.675H113.375L114.215 16ZM112.985 12.565H109.205L111.095 7.285L112.985 12.565ZM122.897 8.62C122.897 9.79 122.222 10.63 120.677 10.63H118.667V6.67H120.677C122.237 6.67 122.897 7.435 122.897 8.62ZM117.302 5.545V16H118.667V11.725H120.317L122.807 16H124.442L121.817 11.62C123.572 11.23 124.307 9.955 124.307 8.62C124.307 6.91 123.137 5.545 120.677 5.545H117.302ZM129.683 5.545H126.428V16H129.683C133.118 16 135.233 14.035 135.233 10.795C135.233 7.555 133.118 5.545 129.683 5.545ZM127.793 14.875V6.655H129.683C132.413 6.655 133.838 8.245 133.838 10.795C133.838 13.345 132.413 14.875 129.683 14.875H127.793Z" transform="translate(217 222)" fill="white"/>
<path d="M2.52 10.51V6.67H4.53C6.09 6.67 6.75 7.39 6.75 8.605C6.75 9.775 6.09 10.51 4.53 10.51H2.52ZM8.145 8.605C8.145 6.895 6.99 5.545 4.53 5.545H1.155V16H2.52V11.635H4.53C7.125 11.635 8.145 10.195 8.145 8.605ZM16.8615 16H18.3015L14.5365 5.605H12.9615L9.18152 16H10.6215L11.4615 13.675H16.0215L16.8615 16ZM15.6315 12.565H11.8515L13.7415 7.285L15.6315 12.565ZM22.4989 12.055V16H23.8639V12.055L27.2689 5.545H25.7539L23.1739 10.84L20.5939 5.545H19.0789L22.4989 12.055ZM34.0727 10.51V6.67H36.0827C37.6427 6.67 38.3027 7.39 38.3027 8.605C38.3027 9.775 37.6427 10.51 36.0827 10.51H34.0727ZM39.6977 8.605C39.6977 6.895 38.5427 5.545 36.0827 5.545H32.7077V16H34.0727V11.635H36.0827C38.6777 11.635 39.6977 10.195 39.6977 8.605ZM47.0193 5.53H41.3943V16H47.0193V14.875H42.7593V11.275H46.5693V10.15H42.7593V6.655H47.0193V5.53ZM54.6797 8.62C54.6797 9.79 54.0047 10.63 52.4597 10.63H50.4497V6.67H52.4597C54.0197 6.67 54.6797 7.435 54.6797 8.62ZM49.0847 5.545V16H50.4497V11.725H52.0997L54.5897 16H56.2247L53.5997 11.62C55.3547 11.23 56.0897 9.955 56.0897 8.62C56.0897 6.91 54.9197 5.545 52.4597 5.545H49.0847ZM66.1247 14.56L62.8397 5.545H61.3847L65.3297 16H66.9047L70.8497 5.545H69.4097L66.1247 14.56ZM72.3464 16H73.7114V5.545H72.3464V16ZM81.6628 5.53H76.0378V16H81.6628V14.875H77.4028V11.275H81.2128V10.15H77.4028V6.655H81.6628V5.53ZM85.8432 16.015L87.3582 16L89.8782 7.585L92.3082 16H93.8382L96.8682 5.545H95.3982L93.1032 14.38L90.7032 5.545H89.1732L86.6532 14.41L84.3732 5.545H82.9182L85.8432 16.015Z" transform="translate(231 115)" fill="white"/>
<path d="M5.895 5.425C2.955 5.425 0.645 7.63 0.645 10.765C0.645 13.9 2.955 16.09 5.895 16.09C8.73 16.09 10.785 14.005 11.025 11.41V10.36H5.4V11.47H9.57C9.36 13.54 7.95 14.86 5.895 14.86C3.69 14.86 2.04 13.27 2.04 10.765C2.04 8.245 3.69 6.655 5.895 6.655C7.365 6.655 8.505 7.36 9.075 8.575H10.71C9.93 6.565 8.1 5.425 5.895 5.425ZM22.8198 10.765C22.8198 7.63 20.5248 5.425 17.5698 5.425C14.6298 5.425 12.3198 7.63 12.3198 10.765C12.3198 13.9 14.6298 16.105 17.5698 16.105C20.5248 16.105 22.8198 13.9 22.8198 10.765ZM13.7148 10.765C13.7148 8.2 15.3648 6.61 17.5698 6.61C19.7748 6.61 21.4248 8.2 21.4248 10.765C21.4248 13.315 19.7748 14.92 17.5698 14.92C15.3648 14.92 13.7148 13.315 13.7148 10.765ZM23.9768 6.655H26.8418V16H28.2068V6.655H31.0568V5.545H23.9768V6.655ZM42.727 10.765C42.727 7.63 40.432 5.425 37.477 5.425C34.537 5.425 32.227 7.63 32.227 10.765C32.227 13.9 34.537 16.105 37.477 16.105C40.432 16.105 42.727 13.9 42.727 10.765ZM33.622 10.765C33.622 8.2 35.272 6.61 37.477 6.61C39.682 6.61 41.332 8.2 41.332 10.765C41.332 13.315 39.682 14.92 37.477 14.92C35.272 14.92 33.622 13.315 33.622 10.765ZM50.199 16H51.984L47.199 10.78L51.939 5.545H50.214L45.894 10.39V5.545H44.529V16H45.894V11.23L50.199 16ZM59.1335 5.53H53.5085V16H59.1335V14.875H54.8735V11.275H58.6835V10.15H54.8735V6.655H59.1335V5.53ZM68.0539 5.53V13.84L62.5639 5.53H61.1989V16H62.5639V7.675L68.0539 16H69.4189V5.53H68.0539Z" transform="translate(487 388)" fill="white"/>
<path d="M5.895 5.425C2.955 5.425 0.645 7.63 0.645 10.765C0.645 13.9 2.955 16.09 5.895 16.09C8.73 16.09 10.785 14.005 11.025 11.41V10.36H5.4V11.47H9.57C9.36 13.54 7.95 14.86 5.895 14.86C3.69 14.86 2.04 13.27 2.04 10.765C2.04 8.245 3.69 6.655 5.895 6.655C7.365 6.655 8.505 7.36 9.075 8.575H10.71C9.93 6.565 8.1 5.425 5.895 5.425ZM22.8198 10.765C22.8198 7.63 20.5248 5.425 17.5698 5.425C14.6298 5.425 12.3198 7.63 12.3198 10.765C12.3198 13.9 14.6298 16.105 17.5698 16.105C20.5248 16.105 22.8198 13.9 22.8198 10.765ZM13.7148 10.765C13.7148 8.2 15.3648 6.61 17.5698 6.61C19.7748 6.61 21.4248 8.2 21.4248 10.765C21.4248 13.315 19.7748 14.92 17.5698 14.92C15.3648 14.92 13.7148 13.315 13.7148 10.765ZM23.9768 6.655H26.8418V16H28.2068V6.655H31.0568V5.545H23.9768V6.655ZM42.727 10.765C42.727 7.63 40.432 5.425 37.477 5.425C34.537 5.425 32.227 7.63 32.227 10.765C32.227 13.9 34.537 16.105 37.477 16.105C40.432 16.105 42.727 13.9 42.727 10.765ZM33.622 10.765C33.622 8.2 35.272 6.61 37.477 6.61C39.682 6.61 41.332 8.2 41.332 10.765C41.332 13.315 39.682 14.92 37.477 14.92C35.272 14.92 33.622 13.315 33.622 10.765ZM50.199 16H51.984L47.199 10.78L51.939 5.545H50.214L45.894 10.39V5.545H44.529V16H45.894V11.23L50.199 16ZM59.1335 5.53H53.5085V16H59.1335V14.875H54.8735V11.275H58.6835V10.15H54.8735V6.655H59.1335V5.53ZM68.0539 5.53V13.84L62.5639 5.53H61.1989V16H62.5639V7.675L68.0539 16H69.4189V5.53H68.0539ZM81.3398 8.62C81.3398 9.79 80.6648 10.63 79.1198 10.63H77.1098V6.67H79.1198C80.6798 6.67 81.3398 7.435 81.3398 8.62ZM75.7448 5.545V16H77.1098V11.725H78.7598L81.2498 16H82.8848L80.2598 11.62C82.0148 11.23 82.7498 9.955 82.7498 8.62C82.7498 6.91 81.5798 5.545 79.1198 5.545H75.7448ZM90.4958 5.53H84.8708V16H90.4958V14.875H86.2358V11.275H90.0458V10.15H86.2358V6.655H90.4958V5.53ZM94.6762 16.015L96.1913 16L98.7112 7.585L101.141 16H102.671L105.701 5.545H104.231L101.936 14.38L99.5362 5.545H98.0062L95.4863 14.41L93.2062 5.545H91.7513L94.6762 16.015ZM114.215 16H115.655L111.89 5.605H110.315L106.535 16H107.975L108.815 13.675H113.375L114.215 16ZM112.985 12.565H109.205L111.095 7.285L112.985 12.565ZM122.897 8.62C122.897 9.79 122.222 10.63 120.677 10.63H118.667V6.67H120.677C122.237 6.67 122.897 7.435 122.897 8.62ZM117.302 5.545V16H118.667V11.725H120.317L122.807 16H124.442L121.817 11.62C123.572 11.23 124.307 9.955 124.307 8.62C124.307 6.91 123.137 5.545 120.677 5.545H117.302ZM129.683 5.545H126.428V16H129.683C133.118 16 135.233 14.035 135.233 10.795C135.233 7.555 133.118 5.545 129.683 5.545ZM127.793 14.875V6.655H129.683C132.413 6.655 133.838 8.245 133.838 10.795C133.838 13.345 132.413 14.875 129.683 14.875H127.793Z" transform="translate(985 396) rotate(-90)" fill="white"/>
<path d="M11.339 9.497C5.481 9.497 1.015 13.789 1.015 19.85C1.015 25.911 5.481 30.174 11.368 30.174C16.762 30.174 20.445 26.404 21.257 22.286V18.748H10.295V21.851H17.255C16.646 24.722 14.645 26.52 11.513 26.52C7.743 26.52 5.191 23.968 5.191 19.85C5.191 15.819 7.714 13.238 11.339 13.238C13.485 13.238 15.167 14.137 16.095 15.848H20.764C19.459 11.788 15.863 9.497 11.339 9.497ZM39.7758 21.967C39.7758 16.892 36.1508 13.673 31.5108 13.673C26.8708 13.673 23.2458 16.892 23.2458 21.967C23.2458 27.013 26.7548 30.261 31.3948 30.261C36.0638 30.261 39.7758 27.013 39.7758 21.967ZM27.3638 21.967C27.3638 18.748 29.3068 17.211 31.4528 17.211C33.5988 17.211 35.5998 18.748 35.5998 21.967C35.5998 25.157 33.5408 26.723 31.3948 26.723C29.2198 26.723 27.3638 25.157 27.3638 21.967Z" transform="translate(261 158)" fill="white"/>
<path d="M5.895 5.425C2.955 5.425 0.645 7.63 0.645 10.765C0.645 13.9 2.955 16.09 5.895 16.09C8.73 16.09 10.785 14.005 11.025 11.41V10.36H5.4V11.47H9.57C9.36 13.54 7.95 14.86 5.895 14.86C3.69 14.86 2.04 13.27 2.04 10.765C2.04 8.245 3.69 6.655 5.895 6.655C7.365 6.655 8.505 7.36 9.075 8.575H10.71C9.93 6.565 8.1 5.425 5.895 5.425ZM22.8198 10.765C22.8198 7.63 20.5248 5.425 17.5698 5.425C14.6298 5.425 12.3198 7.63 12.3198 10.765C12.3198 13.9 14.6298 16.105 17.5698 16.105C20.5248 16.105 22.8198 13.9 22.8198 10.765ZM13.7148 10.765C13.7148 8.2 15.3648 6.61 17.5698 6.61C19.7748 6.61 21.4248 8.2 21.4248 10.765C21.4248 13.315 19.7748 14.92 17.5698 14.92C15.3648 14.92 13.7148 13.315 13.7148 10.765ZM23.9768 6.655H26.8418V16H28.2068V6.655H31.0568V5.545H23.9768V6.655ZM42.727 10.765C42.727 7.63 40.432 5.425 37.477 5.425C34.537 5.425 32.227 7.63 32.227 10.765C32.227 13.9 34.537 16.105 37.477 16.105C40.432 16.105 42.727 13.9 42.727 10.765ZM33.622 10.765C33.622 8.2 35.272 6.61 37.477 6.61C39.682 6.61 41.332 8.2 41.332 10.765C41.332 13.315 39.682 14.92 37.477 14.92C35.272 14.92 33.622 13.315 33.622 10.765ZM50.199 16H51.984L47.199 10.78L51.939 5.545H50.214L45.894 10.39V5.545H44.529V16H45.894V11.23L50.199 16ZM59.1335 5.53H53.5085V16H59.1335V14.875H54.8735V11.275H58.6835V10.15H54.8735V6.655H59.1335V5.53ZM68.0539 5.53V13.84L62.5639 5.53H61.1989V16H62.5639V7.675L68.0539 16H69.4189V5.53H68.0539ZM81.3398 8.62C81.3398 9.79 80.6648 10.63 79.1198 10.63H77.1098V6.67H79.1198C80.6798 6.67 81.3398 7.435 81.3398 8.62ZM75.7448 5.545V16H77.1098V11.725H78.7598L81.2498 16H82.8848L80.2598 11.62C82.0148 11.23 82.7498 9.955 82.7498 8.62C82.7498 6.91 81.5798 5.545 79.1198 5.545H75.7448ZM90.4958 5.53H84.8708V16H90.4958V14.875H86.2358V11.275H90.0458V10.15H86.2358V6.655H90.4958V5.53ZM94.6762 16.015L96.1913 16L98.7112 7.585L101.141 16H102.671L105.701 5.545H104.231L101.936 14.38L99.5362 5.545H98.0062L95.4863 14.41L93.2062 5.545H91.7513L94.6762 16.015ZM114.215 16H115.655L111.89 5.605H110.315L106.535 16H107.975L108.815 13.675H113.375L114.215 16ZM112.985 12.565H109.205L111.095 7.285L112.985 12.565ZM122.897 8.62C122.897 9.79 122.222 10.63 120.677 10.63H118.667V6.67H120.677C122.237 6.67 122.897 7.435 122.897 8.62ZM117.302 5.545V16H118.667V11.725H120.317L122.807 16H124.442L121.817 11.62C123.572 11.23 124.307 9.955 124.307 8.62C124.307 6.91 123.137 5.545 120.677 5.545H117.302ZM129.683 5.545H126.428V16H129.683C133.118 16 135.233 14.035 135.233 10.795C135.233 7.555 133.118 5.545 129.683 5.545ZM127.793 14.875V6.655H129.683C132.413 6.655 133.838 8.245 133.838 10.795C133.838 13.345 132.413 14.875 129.683 14.875H127.793Z" transform="translate(686 222)" fill="white"/>
<path d="M0.645 10.765C0.645 13.9 2.94 16.09 5.865 16.09C8.13 16.09 9.93 14.965 10.71 12.955H9.075C8.505 14.2 7.395 14.905 5.865 14.905C3.675 14.905 2.04 13.315 2.04 10.765C2.04 8.2 3.675 6.61 5.865 6.61C7.395 6.61 8.505 7.315 9.075 8.575H10.71C9.93 6.55 8.13 5.41 5.865 5.41C2.94 5.41 0.645 7.63 0.645 10.765ZM19.7619 16H21.2019L17.4369 5.605H15.8619L12.0819 16H13.5219L14.3619 13.675H18.9219L19.7619 16ZM18.5319 12.565H14.7519L16.6419 7.285L18.5319 12.565ZM22.8493 16H24.2143V8.245L27.6793 16H28.6393L32.0893 8.26V16H33.4543V5.62H31.9993L28.1593 14.2L24.3193 5.62H22.8493V16ZM37.1343 10.51V6.67H39.1443C40.7043 6.67 41.3643 7.39 41.3643 8.605C41.3643 9.775 40.7043 10.51 39.1443 10.51H37.1343ZM42.7593 8.605C42.7593 6.895 41.6043 5.545 39.1443 5.545H35.7693V16H37.1343V11.635H39.1443C41.7393 11.635 42.7593 10.195 42.7593 8.605ZM51.4758 16H52.9158L49.1508 5.605H47.5758L43.7958 16H45.2358L46.0758 13.675H50.6358L51.4758 16ZM50.2458 12.565H46.4658L48.3558 7.285L50.2458 12.565ZM54.5632 16H55.9282V5.545H54.5632V16ZM62.9946 5.425C60.0546 5.425 57.7446 7.63 57.7446 10.765C57.7446 13.9 60.0546 16.09 62.9946 16.09C65.8296 16.09 67.8846 14.005 68.1246 11.41V10.36H62.4996V11.47H66.6696C66.4596 13.54 65.0496 14.86 62.9946 14.86C60.7896 14.86 59.1396 13.27 59.1396 10.765C59.1396 8.245 60.7896 6.655 62.9946 6.655C64.4646 6.655 65.6046 7.36 66.1746 8.575H67.8096C67.0296 6.565 65.1996 5.425 62.9946 5.425ZM76.7844 5.53V13.84L71.2944 5.53H69.9294V16H71.2944V7.675L76.7844 16H78.1494V5.53H76.7844ZM87.2713 13.15C87.2713 9.28 81.6313 10.96 81.6313 8.26C81.6313 7.135 82.5163 6.55 83.6413 6.58C84.9163 6.595 85.5763 7.39 85.6663 8.095H87.1663C87.0013 6.505 85.6963 5.41 83.7013 5.41C81.6313 5.41 80.2363 6.58 80.2363 8.305C80.2363 12.19 85.8913 10.39 85.8913 13.21C85.8913 14.2 85.1113 14.95 83.7913 14.95C82.3363 14.95 81.7213 14.08 81.6313 13.21H80.1763C80.2063 14.935 81.6913 16.105 83.7913 16.105C86.0563 16.105 87.2713 14.635 87.2713 13.15Z" transform="translate(634 509)" fill="white"/>
<path d="M8.175 16H9.615L5.85 5.605H4.275L0.495 16H1.935L2.775 13.675H7.335L8.175 16ZM6.945 12.565H3.165L5.055 7.285L6.945 12.565ZM10.6174 6.655H13.4824V16H14.8474V6.655H17.6974V5.545H10.6174V6.655ZM18.7327 6.655H21.5977V16H22.9627V6.655H25.8127V5.545H18.7327V6.655ZM33.1179 5.53H27.4929V16H33.1179V14.875H28.8579V11.275H32.6679V10.15H28.8579V6.655H33.1179V5.53ZM42.0383 5.53V13.84L36.5483 5.53H35.1833V16H36.5483V7.675L42.0383 16H43.4033V5.53H42.0383ZM45.0852 6.655H47.9502V16H49.3152V6.655H52.1652V5.545H45.0852V6.655ZM53.8454 16H55.2104V5.545H53.8454V16ZM67.5268 10.765C67.5268 7.63 65.2318 5.425 62.2768 5.425C59.3368 5.425 57.0268 7.63 57.0268 10.765C57.0268 13.9 59.3368 16.105 62.2768 16.105C65.2318 16.105 67.5268 13.9 67.5268 10.765ZM58.4218 10.765C58.4218 8.2 60.0718 6.61 62.2768 6.61C64.4818 6.61 66.1318 8.2 66.1318 10.765C66.1318 13.315 64.4818 14.92 62.2768 14.92C60.0718 14.92 58.4218 13.315 58.4218 10.765ZM76.1838 5.53V13.84L70.6938 5.53H69.3288V16H70.6938V7.675L76.1838 16H77.5488V5.53H76.1838Z" transform="translate(906 470) rotate(-90)" fill="white"/>
<path d="M5.895 5.425C2.955 5.425 0.645 7.63 0.645 10.765C0.645 13.9 2.955 16.09 5.895 16.09C8.73 16.09 10.785 14.005 11.025 11.41V10.36H5.4V11.47H9.57C9.36 13.54 7.95 14.86 5.895 14.86C3.69 14.86 2.04 13.27 2.04 10.765C2.04 8.245 3.69 6.655 5.895 6.655C7.365 6.655 8.505 7.36 9.075 8.575H10.71C9.93 6.565 8.1 5.425 5.895 5.425ZM22.8198 10.765C22.8198 7.63 20.5248 5.425 17.5698 5.425C14.6298 5.425 12.3198 7.63 12.3198 10.765C12.3198 13.9 14.6298 16.105 17.5698 16.105C20.5248 16.105 22.8198 13.9 22.8198 10.765ZM13.7148 10.765C13.7148 8.2 15.3648 6.61 17.5698 6.61C19.7748 6.61 21.4248 8.2 21.4248 10.765C21.4248 13.315 19.7748 14.92 17.5698 14.92C15.3648 14.92 13.7148 13.315 13.7148 10.765ZM23.9768 6.655H26.8418V16H28.2068V6.655H31.0568V5.545H23.9768V6.655ZM42.727 10.765C42.727 7.63 40.432 5.425 37.477 5.425C34.537 5.425 32.227 7.63 32.227 10.765C32.227 13.9 34.537 16.105 37.477 16.105C40.432 16.105 42.727 13.9 42.727 10.765ZM33.622 10.765C33.622 8.2 35.272 6.61 37.477 6.61C39.682 6.61 41.332 8.2 41.332 10.765C41.332 13.315 39.682 14.92 37.477 14.92C35.272 14.92 33.622 13.315 33.622 10.765ZM50.199 16H51.984L47.199 10.78L51.939 5.545H50.214L45.894 10.39V5.545H44.529V16H45.894V11.23L50.199 16ZM59.1335 5.53H53.5085V16H59.1335V14.875H54.8735V11.275H58.6835V10.15H54.8735V6.655H59.1335V5.53ZM68.0539 5.53V13.84L62.5639 5.53H61.1989V16H62.5639V7.675L68.0539 16H69.4189V5.53H68.0539Z" transform="translate(31 327) rotate(-90)" fill="white"/>
<path d="M0 0L10 5.7735V-5.7735L0 0ZM191 0L181 -5.7735V5.7735L191 0ZM4.47656 1H7.46094V-1H4.47656V1ZM10.4453 1H13.4297V-1H10.4453V1ZM16.4141 1H19.3984V-1H16.4141V1ZM22.3828 1H25.3672V-1H22.3828V1ZM28.3516 1H31.3359V-1H28.3516V1ZM34.3203 1H37.3047V-1H34.3203V1ZM40.2891 1H43.2734V-1H40.2891V1ZM46.2578 1H49.2422V-1H46.2578V1ZM52.2266 1H55.2109V-1H52.2266V1ZM58.1953 1H61.1797V-1H58.1953V1ZM64.1641 1H67.1484V-1H64.1641V1ZM70.1328 1H73.1172V-1H70.1328V1ZM76.1016 1H79.0859V-1H76.1016V1ZM82.0703 1H85.0547V-1H82.0703V1ZM88.0391 1H91.0234V-1H88.0391V1ZM94.0078 1H96.9922V-1H94.0078V1ZM99.9766 1H102.961V-1H99.9766V1ZM105.945 1H108.93V-1H105.945V1ZM111.914 1H114.898V-1H111.914V1ZM117.883 1H120.867V-1H117.883V1ZM123.852 1H126.836V-1H123.852V1ZM129.82 1H132.805V-1H129.82V1ZM135.789 1H138.773V-1H135.789V1ZM141.758 1H144.742V-1H141.758V1ZM147.727 1H150.711V-1H147.727V1ZM153.695 1H156.68V-1H153.695V1ZM159.664 1H162.648V-1H159.664V1ZM165.633 1H168.617V-1H165.633V1ZM171.602 1H174.586V-1H171.602V1ZM177.57 1H180.555V-1H177.57V1ZM183.539 1H186.523V-1H183.539V1Z" transform="translate(90 471) scale(1 -1) rotate(90)" fill="#FFF7AD"/>
<ellipse opacity="0.85" cx="7.34778" cy="7.22222" rx="7.34778" ry="7.22222" transform="translate(82.7773 438) rotate(-90)" fill="#FFD600" fill-opacity="0.68"/>
<ellipse opacity="0.85" cx="7.34778" cy="7.22222" rx="7.34778" ry="7.22222" transform="translate(82.7773 386) rotate(-90)" fill="#FFF388" fill-opacity="0.73"/>
<ellipse opacity="0.85" cx="7.91299" cy="7.77778" rx="7.91299" ry="7.77778" transform="translate(82.2227 375.826) rotate(-90)" fill="#FFDB80" fill-opacity="0.86"/>
<ellipse opacity="0.85" cx="10.1738" cy="10" rx="10.1738" ry="10" transform="translate(80 367.348) rotate(-90)" fill="#FFDE30" fill-opacity="0.79"/>
<circle cx="27.5" cy="27.5" r="27.5" transform="translate(63 349) rotate(-90)" fill="url(#paint17_linear)"/>
<path d="M11.339 9.497C5.481 9.497 1.015 13.789 1.015 19.85C1.015 25.911 5.481 30.174 11.368 30.174C16.762 30.174 20.445 26.404 21.257 22.286V18.748H10.295V21.851H17.255C16.646 24.722 14.645 26.52 11.513 26.52C7.743 26.52 5.191 23.968 5.191 19.85C5.191 15.819 7.714 13.238 11.339 13.238C13.485 13.238 15.167 14.137 16.095 15.848H20.764C19.459 11.788 15.863 9.497 11.339 9.497ZM39.7758 21.967C39.7758 16.892 36.1508 13.673 31.5108 13.673C26.8708 13.673 23.2458 16.892 23.2458 21.967C23.2458 27.013 26.7548 30.261 31.3948 30.261C36.0638 30.261 39.7758 27.013 39.7758 21.967ZM27.3638 21.967C27.3638 18.748 29.3068 17.211 31.4528 17.211C33.5988 17.211 35.5998 18.748 35.5998 21.967C35.5998 25.157 33.5408 26.723 31.3948 26.723C29.2198 26.723 27.3638 25.157 27.3638 21.967Z" transform="translate(70.5 300.5)" fill="white"/>
<ellipse cx="5.5" cy="6" rx="5.5" ry="6" transform="translate(97 317)" fill="white"/>
<path d="M0 0L10 5.7735V-5.7735L0 0ZM191 0L181 -5.7735V5.7735L191 0ZM4.47656 1H7.46094V-1H4.47656V1ZM10.4453 1H13.4297V-1H10.4453V1ZM16.4141 1H19.3984V-1H16.4141V1ZM22.3828 1H25.3672V-1H22.3828V1ZM28.3516 1H31.3359V-1H28.3516V1ZM34.3203 1H37.3047V-1H34.3203V1ZM40.2891 1H43.2734V-1H40.2891V1ZM46.2578 1H49.2422V-1H46.2578V1ZM52.2266 1H55.2109V-1H52.2266V1ZM58.1953 1H61.1797V-1H58.1953V1ZM64.1641 1H67.1484V-1H64.1641V1ZM70.1328 1H73.1172V-1H70.1328V1ZM76.1016 1H79.0859V-1H76.1016V1ZM82.0703 1H85.0547V-1H82.0703V1ZM88.0391 1H91.0234V-1H88.0391V1ZM94.0078 1H96.9922V-1H94.0078V1ZM99.9766 1H102.961V-1H99.9766V1ZM105.945 1H108.93V-1H105.945V1ZM111.914 1H114.898V-1H111.914V1ZM117.883 1H120.867V-1H117.883V1ZM123.852 1H126.836V-1H123.852V1ZM129.82 1H132.805V-1H129.82V1ZM135.789 1H138.773V-1H135.789V1ZM141.758 1H144.742V-1H141.758V1ZM147.727 1H150.711V-1H147.727V1ZM153.695 1H156.68V-1H153.695V1ZM159.664 1H162.648V-1H159.664V1ZM165.633 1H168.617V-1H165.633V1ZM171.602 1H174.586V-1H171.602V1ZM177.57 1H180.555V-1H177.57V1ZM183.539 1H186.523V-1H183.539V1Z" transform="translate(949 471) scale(1 -1) rotate(90)" fill="#FFF7AD"/>
<ellipse opacity="0.85" cx="7.34778" cy="7.22222" rx="7.34778" ry="7.22222" transform="translate(941.777 438) rotate(-90)" fill="#FFD600" fill-opacity="0.68"/>
<ellipse opacity="0.85" cx="7.34778" cy="7.22222" rx="7.34778" ry="7.22222" transform="translate(941.777 386) rotate(-90)" fill="#FFF388" fill-opacity="0.73"/>
<ellipse opacity="0.85" cx="7.91299" cy="7.77778" rx="7.91299" ry="7.77778" transform="translate(941.223 375.826) rotate(-90)" fill="#FFDB80" fill-opacity="0.86"/>
<ellipse opacity="0.85" cx="10.1738" cy="10" rx="10.1738" ry="10" transform="translate(939 367.348) rotate(-90)" fill="#FFDE30" fill-opacity="0.79"/>
<circle cx="27.5" cy="27.5" r="27.5" transform="translate(922 349) rotate(-90)" fill="url(#paint18_linear)"/>
<path d="M11.339 9.497C5.481 9.497 1.015 13.789 1.015 19.85C1.015 25.911 5.481 30.174 11.368 30.174C16.762 30.174 20.445 26.404 21.257 22.286V18.748H10.295V21.851H17.255C16.646 24.722 14.645 26.52 11.513 26.52C7.743 26.52 5.191 23.968 5.191 19.85C5.191 15.819 7.714 13.238 11.339 13.238C13.485 13.238 15.167 14.137 16.095 15.848H20.764C19.459 11.788 15.863 9.497 11.339 9.497ZM39.7758 21.967C39.7758 16.892 36.1508 13.673 31.5108 13.673C26.8708 13.673 23.2458 16.892 23.2458 21.967C23.2458 27.013 26.7548 30.261 31.3948 30.261C36.0638 30.261 39.7758 27.013 39.7758 21.967ZM27.3638 21.967C27.3638 18.748 29.3068 17.211 31.4528 17.211C33.5988 17.211 35.5998 18.748 35.5998 21.967C35.5998 25.157 33.5408 26.723 31.3948 26.723C29.2198 26.723 27.3638 25.157 27.3638 21.967Z" transform="translate(929.5 300.5)" fill="white"/>
<circle cx="5.5" cy="5.5" r="5.5" transform="translate(956 317)" fill="white"/>
<path d="M5.67397 1.21062C6.07097 0.628781 6.92903 0.628781 7.32603 1.21062L11.0623 6.68638C11.5152 7.35016 11.0398 8.25 10.2362 8.25H2.76376C1.96019 8.25 1.48482 7.35016 1.93773 6.68638L5.67397 1.21062Z" transform="translate(967 316) rotate(90)" fill="#FF7914"/>
<path d="M2.52 10.51V6.67H4.53C6.09 6.67 6.75 7.39 6.75 8.605C6.75 9.775 6.09 10.51 4.53 10.51H2.52ZM8.145 8.605C8.145 6.895 6.99 5.545 4.53 5.545H1.155V16H2.52V11.635H4.53C7.125 11.635 8.145 10.195 8.145 8.605ZM15.4365 8.62C15.4365 9.79 14.7615 10.63 13.2165 10.63H11.2065V6.67H13.2165C14.7765 6.67 15.4365 7.435 15.4365 8.62ZM9.84152 5.545V16H11.2065V11.725H12.8565L15.3465 16H16.9815L14.3565 11.62C16.1115 11.23 16.8465 9.955 16.8465 8.62C16.8465 6.91 15.6765 5.545 13.2165 5.545H9.84152ZM28.9575 10.765C28.9575 7.63 26.6625 5.425 23.7075 5.425C20.7675 5.425 18.4575 7.63 18.4575 10.765C18.4575 13.9 20.7675 16.105 23.7075 16.105C26.6625 16.105 28.9575 13.9 28.9575 10.765ZM19.8525 10.765C19.8525 8.2 21.5025 6.61 23.7075 6.61C25.9125 6.61 27.5625 8.2 27.5625 10.765C27.5625 13.315 25.9125 14.92 23.7075 14.92C21.5025 14.92 19.8525 13.315 19.8525 10.765ZM30.7595 16H32.1245V8.245L35.5895 16H36.5495L39.9995 8.26V16H41.3645V5.62H39.9095L36.0695 14.2L32.2295 5.62H30.7595V16ZM53.6694 10.765C53.6694 7.63 51.3744 5.425 48.4194 5.425C45.4794 5.425 43.1694 7.63 43.1694 10.765C43.1694 13.9 45.4794 16.105 48.4194 16.105C51.3744 16.105 53.6694 13.9 53.6694 10.765ZM44.5644 10.765C44.5644 8.2 46.2144 6.61 48.4194 6.61C50.6244 6.61 52.2744 8.2 52.2744 10.765C52.2744 13.315 50.6244 14.92 48.4194 14.92C46.2144 14.92 44.5644 13.315 44.5644 10.765ZM54.8264 6.655H57.6914V16H59.0564V6.655H61.9064V5.545H54.8264V6.655ZM63.5866 16H64.9516V5.545H63.5866V16ZM77.268 10.765C77.268 7.63 74.973 5.425 72.018 5.425C69.078 5.425 66.768 7.63 66.768 10.765C66.768 13.9 69.078 16.105 72.018 16.105C74.973 16.105 77.268 13.9 77.268 10.765ZM68.163 10.765C68.163 8.2 69.813 6.61 72.018 6.61C74.223 6.61 75.873 8.2 75.873 10.765C75.873 13.315 74.223 14.92 72.018 14.92C69.813 14.92 68.163 13.315 68.163 10.765ZM85.925 5.53V13.84L80.435 5.53H79.07V16H80.435V7.675L85.925 16H87.29V5.53H85.925Z" transform="translate(108 473) rotate(-90)" fill="white"/>
<path d="M53.5061 0V-0.5H53.2677L53.1177 -0.314875L53.5061 0ZM711.641 0L711.987 -0.36087L711.842 -0.5H711.641V0ZM777 62.6803L775.389 57.136L771.393 61.303L777 62.6803ZM0.388399 66.3149L1.34386 65.1363L0.567066 64.5066L-0.388399 65.6851L0.388399 66.3149ZM3.2548 62.7792L5.16573 60.422L4.38893 59.7923L2.478 62.1494L3.2548 62.7792ZM7.07666 58.0649L8.98759 55.7077L8.21079 55.078L6.29986 57.4351L7.07666 58.0649ZM10.8985 53.3506L12.8094 50.9934L12.0326 50.3637L10.1217 52.7208L10.8985 53.3506ZM14.7204 48.6363L16.6313 46.2792L15.8545 45.6494L13.9436 48.0066L14.7204 48.6363ZM18.5422 43.922L20.4532 41.5649L19.6764 40.9351L17.7654 43.2923L18.5422 43.922ZM22.3641 39.2077L24.275 36.8506L23.4982 36.2208L21.5873 38.578L22.3641 39.2077ZM26.186 34.4934L28.0969 32.1363L27.3201 31.5066L25.4092 33.8637L26.186 34.4934ZM30.0078 29.7792L31.9188 27.422L31.142 26.7923L29.231 29.1494L30.0078 29.7792ZM33.8297 25.0649L35.7406 22.7077L34.9638 22.078L33.0529 24.4351L33.8297 25.0649ZM37.6515 20.3506L39.5625 17.9934L38.7857 17.3637L36.8747 19.7208L37.6515 20.3506ZM41.4734 15.6363L43.3843 13.2792L42.6075 12.6494L40.6966 15.0066L41.4734 15.6363ZM45.2953 10.922L47.2062 8.56488L46.4294 7.93513L44.5185 10.2923L45.2953 10.922ZM49.1171 6.20773L51.0281 3.85059L50.2513 3.22084L48.3403 5.57798L49.1171 6.20773ZM52.939 1.49345L53.8945 0.314875L53.1177 -0.314875L52.1622 0.863699L52.939 1.49345ZM53.5061 0.5H55.031V-0.5H53.5061V0.5ZM58.0809 0.5H61.1308V-0.5H58.0809V0.5ZM64.1807 0.5H67.2306V-0.5H64.1807V0.5ZM70.2805 0.5H73.3304V-0.5H70.2805V0.5ZM76.3803 0.5H79.4302V-0.5H76.3803V0.5ZM82.4801 0.5H85.53V-0.5H82.4801V0.5ZM88.5799 0.5H91.6298V-0.5H88.5799V0.5ZM94.6797 0.5H97.7296V-0.5H94.6797V0.5ZM100.779 0.5H103.829V-0.5H100.779V0.5ZM106.879 0.5H109.929V-0.5H106.879V0.5ZM112.979 0.5H116.029V-0.5H112.979V0.5ZM119.079 0.5H122.129V-0.5H119.079V0.5ZM125.179 0.5H128.229V-0.5H125.179V0.5ZM131.278 0.5H134.328V-0.5H131.278V0.5ZM137.378 0.5H140.428V-0.5H137.378V0.5ZM143.478 0.5H146.528V-0.5H143.478V0.5ZM149.578 0.5H152.628V-0.5H149.578V0.5ZM155.678 0.5H158.728V-0.5H155.678V0.5ZM161.777 0.5H164.827V-0.5H161.777V0.5ZM167.877 0.5H170.927V-0.5H167.877V0.5ZM173.977 0.5H177.027V-0.5H173.977V0.5ZM180.077 0.5H183.127V-0.5H180.077V0.5ZM186.177 0.5H189.227V-0.5H186.177V0.5ZM192.276 0.5H195.326V-0.5H192.276V0.5ZM198.376 0.5H201.426V-0.5H198.376V0.5ZM204.476 0.5H207.526V-0.5H204.476V0.5ZM210.576 0.5H213.626V-0.5H210.576V0.5ZM216.676 0.5H219.726V-0.5H216.676V0.5ZM222.775 0.5H225.825V-0.5H222.775V0.5ZM228.875 0.5H231.925V-0.5H228.875V0.5ZM234.975 0.5H236.5V-0.5H234.975V0.5ZM236.5 0.5H238.004V-0.5H236.5V0.5ZM241.011 0.5H244.018V-0.5H241.011V0.5ZM247.025 0.5H250.033V-0.5H247.025V0.5ZM253.04 0.5H256.047V-0.5H253.04V0.5ZM259.054 0.5H262.061V-0.5H259.054V0.5ZM265.069 0.5H268.076V-0.5H265.069V0.5ZM271.083 0.5H274.09V-0.5H271.083V0.5ZM277.098 0.5H280.105V-0.5H277.098V0.5ZM283.112 0.5H286.119V-0.5H283.112V0.5ZM289.126 0.5H292.134V-0.5H289.126V0.5ZM295.141 0.5H298.148V-0.5H295.141V0.5ZM301.155 0.5H304.163V-0.5H301.155V0.5ZM307.17 0.5H310.177V-0.5H307.17V0.5ZM313.184 0.5H316.191V-0.5H313.184V0.5ZM319.199 0.5H322.206V-0.5H319.199V0.5ZM325.213 0.5H328.22V-0.5H325.213V0.5ZM331.228 0.5H334.235V-0.5H331.228V0.5ZM337.242 0.5H340.249V-0.5H337.242V0.5ZM343.256 0.5H346.264V-0.5H343.256V0.5ZM349.271 0.5H352.278V-0.5H349.271V0.5ZM355.285 0.5H358.293V-0.5H355.285V0.5ZM361.3 0.5H364.307V-0.5H361.3V0.5ZM367.314 0.5H370.321V-0.5H367.314V0.5ZM373.329 0.5H376.336V-0.5H373.329V0.5ZM379.343 0.5H382.35V-0.5H379.343V0.5ZM385.358 0.5H388.365V-0.5H385.358V0.5ZM391.372 0.5H394.379V-0.5H391.372V0.5ZM397.386 0.5H400.394V-0.5H397.386V0.5ZM403.401 0.5H406.408V-0.5H403.401V0.5ZM409.415 0.5H412.423V-0.5H409.415V0.5ZM415.43 0.5H418.437V-0.5H415.43V0.5ZM421.444 0.5H424.451V-0.5H421.444V0.5ZM427.459 0.5H430.466V-0.5H427.459V0.5ZM433.473 0.5H436.48V-0.5H433.473V0.5ZM439.488 0.5H442.495V-0.5H439.488V0.5ZM445.502 0.5H448.509V-0.5H445.502V0.5ZM451.517 0.5H454.524V-0.5H451.517V0.5ZM457.531 0.5H460.538V-0.5H457.531V0.5ZM463.545 0.5H466.553V-0.5H463.545V0.5ZM469.56 0.5H472.567V-0.5H469.56V0.5ZM475.574 0.5H478.582V-0.5H475.574V0.5ZM481.589 0.5H484.596V-0.5H481.589V0.5ZM487.603 0.5H490.61V-0.5H487.603V0.5ZM493.618 0.5H496.625V-0.5H493.618V0.5ZM499.632 0.5H502.639V-0.5H499.632V0.5ZM505.647 0.5H508.654V-0.5H505.647V0.5ZM511.661 0.5H514.668V-0.5H511.661V0.5ZM517.675 0.5H520.683V-0.5H517.675V0.5ZM523.69 0.5H526.697V-0.5H523.69V0.5ZM529.704 0.5H532.712V-0.5H529.704V0.5ZM535.719 0.5H538.726V-0.5H535.719V0.5ZM541.733 0.5H544.74V-0.5H541.733V0.5ZM547.748 0.5H550.755V-0.5H547.748V0.5ZM553.762 0.5H556.769V-0.5H553.762V0.5ZM559.777 0.5H562.784V-0.5H559.777V0.5ZM565.791 0.5H568.798V-0.5H565.791V0.5ZM571.805 0.5H574.813V-0.5H571.805V0.5ZM577.82 0.5H580.827V-0.5H577.82V0.5ZM583.834 0.5H586.842V-0.5H583.834V0.5ZM589.849 0.5H592.856V-0.5H589.849V0.5ZM595.863 0.5H598.87V-0.5H595.863V0.5ZM601.878 0.5H604.885V-0.5H601.878V0.5ZM607.892 0.5H610.899V-0.5H607.892V0.5ZM613.907 0.5H616.914V-0.5H613.907V0.5ZM619.921 0.5H622.928V-0.5H619.921V0.5ZM625.935 0.5H628.943V-0.5H625.935V0.5ZM631.95 0.5H634.957V-0.5H631.95V0.5ZM637.964 0.5H640.972V-0.5H637.964V0.5ZM643.979 0.5H646.986V-0.5H643.979V0.5ZM649.993 0.5H653V-0.5H649.993V0.5ZM656.008 0.5H659.015V-0.5H656.008V0.5ZM662.022 0.5H665.029V-0.5H662.022V0.5ZM668.037 0.5H671.044V-0.5H668.037V0.5ZM674.051 0.5H677.058V-0.5H674.051V0.5ZM680.065 0.5H683.073V-0.5H680.065V0.5ZM686.08 0.5H689.087V-0.5H686.08V0.5ZM692.094 0.5H695.102V-0.5H692.094V0.5ZM698.109 0.5H701.116V-0.5H698.109V0.5ZM704.123 0.5H707.131V-0.5H704.123V0.5ZM710.138 0.5H711.641V-0.5H710.138V0.5ZM711.295 0.36087L712.385 1.40554L713.077 0.683802L711.987 -0.36087L711.295 0.36087ZM714.563 3.49489L716.742 5.58423L717.434 4.86249L715.255 2.77315L714.563 3.49489ZM718.92 7.67357L721.099 9.76292L721.791 9.04118L719.613 6.95183L718.92 7.67357ZM723.278 11.8523L725.456 13.9416L726.148 13.2199L723.97 11.1305L723.278 11.8523ZM727.635 16.031L729.814 18.1203L730.506 17.3986L728.327 15.3092L727.635 16.031ZM731.992 20.2096L734.171 22.299L734.863 21.5772L732.684 19.4879L731.992 20.2096ZM736.349 24.3883L738.528 26.4777L739.22 25.7559L737.042 23.6666L736.349 24.3883ZM740.707 28.567L742.885 30.6564L743.577 29.9346L741.399 27.8453L740.707 28.567ZM745.064 32.7457L747.243 34.835L747.935 34.1133L745.756 32.024L745.064 32.7457ZM749.421 36.9244L751.6 39.0137L752.292 38.292L750.113 36.2027L749.421 36.9244ZM753.778 41.1031L755.957 43.1924L756.649 42.4707L754.471 40.3813L753.778 41.1031ZM758.136 45.2818L760.314 47.3711L761.006 46.6494L758.828 44.56L758.136 45.2818ZM762.493 49.4605L764.672 51.5498L765.364 50.8281L763.185 48.7387L762.493 49.4605ZM766.85 53.6391L769.029 55.7285L769.721 55.0068L767.542 52.9174L766.85 53.6391ZM771.207 57.8178L773.386 59.9072L774.078 59.1854L771.9 57.0961L771.207 57.8178Z" transform="translate(124 34)" fill="#FFF3B4"/>
<path d="M0.645 10.765C0.645 13.9 2.94 16.09 5.865 16.09C8.13 16.09 9.93 14.965 10.71 12.955H9.075C8.505 14.2 7.395 14.905 5.865 14.905C3.675 14.905 2.04 13.315 2.04 10.765C2.04 8.2 3.675 6.61 5.865 6.61C7.395 6.61 8.505 7.315 9.075 8.575H10.71C9.93 6.55 8.13 5.41 5.865 5.41C2.94 5.41 0.645 7.63 0.645 10.765ZM22.7319 10.765C22.7319 7.63 20.4369 5.425 17.4819 5.425C14.5419 5.425 12.2319 7.63 12.2319 10.765C12.2319 13.9 14.5419 16.105 17.4819 16.105C20.4369 16.105 22.7319 13.9 22.7319 10.765ZM13.6269 10.765C13.6269 8.2 15.2769 6.61 17.4819 6.61C19.6869 6.61 21.3369 8.2 21.3369 10.765C21.3369 13.315 19.6869 14.92 17.4819 14.92C15.2769 14.92 13.6269 13.315 13.6269 10.765ZM31.3889 5.53V13.84L25.8989 5.53H24.5339V16H25.8989V7.675L31.3889 16H32.7539V5.53H31.3889ZM34.4358 6.655H37.3008V16H38.6658V6.655H41.5158V5.545H34.4358V6.655ZM48.821 5.53H43.196V16H48.821V14.875H44.561V11.275H48.371V10.15H44.561V6.655H48.821V5.53ZM57.7414 5.53V13.84L52.2514 5.53H50.8864V16H52.2514V7.675L57.7414 16H59.1064V5.53H57.7414ZM60.7883 6.655H63.6533V16H65.0183V6.655H67.8683V5.545H60.7883V6.655Z" transform="translate(478)" fill="white"/>
<path d="M0 21L2.88675 16H-2.88675L0 21ZM-0.5 0V1.3125H0.5V0H-0.5ZM-0.5 3.9375V6.5625H0.5V3.9375H-0.5ZM-0.5 9.1875V11.8125H0.5V9.1875H-0.5ZM-0.5 14.4375V17.0625H0.5V14.4375H-0.5Z" transform="translate(526 311) rotate(-180)" fill="#FFF3B4"/>
<path d="M51.9911 0V-0.5H51.7603L51.6106 -0.324335L51.9911 0ZM691.492 0L691.828 -0.370127L691.685 -0.5H691.492V0ZM755 57.6803L753.24 52.1818L749.358 56.4556L755 57.6803ZM0.380535 61.3243L1.38036 60.1513L0.619294 59.5026L-0.380535 60.6757L0.380535 61.3243ZM3.38002 57.8051L5.37968 55.459L4.61861 54.8103L2.61895 57.1564L3.38002 57.8051ZM7.37934 53.1128L9.37899 50.7666L8.61792 50.118L6.61827 52.4641L7.37934 53.1128ZM11.3786 48.4205L13.3783 46.0743L12.6172 45.4257L10.6176 47.7718L11.3786 48.4205ZM15.378 43.7282L17.3776 41.382L16.6166 40.7334L14.6169 43.0795L15.378 43.7282ZM19.3773 39.0359L21.3769 36.6897L20.6159 36.041L18.6162 38.3872L19.3773 39.0359ZM23.3766 34.3436L25.3762 31.9974L24.6152 31.3487L22.6155 33.6949L23.3766 34.3436ZM27.3759 29.6513L29.3756 27.3051L28.6145 26.6564L26.6148 29.0026L27.3759 29.6513ZM31.3752 24.959L33.3749 22.6128L32.6138 21.9641L30.6142 24.3103L31.3752 24.959ZM35.3745 20.2666L37.3742 17.9205L36.6131 17.2718L34.6135 19.618L35.3745 20.2666ZM39.3739 15.5743L41.3735 13.2282L40.6124 12.5795L38.6128 14.9257L39.3739 15.5743ZM43.3732 10.882L45.3728 8.53588L44.6118 7.88721L42.6121 10.2334L43.3732 10.882ZM47.3725 6.18972L49.3721 3.84357L48.6111 3.1949L46.6114 5.54105L47.3725 6.18972ZM51.3718 1.49741L52.3716 0.324335L51.6106 -0.324335L50.6107 0.848744L51.3718 1.49741ZM51.9911 0.5H53.4729V-0.5H51.9911V0.5ZM56.4364 0.5H59.3999V-0.5H56.4364V0.5ZM62.3635 0.5H65.327V-0.5H62.3635V0.5ZM68.2906 0.5H71.2541V-0.5H68.2906V0.5ZM74.2177 0.5H77.1812V-0.5H74.2177V0.5ZM80.1448 0.5H83.1083V-0.5H80.1448V0.5ZM86.0718 0.5H89.0354V-0.5H86.0718V0.5ZM91.9989 0.5H94.9625V-0.5H91.9989V0.5ZM97.926 0.5H100.89V-0.5H97.926V0.5ZM103.853 0.5H106.817V-0.5H103.853V0.5ZM109.78 0.5H112.744V-0.5H109.78V0.5ZM115.707 0.5H118.671V-0.5H115.707V0.5ZM121.634 0.5H124.598V-0.5H121.634V0.5ZM127.561 0.5H130.525V-0.5H127.561V0.5ZM133.489 0.5H136.452V-0.5H133.489V0.5ZM139.416 0.5H142.379V-0.5H139.416V0.5ZM145.343 0.5H148.306V-0.5H145.343V0.5ZM151.27 0.5H154.233V-0.5H151.27V0.5ZM157.197 0.5H160.16V-0.5H157.197V0.5ZM163.124 0.5H166.088V-0.5H163.124V0.5ZM169.051 0.5H172.015V-0.5H169.051V0.5ZM174.978 0.5H177.942V-0.5H174.978V0.5ZM180.905 0.5H183.869V-0.5H180.905V0.5ZM186.832 0.5H189.796V-0.5H186.832V0.5ZM192.759 0.5H195.723V-0.5H192.759V0.5ZM198.687 0.5H201.65V-0.5H198.687V0.5ZM204.614 0.5H207.577V-0.5H204.614V0.5ZM210.541 0.5H213.504V-0.5H210.541V0.5ZM216.468 0.5H219.431V-0.5H216.468V0.5ZM222.395 0.5H225.358V-0.5H222.395V0.5ZM228.322 0.5H229.804V-0.5H228.322V0.5ZM229.804 0.5H231.303V-0.5H229.804V0.5ZM234.301 0.5H237.299V-0.5H234.301V0.5ZM240.297 0.5H243.295V-0.5H240.297V0.5ZM246.293 0.5H249.291V-0.5H246.293V0.5ZM252.289 0.5H255.287V-0.5H252.289V0.5ZM258.284 0.5H261.282V-0.5H258.284V0.5ZM264.28 0.5H267.278V-0.5H264.28V0.5ZM270.276 0.5H273.274V-0.5H270.276V0.5ZM276.272 0.5H279.27V-0.5H276.272V0.5ZM282.268 0.5H285.266V-0.5H282.268V0.5ZM288.264 0.5H291.262V-0.5H288.264V0.5ZM294.26 0.5H297.258V-0.5H294.26V0.5ZM300.256 0.5H303.254V-0.5H300.256V0.5ZM306.252 0.5H309.25V-0.5H306.252V0.5ZM312.248 0.5H315.246V-0.5H312.248V0.5ZM318.244 0.5H321.242V-0.5H318.244V0.5ZM324.24 0.5H327.238V-0.5H324.24V0.5ZM330.236 0.5H333.234V-0.5H330.236V0.5ZM336.232 0.5H339.23V-0.5H336.232V0.5ZM342.228 0.5H345.226V-0.5H342.228V0.5ZM348.224 0.5H351.222V-0.5H348.224V0.5ZM354.22 0.5H357.218V-0.5H354.22V0.5ZM360.216 0.5H363.214V-0.5H360.216V0.5ZM366.212 0.5H369.21V-0.5H366.212V0.5ZM372.208 0.5H375.206V-0.5H372.208V0.5ZM378.204 0.5H381.201V-0.5H378.204V0.5ZM384.199 0.5H387.197V-0.5H384.199V0.5ZM390.195 0.5H393.193V-0.5H390.195V0.5ZM396.191 0.5H399.189V-0.5H396.191V0.5ZM402.187 0.5H405.185V-0.5H402.187V0.5ZM408.183 0.5H411.181V-0.5H408.183V0.5ZM414.179 0.5H417.177V-0.5H414.179V0.5ZM420.175 0.5H423.173V-0.5H420.175V0.5ZM426.171 0.5H429.169V-0.5H426.171V0.5ZM432.167 0.5H435.165V-0.5H432.167V0.5ZM438.163 0.5H441.161V-0.5H438.163V0.5ZM444.159 0.5H447.157V-0.5H444.159V0.5ZM450.155 0.5H453.153V-0.5H450.155V0.5ZM456.151 0.5H459.149V-0.5H456.151V0.5ZM462.147 0.5H465.145V-0.5H462.147V0.5ZM468.143 0.5H471.141V-0.5H468.143V0.5ZM474.139 0.5H477.137V-0.5H474.139V0.5ZM480.135 0.5H483.133V-0.5H480.135V0.5ZM486.131 0.5H489.129V-0.5H486.131V0.5ZM492.127 0.5H495.125V-0.5H492.127V0.5ZM498.123 0.5H501.121V-0.5H498.123V0.5ZM504.118 0.5H507.116V-0.5H504.118V0.5ZM510.114 0.5H513.112V-0.5H510.114V0.5ZM516.11 0.5H519.108V-0.5H516.11V0.5ZM522.106 0.5H525.104V-0.5H522.106V0.5ZM528.102 0.5H531.1V-0.5H528.102V0.5ZM534.098 0.5H537.096V-0.5H534.098V0.5ZM540.094 0.5H543.092V-0.5H540.094V0.5ZM546.09 0.5H549.088V-0.5H546.09V0.5ZM552.086 0.5H555.084V-0.5H552.086V0.5ZM558.082 0.5H561.08V-0.5H558.082V0.5ZM564.078 0.5H567.076V-0.5H564.078V0.5ZM570.074 0.5H573.072V-0.5H570.074V0.5ZM576.07 0.5H579.068V-0.5H576.07V0.5ZM582.066 0.5H585.064V-0.5H582.066V0.5ZM588.062 0.5H591.06V-0.5H588.062V0.5ZM594.058 0.5H597.056V-0.5H594.058V0.5ZM600.054 0.5H603.052V-0.5H600.054V0.5ZM606.05 0.5H609.048V-0.5H606.05V0.5ZM612.046 0.5H615.044V-0.5H612.046V0.5ZM618.042 0.5H621.04V-0.5H618.042V0.5ZM624.037 0.5H627.035V-0.5H624.037V0.5ZM630.033 0.5H633.031V-0.5H630.033V0.5ZM636.029 0.5H639.027V-0.5H636.029V0.5ZM642.025 0.5H645.023V-0.5H642.025V0.5ZM648.021 0.5H651.019V-0.5H648.021V0.5ZM654.017 0.5H657.015V-0.5H654.017V0.5ZM660.013 0.5H663.011V-0.5H660.013V0.5ZM666.009 0.5H669.007V-0.5H666.009V0.5ZM672.005 0.5H675.003V-0.5H672.005V0.5ZM678.001 0.5H680.999V-0.5H678.001V0.5ZM683.997 0.5H686.995V-0.5H683.997V0.5ZM689.993 0.5H691.492V-0.5H689.993V0.5ZM691.156 0.370127L692.29 1.40013L692.962 0.659878L691.828 -0.370127L691.156 0.370127ZM694.558 3.46014L696.826 5.52016L697.498 4.7799L695.23 2.71989L694.558 3.46014ZM699.094 7.58017L701.362 9.64018L702.035 8.89993L699.767 6.83991L699.094 7.58017ZM703.631 11.7002L705.899 13.7602L706.571 13.0199L704.303 10.9599L703.631 11.7002ZM708.167 15.8202L710.435 17.8802L711.107 17.14L708.839 15.08L708.167 15.8202ZM712.703 19.9402L714.971 22.0002L715.644 21.26L713.375 19.2L712.703 19.9402ZM717.239 24.0603L719.508 26.1203L720.18 25.38L717.912 23.32L717.239 24.0603ZM721.776 28.1803L724.044 30.2403L724.716 29.5L722.448 27.44L721.776 28.1803ZM726.312 32.3003L728.58 34.3603L729.253 33.6201L726.984 31.5601L726.312 32.3003ZM730.848 36.4203L733.116 38.4803L733.789 37.7401L731.521 35.6801L730.848 36.4203ZM735.385 40.5404L737.653 42.6004L738.325 41.8601L736.057 39.8001L735.385 40.5404ZM739.921 44.6604L742.189 46.7204L742.861 45.9801L740.593 43.9201L739.921 44.6604ZM744.457 48.7804L746.725 50.8404L747.398 50.1002L745.13 48.0401L744.457 48.7804ZM748.993 52.9004L751.262 54.9604L751.934 54.2202L749.666 52.1602L748.993 52.9004Z" transform="translate(890 348) rotate(-180)" fill="#FFF3B4"/>
<ellipse opacity="0.85" cx="7.34778" cy="7.22222" rx="7.34778" ry="7.22222" transform="translate(612 340.778) scale(-1 1)" fill="#FFEF9B" fill-opacity="0.81"/>
<ellipse opacity="0.85" cx="7.91299" cy="7.77778" rx="7.91299" ry="7.77778" transform="translate(601.826 340.222) scale(-1 1)" fill="#FFC580" fill-opacity="0.86"/>
<ellipse opacity="0.85" cx="10.1738" cy="10" rx="10.1738" ry="10" transform="translate(585.348 338) scale(-1 1)" fill="#FFF612" fill-opacity="0.57"/>
<ellipse opacity="0.85" cx="7.34778" cy="7.22222" rx="7.34778" ry="7.22222" transform="translate(489 340.778) scale(-1 1)" fill="#FFDC82" fill-opacity="0.91"/>
<ellipse opacity="0.85" cx="7.91299" cy="7.77778" rx="7.91299" ry="7.77778" transform="translate(478.826 340.222) scale(-1 1)" fill="#FFC580" fill-opacity="0.86"/>
<ellipse opacity="0.85" cx="10.1738" cy="10" rx="10.1738" ry="10" transform="translate(470.348 338) scale(-1 1)" fill="#FFF730" fill-opacity="0.66"/>
<circle cx="27.5" cy="27.5" r="27.5" transform="translate(552 321) scale(-1 1)" fill="url(#paint19_linear)"/>
<path d="M11.339 9.497C5.481 9.497 1.015 13.789 1.015 19.85C1.015 25.911 5.481 30.174 11.368 30.174C16.762 30.174 20.445 26.404 21.257 22.286V18.748H10.295V21.851H17.255C16.646 24.722 14.645 26.52 11.513 26.52C7.743 26.52 5.191 23.968 5.191 19.85C5.191 15.819 7.714 13.238 11.339 13.238C13.485 13.238 15.167 14.137 16.095 15.848H20.764C19.459 11.788 15.863 9.497 11.339 9.497ZM39.7758 21.967C39.7758 16.892 36.1508 13.673 31.5108 13.673C26.8708 13.673 23.2458 16.892 23.2458 21.967C23.2458 27.013 26.7548 30.261 31.3948 30.261C36.0638 30.261 39.7758 27.013 39.7758 21.967ZM27.3638 21.967C27.3638 18.748 29.3068 17.211 31.4528 17.211C33.5988 17.211 35.5998 18.748 35.5998 21.967C35.5998 25.157 33.5408 26.723 31.3948 26.723C29.2198 26.723 27.3638 25.157 27.3638 21.967Z" transform="translate(505 327)" fill="white"/>
<circle cx="5" cy="5" r="5" transform="translate(461 353) scale(1 -1)" fill="#FFF614" fill-opacity="0.88"/>
<path d="M316.813 0H317.313V-0.5H316.813V0ZM316.813 126L319.699 121H313.926L316.813 126ZM0 0.5H1.4944V-0.5H0V0.5ZM4.4832 0.5H7.472V-0.5H4.4832V0.5ZM10.4608 0.5H13.4496V-0.5H10.4608V0.5ZM16.4384 0.5H19.4272V-0.5H16.4384V0.5ZM22.416 0.5H25.4048V-0.5H22.416V0.5ZM28.3936 0.5H31.3824V-0.5H28.3936V0.5ZM34.3712 0.5H37.36V-0.5H34.3712V0.5ZM40.3488 0.5H43.3376V-0.5H40.3488V0.5ZM46.3264 0.5H49.3152V-0.5H46.3264V0.5ZM52.304 0.5H55.2928V-0.5H52.304V0.5ZM58.2816 0.5H61.2704V-0.5H58.2816V0.5ZM64.2592 0.5H67.248V-0.5H64.2592V0.5ZM70.2368 0.5H73.2256V-0.5H70.2368V0.5ZM76.2144 0.5H79.2032V-0.5H76.2144V0.5ZM82.192 0.5H85.1808V-0.5H82.192V0.5ZM88.1696 0.5H91.1583V-0.5H88.1696V0.5ZM94.1471 0.5H97.1359V-0.5H94.1471V0.5ZM100.125 0.5H103.114V-0.5H100.125V0.5ZM106.102 0.5H109.091V-0.5H106.102V0.5ZM112.08 0.5H115.069V-0.5H112.08V0.5ZM118.058 0.5H121.046V-0.5H118.058V0.5ZM124.035 0.5H127.024V-0.5H124.035V0.5ZM130.013 0.5H133.002V-0.5H130.013V0.5ZM135.99 0.5H138.979V-0.5H135.99V0.5ZM141.968 0.5H144.957V-0.5H141.968V0.5ZM147.946 0.5H150.934V-0.5H147.946V0.5ZM153.923 0.5H156.912V-0.5H153.923V0.5ZM159.901 0.5H162.89V-0.5H159.901V0.5ZM165.878 0.5H168.867V-0.5H165.878V0.5ZM171.856 0.5H174.845V-0.5H171.856V0.5ZM177.833 0.5H180.822V-0.5H177.833V0.5ZM183.811 0.5H186.8V-0.5H183.811V0.5ZM189.789 0.5H192.777V-0.5H189.789V0.5ZM195.766 0.5H198.755V-0.5H195.766V0.5ZM201.744 0.5H204.733V-0.5H201.744V0.5ZM207.721 0.5H210.71V-0.5H207.721V0.5ZM213.699 0.5H216.688V-0.5H213.699V0.5ZM219.677 0.5H222.665V-0.5H219.677V0.5ZM225.654 0.5H228.643V-0.5H225.654V0.5ZM231.632 0.5H234.621V-0.5H231.632V0.5ZM237.609 0.5H240.598V-0.5H237.609V0.5ZM243.587 0.5H246.576V-0.5H243.587V0.5ZM249.565 0.5H252.553V-0.5H249.565V0.5ZM255.542 0.5H258.531V-0.5H255.542V0.5ZM261.52 0.5H264.509V-0.5H261.52V0.5ZM267.497 0.5H270.486V-0.5H267.497V0.5ZM273.475 0.5H276.464V-0.5H273.475V0.5ZM279.453 0.5H282.441V-0.5H279.453V0.5ZM285.43 0.5H288.419V-0.5H285.43V0.5ZM291.408 0.5H294.397V-0.5H291.408V0.5ZM297.385 0.5H300.374V-0.5H297.385V0.5ZM303.363 0.5H306.352V-0.5H303.363V0.5ZM309.341 0.5H312.329V-0.5H309.341V0.5ZM315.318 0.5H316.813V-0.5H315.318V0.5ZM316.313 0V1.5H317.313V0H316.313ZM316.313 4.5V7.5H317.313V4.5H316.313ZM316.313 10.5V13.5H317.313V10.5H316.313ZM316.313 16.5V19.5H317.313V16.5H316.313ZM316.313 22.5V25.5H317.313V22.5H316.313ZM316.313 28.5V31.5H317.313V28.5H316.313ZM316.313 34.5V37.5H317.313V34.5H316.313ZM316.313 40.5V43.5H317.313V40.5H316.313ZM316.313 46.5V49.5H317.313V46.5H316.313ZM316.313 52.5V55.5H317.313V52.5H316.313ZM316.313 58.5V61.5H317.313V58.5H316.313ZM316.313 64.5V67.5H317.313V64.5H316.313ZM316.313 70.5V73.5H317.313V70.5H316.313ZM316.313 76.5V79.5H317.313V76.5H316.313ZM316.313 82.5V85.5H317.313V82.5H316.313ZM316.313 88.5V91.5H317.313V88.5H316.313ZM316.313 94.5V97.5H317.313V94.5H316.313ZM316.313 100.5V103.5H317.313V100.5H316.313ZM316.313 106.5V109.5H317.313V106.5H316.313ZM316.313 112.5V115.5H317.313V112.5H316.313ZM316.313 118.5V121.5H317.313V118.5H316.313Z" transform="translate(846.812 544) rotate(-180)" fill="#FFF3B4"/>
<circle cx="5" cy="5" r="5" transform="translate(525 462) scale(1 -1)" fill="#FFD914" fill-opacity="0.84"/>
<circle cx="5" cy="5" r="5" transform="translate(525 479) scale(1 -1)" fill="#FF8514" fill-opacity="0.84"/>
<circle cx="10.5" cy="10.5" r="10.5" transform="translate(519 477) scale(1 -1)" fill="#FFF614" fill-opacity="0.43"/>
<circle cx="8.5" cy="8.5" r="8.5" transform="translate(521 488) scale(1 -1)" fill="#FFD914" fill-opacity="0.46"/>
<circle cx="8.5" cy="8.5" r="8.5" transform="translate(521 528) scale(1 -1)" fill="#FFCB14" fill-opacity="0.53"/>
<circle cx="8.5" cy="8.5" r="8.5" transform="translate(521 538) scale(1 -1)" fill="#FFC737" fill-opacity="0.27"/>
<path d="M4.68294 1.15788C5.08135 0.593288 5.91865 0.593287 6.31706 1.15788L9.15064 5.17344C9.61808 5.83587 9.14433 6.75 8.33358 6.75H2.66641C1.85567 6.75 1.38192 5.83587 1.84936 5.17344L4.68294 1.15788Z" transform="translate(107.075 317.062) rotate(90.7843)" fill="#FF8014"/>
<ellipse cx="6" cy="6.5" rx="6" ry="6.5" transform="translate(532 343)" fill="white"/>
<path d="M5.20759 1.02937C5.6079 0.509358 6.3921 0.509358 6.79241 1.02937L9.95678 5.14001C10.463 5.79757 9.99421 6.75 9.16437 6.75H2.83563C2.00579 6.75 1.53702 5.79757 2.04322 5.14001L5.20759 1.02937Z" transform="translate(542 343) rotate(90)" fill="#FF8C14"/>
<defs>
<filter id="filter0_d" x="0" y="105" width="170" height="170" filterUnits="userSpaceOnUse" color-interpolation-filters="sRGB">
<feFlood flood-opacity="0" result="BackgroundImageFix"/>
<feColorMatrix in="SourceAlpha" type="matrix" values="0 0 0 0 0 0 0 0 0 0 0 0 0 0 0 0 0 0 255 0"/>
<feOffset dy="4"/>
<feGaussianBlur stdDeviation="12.5"/>
<feColorMatrix type="matrix" values="0 0 0 0 0.925764 0 0 0 0 0.789825 0 0 0 0 0.238516 0 0 0 0.82 0"/>
<feBlend mode="normal" in2="BackgroundImageFix" result="effect1_dropShadow"/>
<feBlend mode="normal" in="SourceGraphic" in2="effect1_dropShadow" result="shape"/>
</filter>
<filter id="filter1_d" x="865" y="105" width="170" height="170" filterUnits="userSpaceOnUse" color-interpolation-filters="sRGB">
<feFlood flood-opacity="0" result="BackgroundImageFix"/>
<feColorMatrix in="SourceAlpha" type="matrix" values="0 0 0 0 0 0 0 0 0 0 0 0 0 0 0 0 0 0 255 0"/>
<feOffset dy="4"/>
<feGaussianBlur stdDeviation="12.5"/>
<feColorMatrix type="matrix" values="0 0 0 0 0.925764 0 0 0 0 0.789825 0 0 0 0 0.238516 0 0 0 0.82 0"/>
<feBlend mode="normal" in2="BackgroundImageFix" result="effect1_dropShadow"/>
<feBlend mode="normal" in="SourceGraphic" in2="effect1_dropShadow" result="shape"/>
</filter>
<filter id="filter2_d" x="865" y="464" width="170" height="170" filterUnits="userSpaceOnUse" color-interpolation-filters="sRGB">
<feFlood flood-opacity="0" result="BackgroundImageFix"/>
<feColorMatrix in="SourceAlpha" type="matrix" values="0 0 0 0 0 0 0 0 0 0 0 0 0 0 0 0 0 0 255 0"/>
<feOffset dy="4"/>
<feGaussianBlur stdDeviation="12.5"/>
<feColorMatrix type="matrix" values="0 0 0 0 0.925764 0 0 0 0 0.789825 0 0 0 0 0.238516 0 0 0 0.82 0"/>
<feBlend mode="normal" in2="BackgroundImageFix" result="effect1_dropShadow"/>
<feBlend mode="normal" in="SourceGraphic" in2="effect1_dropShadow" result="shape"/>
</filter>
<filter id="filter3_d" x="0" y="464" width="170" height="170" filterUnits="userSpaceOnUse" color-interpolation-filters="sRGB">
<feFlood flood-opacity="0" result="BackgroundImageFix"/>
<feColorMatrix in="SourceAlpha" type="matrix" values="0 0 0 0 0 0 0 0 0 0 0 0 0 0 0 0 0 0 255 0"/>
<feOffset dy="4"/>
<feGaussianBlur stdDeviation="12.5"/>
<feColorMatrix type="matrix" values="0 0 0 0 0.925764 0 0 0 0 0.789825 0 0 0 0 0.238516 0 0 0 0.82 0"/>
<feBlend mode="normal" in2="BackgroundImageFix" result="effect1_dropShadow"/>
<feBlend mode="normal" in="SourceGraphic" in2="effect1_dropShadow" result="shape"/>
</filter>
<linearGradient id="paint0_linear" x2="1" gradientUnits="userSpaceOnUse" gradientTransform="translate(0.129551 75.5303) scale(95.1217) rotate(-54.5349)">
<stop stop-color="#FD5555"/>
<stop offset="1" stop-color="#FEB426"/>
</linearGradient>
<linearGradient id="paint1_linear" x2="1" gradientUnits="userSpaceOnUse" gradientTransform="translate(121.195 26.3529) scale(97.9273) rotate(122.562)">
<stop stop-color="#FFD749"/>
<stop offset="1" stop-color="#FF2525"/>
</linearGradient>
<linearGradient id="paint2_linear" x2="1" gradientUnits="userSpaceOnUse" gradientTransform="translate(76.7962 24.3583) scale(62.1053) rotate(119.358)">
<stop stop-color="#FF6814"/>
<stop offset="1" stop-color="#FF2020"/>
</linearGradient>
<linearGradient id="paint3_linear" x2="1" gradientUnits="userSpaceOnUse" gradientTransform="translate(0.121455 70.8097) scale(89.1766) rotate(-54.5349)">
<stop stop-color="#FD5555"/>
<stop offset="1" stop-color="#FEB426"/>
</linearGradient>
<linearGradient id="paint4_linear" x2="1" gradientUnits="userSpaceOnUse" gradientTransform="translate(113.62 24.7059) scale(91.8069) rotate(122.562)">
<stop stop-color="#FFB649"/>
<stop offset="1" stop-color="#FF2525"/>
</linearGradient>
<linearGradient id="paint5_linear" x2="1" gradientUnits="userSpaceOnUse" gradientTransform="translate(71.9964 22.8359) scale(58.2237) rotate(119.358)">
<stop stop-color="#FF6814"/>
<stop offset="1" stop-color="#FF2020"/>
</linearGradient>
<linearGradient id="paint6_linear" x2="1" gradientUnits="userSpaceOnUse" gradientTransform="translate(0.121455 70.8097) scale(89.1766) rotate(-54.5349)">
<stop stop-color="#FD5555"/>
<stop offset="1" stop-color="#FEB426"/>
</linearGradient>
<linearGradient id="paint7_linear" x2="1" gradientUnits="userSpaceOnUse" gradientTransform="translate(113.62 24.7059) scale(91.8069) rotate(122.562)">
<stop stop-color="#FFB649"/>
<stop offset="1" stop-color="#FF2525"/>
</linearGradient>
<linearGradient id="paint8_linear" x2="1" gradientUnits="userSpaceOnUse" gradientTransform="translate(71.9964 22.8359) scale(58.2237) rotate(119.358)">
<stop stop-color="#FF6814"/>
<stop offset="1" stop-color="#FF2020"/>
</linearGradient>
<linearGradient id="paint9_linear" x2="1" gradientUnits="userSpaceOnUse" gradientTransform="translate(0.121455 70.8097) scale(89.1766) rotate(-54.5349)">
<stop stop-color="#FD5555"/>
<stop offset="1" stop-color="#FEB426"/>
</linearGradient>
<linearGradient id="paint10_linear" x2="1" gradientUnits="userSpaceOnUse" gradientTransform="translate(113.62 24.7059) scale(91.8069) rotate(122.562)">
<stop stop-color="#FFB649"/>
<stop offset="1" stop-color="#FF2525"/>
</linearGradient>
<linearGradient id="paint11_linear" x2="1" gradientUnits="userSpaceOnUse" gradientTransform="translate(71.9964 22.8359) scale(58.2237) rotate(119.358)">
<stop stop-color="#FF6814"/>
<stop offset="1" stop-color="#FF2020"/>
</linearGradient>
<linearGradient id="paint12_linear" x2="1" gradientUnits="userSpaceOnUse" gradientTransform="translate(0.121455 70.8097) scale(89.1766) rotate(-54.5349)">
<stop stop-color="#FD5555"/>
<stop offset="1" stop-color="#FEB426"/>
</linearGradient>
<linearGradient id="paint13_linear" x2="1" gradientUnits="userSpaceOnUse" gradientTransform="translate(113.62 24.7059) scale(91.8069) rotate(122.562)">
<stop stop-color="#FFB649"/>
<stop offset="1" stop-color="#FF2525"/>
</linearGradient>
<linearGradient id="paint14_linear" x2="1" gradientUnits="userSpaceOnUse" gradientTransform="translate(71.9964 22.8359) scale(58.2237) rotate(119.358)">
<stop stop-color="#FF6814"/>
<stop offset="1" stop-color="#FF2020"/>
</linearGradient>
<linearGradient id="paint15_linear" x2="1" gradientUnits="userSpaceOnUse" gradientTransform="translate(61.75 20.25) scale(52.5595) rotate(129.596)">
<stop stop-color="#FFBD14"/>
<stop offset="1" stop-color="#FF6614"/>
</linearGradient>
<linearGradient id="paint16_linear" x2="1" gradientUnits="userSpaceOnUse" gradientTransform="translate(61.75 20.25) scale(52.5595) rotate(129.596)">
<stop stop-color="#FFBD14"/>
<stop offset="1" stop-color="#FF6614"/>
</linearGradient>
<linearGradient id="paint17_linear" x2="1" gradientUnits="userSpaceOnUse" gradientTransform="translate(61.75 20.25) scale(52.5595) rotate(129.596)">
<stop stop-color="#FFBD14"/>
<stop offset="1" stop-color="#FF6614"/>
</linearGradient>
<linearGradient id="paint18_linear" x2="1" gradientUnits="userSpaceOnUse" gradientTransform="translate(61.75 20.25) scale(52.5595) rotate(129.596)">
<stop stop-color="#FFBD14"/>
<stop offset="1" stop-color="#FF6614"/>
</linearGradient>
<linearGradient id="paint19_linear" x2="1" gradientUnits="userSpaceOnUse" gradientTransform="translate(61.75 20.25) scale(52.5595) rotate(129.596)">
<stop stop-color="#FFBD14"/>
<stop offset="1" stop-color="#FF6614"/>
</linearGradient>
</defs>
</svg>
