<svg width="81" height="73" viewBox="0 0 81 73" fill="none" xmlns="http://www.w3.org/2000/svg">
<rect width="81" height="73" rx="12" fill="url(#paint0_linear)"/>
<path d="M3.91837 9.6982L2.78973 8.71019L2.53176 9.00486L2.45078 9.38804L3.91837 9.6982ZM12.4082 0L13.5368 -0.988012L12.4082 -2.2773L11.2795 -0.988012L12.4082 0ZM20.898 9.6982L22.3543 9.33911L22.267 8.98478L22.0266 8.71019L20.898 9.6982ZM12.8435 37L11.9983 38.2391L12.8508 38.8207L13.6987 38.2324L12.8435 37ZM0 28.2387L-1.46758 27.9286L-1.67535 28.9117L-0.845289 29.4779L0 28.2387ZM25.4694 28.2387L26.3245 29.4711L27.173 28.8823L26.9258 27.8796L25.4694 28.2387ZM5.04701 10.6862L13.5368 0.988012L11.2795 -0.988012L2.78973 8.71019L5.04701 10.6862ZM11.2795 0.988012L19.7693 10.6862L22.0266 8.71019L13.5368 -0.988012L11.2795 0.988012ZM19.4593 9.27376L11.4048 36.5756L14.2822 37.4244L22.3367 10.1226L19.4593 9.27376ZM14.2693 36.5339L5.34412 9.23211L2.49262 10.1643L11.4178 37.4661L14.2693 36.5339ZM2.45078 9.38804L-1.46758 27.9286L1.46758 28.5489L5.38595 10.0084L2.45078 9.38804ZM-0.845289 29.4779L11.9983 38.2391L13.6888 35.7609L0.845289 26.9996L-0.845289 29.4779ZM13.6987 38.2324L26.3245 29.4711L24.6142 27.0064L11.9884 35.7676L13.6987 38.2324ZM26.9258 27.8796L22.3543 9.33911L19.4416 10.0573L24.013 28.5978L26.9258 27.8796Z" transform="translate(28.001 18.0002)" fill="white"/>
<defs>
<linearGradient id="paint0_linear" x2="1" gradientUnits="userSpaceOnUse" gradientTransform="matrix(69.1099 63.8692 -70.8686 954.375 44.3124 -477.188)">
<stop stop-color="#FF0E00"/>
<stop offset="1" stop-color="#FF6535"/>
</linearGradient>
</defs>
</svg>
