<svg width="1280" height="2853" viewBox="0 0 1280 2853" fill="none" xmlns="http://www.w3.org/2000/svg">
<path d="M0 0H1280L1281 671.491L1001.68 768.736C993.011 771.756 983.761 772.744 974.645 771.625L1.5 652.144L0 0Z" transform="translate(1281.5 -6.82623) scale(-1 1)" fill="url(#paint0_linear)"/>
<g opacity="0.7">
<path opacity="0.6" d="M924.339 204.727C923.57 204.342 922.417 205.112 922.032 205.881C922.032 205.881 922.032 205.881 922.032 206.266L862.819 208.575C862.435 205.881 860.897 203.957 858.205 202.803C857.436 202.418 856.283 202.418 855.514 202.418L850.131 172.017C852.438 171.632 853.976 170.093 854.745 167.784C855.898 164.32 853.976 160.472 850.515 159.702C847.439 158.933 844.363 160.087 842.825 162.396L841.672 161.626C841.672 161.626 841.672 161.242 842.056 161.242C842.825 158.933 841.672 156.239 839.365 155.469C837.058 154.7 834.751 155.854 833.982 157.778L802.837 146.233C803.606 143.155 802.068 139.691 798.992 138.922C798.223 138.537 797.839 138.537 797.07 138.537L794.763 102.748C797.07 102.363 799.377 100.824 800.146 98.5152C801.299 95.0518 799.377 91.5883 795.916 90.4339C792.456 89.2794 788.995 91.2035 787.842 94.6669C787.073 97.7455 788.226 100.824 790.918 102.363L766.31 150.082C766.31 150.082 766.31 150.082 765.925 150.082C764.387 149.697 762.465 150.082 761.311 151.621L722.477 131.225C722.477 131.225 722.477 130.84 722.861 130.84C723.63 128.916 722.861 127.377 721.708 125.838L739.779 106.597C740.164 106.981 740.933 107.366 741.317 107.366C744.009 108.136 746.7 106.981 747.469 104.288C748.238 101.594 747.085 98.9 744.393 98.1304C741.702 97.3607 739.01 98.5152 738.241 101.209C737.857 101.979 737.857 102.363 737.857 103.133L616.739 123.144C616.354 121.605 615.585 120.45 614.047 120.065C611.74 119.296 609.433 120.45 608.664 122.759C608.664 123.144 608.664 123.529 608.28 123.914L504.849 131.61C504.465 129.301 502.927 126.992 500.235 126.223C496.775 125.068 492.93 126.992 492.161 130.456L421.413 111.984C421.797 109.29 420.259 106.212 417.568 105.442C415.261 104.672 412.569 105.442 411.416 107.366L301.064 29.6315C301.448 29.2467 301.448 28.8619 301.833 28.477C302.986 25.3984 301.064 21.5502 297.988 20.7805C294.912 19.6261 291.451 21.5502 290.298 24.6288C289.529 26.9377 290.298 29.2467 291.836 30.786L234.93 92.7428C234.545 92.358 233.776 91.9732 233.007 91.5883C230.316 90.8187 227.624 91.9732 226.086 93.8973L156.107 51.5665C156.107 51.1817 156.492 51.1817 156.492 50.7969C157.645 47.7183 155.723 44.6397 152.647 43.4852C150.724 42.7156 148.417 43.4852 146.879 44.6397L111.89 12.3144C112.274 11.5447 112.659 11.1599 113.043 10.3903C114.197 6.92685 112.274 3.46342 108.814 2.30895C106.507 1.5393 104.2 2.30895 102.277 3.84825L98.0476 0H96.8941L101.508 4.23307C101.124 5.00272 100.739 5.38755 100.355 6.1572C99.9701 7.6965 99.9701 8.85097 100.355 10.3903L66.5186 24.6288L49.2161 31.9405C48.4471 30.786 47.2936 29.6315 45.7556 28.8619H45.3711L50.3696 0H49.6006L44.9866 28.477C43.4486 28.477 42.2951 28.8619 41.1416 29.6315L18.0715 0H17.3025L41.1416 30.0163C40.3726 30.786 39.9881 31.5556 39.6036 32.3253C38.8346 33.4798 38.8346 34.6342 39.2191 35.7887L13.842 44.6397C13.073 43.1004 11.9195 41.5611 9.99701 41.1763C9.22801 40.7914 8.07451 40.7914 7.30551 40.7914L0.384501 8.46615V11.9296L6.15201 40.7914C5.38301 41.1763 4.22951 41.5611 3.84501 41.9459L0.384501 38.4825V39.637L3.46051 42.7156C2.6915 43.4852 2.307 44.2549 1.9225 45.0245C0.769001 48.4879 2.6915 51.9514 5.76751 53.1058C8.84351 53.8755 11.535 52.721 13.073 50.0272L63.0581 77.7346C63.0581 78.1195 62.6736 78.1195 62.6736 78.5043C61.5201 81.5829 63.4426 85.0463 66.5186 86.2008C69.5946 87.3553 73.0551 85.4311 74.2086 82.3525V81.9677L143.803 93.5125C143.419 96.2062 145.341 98.9 148.033 100.054C149.186 100.439 149.955 100.439 151.109 100.054L160.721 138.152C159.183 138.537 157.645 140.076 157.261 141.616C156.492 144.694 158.03 147.773 160.721 148.542C161.49 148.927 161.875 148.927 162.644 148.927L166.873 192.028C165.72 192.412 164.951 193.182 164.566 194.337C164.182 195.876 164.951 197.8 166.489 198.57C167.642 198.954 168.796 198.57 169.565 197.8L224.548 251.676C224.164 252.445 223.395 253.215 223.395 253.984C222.241 257.448 224.164 260.911 227.624 262.066C228.009 262.066 228.009 262.066 228.393 262.066L206.092 394.83C203.785 394.446 201.478 395.985 200.709 398.294C199.94 400.218 200.709 402.142 201.863 403.681L149.186 460.635C148.802 460.251 148.033 459.866 147.264 459.481C144.188 458.327 140.727 460.251 139.574 463.329C138.42 466.408 140.343 469.871 143.419 471.026C144.957 471.411 146.495 471.411 147.648 470.641C146.495 471.411 145.726 472.18 145.341 473.335C144.572 476.028 145.726 478.722 148.417 479.492C148.802 479.492 148.802 479.492 149.186 479.492L144.572 544.142C141.881 544.142 139.189 545.682 138.42 548.376C138.42 548.376 138.42 548.376 138.42 548.76L16.5335 521.823C16.918 520.283 15.7645 518.359 14.2265 517.974C12.304 517.205 10.3815 518.359 9.61251 520.283C9.61251 520.668 9.61251 521.053 9.61251 521.438L0.384501 522.592V523.362L9.22801 522.207C9.61251 523.362 10.3815 524.516 11.535 524.901C11.9195 524.901 11.9195 524.901 11.9195 524.901L4.22951 657.666C3.84501 657.666 3.46051 657.666 3.076 657.666L0.384501 643.812V646.891L2.6915 657.666C1.9225 658.051 0.769001 658.435 0.384501 659.205V668.441C1.1535 669.211 1.9225 669.595 2.6915 669.98C4.99851 670.75 7.30551 669.98 8.84351 668.441L41.9106 699.612C41.5261 699.997 41.5261 700.381 41.1416 700.766C40.7571 701.536 40.7571 701.921 41.1416 702.69L0.384501 710.772V711.541L41.1416 703.46C41.5261 704.23 41.9106 704.999 42.6796 705.769L18.0715 742.712L0.384501 768.88V770.035L43.4486 705.769C43.8331 705.769 43.8331 706.154 44.2176 706.154C45.3711 706.539 46.1401 706.539 47.2936 706.154L93.4336 800.436C92.2801 801.206 91.1266 802.36 90.7421 803.899C90.3576 805.439 90.3576 806.978 91.1266 808.517L0.384501 858.16V858.929L91.1266 808.902C91.5111 809.672 91.8956 810.057 92.6646 810.441L25.7615 914.729L4.22951 948.593C3.84501 948.209 3.46051 948.209 3.076 948.209C2.307 947.824 1.538 947.824 0.384501 947.824V960.523C2.307 960.523 4.61401 959.753 5.76751 958.214L20.763 969.759C20.3785 970.144 19.994 970.913 19.994 971.298C19.994 971.683 19.994 972.068 19.6095 972.453L0.384501 970.913V971.683L19.6095 973.222C19.6095 975.916 21.1475 978.61 23.839 979.379C24.2235 979.379 24.608 979.764 24.9925 979.764L24.2235 989.77C22.301 989.77 20.3785 990.539 19.225 992.079L-5.7295e-09 978.995V979.764L18.8405 992.848C18.456 993.233 18.456 993.618 18.0715 994.003C18.0715 994.388 17.687 995.157 17.687 995.542L0.384501 995.927V996.697L18.456 996.312C18.8405 998.621 20.3785 1000.93 22.6855 1001.7C25.7615 1002.85 29.222 1000.93 30.3755 997.851C31.1445 995.542 30.3755 992.848 28.453 991.309L54.2146 956.675C54.5991 957.06 55.3681 957.444 55.7526 957.444C59.2131 958.599 62.6736 956.675 63.8271 953.211C64.9806 949.748 63.0581 946.285 59.5976 945.13C56.5216 943.976 53.4456 945.515 51.9076 948.209L46.1401 945.515C46.9091 943.591 45.7556 941.667 44.2176 940.897L94.2026 811.211C97.2786 812.365 100.739 810.441 101.893 807.363C103.046 804.284 101.124 800.821 98.0476 799.666C97.2786 799.281 96.5096 799.281 96.1251 799.281L87.2816 692.685C89.2041 692.3 91.1266 691.146 91.5111 689.221C91.8956 687.682 91.8956 685.758 90.7421 684.604L187.252 611.487C187.636 611.872 188.405 612.641 189.174 612.641C191.481 613.411 193.788 612.256 194.557 609.948C195.326 607.639 194.173 605.33 191.866 604.56L207.246 551.069C210.322 551.839 213.782 549.915 214.551 546.836C215.705 543.758 213.782 539.909 210.706 538.755L238.39 447.936C241.082 448.706 243.773 447.167 244.542 444.473C244.927 443.703 244.927 442.934 244.542 442.164L312.599 427.54C312.983 429.465 314.521 431.004 316.444 431.774C319.52 432.928 323.365 431.004 324.134 427.925C324.518 427.156 324.518 426.001 324.518 425.232C324.903 425.616 325.672 426.001 326.441 426.386C329.517 427.541 332.977 425.616 334.131 422.538C334.515 420.999 334.515 419.844 334.131 418.305L424.873 377.513C425.642 378.668 426.411 379.437 427.949 379.822C430.641 380.592 433.717 379.053 434.486 376.359C434.87 374.819 434.87 373.28 434.101 372.126L554.834 289.388C555.603 290.158 556.372 290.928 557.526 291.312C560.602 292.467 563.678 290.543 564.831 287.849L664.801 318.635C664.417 320.944 665.57 323.253 667.878 324.023C670.185 324.792 672.876 323.638 673.645 320.944C674.029 320.174 674.029 319.79 674.029 319.02L724.015 310.939C724.399 312.863 725.937 314.402 727.86 315.172C730.936 316.326 734.396 314.402 735.165 311.323C735.55 310.554 735.55 309.784 735.55 309.014L778.229 302.857C778.614 305.166 780.152 307.09 782.459 307.475C785.919 308.63 789.38 306.705 790.533 303.242C791.302 301.318 790.918 299.394 789.764 297.47L860.128 242.055C860.512 242.825 861.281 243.209 862.05 243.209C864.742 243.979 867.433 242.825 868.202 240.131C868.587 238.976 868.587 237.822 867.818 236.667L921.648 205.881C922.032 206.266 922.032 206.266 922.417 206.266C923.186 206.651 924.339 205.881 924.724 205.112C925.493 205.881 925.108 205.112 924.339 204.727ZM841.672 162.011L842.825 162.781C842.825 163.166 842.441 163.166 842.441 163.551C841.287 167.014 843.21 170.862 846.67 171.632C847.439 172.017 848.593 172.017 849.362 172.017L854.745 202.418H854.36L843.594 173.556L839.749 163.551C840.518 163.166 841.287 162.781 841.672 162.011ZM833.982 161.626C834.366 162.781 835.52 163.551 836.673 163.935C837.442 164.32 838.596 164.32 839.365 163.935L853.976 202.803C852.438 203.572 850.9 204.727 850.515 206.651V207.036L766.31 190.488C766.31 189.719 766.31 188.949 765.925 187.795L833.982 161.626ZM737.857 252.445L747.085 227.047L758.62 195.491C759.389 195.491 759.773 195.876 760.542 195.876L765.541 239.361L771.308 290.543C770.155 290.543 769.001 291.312 768.232 292.082L739.779 261.296C740.164 260.526 740.933 260.142 740.933 259.372C741.702 256.293 740.548 253.6 737.857 252.445ZM642.5 192.412L662.494 180.098C663.263 180.868 664.032 181.637 665.186 182.022C667.108 182.407 668.646 182.407 670.184 181.253L731.705 253.6C731.32 253.984 731.32 253.984 730.936 254.369L699.406 234.358L642.5 198.185C642.5 197.8 642.885 197.415 642.885 197.03C643.654 195.491 643.269 193.567 642.5 192.412ZM698.638 213.193L670.953 180.483C671.722 179.713 672.107 179.328 672.492 178.174C672.492 178.174 672.492 177.789 672.492 177.404L754.39 189.334C754.006 191.643 755.544 193.952 757.851 195.106L737.088 252.06C735.55 251.676 733.627 252.06 732.474 252.83L698.638 213.193ZM671.338 173.171L687.872 157.393L714.402 132.38C714.786 132.765 715.556 133.149 716.325 133.534C717.863 133.919 719.401 133.919 720.554 133.149L756.697 185.87C755.928 186.64 755.159 187.41 754.775 188.564C754.775 188.949 754.775 188.949 754.775 189.334L672.876 177.019C672.876 175.48 672.491 174.326 671.338 173.171ZM761.311 195.491C763.234 195.106 765.156 193.567 765.925 191.643V191.258L850.131 207.805C849.746 209.73 850.515 211.654 851.669 213.193L808.22 258.987L776.691 292.082C775.922 291.697 775.153 290.928 774.384 290.928C773.615 290.543 772.846 290.543 772.077 290.543L761.311 195.491ZM802.453 146.618L833.597 158.163C833.213 158.933 833.213 160.087 833.597 160.857H833.213L765.541 187.795C765.156 187.025 764.772 186.64 764.387 185.87L793.994 149.312C794.378 149.697 795.147 150.082 795.532 150.082C798.223 150.851 801.299 149.312 802.453 146.618ZM791.302 101.979C791.687 101.979 791.687 102.363 792.071 102.363C792.84 102.748 793.609 102.748 793.994 102.748L796.301 138.537C793.994 138.922 792.071 140.461 791.302 142.77C790.918 143.925 790.918 144.694 791.302 145.849L768.232 152.006C767.848 151.236 767.463 150.467 766.694 150.082L791.302 101.979ZM768.232 154.315C768.617 153.545 768.617 153.16 768.232 152.391L785.15 147.773L791.302 146.233C791.687 147.388 792.071 148.158 792.84 148.927L764.387 184.331L763.234 185.486C762.849 185.101 762.465 184.716 761.696 184.716C761.311 184.716 761.311 184.716 760.927 184.716L764.387 157.393C766.31 157.009 767.848 156.239 768.232 154.315ZM722.477 131.225L761.311 151.621C761.311 151.621 761.311 151.621 761.311 152.006C760.542 153.93 761.696 156.239 763.618 157.009H764.003L760.542 184.331C759.389 184.331 758.235 184.716 757.466 185.101L721.323 132.38C721.708 131.995 722.092 131.61 722.477 131.225ZM617.123 123.529L738.241 103.518C738.241 104.288 739.01 105.057 739.395 105.827L721.323 125.068C720.939 124.683 720.17 124.298 719.785 124.298C717.094 123.529 714.402 125.068 713.633 127.377C713.633 127.762 713.633 128.147 713.249 128.532L624.429 124.298L617.123 123.529ZM617.123 125.068C617.123 124.683 617.123 124.683 617.123 124.298L713.249 128.532C713.249 129.686 713.633 130.84 714.402 131.61L671.338 172.402C670.953 172.017 670.184 171.632 669.415 171.247C667.493 170.477 665.57 171.247 664.032 172.402L616.739 126.223C616.354 125.838 616.739 125.453 617.123 125.068ZM615.585 126.992L643.654 154.315L662.879 173.171C662.494 173.556 662.11 174.326 661.725 175.095C661.341 176.635 661.341 178.174 662.11 179.328L642.116 191.643C641.347 190.488 640.193 189.719 639.04 189.334C637.886 188.949 636.733 188.949 635.579 189.334L614.432 127.762C615.201 127.377 615.585 126.992 615.585 126.992ZM611.74 127.762C612.509 128.147 613.278 128.147 614.047 127.762L619.046 142.77L634.81 189.334C633.657 189.719 632.888 190.488 632.119 191.643L583.672 163.551C583.672 163.166 584.056 163.166 584.056 162.781C584.825 160.857 584.056 158.933 582.903 157.778L610.587 126.607C610.971 127.377 611.356 127.762 611.74 127.762ZM620.199 206.266L576.366 233.974C575.597 232.819 574.444 232.049 573.29 231.665C572.906 231.665 572.521 231.665 572.137 231.28L578.673 166.629C579.827 166.629 581.365 166.244 582.134 165.475L620.199 201.263C619.815 201.648 619.43 202.033 619.43 202.803C619.43 203.957 619.815 205.112 620.199 206.266ZM571.752 231.28C569.061 231.28 566.369 232.819 565.6 235.513C565.6 235.513 565.6 235.513 565.6 235.898L498.313 220.505C498.313 219.35 498.313 218.581 497.928 217.426L575.597 164.705C576.366 165.475 577.135 166.244 577.904 166.244C578.289 166.244 578.289 166.244 578.673 166.244L571.752 231.28ZM583.287 164.705L589.439 167.784L632.119 192.412C632.119 192.797 631.734 192.797 631.734 193.182C631.35 195.106 631.35 196.646 632.503 198.185L628.274 200.879C627.889 200.109 627.12 199.724 625.967 199.339C624.429 198.954 622.506 199.339 621.353 200.494L583.287 164.705ZM505.618 132.38L609.049 124.683C609.049 125.453 609.433 126.223 610.202 126.992L598.667 140.076L582.518 158.163C582.134 157.778 581.749 157.393 580.98 157.393C578.673 156.624 575.982 157.778 574.828 160.087L505.618 134.689C505.618 133.534 505.618 132.765 505.618 132.38ZM499.082 138.922C501.773 138.922 504.08 137.382 505.234 135.074L574.444 160.472C574.059 162.011 574.444 163.166 574.828 164.32L497.159 217.041C496.775 216.272 496.006 215.887 494.852 215.502C494.468 215.502 494.468 215.502 494.083 215.502L499.082 138.922ZM421.797 112.754L492.545 131.225C491.776 134.304 493.699 137.767 496.775 138.922C497.159 138.922 497.544 139.307 497.928 139.307L496.775 157.393L493.314 215.502C492.545 215.502 491.776 215.887 491.007 216.272L419.875 115.447C420.644 114.678 421.413 113.908 421.797 112.754ZM419.49 115.832L468.322 184.716L491.007 216.656C490.238 217.041 489.854 217.811 489.469 218.965C489.085 219.735 489.085 220.89 489.469 221.659L437.946 242.055C437.562 241.285 436.793 240.516 436.024 240.131C435.639 240.131 435.255 240.131 434.87 240.131L426.411 179.713L417.568 116.987C417.952 116.602 418.721 116.217 419.49 115.832ZM416.799 116.602L434.101 239.746C432.948 240.131 431.794 240.9 431.41 242.055V242.44L411.416 240.516L398.343 238.976C398.343 236.667 396.805 233.974 394.498 233.204H394.113L402.572 188.949L416.03 116.602C416.03 116.602 416.414 116.987 416.799 116.602ZM321.827 294.776L318.751 295.546C318.366 294.006 317.213 292.852 316.059 292.082L345.281 238.976H345.666L329.517 286.695C326.441 285.925 322.98 287.464 321.827 290.928C321.827 292.467 321.827 293.621 321.827 294.776ZM386.808 237.052C386.808 237.437 386.808 237.437 386.808 237.822L355.279 234.358H354.125C354.125 231.665 352.587 229.356 349.896 228.201C349.126 227.816 348.358 227.816 347.589 227.816L340.667 175.865C341.436 175.865 342.205 175.48 342.974 175.095L388.346 234.743C387.577 235.128 387.192 235.898 386.808 237.052ZM390.268 244.364L389.499 247.058L382.578 269.762C381.04 269.377 379.502 269.762 378.349 270.532L354.125 240.516L352.587 238.207C353.356 237.437 353.741 236.667 354.125 235.513C354.125 235.128 354.125 235.128 354.125 234.743L386.039 238.207H386.808C386.423 240.9 387.961 243.209 390.268 244.364ZM346.819 227.816C345.281 228.201 344.128 228.971 343.359 230.125L261.46 172.402C261.845 172.017 261.845 171.632 261.845 171.247C261.845 170.862 262.229 170.477 262.229 169.708L333.362 170.093C333.362 172.402 334.9 174.711 337.591 175.48C338.36 175.865 339.129 175.865 339.898 175.865L346.819 227.816ZM342.974 230.51C342.59 230.895 342.59 231.28 342.205 231.665C341.821 232.434 341.821 233.589 341.821 234.358L235.314 253.6C234.93 251.676 233.392 249.751 231.469 248.982L242.62 213.963L255.308 174.711C257.615 175.095 259.922 174.326 261.076 172.786L342.974 230.51ZM234.93 258.602L307.216 295.161C307.216 295.546 306.831 295.546 306.831 295.93C306.447 296.7 306.447 297.47 306.447 298.239L282.992 300.163L265.69 301.318C265.305 299.394 264.152 297.854 262.229 297.085C260.691 296.7 259.153 296.7 258 297.47L240.697 271.686L233.392 260.526C233.776 260.142 234.545 259.372 234.93 258.602ZM258.384 306.705C258.769 306.705 258.769 307.09 259.153 307.09C259.538 307.09 259.922 307.09 259.922 307.475L254.539 397.524C251.848 397.524 249.156 399.063 248.387 402.142C248.387 402.527 248.003 402.912 248.003 403.297L210.322 400.218C210.322 398.294 209.553 396.755 208.015 395.6L216.089 381.746L258.384 306.705ZM259.922 317.481L260.691 307.09C262.229 307.09 263.383 306.321 264.536 305.551L276.456 315.172C276.071 315.556 276.071 315.941 275.687 316.711C274.918 319.405 276.071 322.483 278.763 323.253L256.077 397.524C255.693 397.524 255.693 397.524 255.308 397.524L259.922 317.481ZM276.456 314.402L264.536 304.781C264.921 304.397 264.921 304.012 265.305 303.627C265.305 303.242 265.69 302.472 265.69 302.088L306.447 298.624C306.447 299.394 306.831 300.163 307.216 300.933L284.915 314.787C284.146 314.017 283.377 313.247 282.223 312.863C279.916 312.093 277.994 312.863 276.456 314.402ZM234.93 257.833C234.93 257.448 234.93 257.448 235.314 257.063C235.699 256.293 235.699 255.139 235.699 254.369L342.205 235.128C342.59 236.667 343.359 237.822 344.897 238.591L315.675 292.082C315.29 292.082 315.29 291.697 314.906 291.697C311.83 290.928 308.754 292.082 307.216 294.776L234.93 257.833ZM346.435 239.746C348.357 240.131 349.896 239.746 351.434 238.976L377.58 271.302C376.811 272.071 376.426 272.456 376.042 273.611C375.657 274.765 375.657 275.535 376.042 276.689L344.128 287.849L334.131 291.312C333.362 289.773 332.208 288.619 330.67 287.849L346.435 239.746ZM376.426 276.689C376.811 278.228 377.964 278.998 379.502 279.768C380.656 280.153 381.425 280.153 382.578 279.768L387.961 294.776C386.808 295.161 386.039 296.315 385.27 297.47C385.27 297.855 385.27 297.854 385.27 298.239L370.659 297.085L334.515 293.621C334.515 292.852 334.515 292.467 334.131 291.697L376.426 276.689ZM383.347 279.768C384.885 279.383 385.654 278.228 386.423 276.689C386.423 276.304 386.423 276.304 386.423 275.919L396.036 277.074C396.036 279.383 397.189 281.692 399.112 282.846L391.806 295.161C391.806 295.161 391.422 295.161 391.037 294.776C390.268 294.391 389.115 294.391 388.346 294.776L383.347 279.768ZM396.036 275.15C396.036 275.535 396.036 275.919 395.651 275.919L386.039 274.765C386.039 272.456 384.885 270.532 382.578 269.762L390.268 244.364C391.037 244.749 391.806 244.749 392.575 244.364L399.496 270.917C398.343 271.686 396.805 273.226 396.036 275.15ZM394.113 244.364C395.651 243.979 397.189 242.44 397.574 240.9C397.574 240.516 397.574 240.516 397.574 240.131L411.8 241.67L430.641 243.594C430.641 244.364 431.025 245.133 431.41 245.903L426.411 251.291L406.033 272.841C405.264 272.456 404.495 271.686 403.726 271.686C402.572 271.302 401.419 271.302 400.265 271.686L394.113 244.364ZM411.8 114.678C412.569 115.447 413.338 116.217 414.492 116.217H414.876L411.8 131.995L392.96 232.819C391.422 232.819 390.268 232.819 389.115 233.589L386.808 230.51L343.359 174.711C344.128 173.941 344.897 173.171 345.281 172.017C346.05 170.093 345.666 168.169 344.512 166.629L411.8 114.678ZM300.679 30.4012L411.416 108.136C411.031 108.521 411.031 108.905 410.647 109.29C409.878 111.214 410.262 112.754 411.416 114.293L343.743 166.244C342.974 165.475 342.205 164.705 341.052 164.32C339.898 163.935 338.745 163.935 337.976 164.32L297.988 32.3253C298.757 31.9405 299.91 31.1708 300.679 30.4012ZM291.836 31.1708C292.22 31.5556 292.989 31.9405 293.758 32.3253C294.912 32.7101 296.065 32.7101 297.219 32.3253L316.828 97.7455L337.207 164.705C336.053 165.09 335.284 165.86 334.515 166.629L236.468 100.824C236.852 100.439 236.852 100.054 236.852 99.6697C237.621 97.3607 236.852 95.0518 235.314 93.5125L291.836 31.1708ZM236.083 101.594L334.131 167.399C333.746 167.784 333.746 168.169 333.746 168.553C333.746 168.938 333.362 169.708 333.362 170.093L262.229 169.323C262.229 167.014 260.691 165.09 258.384 164.32C257.231 163.935 256.077 163.935 254.924 164.32L233.392 103.518C234.545 103.133 235.314 102.363 236.083 101.594ZM226.086 101.209C226.855 102.363 228.009 103.133 229.162 103.518C230.316 103.903 231.854 103.903 233.007 103.518L243.004 131.995L254.539 163.935C253.001 164.705 251.848 165.86 251.463 167.399L168.796 144.309L168.027 143.925C168.411 142.385 168.027 141.231 167.258 140.076L226.086 101.209ZM251.463 171.632L201.863 197.415C201.094 196.261 200.325 195.491 198.787 195.106C197.249 194.721 195.711 194.721 194.557 195.491L165.72 147.773C166.489 147.003 167.258 146.233 167.642 145.079L219.934 159.702L251.079 168.553C251.079 169.323 251.079 170.862 251.463 171.632ZM104.969 14.2385C107.276 15.0082 109.583 14.2385 111.121 12.6992L146.11 45.4093C145.726 45.7942 145.341 46.5638 144.957 47.3335C144.957 47.7183 144.957 48.1031 144.572 48.4879L84.5901 44.2549C84.5901 42.3307 83.8211 40.7914 82.6676 39.637L103.046 13.8537C103.815 13.8537 104.584 13.8537 104.969 14.2385ZM101.508 10.7751C101.893 11.5447 102.277 12.3144 103.046 12.6992L82.6676 38.4825C82.2831 38.4825 81.5141 38.0977 81.1296 38.0977C78.0536 36.9432 74.5931 38.8673 73.4396 41.9459L70.3636 41.1763L50.3696 35.4039C50.7541 34.2494 50.3696 33.4798 50.3696 32.3253L101.508 10.7751ZM63.4426 77.3498L13.4575 49.6424C13.4575 49.2576 13.842 49.2576 13.842 48.8728C14.2265 47.7183 14.2265 46.5638 13.842 45.4093L23.4545 41.9459L39.6036 36.5584C40.3726 38.0977 41.5261 39.2521 43.0641 40.0218C44.6021 40.4066 45.7556 40.4066 47.2936 39.637L60.3666 65.0354L65.7496 75.4257C64.5961 75.8105 63.8271 76.5802 63.4426 77.3498ZM66.1341 75.0409L49.2161 42.7156L47.2936 39.2521C48.4471 38.4825 49.2161 37.7128 49.6006 36.1735L73.4396 42.3307C72.6706 45.4093 74.5931 48.1031 77.2846 49.2576L69.9791 74.656C68.4411 74.2712 67.2876 74.2712 66.1341 75.0409ZM144.188 91.9732V92.358L74.5931 80.8132C74.9776 78.1195 73.4396 75.4257 70.7481 74.656L78.0536 49.2576C80.3606 49.6424 82.6676 48.8728 84.2056 47.3335L88.0506 50.0272L145.341 90.4339C144.572 91.2035 144.572 91.5883 144.188 91.9732ZM149.955 87.7401C148.033 87.7401 146.495 88.5097 145.341 90.049L97.6631 56.5693L84.2056 46.9486C84.5901 46.5638 84.5901 46.179 84.9746 45.7942C84.9746 45.4093 84.9746 45.0245 85.3591 44.6397L128.808 47.7183L145.341 48.8728C145.341 51.1817 146.879 53.4907 149.186 54.2603C149.571 54.2603 149.955 54.6451 150.34 54.6451L149.955 87.7401ZM150.724 87.7401L151.493 54.6451C153.416 54.6451 154.954 53.4907 156.107 52.3362L226.086 95.0518C226.086 95.4366 225.702 95.8214 225.702 96.2062C225.702 96.5911 225.317 96.9759 225.317 97.3607L156.492 94.2821C156.492 91.5883 154.954 89.2794 152.262 88.5097C151.493 87.7401 151.109 87.7401 150.724 87.7401ZM161.49 137.767L151.878 99.6697C153.8 99.2848 155.338 97.7455 155.723 95.8214C155.723 95.4366 156.107 95.0518 156.107 94.6669L224.933 97.7455C224.933 98.9 225.317 100.054 225.702 100.824L166.873 139.691C166.104 138.922 165.335 138.152 164.182 137.767C163.028 137.383 162.259 137.383 161.49 137.767ZM168.411 192.028C168.027 192.028 167.642 192.028 167.258 192.028L163.028 148.927C163.797 148.927 164.182 148.542 164.566 148.542L193.404 196.261C192.635 197.03 191.866 197.8 191.481 198.954V199.339L170.334 195.491C170.718 193.567 169.949 192.412 168.411 192.028ZM224.933 250.521L169.949 196.646C170.334 196.261 170.334 195.876 170.334 195.491L191.481 199.339C191.097 202.033 192.635 204.342 195.326 205.112C196.864 205.497 198.402 205.497 199.556 204.727L225.702 250.136C225.317 250.136 225.317 250.521 224.933 250.521ZM226.471 249.751L200.325 204.727C201.478 203.957 202.247 203.188 202.632 202.033C203.016 200.879 203.016 199.339 202.247 198.185L251.848 172.402C252.617 173.556 253.386 174.326 254.539 174.711L230.7 249.367C229.162 248.982 227.624 248.982 226.471 249.751ZM228.393 261.681C229.931 261.681 231.085 261.681 232.238 260.911L257.231 297.855C256.462 298.624 255.693 299.394 255.693 300.163C254.924 302.472 255.693 304.781 257.615 305.936L207.246 394.446C206.861 394.446 206.861 394.061 206.477 394.061H206.092L228.393 261.681ZM201.478 403.681C201.863 404.066 202.632 404.451 203.016 404.451C204.554 404.836 206.477 404.836 207.63 403.681L236.468 439.085C235.699 439.855 235.314 440.24 234.93 441.394C234.545 442.164 234.545 442.934 234.93 443.703L203.016 451.015L149.955 462.944C149.571 462.175 149.186 461.02 148.417 460.635L201.478 403.681ZM154.569 472.95L235.699 444.858C236.083 445.627 236.852 446.782 237.621 447.167L189.174 535.292C188.79 535.292 188.79 534.907 188.405 534.907C186.867 534.522 185.329 534.522 183.791 535.292L152.647 478.337C153.416 477.568 154.185 476.798 154.569 475.644C154.954 474.874 154.954 474.104 154.569 472.95ZM147.648 469.871C148.802 469.102 149.955 467.947 150.34 466.408C150.724 465.638 150.724 464.484 150.34 463.714L234.161 444.858L154.185 472.565C153.8 471.411 152.647 470.256 151.109 469.871C149.955 469.486 148.802 469.486 147.648 469.871ZM149.571 479.492C150.34 479.492 151.109 479.492 151.493 479.107L183.022 536.061C181.869 536.831 180.715 537.985 180.331 539.525C179.946 540.679 179.946 541.449 180.331 542.603L173.41 544.142L150.724 549.145C150.34 547.221 148.802 545.297 146.495 544.912C146.11 544.912 145.726 544.527 145.341 544.527L149.571 479.492ZM150.724 549.53L180.331 542.603C180.715 543.373 180.715 543.758 181.1 544.527L161.875 559.92C161.106 559.151 160.337 558.766 159.568 558.381C157.645 557.611 155.338 558.381 154.185 559.535L149.186 554.533C149.571 553.763 150.34 552.993 150.34 552.224C150.724 551.454 150.724 550.3 150.724 549.53ZM142.265 556.842C144.572 557.611 146.879 556.842 148.802 555.302L153.8 560.305C153.416 560.69 153.031 561.46 152.647 562.229C152.262 563.384 152.262 564.538 152.647 565.693L80.3606 593.4C80.3606 593.4 80.3606 593.015 79.9761 593.015L138.805 554.533C139.958 555.302 141.112 556.072 142.265 556.842ZM64.5961 646.891L67.2876 638.809C68.4411 639.194 69.2101 639.194 70.3636 638.809L71.9016 643.042L84.9746 682.679C84.5901 682.679 84.5901 683.064 84.2056 683.064L66.5186 657.666C67.2876 656.896 68.0566 655.742 68.4411 654.587C69.2101 651.124 67.2876 648.045 64.5961 646.891ZM56.1371 653.433L10.766 662.284C10.766 661.899 10.766 661.899 10.3815 661.514L63.4426 636.116C64.2116 637.27 64.9806 638.04 66.5186 638.809L63.8271 646.891C60.7511 646.121 57.2906 647.66 56.5216 650.739C56.1371 651.509 56.1371 652.278 56.1371 653.433ZM69.9791 627.649L74.5931 601.866C77.2846 602.251 79.9761 600.712 81.1296 597.633C81.1296 597.248 81.1296 596.864 81.5141 596.864L186.867 608.408C186.867 608.793 186.867 608.793 186.867 609.178L74.2086 631.883C73.8241 629.958 72.2861 628.419 70.3636 628.034C69.9791 627.649 69.9791 627.649 69.9791 627.649ZM16.149 522.592L138.036 549.53C137.651 551.069 138.036 552.609 138.805 553.763L79.9761 592.246C79.2071 591.091 78.0536 590.321 76.9001 589.937C74.9776 589.167 73.0551 589.552 71.5171 590.706L61.1356 578.007L15.38 523.747C15.7645 523.362 15.7645 522.977 16.149 522.592ZM8.84351 659.205C8.07451 658.82 7.30551 658.051 6.53651 658.051C6.15201 658.051 5.76751 657.666 5.38301 657.666L13.073 524.901C13.842 524.901 14.2265 524.516 14.9955 524.132L71.1326 591.091C70.3636 591.861 69.9791 592.63 69.5946 593.785C68.8256 595.709 69.5946 598.018 70.7481 599.557L11.535 656.511L8.84351 659.205ZM71.1326 600.327C71.9016 600.712 72.6706 601.481 73.4396 601.481H73.8241L69.2101 627.265C66.5186 626.88 63.8271 628.419 63.0581 631.113C62.6736 632.267 62.6736 633.807 63.0581 634.961L9.99701 660.36C9.61251 659.975 9.61251 659.59 9.22801 659.205L71.1326 600.327ZM46.5246 698.072C44.9866 697.688 43.8331 698.072 42.6796 698.842L9.61251 667.671C9.99701 666.902 10.3815 666.517 10.766 665.747C11.1505 664.977 11.1505 663.823 11.1505 663.053L56.5216 654.202C56.9061 656.127 58.4441 657.666 60.3666 658.435L46.5246 698.072ZM60.7511 658.435C62.2891 658.82 64.2116 658.435 65.7496 657.666L78.8226 676.522L83.4366 683.449C82.6676 684.219 81.8986 684.988 81.5141 686.143C81.1296 687.297 81.1296 688.452 81.5141 689.221L49.2161 700.766C48.8316 699.997 48.0626 699.227 46.9091 698.457L60.7511 658.435ZM21.1475 969.374L6.15201 957.829C6.53651 957.444 6.92101 956.675 6.92101 956.29C7.30551 955.135 7.30551 954.366 7.30551 953.211L39.6036 945.9C39.9881 946.669 40.3726 947.439 41.1416 947.824L29.222 968.22C28.8375 968.22 28.453 967.835 28.453 967.835C25.377 966.68 22.6855 967.45 21.1475 969.374ZM53.8301 956.29L28.0685 990.924C27.684 990.539 27.2995 990.539 26.5305 990.155C26.146 990.155 25.7615 989.77 25.377 989.77L26.146 979.764C28.8375 979.764 31.1445 978.225 32.298 975.531C33.067 973.607 32.6825 971.683 31.529 970.144L53.0611 955.135C53.0611 955.52 53.4456 955.905 53.8301 956.29ZM46.1401 946.284L51.9076 948.978V949.363C51.1386 951.287 51.5231 953.211 52.6766 954.751L47.2936 958.599L30.76 969.759C30.3755 969.374 29.991 968.989 29.222 968.604L41.1416 948.209H41.5261C43.4486 948.593 45.3711 947.824 46.1401 946.284ZM43.8331 940.897C41.9106 940.512 39.9881 941.282 39.2191 943.206C39.2191 943.591 38.8346 944.36 39.2191 944.745L24.2235 948.209L6.92101 952.057C6.53651 950.518 5.76751 949.363 4.61401 948.593L93.4336 810.826C93.4336 810.826 93.8181 810.826 93.8181 811.211L43.8331 940.897ZM95.7406 799.666C95.3561 799.666 94.5871 800.051 94.2026 800.051L47.6781 706.154C48.4471 705.769 49.2161 704.999 49.6006 703.845C49.9851 703.075 49.9851 702.306 49.6006 701.536L50.7541 701.151L81.5141 689.991C82.2831 691.53 83.0521 692.3 84.5901 693.07C85.3591 693.455 85.7436 693.455 86.5126 693.455L95.7406 799.666ZM90.7421 683.834C89.9731 683.064 89.2041 682.679 88.4351 682.295C87.2816 681.91 86.5126 681.91 85.3591 682.295L70.7481 638.425C72.2861 637.655 73.4396 636.5 74.2086 634.961C74.5931 634.192 74.5931 633.422 74.5931 632.267L187.252 609.563C187.252 609.948 187.636 610.332 187.636 610.717L90.7421 683.834ZM186.867 607.254V607.639L81.5141 596.094C81.5141 595.324 81.5141 594.555 81.1296 593.785L153.416 566.078C154.185 567.617 155.338 568.771 156.876 569.156C158.414 569.541 160.337 569.541 161.49 568.386L188.021 604.945C187.252 605.714 186.867 606.484 186.867 607.254ZM188.405 604.56L161.875 568.002C162.644 567.232 163.413 566.462 163.797 565.308C164.566 563.384 164.182 561.844 163.028 560.305L182.253 544.912C183.022 545.682 183.791 546.451 184.945 546.451C185.714 546.836 186.098 546.836 186.867 546.836L190.712 603.79C189.559 604.175 189.174 604.56 188.405 604.56ZM191.481 604.175C191.097 604.175 191.097 604.175 190.712 604.175L186.867 547.221C189.174 546.836 191.097 545.297 191.866 542.988C191.866 542.603 191.866 542.603 191.866 542.218L202.247 543.758C201.863 546.836 203.785 549.53 206.477 550.3L191.481 604.175ZM210.706 538.37C207.63 537.6 204.17 539.525 203.016 542.603C203.016 542.988 203.016 542.988 203.016 543.373L192.635 541.833C193.019 539.525 191.866 537.216 189.943 536.061L238.39 447.936H238.775L210.706 538.37ZM237.237 438.7L208.399 403.297C209.168 402.527 209.553 402.142 209.937 400.988C209.937 400.603 209.937 400.603 209.937 400.218L232.623 402.142L247.618 403.297C247.618 405.99 249.156 408.299 251.463 409.454L241.466 437.931C240.313 437.546 238.39 437.931 237.237 438.7ZM313.368 427.156L245.311 441.779C244.927 440.24 243.773 439.085 242.235 438.316L246.08 427.156L252.232 409.839C255.308 410.993 258.769 409.069 260.307 405.99L313.368 424.462C312.983 425.232 312.983 426.001 313.368 427.156ZM322.98 421.383C322.211 420.998 321.827 420.614 321.058 420.229C317.982 419.074 314.521 420.614 313.368 423.692L260.307 405.221L323.365 419.459C322.98 420.229 322.98 420.614 322.98 421.383ZM323.365 418.69L260.691 404.836C261.076 401.757 259.538 398.679 256.462 397.524L279.147 323.253C280.301 323.638 281.454 323.253 282.223 322.868L304.909 370.586L326.056 415.226C324.903 415.996 323.749 417.15 323.365 418.69ZM326.825 414.841L301.064 360.581L282.992 322.483C284.146 321.714 284.915 320.944 285.299 319.405C285.684 317.865 285.684 316.326 284.915 315.172L307.216 301.318C307.985 302.472 309.138 303.242 310.292 303.627C311.061 304.012 311.83 304.012 312.599 304.012L327.21 414.456C327.594 414.456 327.21 414.841 326.825 414.841ZM328.748 414.456L324.518 384.055L314.137 304.012C316.444 303.627 318.366 302.088 319.135 299.779C319.52 298.624 319.52 297.47 319.135 296.315L322.211 295.546C322.98 297.47 324.134 299.009 326.056 299.394C326.441 299.394 327.21 299.779 327.594 299.779L328.748 414.456ZM331.055 414.841C330.67 414.841 329.901 414.456 329.517 414.456L329.132 378.283L328.363 299.394C331.055 299.394 332.977 297.47 334.131 295.161C334.131 294.776 334.131 294.391 334.515 294.006L385.27 298.624C385.27 300.163 386.039 301.703 387.577 302.472L338.36 401.757L332.208 414.456C331.439 414.841 331.439 414.841 331.055 414.841ZM425.258 373.28C424.873 374.435 424.873 375.589 425.258 376.744L334.515 417.535C334.131 416.381 332.977 415.611 332.208 415.226L357.201 365.199L387.961 303.242C387.961 303.242 387.961 303.242 388.346 303.242C389.499 303.627 390.653 303.627 391.422 303.242L427.18 370.586C426.411 371.356 425.642 372.126 425.258 373.28ZM427.949 370.202L392.191 302.857C392.96 302.472 393.729 301.318 394.113 300.548C394.882 298.624 394.113 296.7 392.191 295.546L399.496 283.231C399.881 283.231 400.265 283.616 400.265 283.616C401.419 284.001 402.572 284.001 403.726 283.616L407.186 295.546L427.949 370.202C428.334 370.202 427.949 370.202 427.949 370.202ZM429.872 369.817C429.487 369.817 429.103 369.817 429.103 369.817L404.495 283.231C406.417 282.461 407.955 281.307 408.724 278.998C409.493 276.689 408.724 274.38 407.186 272.456L421.028 257.833L432.948 245.518C433.332 245.903 433.717 245.903 434.101 246.288C434.486 246.288 434.486 246.288 434.87 246.288L429.872 369.817ZM434.101 371.741C433.332 370.971 432.563 370.202 431.794 369.817C431.41 369.817 431.025 369.817 430.641 369.432L434.87 246.673C436.024 246.673 437.177 245.903 437.946 244.749L486.393 261.296L554.45 284.386C554.065 285.925 554.45 287.849 555.219 289.004L434.101 371.741ZM554.45 284.001L437.946 244.364C437.946 243.594 437.946 243.209 437.946 242.44L489.469 222.044C489.854 223.198 491.007 223.968 492.161 224.353C493.699 224.738 495.237 224.353 496.775 223.583L497.928 224.738L555.603 282.462C555.219 282.846 554.834 283.231 554.45 284.001ZM555.988 281.692L552.143 278.228L497.159 223.198C497.544 222.814 497.928 222.044 497.928 221.659L564.831 237.052C564.447 240.131 565.985 243.209 569.061 243.979L564.447 262.835L560.217 280.537C559.064 279.768 557.526 280.537 555.988 281.692ZM665.955 318.635L565.985 287.849C566.754 284.77 565.216 281.692 562.14 280.922L570.599 244.364C572.906 244.749 574.828 243.979 576.366 242.44L595.591 258.602L666.724 317.865C666.339 317.865 665.955 318.25 665.955 318.635ZM666.724 317.096L620.199 278.228L576.366 241.67C576.751 241.285 577.135 240.516 577.135 239.746C577.52 237.822 577.52 236.283 576.751 234.743L620.584 207.036C620.968 207.805 622.122 208.575 622.891 208.575C624.044 208.96 624.813 208.96 625.582 208.575L667.878 315.941C667.493 316.326 667.108 316.711 666.724 317.096ZM626.351 208.19C627.505 207.805 628.274 206.651 628.658 205.497C629.043 204.342 629.043 202.803 628.274 201.648L632.503 198.954C633.272 199.724 634.041 200.494 635.579 200.879C636.733 201.263 637.502 201.263 638.655 200.879L668.262 314.402L626.351 208.19ZM673.26 316.711C672.876 316.326 672.107 315.941 671.722 315.941C670.953 315.556 670.184 315.556 669.415 315.941L639.424 201.263C640.578 200.879 641.731 200.109 642.5 198.954L730.936 254.754C730.936 255.139 730.551 255.524 730.551 255.524C729.782 257.448 730.551 259.372 731.705 260.911L673.26 316.711ZM730.551 304.397C727.86 304.397 725.553 305.936 724.784 308.245C724.399 309.014 724.399 309.784 724.399 310.554L674.414 318.635C674.414 317.865 674.029 317.481 673.645 316.711L732.089 260.911C732.474 261.296 733.243 261.681 734.012 262.066C734.396 262.066 734.396 262.066 734.781 262.066L730.551 304.397ZM735.934 308.245C735.165 306.705 734.012 305.166 732.474 304.781C732.089 304.781 731.705 304.781 731.705 304.397L734.781 275.15L735.934 262.451C737.088 262.451 738.626 262.066 739.779 261.296L765.156 288.619L768.617 292.082C767.848 292.852 767.463 293.621 767.079 294.776C766.694 295.93 766.694 297.47 767.079 298.624L735.934 308.245ZM778.998 300.548C778.614 301.318 778.614 302.088 778.614 303.242L735.934 309.399C735.934 309.399 735.934 309.399 735.934 309.014L766.31 299.394C767.079 301.318 768.232 302.857 770.539 303.242C773.615 304.397 777.076 302.857 778.614 299.779L778.998 300.548C778.998 300.163 778.998 300.548 778.998 300.548ZM789.764 298.239C788.995 297.47 788.226 296.7 787.073 296.315C783.997 295.161 780.921 296.7 779.383 299.394L778.614 299.009C778.614 299.009 778.614 299.009 778.614 298.624C779.383 296.7 778.998 295.161 778.229 293.621L821.678 266.684L859.359 243.594L789.764 298.239ZM859.743 238.976C859.359 240.131 859.359 241.67 860.128 242.825L835.52 257.833L777.845 293.621C777.845 293.237 777.46 293.237 777.076 292.852L798.608 270.532L852.053 214.347C852.822 214.732 853.591 215.502 854.36 215.502C855.514 215.887 856.667 215.887 857.821 215.502L862.819 235.898C861.281 236.283 860.128 237.437 859.743 238.976ZM868.202 237.822C867.433 237.052 866.664 236.283 865.895 235.898C865.126 235.513 864.357 235.513 863.588 235.898L858.59 215.502C860.512 214.732 862.05 213.193 862.819 211.269C863.204 210.499 863.204 210.114 863.204 209.345L922.417 207.036L868.202 237.822Z" transform="translate(262.962 -381.355) rotate(19.0464)" fill="#EAE9E9" fill-opacity="0.6"/>
</g>
<path d="M0.5 23.1662C0.5 13.0125 11.2878 6.49315 20.2772 11.2144L174.277 92.0955C178.718 94.428 181.5 99.0309 181.5 104.047V187.826C181.5 198.202 170.281 204.7 161.281 199.536L7.28139 111.174C3.0868 108.767 0.5 104.3 0.5 99.4641V23.1662Z" transform="translate(866.5 115.318)" stroke="#FF9F87"/>
<mask id="mask0" mask-type="alpha" maskUnits="userSpaceOnUse" x="447" y="-395" width="1015" height="1036">
<path d="M0 103.851C0 54.2056 50.2455 20.338 96.264 38.9649L970.264 392.735C996.699 403.435 1014 429.103 1014 457.621V998.753C1014 1052.19 956.538 1085.92 909.879 1059.87L35.8788 571.954C13.7269 559.588 0 536.203 0 510.834V103.851Z" transform="translate(447.5 -428.682)" fill="url(#paint1_linear)"/>
</mask>
<g mask="url(#mask0)">
<path d="M0 103.851C0 54.2056 50.2455 20.338 96.264 38.9649L970.264 392.735C996.699 403.435 1014 429.103 1014 457.621V998.753C1014 1052.19 956.538 1085.92 909.879 1059.87L35.8788 571.954C13.7269 559.588 0 536.203 0 510.834V103.851Z" transform="translate(427.5 -428.682)" fill="url(#paint2_linear)"/>
<path d="M78.856 106.009C85.2009 55.9736 140.777 28.866 184.113 54.6695L905.743 484.356C928.068 497.649 941.193 522.214 939.835 548.161L906.591 1183.09C904.622 1220.69 863.384 1242.7 831.051 1223.42L39.3574 751.336C15.4524 737.081 2.26328 710.018 5.76459 682.407L78.856 106.009Z" transform="translate(347.021 -1037) scale(-1 1) rotate(60)" fill="url(#paint3_linear)" fill-opacity="0.4"/>
<path d="M4.55906 109.141C2.42874 58.1425 53.8395 22.0851 101.064 41.4567L970.566 398.128C996.841 408.906 1014 434.492 1014 462.891V800.914C1014 853.505 958.174 887.314 911.568 862.948L16.5 395L4.55906 109.141Z" transform="translate(567.5 -434.682)" fill="url(#paint4_linear)" fill-opacity="0.5"/>
<path d="M4.52319 109.105C2.40929 58.115 53.8134 22.0744 101.029 41.4423L970.566 398.128C996.841 408.906 1014 434.492 1014 462.891V926.5L16.5 398L4.52319 109.105Z" transform="translate(201.5 -581.682)" fill="url(#paint5_linear)" fill-opacity="0.5"/>
<path d="M2 0C2 -1.10457 1.10457 -2 0 -2C-1.10457 -2 -2 -1.10457 -2 0H2ZM-2 35C-2 36.1046 -1.10457 37 0 37C1.10457 37 2 36.1046 2 35H-2ZM-2 0V35H2V0H-2Z" transform="translate(1187.5 430.318)" fill="url(#paint6_linear)"/>
<path d="M2 0C2 -1.10457 1.10457 -2 0 -2C-1.10457 -2 -2 -1.10457 -2 0H2ZM-2 35C-2 36.1046 -1.10457 37 0 37C1.10457 37 2 36.1046 2 35H-2ZM-2 0V35H2V0H-2Z" transform="translate(1159.5 418.318)" fill="url(#paint7_linear)"/>
<path d="M43.0894 24.2807C44.0729 24.7836 45.2778 24.394 45.7807 23.4106C46.2836 22.4271 45.894 21.2222 44.9106 20.7193L43.0894 24.2807ZM0.910579 -1.78069C-0.0728677 -2.28359 -1.27779 -1.89402 -1.78069 -0.910579C-2.28359 0.0728677 -1.89402 1.27779 -0.910579 1.78069L0.910579 -1.78069ZM44.9106 20.7193L0.910579 -1.78069L-0.910579 1.78069L43.0894 24.2807L44.9106 20.7193Z" transform="translate(928.5 118.318)" fill="url(#paint8_linear)"/>
<path d="M65.5 34L0 0" transform="translate(1007.5 89.3176)" stroke="url(#paint9_linear)"/>
<path d="M65.5 34L0 0" transform="translate(1194.5 120.318)" stroke="url(#paint10_linear)"/>
<path d="M59.5 26.5L0 0" transform="translate(659.5 159.318)" stroke="url(#paint11_linear)"/>
<path d="M59.5 26.5L0 0" transform="translate(805.5 240.318)" stroke="url(#paint12_linear)"/>
</g>
<path d="M9.1261 77.1801L145.226 0.574856L377.25 133.245C380.815 135.284 380.969 140.37 377.533 142.621L245.986 228.788C244.203 229.956 241.906 229.988 240.09 228.871L8.94176 86.6574C5.37106 84.4605 5.47267 79.2364 9.1261 77.1801Z" transform="translate(682.423 296.043) rotate(-2.08297)" stroke="#FF9580"/>
<path d="M142.534 4.47379L147.587 1.49126L147.842 1.92187L150.108 0.584196L152.433 2.02273L152.696 1.59755L157.859 4.79267L157.596 5.21784L162.759 8.41296L163.022 7.98778L168.185 11.1829L167.922 11.6081L173.085 14.8032L173.348 14.378L178.512 17.5731L178.249 17.9983L183.412 21.1934L183.675 20.7682L188.838 23.9633L188.575 24.3885L193.738 27.5836L194.001 27.1584L199.164 30.3535L198.901 30.7787L204.064 33.9738L204.327 33.5487L209.49 36.7438L209.227 37.1689L214.39 40.364L214.654 39.9389L219.817 43.134L219.554 43.5592L224.717 46.7543L224.98 46.3291L230.143 49.5242L229.88 49.9494L235.043 53.1445L235.306 52.7193L240.469 55.9144L240.206 56.3396L245.369 59.5347L245.632 59.1095L250.795 62.3046L250.532 62.7298L255.695 65.9249L255.959 65.4997L261.122 68.6949L260.859 69.12L266.022 72.3151L266.285 71.89L271.448 75.0851L271.185 75.5103L276.348 78.7054L276.611 78.2802L281.774 81.4753L281.511 81.9005L286.674 85.0956L286.937 84.6704L292.101 87.8655L291.837 88.2907L297.001 91.4858L297.264 91.0606L302.427 94.2557L302.164 94.6809L307.327 97.876L307.59 97.4508L312.753 100.646L312.49 101.071L317.653 104.266L317.916 103.841L323.079 107.036L322.816 107.461L327.979 110.656L328.242 110.231L333.406 113.426L333.142 113.852L338.306 117.047L338.569 116.622L343.732 119.817L343.469 120.242L348.632 123.437L348.895 123.012L354.058 126.207L353.795 126.632L358.958 129.827L359.221 129.402L364.384 132.597L364.121 133.022L369.284 136.217L369.548 135.792L374.711 138.987L374.448 139.412L377.029 141.01C377.861 141.525 378.492 142.205 378.925 142.97L379.36 142.724C380.361 144.495 380.394 146.691 379.447 148.492L379.004 148.259C378.595 149.037 377.985 149.735 377.168 150.275L374.684 151.917L374.96 152.335L369.991 155.62L369.715 155.203L364.746 158.488L365.022 158.905L360.053 162.191L359.777 161.773L354.808 165.059L355.084 165.476L350.115 168.761L349.839 168.344L344.87 171.629L345.146 172.047L340.177 175.332L339.902 174.915L334.933 178.2L335.208 178.617L330.24 181.903L329.964 181.486L324.995 184.771L325.271 185.188L320.302 188.473L320.026 188.056L315.057 191.342L315.333 191.759L310.364 195.044L310.088 194.627L305.119 197.912L305.395 198.329L300.426 201.615L300.15 201.198L295.181 204.483L295.457 204.9L290.488 208.185L290.213 207.768L285.244 211.054L285.519 211.471L280.55 214.756L280.275 214.339L275.306 217.624L275.582 218.041L270.613 221.327L270.337 220.91L265.368 224.195L265.644 224.612L260.675 227.897L260.399 227.48L255.43 230.766L255.706 231.183L250.737 234.468L250.461 234.051L247.977 235.694C247.536 235.985 247.064 236.207 246.575 236.359L246.723 236.836C245.635 237.174 244.471 237.195 243.372 236.897L243.503 236.414C243.008 236.28 242.528 236.075 242.077 235.8L239.542 234.252L239.281 234.679L234.21 231.582L234.47 231.156L229.399 228.059L229.138 228.486L224.067 225.39L224.327 224.963L219.256 221.867L218.995 222.294L213.924 219.197L214.185 218.771L209.113 215.674L208.853 216.101L203.781 213.005L204.042 212.578L198.97 209.482L198.71 209.909L193.638 206.812L193.899 206.386L188.827 203.289L188.567 203.716L183.495 200.62L183.756 200.193L178.685 197.097L178.424 197.524L173.353 194.427L173.613 194.001L168.542 190.904L168.281 191.331L163.21 188.235L163.47 187.808L158.399 184.712L158.138 185.139L153.067 182.042L153.327 181.616L148.256 178.519L147.995 178.946L142.924 175.85L143.184 175.423L138.113 172.327L137.852 172.754L132.781 169.657L133.042 169.231L127.97 166.134L127.71 166.561L122.638 163.465L122.899 163.038L117.827 159.942L117.567 160.369L112.495 157.272L112.756 156.846L107.684 153.749L107.424 154.176L102.352 151.08L102.613 150.653L97.5415 147.557L97.281 147.984L92.2095 144.887L92.4701 144.461L87.3986 141.364L87.1381 141.791L82.0667 138.695L82.3272 138.268L77.2558 135.172L76.9952 135.599L71.9238 132.502L72.1843 132.076L67.1129 128.979L66.8523 129.406L61.7809 126.31L62.0414 125.883L56.97 122.787L56.7095 123.213L51.638 120.117L51.8986 119.69L46.8271 116.594L46.5666 117.021L41.4952 113.925L41.7557 113.498L36.6843 110.402L36.4237 110.828L31.3523 107.732L31.6128 107.305L26.5414 104.209L26.2808 104.636L21.2094 101.54L21.4699 101.113L16.3985 98.0167L16.138 98.4434L11.0665 95.3472L11.3271 94.9204L8.79136 93.3723C7.92867 92.8456 7.28129 92.1447 6.84411 91.3561L6.40681 91.5985C5.39185 89.7676 5.40887 87.4948 6.45114 85.6793L6.88477 85.9282C7.3337 85.1462 7.99151 84.4551 8.86199 83.9414L11.3889 82.4501L11.1347 82.0195L16.1885 79.037L16.4427 79.4676L21.4965 76.4851L21.2423 76.0545L26.2962 73.0719L26.5503 73.5025L31.6041 70.52L31.35 70.0894L36.4038 67.1069L36.6579 67.5375L41.7117 64.555L41.4576 64.1244L46.5114 61.1418L46.7655 61.5724L51.8193 58.5899L51.5652 58.1593L56.619 55.1768L56.8731 55.6074L61.9269 52.6248L61.6728 52.1942L66.7266 49.2117L66.9807 49.6423L72.0345 46.6598L71.7804 46.2292L76.8342 43.2467L77.0883 43.6773L82.1421 40.6947L81.888 40.2641L86.9418 37.2816L87.1959 37.7122L92.2497 34.7297L91.9956 34.2991L97.0494 31.3165L97.3035 31.7472L102.357 28.7646L102.103 28.334L107.157 25.3515L107.411 25.7821L112.465 22.7996L112.211 22.369L117.265 19.3864L117.519 19.817L122.573 16.8345L122.318 16.4039L127.372 13.4214L127.626 13.852L132.68 10.8695L132.426 10.4388L137.48 7.45632L137.734 7.88692L142.788 4.9044L142.534 4.47379Z" transform="translate(764.993 379.509) rotate(-2.17271)" stroke="#FF9A9A" stroke-dasharray="6 6"/>
<path d="M10 0L12.5 10H0L10 0Z" transform="translate(944.5 562.818)" fill="#FF9A9A"/>
<path d="M10 0L12.5 10H0L10 0Z" transform="translate(799.5 438.318)" fill="#FF9A9A"/>
<path d="M0.5 18.1804C0.5 10.2879 8.88118 5.21694 15.8724 8.87938L210.081 110.618C213.541 112.43 215.709 116.013 215.709 119.919V232.234C215.709 240.299 206.993 245.353 199.993 241.347L5.78446 130.199C2.51634 128.329 0.5 124.852 0.5 121.086V18.1804Z" transform="translate(999.189 130.487)" stroke="#FFC187" stroke-opacity="0.7"/>
<path d="M0.5 18.1825C0.5 10.2895 8.88207 5.21858 15.8734 8.88193L209.873 110.535C213.333 112.348 215.5 115.931 215.5 119.836V176.351C215.5 184.347 206.919 189.409 199.92 185.541L5.92042 78.3062C2.57602 76.4575 0.5 72.9379 0.5 69.1166V18.1825Z" transform="translate(860.5 121.318)" stroke="#FFC187"/>
<path d="M0 19.4889L62.5424 0L134 35" transform="translate(781.5 199.318)" stroke="#FC8D76" stroke-linecap="round" stroke-dasharray="8 8"/>
<path d="M0 0L40.5424 23.0111V104.511" transform="translate(1133.5 365.806)" stroke="#FF9F87" stroke-linecap="round" stroke-dasharray="8 8"/>
<path d="M0 10.0522C0 5.51059 4.85032 2.61552 8.84781 4.77116L235.518 127.003C238.755 128.748 240.772 132.128 240.772 135.804V285.188L233.805 291.75L0 156.359V10.0522Z" transform="translate(891.728 131.318)" fill="#D32D2D"/>
<path d="M0 7.91792C0 6.43458 0.658626 5.0278 1.79786 4.07783L5.04769 1.3679C5.69896 0.824828 6.68811 1.28793 6.68811 2.13592V155.325C6.68811 158.471 5.20719 161.434 2.69058 163.323L1.60025 164.141C0.941049 164.636 0 164.166 0 163.341V7.91792Z" transform="translate(1125.81 264.15)" fill="#BD2828"/>
<path d="M0 0L234.084 129.216V283.245L0 149.078V0Z" transform="translate(891.728 139.953)" fill="#FF6E77"/>
<path d="M0 0L216.209 119.263V251.204L0 127.465V0Z" transform="translate(899.189 154.487)" fill="#FFE9E8"/>
<ellipse cx="20" cy="24.5" rx="20" ry="24.5" transform="translate(970.5 250.318)" fill="#FD403D"/>
<path d="M0 0L16 14L0 22V0Z" transform="translate(984.5 263.318)" fill="white"/>
<g filter="url(#filter0_d)">
<path d="M145.228 0L377.563 132.848C381.437 135.063 381.623 140.582 377.906 143.053L248.256 229.249C246.314 230.54 243.799 230.589 241.808 229.374L8.73227 87.0743C4.82098 84.6864 4.92231 78.9724 8.9158 76.7247L145.228 0Z" transform="translate(746.5 288.951)" fill="#AE1212"/>
</g>
<path d="M137.584 0L372.624 134.804L238.384 222.762L0 78.8748L137.584 0Z" transform="translate(753.188 287.995)" fill="url(#paint13_linear)"/>
<path d="M33.9018 0L100.164 38.373L67.2054 59.7523L0 18.794L33.9018 0Z" transform="translate(853.994 394.716)" fill="#FE7F7F"/>
<path d="M66.8828 0L269.956 117.636L204.015 158.527L0 38.3049L66.8828 0Z" transform="translate(829.455 304.039)" fill="url(#paint14_linear)" fill-opacity="0.5"/>
<path d="M0 2.25891L7.74731 2.23317e-05L8.38076 155.043C8.39377 158.226 6.89075 161.225 4.33305 163.12L2.49841 164.478C1.84051 164.966 0.907784 164.499 0.903203 163.681L0 2.25891Z" transform="matrix(0.553219 0.833036 0.832709 -0.553712 989.674 511.952)" fill="#721414"/>
<path d="M10 0L12.5 10H0L10 0Z" transform="translate(1180.5 222.318)" fill="#FFB0AF"/>
<path d="M10 0L12.5 10H0L10 0Z" transform="translate(1050.5 154.318)" fill="#FFB0AF"/>
<rect width="68.0766" height="66.3711" transform="translate(1133.96 421.318)" fill="url(#paint15_linear)"/>
<path d="M0 0H98.0766L78.0766 66.3711H10L0 0Z" transform="translate(1123.96 421.318)" fill="url(#paint16_linear)"/>
<path d="M69.1486 22.9128C69.1486 35.5672 53.7883 44.7599 34.8403 44.7599C15.8923 44.7599 0 35.5672 0 22.9128C0 10.2584 15.8923 0 34.8403 0C53.7883 0 69.1486 10.2584 69.1486 22.9128Z" transform="translate(1130.5 487.558)" fill="#FF7C5C"/>
<path d="M69.1486 22.9128C69.1486 35.5672 53.7883 44.7599 34.8403 44.7599C15.8923 44.7599 0 35.5672 0 22.9128C0 10.2584 15.8923 0 34.8403 0C53.7883 0 69.1486 10.2584 69.1486 22.9128Z" transform="translate(1130.5 483.295)" fill="#FFDB49"/>
<path d="M59.5742 19.6395C59.5742 30.4862 46.3407 38.3656 30.0162 38.3656C13.6918 38.3656 0 30.4862 0 19.6395C0 8.79292 13.6918 0 30.0162 0C46.3407 0 59.5742 8.79292 59.5742 19.6395Z" transform="translate(1135.29 486.492)" fill="url(#paint17_linear)"/>
<path d="M0 11.0971C5.05317 3.90347 28.936 -9.79088 55.3189 11.0971C40.4254 2.56672 22.3403 -5.10174 0 11.0971Z" transform="translate(1138.21 487.384)" fill="#D76B5C"/>
<path d="M69.1486 22.9128C69.1486 35.5672 53.7883 44.7599 34.8403 44.7599C15.8923 44.7599 0 35.5672 0 22.9128C0 10.2584 15.8923 0 34.8403 0C53.7883 0 69.1486 10.2584 69.1486 22.9128Z" transform="translate(1136.35 479.032)" fill="url(#paint18_linear)"/>
<path d="M69.1486 22.9128C69.1486 35.5672 53.7883 44.7599 34.8403 44.7599C15.8923 44.7599 0 35.5672 0 22.9128C0 10.2584 15.8923 0 34.8403 0C53.7883 0 69.1486 10.2584 69.1486 22.9128Z" transform="translate(1136.35 474.769)" fill="#FFDB49"/>
<path d="M59.5742 19.6395C59.5742 30.4862 46.3407 38.3656 30.0162 38.3656C13.6918 38.3656 0 30.4862 0 19.6395C0 8.79292 13.6918 0 30.0162 0C46.3407 0 59.5742 8.79292 59.5742 19.6395Z" transform="translate(1141.14 477.966)" fill="url(#paint19_linear)"/>
<path d="M0 11.0971C5.05317 3.90347 28.936 -9.79088 55.3189 11.0971C40.4254 2.56672 22.3403 -5.10174 0 11.0971Z" transform="translate(1144.07 478.859)" fill="#D76B5C"/>
<path d="M69.1486 22.9128C69.1486 35.5672 53.7883 44.7599 34.8403 44.7599C15.8923 44.7599 0 35.5672 0 22.9128C0 10.2584 15.8923 0 34.8403 0C53.7883 0 69.1486 10.2584 69.1486 22.9128Z" transform="translate(1133.69 466.776)" fill="#FF7C5C"/>
<path d="M69.1486 22.9128C69.1486 35.5672 53.7883 44.7599 34.8403 44.7599C15.8923 44.7599 0 35.5672 0 22.9128C0 10.2584 15.8923 0 34.8403 0C53.7883 0 69.1486 10.2584 69.1486 22.9128Z" transform="translate(1133.69 462.513)" fill="#FFDB49"/>
<path d="M59.5742 19.6395C59.5742 30.4862 46.3407 38.3656 30.0162 38.3656C13.6918 38.3656 0 30.4862 0 19.6395C0 8.79292 13.6918 0 30.0162 0C46.3407 0 59.5742 8.79292 59.5742 19.6395Z" transform="translate(1138.48 465.711)" fill="url(#paint20_linear)"/>
<path d="M10.4644 15.3745H18.6772V26.1079C18.1297 26.2873 17.5775 26.4525 17.0205 26.6035C16.4635 26.7451 15.883 26.8678 15.2788 26.9717C14.6841 27.0661 14.0563 27.1416 13.3955 27.1982C12.7441 27.2549 12.0503 27.2832 11.314 27.2832C9.76579 27.2832 8.39225 27.0566 7.19336 26.6035C6.00391 26.141 4.99854 25.4613 4.17725 24.5645C3.3654 23.6582 2.74707 22.5443 2.32227 21.2227C1.89746 19.8916 1.68506 18.3576 1.68506 16.6206C1.68506 14.9969 1.92106 13.529 2.39307 12.2168C2.86507 10.9046 3.55892 9.79069 4.47461 8.875C5.39974 7.94987 6.53255 7.24186 7.87305 6.75098C9.22298 6.25065 10.7664 6.00049 12.5034 6.00049C13.6079 6.00049 14.6888 6.11849 15.7461 6.35449C16.8034 6.59049 17.771 6.8973 18.6489 7.2749L17.1904 10.7866C16.5485 10.4657 15.8216 10.1966 15.0098 9.97949C14.2074 9.76237 13.3625 9.65381 12.4751 9.65381C11.5122 9.65381 10.6437 9.82373 9.86963 10.1636C9.10498 10.494 8.44889 10.966 7.90137 11.5796C7.35384 12.1932 6.93376 12.9342 6.64111 13.8027C6.34847 14.6712 6.20215 15.6388 6.20215 16.7056C6.20215 17.7251 6.30127 18.6597 6.49951 19.5093C6.70719 20.3494 7.02816 21.0763 7.4624 21.6899C7.89665 22.3035 8.45361 22.7803 9.1333 23.1201C9.82243 23.46 10.6437 23.6299 11.5972 23.6299C12.2202 23.6299 12.7441 23.6016 13.1689 23.5449C13.6032 23.4883 14.0091 23.4222 14.3867 23.3467V19.0278H10.4644V15.3745ZM25.136 19.0562C25.136 20.6326 25.3578 21.8221 25.8015 22.6245C26.2452 23.4175 26.9674 23.814 27.968 23.814C28.9592 23.814 29.6767 23.4128 30.1204 22.6104C30.564 21.8079 30.7859 20.6232 30.7859 19.0562C30.7859 17.4797 30.564 16.3044 30.1204 15.5303C29.6767 14.7467 28.9498 14.355 27.9397 14.355C26.9485 14.355 26.231 14.7467 25.7873 15.5303C25.3531 16.3044 25.136 17.4797 25.136 19.0562ZM35.1897 19.0562C35.1897 20.3778 35.0198 21.5483 34.6799 22.5679C34.3495 23.5874 33.8681 24.4465 33.2356 25.145C32.6125 25.8436 31.8479 26.377 30.9416 26.7451C30.0448 27.1038 29.0347 27.2832 27.9114 27.2832C26.8635 27.2832 25.9006 27.1038 25.0227 26.7451C24.1448 26.377 23.3848 25.8436 22.7429 25.145C22.1104 24.4465 21.6148 23.5874 21.2561 22.5679C20.8974 21.5483 20.718 20.3778 20.718 19.0562C20.718 17.744 20.8832 16.5781 21.2136 15.5586C21.5535 14.5391 22.0349 13.6847 22.6579 12.9956C23.2904 12.297 24.0551 11.7684 24.9519 11.4097C25.8487 11.0509 26.8635 10.8716 27.9963 10.8716C29.0442 10.8716 30.0071 11.0509 30.885 11.4097C31.7629 11.7684 32.5181 12.297 33.1506 12.9956C33.7926 13.6847 34.2929 14.5391 34.6516 15.5586C35.0103 16.5781 35.1897 17.744 35.1897 19.0562Z" transform="translate(1148.75 500.981) rotate(-77.1834)" fill="#FFA800"/>
<path d="M0 11.0971C5.05317 3.90347 28.936 -9.79088 55.3189 11.0971C40.4254 2.56672 22.3403 -5.10174 0 11.0971Z" transform="translate(1141.41 466.603)" fill="#D76B5C"/>
<path d="M23 0L88 0L62.0857 63H0L23 0Z" transform="translate(830.5 186.318) rotate(90)" fill="url(#paint21_linear)"/>
<ellipse cx="30.5" cy="34" rx="30.5" ry="34" transform="translate(733.5 185.318)" fill="url(#paint22_linear)"/>
<ellipse cx="30.5" cy="33" rx="30.5" ry="33" transform="translate(738.5 187.318)" fill="#FFE683"/>
<ellipse cx="26.5" cy="29" rx="26.5" ry="29" transform="translate(742.5 191.318)" fill="url(#paint23_linear)"/>
<path d="M12.9902 18.5684H23.1855V31.8926C22.5059 32.1152 21.8203 32.3203 21.1289 32.5078C20.4375 32.6836 19.7168 32.8359 18.9668 32.9648C18.2285 33.082 17.4492 33.1758 16.6289 33.2461C15.8203 33.3164 14.959 33.3516 14.0449 33.3516C12.123 33.3516 10.418 33.0703 8.92969 32.5078C7.45312 31.9336 6.20508 31.0898 5.18555 29.9766C4.17773 28.8516 3.41016 27.4688 2.88281 25.8281C2.35547 24.1758 2.0918 22.2715 2.0918 20.1152C2.0918 18.0996 2.38477 16.2773 2.9707 14.6484C3.55664 13.0195 4.41797 11.6367 5.55469 10.5C6.70312 9.35156 8.10938 8.47266 9.77344 7.86328C11.4492 7.24219 13.3652 6.93164 15.5215 6.93164C16.8926 6.93164 18.2344 7.07812 19.5469 7.37109C20.8594 7.66406 22.0605 8.04492 23.1504 8.51367L21.3398 12.873C20.543 12.4746 19.6406 12.1406 18.6328 11.8711C17.6367 11.6016 16.5879 11.4668 15.4863 11.4668C14.291 11.4668 13.2129 11.6777 12.252 12.0996C11.3027 12.5098 10.4883 13.0957 9.80859 13.8574C9.12891 14.6191 8.60742 15.5391 8.24414 16.6172C7.88086 17.6953 7.69922 18.8965 7.69922 20.2207C7.69922 21.4863 7.82227 22.6465 8.06836 23.7012C8.32617 24.7441 8.72461 25.6465 9.26367 26.4082C9.80273 27.1699 10.4941 27.7617 11.3379 28.1836C12.1934 28.6055 13.2129 28.8164 14.3965 28.8164C15.1699 28.8164 15.8203 28.7812 16.3477 28.7109C16.8867 28.6406 17.3906 28.5586 17.8594 28.4648V23.1035H12.9902V18.5684Z" transform="translate(743.81 202.081) rotate(-0.341256)" fill="#FFA800"/>
<ellipse cx="9.5" cy="14" rx="9.5" ry="14" transform="translate(770 208)" fill="url(#paint24_linear)"/>
<path d="M6.15077 1.36585C6.54205 0.736541 7.45795 0.736541 7.84923 1.36585L12.1121 8.22198C12.5263 8.88811 12.0473 9.75 11.2629 9.75H2.73712C1.95273 9.75 1.47371 8.88811 1.88789 8.22198L6.15077 1.36585Z" transform="translate(786 215) rotate(90)" fill="#FFD114"/>
<path d="M0 21.6007C0.5 10.6013 23 -10.3989 47 6.10122C30 0.0310459 9.5 2.60107 0 21.6007Z" transform="translate(795.602 191.318) rotate(90)" fill="#FFA800"/>
<rect width="50" height="66" transform="translate(1103.5 244.318) scale(1 -1)" fill="url(#paint25_linear)"/>
<path d="M0 0L25.7812 14.7955V46.7225L0 31.9271V0Z" transform="translate(1103.5 178.595)" fill="url(#paint26_linear)"/>
<path d="M0 0L25 15.5742L24.2187 47.5013L0 31.9271V0Z" transform="translate(1153.5 177.816) scale(-1 1)" fill="url(#paint27_linear)"/>
<path d="M0 0H50V34.2857L0 35V0Z" transform="translate(1103.5 143.318)" fill="url(#paint28_linear)" fill-opacity="0.6"/>
<path d="M0 0L26.4422 9.44868L34.6511 35.9418L6.21471 28.3573L0 0Z" transform="matrix(0.683998 -0.729484 0.731704 0.681623 1103.5 178.595)" fill="#FA9944"/>
<ellipse cx="15" cy="6" rx="15" ry="6" transform="translate(1114.5 184.318) scale(1 -1)" fill="url(#paint29_radial)" fill-opacity="0.4"/>
<path opacity="0.96" d="M0 0L50.6078 4.02157" transform="matrix(0.874161 -0.485636 0.476048 0.879419 1127.35 178.895)" stroke="url(#paint30_linear)"/>
<path opacity="0.96" d="M-0.0926119 0.491348L46.1942 9.21574L46.3795 8.23304L0.0926119 -0.491348L-0.0926119 0.491348Z" transform="matrix(-0.874161 -0.485636 -0.476048 0.879419 1128.12 178.895)" fill="url(#paint31_linear)"/>
<path opacity="0.96" d="M-0.000141194 5.03249L22.9796 0" transform="matrix(-0.874161 -0.485636 -0.476048 0.879419 1130.51 173.69)" stroke="url(#paint32_linear)"/>
<path opacity="0.96" d="M0 18.8955L19.0482 -0.000148176" transform="matrix(-0.0226051 -0.999744 -0.999731 0.0231988 1147.78 177.677)" stroke="url(#paint33_linear)"/>
<path opacity="0.96" d="M0 18.1591L10.5761 0" transform="matrix(0.589308 0.807908 -0.800541 0.599278 1141.88 168.012)" stroke="url(#paint34_linear)"/>
<path opacity="0.96" d="M0 0L23.4122 10.3453" transform="matrix(-0.872895 0.487908 -0.478302 -0.878196 1128.12 178.895)" stroke="url(#paint35_linear)"/>
<ellipse cx="3.84615" cy="1.55854" rx="3.84615" ry="1.55854" transform="translate(1125.04 180.453) scale(1 -1)" fill="white" fill-opacity="0.62"/>
<path d="M4.92308 14.6977L3.70909 13.8167L3.52152 14.0751L3.45549 14.3876L4.92308 14.6977ZM15.5897 0L16.8037 -0.881036L15.5897 -2.55381L14.3758 -0.881036L15.5897 0ZM26.2564 14.6977L27.7128 14.3386L27.6426 14.054L27.4704 13.8167L26.2564 14.6977ZM16.1368 49L15.2915 50.2391L16.144 50.8207L16.9919 50.2324L16.1368 49ZM0 37.9923L-1.46758 37.6821L-1.67535 38.6652L-0.845289 39.2314L0 37.9923ZM32 37.9923L32.8552 39.2246L33.7036 38.6359L33.4564 37.6332L32 37.9923ZM6.13707 15.5788L16.8037 0.881036L14.3758 -0.881036L3.70909 13.8167L6.13707 15.5788ZM14.3758 0.881036L25.0424 15.5788L27.4704 13.8167L16.8037 -0.881036L14.3758 0.881036ZM24.8177 14.2733L14.6981 48.5756L17.5755 49.4244L27.6951 15.1222L24.8177 14.2733ZM17.5625 48.5339L6.34883 14.2316L3.49733 15.1638L14.711 49.4661L17.5625 48.5339ZM3.45549 14.3876L-1.46758 37.6821L1.46758 38.3024L6.39066 15.0079L3.45549 14.3876ZM-0.845289 39.2314L15.2915 50.2391L16.982 47.7609L0.845289 36.7531L-0.845289 39.2314ZM16.9919 50.2324L32.8552 39.2246L31.1448 36.7599L15.2816 47.7676L16.9919 50.2324ZM33.4564 37.6332L27.7128 14.3386L24.8 15.0568L30.5436 38.3514L33.4564 37.6332Z" transform="translate(1112.5 120.318)" fill="#FEFFD7" fill-opacity="0.86"/>
<path d="M0 0H4V6H0V0Z" transform="translate(753 206)" fill="#FFA800"/>
<path d="M0.0583254 0H4.05833L4.25312 6.69609L1.66802e-05 6.81275L0.0583254 0Z" transform="translate(1153 494.142) rotate(-76.8607)" fill="#FFA800"/>
<path d="M0.0583254 0H4.05833L4.25312 6.69609L1.66802e-05 6.81275L0.0583254 0Z" transform="translate(1154 488.142) rotate(-76.8607)" fill="#FFA800"/>
<path d="M0 0H4V5H0V0Z" transform="translate(1175.11 497.609) rotate(-78.1173)" fill="#FFA800"/>
<path d="M0 0H4V5H0V0Z" transform="translate(1175.95 492.122) rotate(-79.2015)" fill="#FFA800"/>
<path d="M0 0H4V6.5L0 6V0Z" transform="translate(760 206)" fill="#FFA800"/>
<path d="M0 0H4V6.5L0 6V0Z" transform="translate(761.5 238.818) scale(1 -1)" fill="#FFA800"/>
<path d="M0 0H4V6.5L0 6V0Z" transform="translate(754.5 238.818) scale(1 -1)" fill="#FFA800"/>
<path d="M0 13.5882L27.3281 29.2353V63L0 47.3529V13.5882Z" transform="translate(1188.5 304.318)" fill="#FFEA2F" fill-opacity="0.45"/>
<path d="M53 12.7647L27.3281 29.2353V63L53 46.5294V12.7647Z" transform="translate(1188.5 304.318)" fill="#FFEA2F" fill-opacity="0.45"/>
<path d="M0 13.5882L26.5 0L53 12.7647L27.3281 29.2353L0 13.5882Z" transform="translate(1188.5 304.318)" fill="#FFEA2F" fill-opacity="0.45"/>
<path d="M0 8.26897L16.7578 17.7908V38.3379L0 28.8161V8.26897Z" transform="translate(1198.5 316.407)" fill="#FFEA2F" fill-opacity="0.75"/>
<path d="M32.5 7.76783L16.7578 17.7908V38.3379L32.5 28.315V7.76783Z" transform="translate(1198.5 316.407)" fill="#FFEA2F" fill-opacity="0.75"/>
<path d="M0 8.26897L16.25 0L32.5 7.76783L16.7578 17.7908L0 8.26897Z" transform="translate(1198.5 316.407)" fill="#FFEA2F" fill-opacity="0.75"/>
<path d="M0 13.5882L27.3281 29.2353V63L0 47.3529V13.5882Z" transform="translate(835.5 101.318)" fill="#FFEA2F" fill-opacity="0.45"/>
<path d="M53 12.7647L27.3281 29.2353V63L53 46.5294V12.7647Z" transform="translate(835.5 101.318)" fill="#FFEA2F" fill-opacity="0.45"/>
<path d="M0 13.5882L26.5 0L53 12.7647L27.3281 29.2353L0 13.5882Z" transform="translate(835.5 101.318)" fill="#FFEA2F" fill-opacity="0.45"/>
<path d="M0 8.26897L16.7578 17.7908V38.3379L0 28.8161V8.26897Z" transform="translate(845.5 113.407)" fill="#FFEA2F" fill-opacity="0.79"/>
<path d="M32.5 7.76783L16.7578 17.7908V38.3379L32.5 28.315V7.76783Z" transform="translate(845.5 113.407)" fill="#FFEA2F" fill-opacity="0.79"/>
<path d="M0 8.26897L16.25 0L32.5 7.76783L16.7578 17.7908L0 8.26897Z" transform="translate(845.5 113.407)" fill="#FFEA2F" fill-opacity="0.79"/>
<defs>
<filter id="filter0_d" x="738.358" y="278.951" width="402.726" height="258.253" filterUnits="userSpaceOnUse" color-interpolation-filters="sRGB">
<feFlood flood-opacity="0" result="BackgroundImageFix"/>
<feColorMatrix in="SourceAlpha" type="matrix" values="0 0 0 0 0 0 0 0 0 0 0 0 0 0 0 0 0 0 255 0"/>
<feOffset dy="4"/>
<feGaussianBlur stdDeviation="7"/>
<feColorMatrix type="matrix" values="0 0 0 0 0 0 0 0 0 0 0 0 0 0 0 0 0 0 0.09 0"/>
<feBlend mode="normal" in2="BackgroundImageFix" result="effect1_dropShadow"/>
<feBlend mode="normal" in="SourceGraphic" in2="effect1_dropShadow" result="shape"/>
</filter>
<linearGradient id="paint0_linear" x2="1" gradientUnits="userSpaceOnUse" gradientTransform="matrix(-130 -692 1119.05 -210.227 575.974 791.94)">
<stop stop-color="#F9F9F9"/>
<stop offset="1" stop-color="white" stop-opacity="0"/>
</linearGradient>
<linearGradient id="paint1_linear" x2="1" gradientUnits="userSpaceOnUse" gradientTransform="matrix(-969.5 350.793 -352.372 -948.248 974.686 751.404)">
<stop stop-color="#FB6060"/>
<stop offset="1" stop-color="#FF0000"/>
</linearGradient>
<linearGradient id="paint2_linear" x2="1" gradientUnits="userSpaceOnUse" gradientTransform="matrix(-944 282 -284.661 -923.811 1200.33 677.088)">
<stop stop-color="#FB6060"/>
<stop offset="1" stop-color="#FF0000"/>
</linearGradient>
<linearGradient id="paint3_linear" x2="1" gradientUnits="userSpaceOnUse" gradientTransform="matrix(-20.1565 626.912 -621.396 -19.9792 1142.59 773.739)">
<stop stop-color="#FE5959" stop-opacity="0"/>
<stop offset="1" stop-color="#EFD26B"/>
</linearGradient>
<linearGradient id="paint4_linear" x2="1" gradientUnits="userSpaceOnUse" gradientTransform="matrix(-343.5 -125.5 124.396 -340.478 728.802 829.739)">
<stop stop-color="#FEAC32" stop-opacity="0.52"/>
<stop offset="0.694993" stop-color="#F9FFB8" stop-opacity="0"/>
</linearGradient>
<linearGradient id="paint5_linear" x2="1" gradientUnits="userSpaceOnUse" gradientTransform="matrix(-124.5 -164.5 163.053 -123.405 894.474 857.202)">
<stop stop-color="#FFC163" stop-opacity="0.35"/>
<stop offset="1" stop-color="#F9FFB8" stop-opacity="0"/>
</linearGradient>
<linearGradient id="paint6_linear" x2="1" gradientUnits="userSpaceOnUse" gradientTransform="translate(-36.3725 35) scale(72.7451 35) rotate(-90)">
<stop stop-color="#FFD392"/>
<stop offset="1" stop-color="#FFD392" stop-opacity="0"/>
</linearGradient>
<linearGradient id="paint7_linear" x2="1" gradientUnits="userSpaceOnUse" gradientTransform="translate(-36.3725 35) scale(72.7451 35) rotate(-90)">
<stop stop-color="#FFD392"/>
<stop offset="1" stop-color="#FFD392" stop-opacity="0"/>
</linearGradient>
<linearGradient id="paint8_linear" x2="1" gradientUnits="userSpaceOnUse" gradientTransform="matrix(68 23.5 -48.8431 141.333 -9.57844 -77.6666)">
<stop stop-color="#FFD392"/>
<stop offset="1" stop-color="#FFD392" stop-opacity="0"/>
</linearGradient>
<linearGradient id="paint9_linear" x2="1" gradientUnits="userSpaceOnUse" gradientTransform="matrix(93 46 -73.4171 148.43 5.20861 -93.7153)">
<stop stop-color="white"/>
<stop offset="0.966955" stop-color="#F9D370" stop-opacity="0.17"/>
</linearGradient>
<linearGradient id="paint10_linear" x2="1" gradientUnits="userSpaceOnUse" gradientTransform="matrix(93 46 -73.4171 148.43 5.20861 -93.7153)">
<stop stop-color="white"/>
<stop offset="0.966955" stop-color="#F9D370" stop-opacity="0.17"/>
</linearGradient>
<linearGradient id="paint11_linear" x2="1" gradientUnits="userSpaceOnUse" gradientTransform="matrix(77 41.5 -66.2351 122.894 -4.3824 -82.447)">
<stop stop-color="white"/>
<stop offset="0.966955" stop-color="#F9D370" stop-opacity="0.17"/>
</linearGradient>
<linearGradient id="paint12_linear" x2="1" gradientUnits="userSpaceOnUse" gradientTransform="matrix(77 41.5 -66.2351 122.894 -4.3824 -82.447)">
<stop stop-color="white"/>
<stop offset="0.966955" stop-color="#F9D370" stop-opacity="0.17"/>
</linearGradient>
<linearGradient id="paint13_linear" x2="1" gradientUnits="userSpaceOnUse" gradientTransform="matrix(110.832 211.289 -353.433 185.631 310.479 -92.8157)">
<stop stop-color="#FE8585"/>
<stop offset="1" stop-color="#FFE7C3"/>
</linearGradient>
<linearGradient id="paint14_linear" x2="1" gradientUnits="userSpaceOnUse" gradientTransform="matrix(52.4333 158.248 -269.48 89.2889 217.285 -44.3655)">
<stop stop-color="#FD4C4C"/>
<stop offset="1" stop-color="#FD0000" stop-opacity="0.29"/>
</linearGradient>
<linearGradient id="paint15_linear" x2="1" gradientUnits="userSpaceOnUse" gradientTransform="matrix(0.57692 -56.0722 57.513 0.582028 8.16641 64.3636)">
<stop stop-color="#FFD35A" stop-opacity="0.57"/>
<stop offset="1" stop-color="#FFD85D" stop-opacity="0"/>
</linearGradient>
<linearGradient id="paint16_linear" x2="1" gradientUnits="userSpaceOnUse" gradientTransform="matrix(0.57692 -56.0722 57.513 0.582028 18.1664 64.3636)">
<stop stop-color="#FFD35A" stop-opacity="0.57"/>
<stop offset="1" stop-color="#FFD85D" stop-opacity="0"/>
</linearGradient>
<linearGradient id="paint17_linear" x2="1" gradientUnits="userSpaceOnUse" gradientTransform="matrix(-51.9869 4.2315 -6.57068 -81.3527 58.0824 55.6277)">
<stop stop-color="#FFE060"/>
<stop offset="1" stop-color="#FFC252"/>
</linearGradient>
<linearGradient id="paint18_linear" x2="1" gradientUnits="userSpaceOnUse" gradientTransform="matrix(57.9785 11.19 -17.2872 89.8877 12.6329 -19.8996)">
<stop stop-color="#FF7654"/>
<stop offset="1" stop-color="#DA2D03"/>
</linearGradient>
<linearGradient id="paint19_linear" x2="1" gradientUnits="userSpaceOnUse" gradientTransform="matrix(-51.9869 4.2315 -6.57068 -81.3527 58.0824 55.6277)">
<stop stop-color="#FFC654"/>
<stop offset="1" stop-color="#FFB836"/>
</linearGradient>
<linearGradient id="paint20_linear" x2="1" gradientUnits="userSpaceOnUse" gradientTransform="matrix(-51.9869 4.2315 -6.57068 -81.3527 58.0824 55.6277)">
<stop stop-color="#FFE060"/>
<stop offset="1" stop-color="#FFC252"/>
</linearGradient>
<linearGradient id="paint21_linear" x2="1" gradientUnits="userSpaceOnUse" gradientTransform="matrix(21 -57 64.5741 23.6303 -4.28705 51.1848)">
<stop stop-color="#FFD35A" stop-opacity="0.61"/>
<stop offset="1" stop-color="#FFD85D" stop-opacity="0"/>
</linearGradient>
<linearGradient id="paint22_linear" x2="1" gradientUnits="userSpaceOnUse" gradientTransform="matrix(-18.5 59.6232 -53.4855 -16.118 57.2428 8.05902)">
<stop stop-color="#F9D388"/>
<stop offset="1" stop-color="#FC791A"/>
</linearGradient>
<linearGradient id="paint23_linear" x2="1" gradientUnits="userSpaceOnUse" gradientTransform="translate(53) scale(53 58) rotate(90)">
<stop stop-color="#FFD52A"/>
<stop offset="1" stop-color="#FFCF0E"/>
</linearGradient>
<linearGradient id="paint24_linear" x2="1" gradientUnits="userSpaceOnUse" gradientTransform="matrix(22 16 -10.8571 14.9286 5.42857 4.53571)">
<stop stop-color="#FFA800"/>
<stop offset="1" stop-color="#FFA800" stop-opacity="0"/>
</linearGradient>
<linearGradient id="paint25_linear" x2="1" gradientUnits="userSpaceOnUse" gradientTransform="matrix(0.423728 -55.7586 42.2414 0.578773 5.99795 64.0037)">
<stop stop-color="#FFD35A" stop-opacity="0.57"/>
<stop offset="1" stop-color="#FFD85D" stop-opacity="0"/>
</linearGradient>
<linearGradient id="paint26_linear" x2="1" gradientUnits="userSpaceOnUse" gradientTransform="translate(1.17187 13.1115) scale(24.6094 13.4911)">
<stop stop-color="#FFDD74"/>
<stop offset="0.999988" stop-color="#FEC36A"/>
</linearGradient>
<linearGradient id="paint27_linear" x2="1" gradientUnits="userSpaceOnUse" gradientTransform="matrix(33.2031 22.5826 -12.4276 19.2643 -1.98931 8.66749)">
<stop stop-color="#FFDF7F"/>
<stop offset="1" stop-color="#FF964C"/>
</linearGradient>
<linearGradient id="paint28_linear" x2="1" gradientUnits="userSpaceOnUse" gradientTransform="translate(5.76923 39.2857) scale(30.4615 34.2857) rotate(-90)">
<stop stop-color="#FDBA7F" stop-opacity="0.52"/>
<stop offset="1" stop-color="#F2994A" stop-opacity="0"/>
</linearGradient>
<radialGradient id="paint29_radial" cx="0.5" cy="0.5" r="0.5" gradientUnits="userSpaceOnUse" gradientTransform="translate(31 46) scale(32 80) rotate(-180)">
<stop stop-color="white" stop-opacity="0.74"/>
<stop offset="1" stop-color="white" stop-opacity="0"/>
</radialGradient>
<linearGradient id="paint30_linear" x2="1" gradientUnits="userSpaceOnUse" gradientTransform="matrix(42.4678 9.27381 -325.601 1511.97 163.477 -755.61)">
<stop stop-color="#FFE9E8"/>
<stop offset="1" stop-color="#FFE9E8" stop-opacity="0"/>
</linearGradient>
<linearGradient id="paint31_linear" x2="1" gradientUnits="userSpaceOnUse" gradientTransform="matrix(30.3996 8.81232 -309.398 1082.31 154.022 -541.528)">
<stop stop-color="#FFE9E8"/>
<stop offset="1" stop-color="#FFE9E8" stop-opacity="0"/>
</linearGradient>
<linearGradient id="paint32_linear" x2="1" gradientUnits="userSpaceOnUse" gradientTransform="matrix(15.3876 -4.79433 168.328 547.84 -89.0109 -268.906)">
<stop stop-color="#FFE9E8"/>
<stop offset="1" stop-color="#FFE9E8" stop-opacity="0"/>
</linearGradient>
<linearGradient id="paint33_linear" x2="1" gradientUnits="userSpaceOnUse" gradientTransform="matrix(20.5172 -22.7777 815.812 716.055 -416.351 -333.553)">
<stop stop-color="#FFE9E8"/>
<stop offset="1" stop-color="#FFE9E8" stop-opacity="0"/>
</linearGradient>
<linearGradient id="paint34_linear" x2="1" gradientUnits="userSpaceOnUse" gradientTransform="matrix(19.3549 -21.7471 771.809 681.698 -394.059 -318.643)">
<stop stop-color="#FFE9E8"/>
<stop offset="1" stop-color="#FFE9E8" stop-opacity="0"/>
</linearGradient>
<linearGradient id="paint35_linear" x2="1" gradientUnits="userSpaceOnUse" gradientTransform="matrix(17.2001 9.70616 -340.8 612.336 159.381 -301.682)">
<stop stop-color="#FFE9E8"/>
<stop offset="1" stop-color="#FFE9E8" stop-opacity="0"/>
</linearGradient>
</defs>
</svg>
