<svg width="837" height="690" viewBox="0 0 837 690" fill="none" xmlns="http://www.w3.org/2000/svg">
<g filter="url(#filter0_d)">
<path d="M0.5 23.1662C0.5 13.0125 11.2878 6.49315 20.2772 11.2144L174.277 92.0955C178.718 94.428 181.5 99.0309 181.5 104.047V187.826C181.5 198.202 170.281 204.7 161.281 199.536L7.28139 111.174C3.0868 108.767 0.5 104.3 0.5 99.4641V23.1662Z" transform="translate(423.5 115.318)" stroke="#FF9F87"/>
<mask id="mask0" mask-type="alpha" maskUnits="userSpaceOnUse" x="4" y="-395" width="1015" height="1036">
<path d="M0 103.851C0 54.2056 50.2455 20.338 96.264 38.9649L970.264 392.735C996.699 403.435 1014 429.103 1014 457.621V998.753C1014 1052.19 956.538 1085.92 909.879 1059.87L35.8788 571.954C13.7269 559.588 0 536.203 0 510.834V103.851Z" transform="translate(4.5 -428.682)" fill="url(#paint0_linear)"/>
</mask>
<g mask="url(#mask0)">
<path d="M0 103.851C0 54.2056 50.2455 20.338 96.264 38.9649L970.264 392.735C996.699 403.435 1014 429.103 1014 457.621V998.753C1014 1052.19 956.538 1085.92 909.879 1059.87L35.8788 571.954C13.7269 559.588 0 536.203 0 510.834V103.851Z" transform="translate(-15.5 -428.682)" fill="url(#paint1_linear)"/>
<path d="M78.856 106.009C85.2009 55.9736 140.777 28.866 184.113 54.6695L905.743 484.356C928.068 497.649 941.193 522.214 939.835 548.161L906.591 1183.09C904.622 1220.69 863.384 1242.7 831.051 1223.42L39.3574 751.336C15.4524 737.081 2.26328 710.018 5.76459 682.407L78.856 106.009Z" transform="translate(-95.9785 -1037) scale(-1 1) rotate(60)" fill="url(#paint2_linear)" fill-opacity="0.4"/>
<path d="M4.55906 109.141C2.42874 58.1425 53.8395 22.0851 101.064 41.4567L970.566 398.128C996.841 408.906 1014 434.492 1014 462.891V800.914C1014 853.505 958.174 887.314 911.568 862.948L16.5 395L4.55906 109.141Z" transform="translate(124.5 -434.682)" fill="url(#paint3_linear)" fill-opacity="0.5"/>
<path d="M4.52319 109.105C2.40929 58.115 53.8134 22.0744 101.029 41.4423L970.566 398.128C996.841 408.906 1014 434.492 1014 462.891V926.5L16.5 398L4.52319 109.105Z" transform="translate(-241.5 -581.682)" fill="url(#paint4_linear)" fill-opacity="0.5"/>
<path d="M2 0C2 -1.10457 1.10457 -2 0 -2C-1.10457 -2 -2 -1.10457 -2 0H2ZM-2 35C-2 36.1046 -1.10457 37 0 37C1.10457 37 2 36.1046 2 35H-2ZM-2 0V35H2V0H-2Z" transform="translate(744.5 430.318)" fill="url(#paint5_linear)"/>
<path d="M2 0C2 -1.10457 1.10457 -2 0 -2C-1.10457 -2 -2 -1.10457 -2 0H2ZM-2 35C-2 36.1046 -1.10457 37 0 37C1.10457 37 2 36.1046 2 35H-2ZM-2 0V35H2V0H-2Z" transform="translate(716.5 418.318)" fill="url(#paint6_linear)"/>
<path d="M43.0894 24.2807C44.0729 24.7836 45.2778 24.394 45.7807 23.4106C46.2836 22.4271 45.894 21.2222 44.9106 20.7193L43.0894 24.2807ZM0.910579 -1.78069C-0.0728677 -2.28359 -1.27779 -1.89402 -1.78069 -0.910579C-2.28359 0.0728677 -1.89402 1.27779 -0.910579 1.78069L0.910579 -1.78069ZM44.9106 20.7193L0.910579 -1.78069L-0.910579 1.78069L43.0894 24.2807L44.9106 20.7193Z" transform="translate(485.5 118.318)" fill="url(#paint7_linear)"/>
<path d="M65.5 34L0 0" transform="translate(564.5 89.3176)" stroke="url(#paint8_linear)"/>
<path d="M65.5 34L0 0" transform="translate(751.5 120.318)" stroke="url(#paint9_linear)"/>
<path d="M59.5 26.5L0 0" transform="translate(216.5 159.318)" stroke="url(#paint10_linear)"/>
<path d="M59.5 26.5L0 0" transform="translate(362.5 240.318)" stroke="url(#paint11_linear)"/>
</g>
<path d="M9.1261 77.1801L145.226 0.574856L377.25 133.245C380.815 135.284 380.969 140.37 377.533 142.621L245.986 228.788C244.203 229.956 241.906 229.988 240.09 228.871L8.94176 86.6574C5.37106 84.4605 5.47267 79.2364 9.1261 77.1801Z" transform="translate(239.423 296.043) rotate(-2.08297)" stroke="#FF9580"/>
<path d="M142.534 4.47379L147.587 1.49126L147.842 1.92187L150.108 0.584196L152.433 2.02273L152.696 1.59755L157.859 4.79267L157.596 5.21784L162.759 8.41296L163.022 7.98778L168.185 11.1829L167.922 11.6081L173.085 14.8032L173.348 14.378L178.512 17.5731L178.249 17.9983L183.412 21.1934L183.675 20.7682L188.838 23.9633L188.575 24.3885L193.738 27.5836L194.001 27.1584L199.164 30.3535L198.901 30.7787L204.064 33.9738L204.327 33.5487L209.49 36.7438L209.227 37.1689L214.39 40.364L214.654 39.9389L219.817 43.134L219.554 43.5592L224.717 46.7543L224.98 46.3291L230.143 49.5242L229.88 49.9494L235.043 53.1445L235.306 52.7193L240.469 55.9144L240.206 56.3396L245.369 59.5347L245.632 59.1095L250.795 62.3046L250.532 62.7298L255.695 65.9249L255.959 65.4997L261.122 68.6949L260.859 69.12L266.022 72.3151L266.285 71.89L271.448 75.0851L271.185 75.5103L276.348 78.7054L276.611 78.2802L281.774 81.4753L281.511 81.9005L286.674 85.0956L286.937 84.6704L292.101 87.8655L291.837 88.2907L297.001 91.4858L297.264 91.0606L302.427 94.2557L302.164 94.6809L307.327 97.876L307.59 97.4508L312.753 100.646L312.49 101.071L317.653 104.266L317.916 103.841L323.079 107.036L322.816 107.461L327.979 110.656L328.242 110.231L333.406 113.426L333.142 113.852L338.306 117.047L338.569 116.622L343.732 119.817L343.469 120.242L348.632 123.437L348.895 123.012L354.058 126.207L353.795 126.632L358.958 129.827L359.221 129.402L364.384 132.597L364.121 133.022L369.284 136.217L369.548 135.792L374.711 138.987L374.448 139.412L377.029 141.01C377.861 141.525 378.492 142.205 378.925 142.97L379.36 142.724C380.361 144.495 380.394 146.691 379.447 148.492L379.004 148.259C378.595 149.037 377.985 149.735 377.168 150.275L374.684 151.917L374.96 152.335L369.991 155.62L369.715 155.203L364.746 158.488L365.022 158.905L360.053 162.191L359.777 161.773L354.808 165.059L355.084 165.476L350.115 168.761L349.839 168.344L344.87 171.629L345.146 172.047L340.177 175.332L339.902 174.915L334.933 178.2L335.208 178.617L330.24 181.903L329.964 181.486L324.995 184.771L325.271 185.188L320.302 188.473L320.026 188.056L315.057 191.342L315.333 191.759L310.364 195.044L310.088 194.627L305.119 197.912L305.395 198.329L300.426 201.615L300.15 201.198L295.181 204.483L295.457 204.9L290.488 208.185L290.213 207.768L285.244 211.054L285.519 211.471L280.55 214.756L280.275 214.339L275.306 217.624L275.582 218.041L270.613 221.327L270.337 220.91L265.368 224.195L265.644 224.612L260.675 227.897L260.399 227.48L255.43 230.766L255.706 231.183L250.737 234.468L250.461 234.051L247.977 235.694C247.536 235.985 247.064 236.207 246.575 236.359L246.723 236.836C245.635 237.174 244.471 237.195 243.372 236.897L243.503 236.414C243.008 236.28 242.528 236.075 242.077 235.8L239.542 234.252L239.281 234.679L234.21 231.582L234.47 231.156L229.399 228.059L229.138 228.486L224.067 225.39L224.327 224.963L219.256 221.867L218.995 222.294L213.924 219.197L214.185 218.771L209.113 215.674L208.853 216.101L203.781 213.005L204.042 212.578L198.97 209.482L198.71 209.909L193.638 206.812L193.899 206.386L188.827 203.289L188.567 203.716L183.495 200.62L183.756 200.193L178.685 197.097L178.424 197.524L173.353 194.427L173.613 194.001L168.542 190.904L168.281 191.331L163.21 188.235L163.47 187.808L158.399 184.712L158.138 185.139L153.067 182.042L153.327 181.616L148.256 178.519L147.995 178.946L142.924 175.85L143.184 175.423L138.113 172.327L137.852 172.754L132.781 169.657L133.042 169.231L127.97 166.134L127.71 166.561L122.638 163.465L122.899 163.038L117.827 159.942L117.567 160.369L112.495 157.272L112.756 156.846L107.684 153.749L107.424 154.176L102.352 151.08L102.613 150.653L97.5415 147.557L97.281 147.984L92.2095 144.887L92.4701 144.461L87.3986 141.364L87.1381 141.791L82.0667 138.695L82.3272 138.268L77.2558 135.172L76.9952 135.599L71.9238 132.502L72.1843 132.076L67.1129 128.979L66.8523 129.406L61.7809 126.31L62.0414 125.883L56.97 122.787L56.7095 123.213L51.638 120.117L51.8986 119.69L46.8271 116.594L46.5666 117.021L41.4952 113.925L41.7557 113.498L36.6843 110.402L36.4237 110.828L31.3523 107.732L31.6128 107.305L26.5414 104.209L26.2808 104.636L21.2094 101.54L21.4699 101.113L16.3985 98.0167L16.138 98.4434L11.0665 95.3472L11.3271 94.9204L8.79136 93.3723C7.92867 92.8456 7.28129 92.1447 6.84411 91.3561L6.40681 91.5985C5.39185 89.7676 5.40887 87.4948 6.45114 85.6793L6.88477 85.9282C7.3337 85.1462 7.99151 84.4551 8.86199 83.9414L11.3889 82.4501L11.1347 82.0195L16.1885 79.037L16.4427 79.4676L21.4965 76.4851L21.2423 76.0545L26.2962 73.0719L26.5503 73.5025L31.6041 70.52L31.35 70.0894L36.4038 67.1069L36.6579 67.5375L41.7117 64.555L41.4576 64.1244L46.5114 61.1418L46.7655 61.5724L51.8193 58.5899L51.5652 58.1593L56.619 55.1768L56.8731 55.6074L61.9269 52.6248L61.6728 52.1942L66.7266 49.2117L66.9807 49.6423L72.0345 46.6598L71.7804 46.2292L76.8342 43.2467L77.0883 43.6773L82.1421 40.6947L81.888 40.2641L86.9418 37.2816L87.1959 37.7122L92.2497 34.7297L91.9956 34.2991L97.0494 31.3165L97.3035 31.7472L102.357 28.7646L102.103 28.334L107.157 25.3515L107.411 25.7821L112.465 22.7996L112.211 22.369L117.265 19.3864L117.519 19.817L122.573 16.8345L122.318 16.4039L127.372 13.4214L127.626 13.852L132.68 10.8695L132.426 10.4388L137.48 7.45632L137.734 7.88692L142.788 4.9044L142.534 4.47379Z" transform="translate(321.993 379.509) rotate(-2.17271)" stroke="#FF9A9A" stroke-dasharray="6 6"/>
<path d="M10 0L12.5 10H0L10 0Z" transform="translate(501.5 562.818)" fill="#FF9A9A"/>
<path d="M10 0L12.5 10H0L10 0Z" transform="translate(356.5 438.318)" fill="#FF9A9A"/>
<path d="M0.5 18.1804C0.5 10.2879 8.88118 5.21694 15.8724 8.87938L210.081 110.618C213.541 112.43 215.709 116.013 215.709 119.919V232.234C215.709 240.299 206.993 245.353 199.993 241.347L5.78446 130.199C2.51634 128.329 0.5 124.852 0.5 121.086V18.1804Z" transform="translate(556.189 130.487)" stroke="#FFC187" stroke-opacity="0.7"/>
<path d="M0.5 18.1825C0.5 10.2895 8.88207 5.21858 15.8734 8.88193L209.873 110.535C213.333 112.348 215.5 115.931 215.5 119.836V176.351C215.5 184.347 206.919 189.409 199.92 185.541L5.92042 78.3062C2.57602 76.4575 0.5 72.9379 0.5 69.1166V18.1825Z" transform="translate(417.5 121.318)" stroke="#FFC187"/>
<path d="M0 19.4889L62.5424 0L134 35" transform="translate(338.5 199.318)" stroke="#FC8D76" stroke-linecap="round" stroke-dasharray="8 8"/>
<path d="M0 0L40.5424 23.0111V104.511" transform="translate(690.5 365.806)" stroke="#FF9F87" stroke-linecap="round" stroke-dasharray="8 8"/>
<path d="M0 10.0522C0 5.51059 4.85032 2.61552 8.84781 4.77116L235.518 127.003C238.755 128.748 240.772 132.128 240.772 135.804V285.188L233.805 291.75L0 156.359V10.0522Z" transform="translate(448.728 131.318)" fill="#D32D2D"/>
<path d="M0 7.91792C0 6.43458 0.658626 5.0278 1.79786 4.07783L5.04769 1.3679C5.69896 0.824828 6.68811 1.28793 6.68811 2.13592V155.325C6.68811 158.471 5.20719 161.434 2.69058 163.323L1.60025 164.141C0.941049 164.636 0 164.166 0 163.341V7.91792Z" transform="translate(682.812 264.15)" fill="#BD2828"/>
<path d="M0 0L234.084 129.216V283.245L0 149.078V0Z" transform="translate(448.728 139.953)" fill="#FF6E77"/>
<path d="M0 0L216.209 119.263V251.204L0 127.465V0Z" transform="translate(456.189 154.487)" fill="#FFE9E8"/>
<ellipse cx="20" cy="24.5" rx="20" ry="24.5" transform="translate(527.5 250.318)" fill="#FD403D"/>
<path d="M0 0L16 14L0 22V0Z" transform="translate(541.5 263.318)" fill="white"/>
<g filter="url(#filter1_d)">
<path d="M145.228 0L377.563 132.848C381.437 135.063 381.623 140.582 377.906 143.053L248.256 229.249C246.314 230.54 243.799 230.589 241.808 229.374L8.73227 87.0743C4.82098 84.6864 4.92231 78.9724 8.9158 76.7247L145.228 0Z" transform="translate(303.5 288.951)" fill="#AE1212"/>
</g>
<path d="M137.584 0L372.624 134.804L238.384 222.762L0 78.8748L137.584 0Z" transform="translate(310.188 287.995)" fill="url(#paint12_linear)"/>
<path d="M33.9018 0L100.164 38.373L67.2054 59.7523L0 18.794L33.9018 0Z" transform="translate(410.994 394.716)" fill="#FE7F7F"/>
<path d="M66.8828 0L269.956 117.636L204.015 158.527L0 38.3049L66.8828 0Z" transform="translate(386.455 304.039)" fill="url(#paint13_linear)" fill-opacity="0.5"/>
<path d="M0 2.25891L7.74731 2.23317e-05L8.38076 155.043C8.39377 158.226 6.89075 161.225 4.33305 163.12L2.49841 164.478C1.84051 164.966 0.907784 164.499 0.903203 163.681L0 2.25891Z" transform="matrix(0.553219 0.833036 0.832709 -0.553712 546.674 511.952)" fill="#721414"/>
<path d="M10 0L12.5 10H0L10 0Z" transform="translate(737.5 222.318)" fill="#FFB0AF"/>
<path d="M10 0L12.5 10H0L10 0Z" transform="translate(607.5 154.318)" fill="#FFB0AF"/>
<rect width="68.0766" height="66.3711" transform="translate(690.963 421.318)" fill="url(#paint14_linear)"/>
<path d="M0 0H98.0766L78.0766 66.3711H10L0 0Z" transform="translate(680.963 421.318)" fill="url(#paint15_linear)"/>
<path d="M69.1486 22.9128C69.1486 35.5672 53.7883 44.7599 34.8403 44.7599C15.8923 44.7599 0 35.5672 0 22.9128C0 10.2584 15.8923 0 34.8403 0C53.7883 0 69.1486 10.2584 69.1486 22.9128Z" transform="translate(687.502 487.558)" fill="#FF7C5C"/>
<path d="M69.1486 22.9128C69.1486 35.5672 53.7883 44.7599 34.8403 44.7599C15.8923 44.7599 0 35.5672 0 22.9128C0 10.2584 15.8923 0 34.8403 0C53.7883 0 69.1486 10.2584 69.1486 22.9128Z" transform="translate(687.502 483.295)" fill="#FFDB49"/>
<path d="M59.5742 19.6395C59.5742 30.4862 46.3407 38.3656 30.0162 38.3656C13.6918 38.3656 0 30.4862 0 19.6395C0 8.79292 13.6918 0 30.0162 0C46.3407 0 59.5742 8.79292 59.5742 19.6395Z" transform="translate(692.289 486.492)" fill="url(#paint16_linear)"/>
<path d="M0 11.0971C5.05317 3.90347 28.936 -9.79088 55.3189 11.0971C40.4254 2.56672 22.3403 -5.10174 0 11.0971Z" transform="translate(695.215 487.384)" fill="#D76B5C"/>
<path d="M69.1486 22.9128C69.1486 35.5672 53.7883 44.7599 34.8403 44.7599C15.8923 44.7599 0 35.5672 0 22.9128C0 10.2584 15.8923 0 34.8403 0C53.7883 0 69.1486 10.2584 69.1486 22.9128Z" transform="translate(693.353 479.032)" fill="url(#paint17_linear)"/>
<path d="M69.1486 22.9128C69.1486 35.5672 53.7883 44.7599 34.8403 44.7599C15.8923 44.7599 0 35.5672 0 22.9128C0 10.2584 15.8923 0 34.8403 0C53.7883 0 69.1486 10.2584 69.1486 22.9128Z" transform="translate(693.353 474.769)" fill="#FFDB49"/>
<path d="M59.5742 19.6395C59.5742 30.4862 46.3407 38.3656 30.0162 38.3656C13.6918 38.3656 0 30.4862 0 19.6395C0 8.79292 13.6918 0 30.0162 0C46.3407 0 59.5742 8.79292 59.5742 19.6395Z" transform="translate(698.14 477.966)" fill="url(#paint18_linear)"/>
<path d="M0 11.0971C5.05317 3.90347 28.936 -9.79088 55.3189 11.0971C40.4254 2.56672 22.3403 -5.10174 0 11.0971Z" transform="translate(701.065 478.859)" fill="#D76B5C"/>
<path d="M69.1486 22.9128C69.1486 35.5672 53.7883 44.7599 34.8403 44.7599C15.8923 44.7599 0 35.5672 0 22.9128C0 10.2584 15.8923 0 34.8403 0C53.7883 0 69.1486 10.2584 69.1486 22.9128Z" transform="translate(690.693 466.776)" fill="#FF7C5C"/>
<path d="M69.1486 22.9128C69.1486 35.5672 53.7883 44.7599 34.8403 44.7599C15.8923 44.7599 0 35.5672 0 22.9128C0 10.2584 15.8923 0 34.8403 0C53.7883 0 69.1486 10.2584 69.1486 22.9128Z" transform="translate(690.694 462.513)" fill="#FFDB49"/>
<path d="M59.5742 19.6395C59.5742 30.4862 46.3407 38.3656 30.0162 38.3656C13.6918 38.3656 0 30.4862 0 19.6395C0 8.79292 13.6918 0 30.0162 0C46.3407 0 59.5742 8.79292 59.5742 19.6395Z" transform="translate(695.48 465.711)" fill="url(#paint19_linear)"/>
<path d="M10.4644 15.3745H18.6772V26.1079C18.1297 26.2873 17.5775 26.4525 17.0205 26.6035C16.4635 26.7451 15.883 26.8678 15.2788 26.9717C14.6841 27.0661 14.0563 27.1416 13.3955 27.1982C12.7441 27.2549 12.0503 27.2832 11.314 27.2832C9.76579 27.2832 8.39225 27.0566 7.19336 26.6035C6.00391 26.141 4.99854 25.4613 4.17725 24.5645C3.3654 23.6582 2.74707 22.5443 2.32227 21.2227C1.89746 19.8916 1.68506 18.3576 1.68506 16.6206C1.68506 14.9969 1.92106 13.529 2.39307 12.2168C2.86507 10.9046 3.55892 9.79069 4.47461 8.875C5.39974 7.94987 6.53255 7.24186 7.87305 6.75098C9.22298 6.25065 10.7664 6.00049 12.5034 6.00049C13.6079 6.00049 14.6888 6.11849 15.7461 6.35449C16.8034 6.59049 17.771 6.8973 18.6489 7.2749L17.1904 10.7866C16.5485 10.4657 15.8216 10.1966 15.0098 9.97949C14.2074 9.76237 13.3625 9.65381 12.4751 9.65381C11.5122 9.65381 10.6437 9.82373 9.86963 10.1636C9.10498 10.494 8.44889 10.966 7.90137 11.5796C7.35384 12.1932 6.93376 12.9342 6.64111 13.8027C6.34847 14.6712 6.20215 15.6388 6.20215 16.7056C6.20215 17.7251 6.30127 18.6597 6.49951 19.5093C6.70719 20.3494 7.02816 21.0763 7.4624 21.6899C7.89665 22.3035 8.45361 22.7803 9.1333 23.1201C9.82243 23.46 10.6437 23.6299 11.5972 23.6299C12.2202 23.6299 12.7441 23.6016 13.1689 23.5449C13.6032 23.4883 14.0091 23.4222 14.3867 23.3467V19.0278H10.4644V15.3745ZM25.136 19.0562C25.136 20.6326 25.3578 21.8221 25.8015 22.6245C26.2452 23.4175 26.9674 23.814 27.968 23.814C28.9592 23.814 29.6767 23.4128 30.1204 22.6104C30.564 21.8079 30.7859 20.6232 30.7859 19.0562C30.7859 17.4797 30.564 16.3044 30.1204 15.5303C29.6767 14.7467 28.9498 14.355 27.9397 14.355C26.9485 14.355 26.231 14.7467 25.7873 15.5303C25.3531 16.3044 25.136 17.4797 25.136 19.0562ZM35.1897 19.0562C35.1897 20.3778 35.0198 21.5483 34.6799 22.5679C34.3495 23.5874 33.8681 24.4465 33.2356 25.145C32.6125 25.8436 31.8479 26.377 30.9416 26.7451C30.0448 27.1038 29.0347 27.2832 27.9114 27.2832C26.8635 27.2832 25.9006 27.1038 25.0227 26.7451C24.1448 26.377 23.3848 25.8436 22.7429 25.145C22.1104 24.4465 21.6148 23.5874 21.2561 22.5679C20.8974 21.5483 20.718 20.3778 20.718 19.0562C20.718 17.744 20.8832 16.5781 21.2136 15.5586C21.5535 14.5391 22.0349 13.6847 22.6579 12.9956C23.2904 12.297 24.0551 11.7684 24.9519 11.4097C25.8487 11.0509 26.8635 10.8716 27.9963 10.8716C29.0442 10.8716 30.0071 11.0509 30.885 11.4097C31.7629 11.7684 32.5181 12.297 33.1506 12.9956C33.7926 13.6847 34.2929 14.5391 34.6516 15.5586C35.0103 16.5781 35.1897 17.744 35.1897 19.0562Z" transform="translate(705.754 500.981) rotate(-77.1834)" fill="#FFA800"/>
<path d="M0 11.0971C5.05317 3.90347 28.936 -9.79088 55.3189 11.0971C40.4254 2.56672 22.3403 -5.10174 0 11.0971Z" transform="translate(698.406 466.603)" fill="#D76B5C"/>
<path d="M23 0L88 0L62.0857 63H0L23 0Z" transform="translate(387.5 186.318) rotate(90)" fill="url(#paint20_linear)"/>
<ellipse cx="30.5" cy="34" rx="30.5" ry="34" transform="translate(290.5 185.318)" fill="url(#paint21_linear)"/>
<ellipse cx="30.5" cy="33" rx="30.5" ry="33" transform="translate(295.5 187.318)" fill="#FFE683"/>
<ellipse cx="26.5" cy="29" rx="26.5" ry="29" transform="translate(299.5 191.318)" fill="url(#paint22_linear)"/>
<path d="M12.9902 18.5684H23.1855V31.8926C22.5059 32.1152 21.8203 32.3203 21.1289 32.5078C20.4375 32.6836 19.7168 32.8359 18.9668 32.9648C18.2285 33.082 17.4492 33.1758 16.6289 33.2461C15.8203 33.3164 14.959 33.3516 14.0449 33.3516C12.123 33.3516 10.418 33.0703 8.92969 32.5078C7.45312 31.9336 6.20508 31.0898 5.18555 29.9766C4.17773 28.8516 3.41016 27.4688 2.88281 25.8281C2.35547 24.1758 2.0918 22.2715 2.0918 20.1152C2.0918 18.0996 2.38477 16.2773 2.9707 14.6484C3.55664 13.0195 4.41797 11.6367 5.55469 10.5C6.70312 9.35156 8.10938 8.47266 9.77344 7.86328C11.4492 7.24219 13.3652 6.93164 15.5215 6.93164C16.8926 6.93164 18.2344 7.07812 19.5469 7.37109C20.8594 7.66406 22.0605 8.04492 23.1504 8.51367L21.3398 12.873C20.543 12.4746 19.6406 12.1406 18.6328 11.8711C17.6367 11.6016 16.5879 11.4668 15.4863 11.4668C14.291 11.4668 13.2129 11.6777 12.252 12.0996C11.3027 12.5098 10.4883 13.0957 9.80859 13.8574C9.12891 14.6191 8.60742 15.5391 8.24414 16.6172C7.88086 17.6953 7.69922 18.8965 7.69922 20.2207C7.69922 21.4863 7.82227 22.6465 8.06836 23.7012C8.32617 24.7441 8.72461 25.6465 9.26367 26.4082C9.80273 27.1699 10.4941 27.7617 11.3379 28.1836C12.1934 28.6055 13.2129 28.8164 14.3965 28.8164C15.1699 28.8164 15.8203 28.7812 16.3477 28.7109C16.8867 28.6406 17.3906 28.5586 17.8594 28.4648V23.1035H12.9902V18.5684Z" transform="translate(300.81 202.081) rotate(-0.341256)" fill="#FFA800"/>
<ellipse cx="9.5" cy="14" rx="9.5" ry="14" transform="translate(327 208)" fill="url(#paint23_linear)"/>
<path d="M6.15077 1.36585C6.54205 0.736541 7.45795 0.736541 7.84923 1.36585L12.1121 8.22198C12.5263 8.88811 12.0473 9.75 11.2629 9.75H2.73712C1.95273 9.75 1.47371 8.88811 1.88789 8.22198L6.15077 1.36585Z" transform="translate(343 215) rotate(90)" fill="#FFD114"/>
<path d="M0 21.6007C0.5 10.6013 23 -10.3989 47 6.10122C30 0.0310459 9.5 2.60107 0 21.6007Z" transform="translate(352.602 191.318) rotate(90)" fill="#FFA800"/>
<rect width="50" height="66" transform="translate(660.501 244.318) scale(1 -1)" fill="url(#paint24_linear)"/>
<path d="M0 0L25.7812 14.7955V46.7225L0 31.9271V0Z" transform="translate(660.501 178.595)" fill="url(#paint25_linear)"/>
<path d="M0 0L25 15.5742L24.2187 47.5013L0 31.9271V0Z" transform="translate(710.501 177.816) scale(-1 1)" fill="url(#paint26_linear)"/>
<path d="M0 0H50V34.2857L0 35V0Z" transform="translate(660.501 143.318)" fill="url(#paint27_linear)" fill-opacity="0.6"/>
<path d="M0 0L26.4422 9.44868L34.6511 35.9418L6.21471 28.3573L0 0Z" transform="matrix(0.683998 -0.729484 0.731704 0.681623 660.501 178.595)" fill="#FA9944"/>
<ellipse cx="15" cy="6" rx="15" ry="6" transform="translate(671.501 184.318) scale(1 -1)" fill="url(#paint28_radial)" fill-opacity="0.4"/>
<path opacity="0.96" d="M0 0L50.6078 4.02157" transform="matrix(0.874161 -0.485636 0.476048 0.879419 684.347 178.895)" stroke="url(#paint29_linear)"/>
<path opacity="0.96" d="M-0.0926119 0.491348L46.1942 9.21574L46.3795 8.23304L0.0926119 -0.491348L-0.0926119 0.491348Z" transform="matrix(-0.874161 -0.485636 -0.476048 0.879419 685.116 178.895)" fill="url(#paint30_linear)"/>
<path opacity="0.96" d="M-0.000141194 5.03249L22.9796 0" transform="matrix(-0.874161 -0.485636 -0.476048 0.879419 687.512 173.69)" stroke="url(#paint31_linear)"/>
<path opacity="0.96" d="M0 18.8955L19.0482 -0.000148176" transform="matrix(-0.0226051 -0.999744 -0.999731 0.0231988 704.777 177.677)" stroke="url(#paint32_linear)"/>
<path opacity="0.96" d="M0 18.1591L10.5761 0" transform="matrix(0.589308 0.807908 -0.800541 0.599278 698.884 168.012)" stroke="url(#paint33_linear)"/>
<path opacity="0.96" d="M0 0L23.4122 10.3453" transform="matrix(-0.872895 0.487908 -0.478302 -0.878196 685.116 178.895)" stroke="url(#paint34_linear)"/>
<ellipse cx="3.84615" cy="1.55854" rx="3.84615" ry="1.55854" transform="translate(682.039 180.453) scale(1 -1)" fill="white" fill-opacity="0.62"/>
<path d="M4.92308 14.6977L3.70909 13.8167L3.52152 14.0751L3.45549 14.3876L4.92308 14.6977ZM15.5897 0L16.8037 -0.881036L15.5897 -2.55381L14.3758 -0.881036L15.5897 0ZM26.2564 14.6977L27.7128 14.3386L27.6426 14.054L27.4704 13.8167L26.2564 14.6977ZM16.1368 49L15.2915 50.2391L16.144 50.8207L16.9919 50.2324L16.1368 49ZM0 37.9923L-1.46758 37.6821L-1.67535 38.6652L-0.845289 39.2314L0 37.9923ZM32 37.9923L32.8552 39.2246L33.7036 38.6359L33.4564 37.6332L32 37.9923ZM6.13707 15.5788L16.8037 0.881036L14.3758 -0.881036L3.70909 13.8167L6.13707 15.5788ZM14.3758 0.881036L25.0424 15.5788L27.4704 13.8167L16.8037 -0.881036L14.3758 0.881036ZM24.8177 14.2733L14.6981 48.5756L17.5755 49.4244L27.6951 15.1222L24.8177 14.2733ZM17.5625 48.5339L6.34883 14.2316L3.49733 15.1638L14.711 49.4661L17.5625 48.5339ZM3.45549 14.3876L-1.46758 37.6821L1.46758 38.3024L6.39066 15.0079L3.45549 14.3876ZM-0.845289 39.2314L15.2915 50.2391L16.982 47.7609L0.845289 36.7531L-0.845289 39.2314ZM16.9919 50.2324L32.8552 39.2246L31.1448 36.7599L15.2816 47.7676L16.9919 50.2324ZM33.4564 37.6332L27.7128 14.3386L24.8 15.0568L30.5436 38.3514L33.4564 37.6332Z" transform="translate(669.501 120.318)" fill="#FEFFD7" fill-opacity="0.86"/>
<path d="M0 0H4V6H0V0Z" transform="translate(310 206)" fill="#FFA800"/>
<path d="M0.0583254 0H4.05833L4.25312 6.69609L1.66802e-05 6.81275L0.0583254 0Z" transform="translate(710 494.142) rotate(-76.8607)" fill="#FFA800"/>
<path d="M0.0583254 0H4.05833L4.25312 6.69609L1.66802e-05 6.81275L0.0583254 0Z" transform="translate(711 488.142) rotate(-76.8607)" fill="#FFA800"/>
<path d="M0 0H4V5H0V0Z" transform="translate(732.105 497.609) rotate(-78.1173)" fill="#FFA800"/>
<path d="M0 0H4V5H0V0Z" transform="translate(732.951 492.122) rotate(-79.2015)" fill="#FFA800"/>
<path d="M0 0H4V6.5L0 6V0Z" transform="translate(317 206)" fill="#FFA800"/>
<path d="M0 0H4V6.5L0 6V0Z" transform="translate(318.5 238.818) scale(1 -1)" fill="#FFA800"/>
<path d="M0 0H4V6.5L0 6V0Z" transform="translate(311.5 238.818) scale(1 -1)" fill="#FFA800"/>
<path d="M0 13.5882L27.3281 29.2353V63L0 47.3529V13.5882Z" transform="translate(745.501 304.318)" fill="#FFEA2F" fill-opacity="0.45"/>
<path d="M53 12.7647L27.3281 29.2353V63L53 46.5294V12.7647Z" transform="translate(745.501 304.318)" fill="#FFEA2F" fill-opacity="0.45"/>
<path d="M0 13.5882L26.5 0L53 12.7647L27.3281 29.2353L0 13.5882Z" transform="translate(745.501 304.318)" fill="#FFEA2F" fill-opacity="0.45"/>
<path d="M0 8.26897L16.7578 17.7908V38.3379L0 28.8161V8.26897Z" transform="translate(755.501 316.407)" fill="#FFEA2F" fill-opacity="0.75"/>
<path d="M32.5 7.76783L16.7578 17.7908V38.3379L32.5 28.315V7.76783Z" transform="translate(755.501 316.407)" fill="#FFEA2F" fill-opacity="0.75"/>
<path d="M0 8.26897L16.25 0L32.5 7.76783L16.7578 17.7908L0 8.26897Z" transform="translate(755.501 316.407)" fill="#FFEA2F" fill-opacity="0.75"/>
<path d="M0 13.5882L27.3281 29.2353V63L0 47.3529V13.5882Z" transform="translate(392.5 101.318)" fill="#FFEA2F" fill-opacity="0.45"/>
<path d="M53 12.7647L27.3281 29.2353V63L53 46.5294V12.7647Z" transform="translate(392.5 101.318)" fill="#FFEA2F" fill-opacity="0.45"/>
<path d="M0 13.5882L26.5 0L53 12.7647L27.3281 29.2353L0 13.5882Z" transform="translate(392.5 101.318)" fill="#FFEA2F" fill-opacity="0.45"/>
<path d="M0 8.26897L16.7578 17.7908V38.3379L0 28.8161V8.26897Z" transform="translate(402.5 113.407)" fill="#FFEA2F" fill-opacity="0.79"/>
<path d="M32.5 7.76783L16.7578 17.7908V38.3379L32.5 28.315V7.76783Z" transform="translate(402.5 113.407)" fill="#FFEA2F" fill-opacity="0.79"/>
<path d="M0 8.26897L16.25 0L32.5 7.76783L16.7578 17.7908L0 8.26897Z" transform="translate(402.5 113.407)" fill="#FFEA2F" fill-opacity="0.79"/>
<path d="M0 8.72494C0 4.86163 4.19457 2.45785 7.5278 4.41099L130.274 76.3351C132.48 77.6279 133.806 80.021 133.732 82.5771L131.497 159.78C131.388 163.572 127.26 165.865 123.982 163.955L3.47556 93.7303C1.32354 92.4762 0 90.173 0 87.6823V8.72494Z" transform="translate(478 201.253) rotate(-1.39242)" fill="#E43434"/>
<path d="M0.0112338 0L127.438 11.1845C131.118 11.5075 133.913 14.6346 133.824 18.3278L131.687 106.231L3.5097 32.4591C1.33847 31.2095 0.000569948 28.8948 0.0014945 26.3896L0.0112338 0Z" transform="translate(479.488 265.5) rotate(-1.39242)" fill="white" fill-opacity="0.21"/>
<path d="M0 0L87.2649 7.63798C87.9723 7.6999 88.6585 7.91179 89.2776 8.25956L131.047 31.721C133.306 32.9901 134.679 35.4035 134.616 37.9942L134.585 39.282L1.03707 28.464L0 0Z" transform="translate(478.5 245.5) rotate(-1.39242)" fill="white" fill-opacity="0.16"/>
<path d="M0 5.23497C0 2.91698 2.51674 1.47471 4.51668 2.64659L15.0197 8.80091C15.9652 9.35498 16.5334 10.3806 16.5017 11.4761L16.378 15.7522C16.3121 18.0276 13.8355 19.4035 11.8687 18.2574L1.48952 12.2089C0.567228 11.6715 0 10.6844 0 9.61695V5.23497Z" transform="translate(587.949 271.197) rotate(-1.39242)" fill="white"/>
<path d="M0 5.23497C0 2.91698 2.51674 1.47471 4.51668 2.64659L15.0197 8.80091C15.9652 9.35498 16.5334 10.3806 16.5017 11.4761L16.378 15.7522C16.3121 18.0276 13.8355 19.4035 11.8687 18.2574L1.48952 12.2089C0.567228 11.6715 0 10.6844 0 9.61695V5.23497Z" transform="translate(587.949 295.197) rotate(-1.39242)" fill="white"/>
<path d="M0 5.23497C0 2.91698 2.51674 1.47471 4.51668 2.64659L15.0197 8.80091C15.9652 9.35498 16.5334 10.3806 16.5017 11.4761L16.378 15.7522C16.3121 18.0276 13.8355 19.4035 11.8687 18.2574L1.48952 12.2089C0.567228 11.6715 0 10.6844 0 9.61695V5.23497Z" transform="translate(587.949 319.197) rotate(-1.39242)" fill="white"/>
<path d="M0 5.23497C0 2.91698 2.51674 1.47471 4.51668 2.64659L15.0197 8.80091C15.9652 9.35498 16.5334 10.3806 16.5017 11.4761L16.378 15.7522C16.3121 18.0276 13.8355 19.4035 11.8687 18.2574L1.48952 12.2089C0.567228 11.6715 0 10.6844 0 9.61695V5.23497Z" transform="translate(489.949 220.197) rotate(-1.39242)" fill="white"/>
<path d="M0 5.23497C0 2.91698 2.51674 1.47471 4.51668 2.64659L15.0197 8.80091C15.9652 9.35498 16.5334 10.3806 16.5017 11.4761L16.378 15.7522C16.3121 18.0276 13.8355 19.4035 11.8687 18.2574L1.48952 12.2089C0.567228 11.6715 0 10.6844 0 9.61695V5.23497Z" transform="translate(489.949 244.197) rotate(-1.39242)" fill="white"/>
<path d="M0 5.23497C0 2.91698 2.51674 1.47471 4.51668 2.64659L15.0197 8.80091C15.9652 9.35498 16.5334 10.3806 16.5017 11.4761L16.378 15.7522C16.3121 18.0276 13.8355 19.4035 11.8687 18.2574L1.48952 12.2089C0.567228 11.6715 0 10.6844 0 9.61695V5.23497Z" transform="translate(489.949 268.197) rotate(-1.39242)" fill="white"/>
<ellipse cx="11.5" cy="15" rx="11.5" ry="15" transform="translate(538 269)" fill="white"/>
<path d="M7.04854 0L10.6435 8.20594L0 9.11993L7.04854 0Z" transform="translate(555.308 279.417) rotate(94.9074)" fill="#E43434"/>
<path d="M19.5 5C19.5 6.0893 18.604 7.21007 16.8475 8.08832C15.1209 8.95161 12.7006 9.5 10 9.5C7.29937 9.5 4.87912 8.95161 3.15254 8.08832C1.39605 7.21007 0.5 6.0893 0.5 5C0.5 3.9107 1.39605 2.78993 3.15254 1.91168C4.87912 1.04839 7.29937 0.5 10 0.5C12.7006 0.5 15.1209 1.04839 16.8475 1.91168C18.604 2.78993 19.5 3.9107 19.5 5Z" transform="translate(274 346)" fill="#FFE4E4" stroke="#FF9580"/>
<ellipse cx="4" cy="2" rx="4" ry="2" transform="translate(280 349)" fill="#FF9580"/>
</g>
<defs>
<filter id="filter0_d" x="0.5" y="-394.901" width="1022" height="1043.07" filterUnits="userSpaceOnUse" color-interpolation-filters="sRGB">
<feFlood flood-opacity="0" result="BackgroundImageFix"/>
<feColorMatrix in="SourceAlpha" type="matrix" values="0 0 0 0 0 0 0 0 0 0 0 0 0 0 0 0 0 0 255 0"/>
<feOffset dy="4"/>
<feGaussianBlur stdDeviation="2"/>
<feColorMatrix type="matrix" values="0 0 0 0 0 0 0 0 0 0 0 0 0 0 0 0 0 0 0.25 0"/>
<feBlend mode="normal" in2="BackgroundImageFix" result="effect1_dropShadow"/>
<feBlend mode="normal" in="SourceGraphic" in2="effect1_dropShadow" result="shape"/>
</filter>
<filter id="filter1_d" x="295.358" y="278.951" width="402.726" height="258.253" filterUnits="userSpaceOnUse" color-interpolation-filters="sRGB">
<feFlood flood-opacity="0" result="BackgroundImageFix"/>
<feColorMatrix in="SourceAlpha" type="matrix" values="0 0 0 0 0 0 0 0 0 0 0 0 0 0 0 0 0 0 255 0"/>
<feOffset dy="4"/>
<feGaussianBlur stdDeviation="7"/>
<feColorMatrix type="matrix" values="0 0 0 0 0 0 0 0 0 0 0 0 0 0 0 0 0 0 0.09 0"/>
<feBlend mode="normal" in2="BackgroundImageFix" result="effect1_dropShadow"/>
<feBlend mode="normal" in="SourceGraphic" in2="effect1_dropShadow" result="shape"/>
</filter>
<linearGradient id="paint0_linear" x2="1" gradientUnits="userSpaceOnUse" gradientTransform="matrix(-969.5 350.793 -352.372 -948.248 974.686 751.404)">
<stop stop-color="#FB6060"/>
<stop offset="1" stop-color="#FF0000"/>
</linearGradient>
<linearGradient id="paint1_linear" x2="1" gradientUnits="userSpaceOnUse" gradientTransform="matrix(-944 282 -284.661 -923.811 1200.33 677.088)">
<stop stop-color="#FB6060"/>
<stop offset="1" stop-color="#FF0000"/>
</linearGradient>
<linearGradient id="paint2_linear" x2="1" gradientUnits="userSpaceOnUse" gradientTransform="matrix(-20.1565 626.912 -621.396 -19.9792 1142.59 773.739)">
<stop stop-color="#FE5959" stop-opacity="0"/>
<stop offset="1" stop-color="#EFD26B"/>
</linearGradient>
<linearGradient id="paint3_linear" x2="1" gradientUnits="userSpaceOnUse" gradientTransform="matrix(-343.5 -125.5 124.396 -340.478 728.802 829.739)">
<stop stop-color="#FEAC32" stop-opacity="0.52"/>
<stop offset="0.694993" stop-color="#F9FFB8" stop-opacity="0"/>
</linearGradient>
<linearGradient id="paint4_linear" x2="1" gradientUnits="userSpaceOnUse" gradientTransform="matrix(-124.5 -164.5 163.053 -123.405 894.474 857.202)">
<stop stop-color="#FFC163" stop-opacity="0.35"/>
<stop offset="1" stop-color="#F9FFB8" stop-opacity="0"/>
</linearGradient>
<linearGradient id="paint5_linear" x2="1" gradientUnits="userSpaceOnUse" gradientTransform="translate(-36.3725 35) scale(72.7451 35) rotate(-90)">
<stop stop-color="#FFD392"/>
<stop offset="1" stop-color="#FFD392" stop-opacity="0"/>
</linearGradient>
<linearGradient id="paint6_linear" x2="1" gradientUnits="userSpaceOnUse" gradientTransform="translate(-36.3725 35) scale(72.7451 35) rotate(-90)">
<stop stop-color="#FFD392"/>
<stop offset="1" stop-color="#FFD392" stop-opacity="0"/>
</linearGradient>
<linearGradient id="paint7_linear" x2="1" gradientUnits="userSpaceOnUse" gradientTransform="matrix(68 23.5 -48.8431 141.333 -9.57844 -77.6666)">
<stop stop-color="#FFD392"/>
<stop offset="1" stop-color="#FFD392" stop-opacity="0"/>
</linearGradient>
<linearGradient id="paint8_linear" x2="1" gradientUnits="userSpaceOnUse" gradientTransform="matrix(93 46 -73.4171 148.43 5.20861 -93.7153)">
<stop stop-color="white"/>
<stop offset="0.966955" stop-color="#F9D370" stop-opacity="0.17"/>
</linearGradient>
<linearGradient id="paint9_linear" x2="1" gradientUnits="userSpaceOnUse" gradientTransform="matrix(93 46 -73.4171 148.43 5.20861 -93.7153)">
<stop stop-color="white"/>
<stop offset="0.966955" stop-color="#F9D370" stop-opacity="0.17"/>
</linearGradient>
<linearGradient id="paint10_linear" x2="1" gradientUnits="userSpaceOnUse" gradientTransform="matrix(77 41.5 -66.2351 122.894 -4.3824 -82.447)">
<stop stop-color="white"/>
<stop offset="0.966955" stop-color="#F9D370" stop-opacity="0.17"/>
</linearGradient>
<linearGradient id="paint11_linear" x2="1" gradientUnits="userSpaceOnUse" gradientTransform="matrix(77 41.5 -66.2351 122.894 -4.3824 -82.447)">
<stop stop-color="white"/>
<stop offset="0.966955" stop-color="#F9D370" stop-opacity="0.17"/>
</linearGradient>
<linearGradient id="paint12_linear" x2="1" gradientUnits="userSpaceOnUse" gradientTransform="matrix(110.832 211.289 -353.433 185.631 310.479 -92.8157)">
<stop stop-color="#FE8585"/>
<stop offset="1" stop-color="#FFE7C3"/>
</linearGradient>
<linearGradient id="paint13_linear" x2="1" gradientUnits="userSpaceOnUse" gradientTransform="matrix(52.4333 158.248 -269.48 89.2889 217.285 -44.3655)">
<stop stop-color="#FD4C4C"/>
<stop offset="1" stop-color="#FD0000" stop-opacity="0.29"/>
</linearGradient>
<linearGradient id="paint14_linear" x2="1" gradientUnits="userSpaceOnUse" gradientTransform="matrix(0.57692 -56.0722 57.513 0.582028 8.16641 64.3636)">
<stop stop-color="#FFD35A" stop-opacity="0.57"/>
<stop offset="1" stop-color="#FFD85D" stop-opacity="0"/>
</linearGradient>
<linearGradient id="paint15_linear" x2="1" gradientUnits="userSpaceOnUse" gradientTransform="matrix(0.57692 -56.0722 57.513 0.582028 18.1664 64.3636)">
<stop stop-color="#FFD35A" stop-opacity="0.57"/>
<stop offset="1" stop-color="#FFD85D" stop-opacity="0"/>
</linearGradient>
<linearGradient id="paint16_linear" x2="1" gradientUnits="userSpaceOnUse" gradientTransform="matrix(-51.9869 4.2315 -6.57068 -81.3527 58.0824 55.6277)">
<stop stop-color="#FFE060"/>
<stop offset="1" stop-color="#FFC252"/>
</linearGradient>
<linearGradient id="paint17_linear" x2="1" gradientUnits="userSpaceOnUse" gradientTransform="matrix(57.9785 11.19 -17.2872 89.8877 12.6329 -19.8996)">
<stop stop-color="#FF7654"/>
<stop offset="1" stop-color="#DA2D03"/>
</linearGradient>
<linearGradient id="paint18_linear" x2="1" gradientUnits="userSpaceOnUse" gradientTransform="matrix(-51.9869 4.2315 -6.57068 -81.3527 58.0824 55.6277)">
<stop stop-color="#FFC654"/>
<stop offset="1" stop-color="#FFB836"/>
</linearGradient>
<linearGradient id="paint19_linear" x2="1" gradientUnits="userSpaceOnUse" gradientTransform="matrix(-51.9869 4.2315 -6.57068 -81.3527 58.0824 55.6277)">
<stop stop-color="#FFE060"/>
<stop offset="1" stop-color="#FFC252"/>
</linearGradient>
<linearGradient id="paint20_linear" x2="1" gradientUnits="userSpaceOnUse" gradientTransform="matrix(21 -57 64.5741 23.6303 -4.28705 51.1848)">
<stop stop-color="#FFD35A" stop-opacity="0.61"/>
<stop offset="1" stop-color="#FFD85D" stop-opacity="0"/>
</linearGradient>
<linearGradient id="paint21_linear" x2="1" gradientUnits="userSpaceOnUse" gradientTransform="matrix(-18.5 59.6232 -53.4855 -16.118 57.2428 8.05902)">
<stop stop-color="#F9D388"/>
<stop offset="1" stop-color="#FC791A"/>
</linearGradient>
<linearGradient id="paint22_linear" x2="1" gradientUnits="userSpaceOnUse" gradientTransform="translate(53) scale(53 58) rotate(90)">
<stop stop-color="#FFD52A"/>
<stop offset="1" stop-color="#FFCF0E"/>
</linearGradient>
<linearGradient id="paint23_linear" x2="1" gradientUnits="userSpaceOnUse" gradientTransform="matrix(22 16 -10.8571 14.9286 5.42857 4.53571)">
<stop stop-color="#FFA800"/>
<stop offset="1" stop-color="#FFA800" stop-opacity="0"/>
</linearGradient>
<linearGradient id="paint24_linear" x2="1" gradientUnits="userSpaceOnUse" gradientTransform="matrix(0.423728 -55.7586 42.2414 0.578773 5.99795 64.0037)">
<stop stop-color="#FFD35A" stop-opacity="0.57"/>
<stop offset="1" stop-color="#FFD85D" stop-opacity="0"/>
</linearGradient>
<linearGradient id="paint25_linear" x2="1" gradientUnits="userSpaceOnUse" gradientTransform="translate(1.17187 13.1115) scale(24.6094 13.4911)">
<stop stop-color="#FFDD74"/>
<stop offset="0.999988" stop-color="#FEC36A"/>
</linearGradient>
<linearGradient id="paint26_linear" x2="1" gradientUnits="userSpaceOnUse" gradientTransform="matrix(33.2031 22.5826 -12.4276 19.2643 -1.98931 8.66749)">
<stop stop-color="#FFDF7F"/>
<stop offset="1" stop-color="#FF964C"/>
</linearGradient>
<linearGradient id="paint27_linear" x2="1" gradientUnits="userSpaceOnUse" gradientTransform="translate(5.76923 39.2857) scale(30.4615 34.2857) rotate(-90)">
<stop stop-color="#FDBA7F" stop-opacity="0.52"/>
<stop offset="1" stop-color="#F2994A" stop-opacity="0"/>
</linearGradient>
<radialGradient id="paint28_radial" cx="0.5" cy="0.5" r="0.5" gradientUnits="userSpaceOnUse" gradientTransform="translate(31 46) scale(32 80) rotate(-180)">
<stop stop-color="white" stop-opacity="0.74"/>
<stop offset="1" stop-color="white" stop-opacity="0"/>
</radialGradient>
<linearGradient id="paint29_linear" x2="1" gradientUnits="userSpaceOnUse" gradientTransform="matrix(42.4678 9.27381 -325.601 1511.97 163.477 -755.61)">
<stop stop-color="#FFE9E8"/>
<stop offset="1" stop-color="#FFE9E8" stop-opacity="0"/>
</linearGradient>
<linearGradient id="paint30_linear" x2="1" gradientUnits="userSpaceOnUse" gradientTransform="matrix(30.3996 8.81232 -309.398 1082.31 154.022 -541.528)">
<stop stop-color="#FFE9E8"/>
<stop offset="1" stop-color="#FFE9E8" stop-opacity="0"/>
</linearGradient>
<linearGradient id="paint31_linear" x2="1" gradientUnits="userSpaceOnUse" gradientTransform="matrix(15.3876 -4.79433 168.328 547.84 -89.0109 -268.906)">
<stop stop-color="#FFE9E8"/>
<stop offset="1" stop-color="#FFE9E8" stop-opacity="0"/>
</linearGradient>
<linearGradient id="paint32_linear" x2="1" gradientUnits="userSpaceOnUse" gradientTransform="matrix(20.5172 -22.7777 815.812 716.055 -416.351 -333.553)">
<stop stop-color="#FFE9E8"/>
<stop offset="1" stop-color="#FFE9E8" stop-opacity="0"/>
</linearGradient>
<linearGradient id="paint33_linear" x2="1" gradientUnits="userSpaceOnUse" gradientTransform="matrix(19.3549 -21.7471 771.809 681.698 -394.059 -318.643)">
<stop stop-color="#FFE9E8"/>
<stop offset="1" stop-color="#FFE9E8" stop-opacity="0"/>
</linearGradient>
<linearGradient id="paint34_linear" x2="1" gradientUnits="userSpaceOnUse" gradientTransform="matrix(17.2001 9.70616 -340.8 612.336 159.381 -301.682)">
<stop stop-color="#FFE9E8"/>
<stop offset="1" stop-color="#FFE9E8" stop-opacity="0"/>
</linearGradient>
</defs>
</svg>
