<svg width="81" height="73" viewBox="0 0 81 73" fill="none" xmlns="http://www.w3.org/2000/svg">
<rect width="81" height="73" rx="12" fill="url(#paint0_linear)"/>
<path d="M42.332 19C42.332 26.438 38.027 32.872 31.787 35.99C36.551 32.17 39.666 25.986 39.666 19C39.666 12.013 36.551 5.83 31.787 2.01C38.027 5.128 42.332 11.563 42.332 19ZM38 19C38 8.523 29.479 0 19 0C8.523 0 0 8.523 0 19C0 29.477 8.523 38 19 38C29.479 38 38 29.477 38 19ZM33 19C33 26.721 26.721 33 19 33C11.279 33 5 26.721 5 19C5 11.28 11.279 5 19 5C26.719 5 33 11.28 33 19Z" transform="translate(62.332 17) scale(-1 1)" fill="#FCFCFC"/>
<path d="M7.02 6.22C3.24 6.22 0.594 8.884 0.594 12.664C0.594 16.444 3.258 19.09 7.038 19.09C10.368 19.09 12.474 16.912 13.122 14.734V11.872H6.426V14.14H10.332C9.864 15.562 8.802 16.372 7.272 16.372C5.058 16.372 3.726 15.004 3.726 12.664C3.726 10.468 5.04 9.064 7.02 9.064C8.172 9.064 9.036 9.514 9.504 10.36H12.906C12.24 7.768 10.044 6.22 7.02 6.22ZM24.6549 13.978C24.6549 10.792 22.3869 8.812 19.4349 8.812C16.5009 8.812 14.2149 10.792 14.2149 13.978C14.2149 17.164 16.4469 19.144 19.3989 19.144C22.3509 19.144 24.6549 17.164 24.6549 13.978ZM17.3469 13.978C17.3469 12.268 18.3189 11.476 19.4349 11.476C20.5149 11.476 21.5229 12.268 21.5229 13.978C21.5229 15.67 20.4969 16.48 19.3989 16.48C18.2829 16.48 17.3469 15.67 17.3469 13.978Z" transform="translate(31 23)" fill="#FCFCFC"/>
<circle cx="3.5" cy="3.5" r="3.5" transform="translate(47 33)" fill="#FAFAFA"/>
<path d="M3.63397 1.5C4.01887 0.833333 4.98113 0.833333 5.36603 1.5L7.53109 5.25C7.91599 5.91667 7.43486 6.75 6.66506 6.75H2.33494C1.56514 6.75 1.08401 5.91667 1.46891 5.25L3.63397 1.5Z" transform="translate(55 33) rotate(90)" fill="#FF4320"/>
<defs>
<linearGradient id="paint0_linear" x2="1" gradientUnits="userSpaceOnUse" gradientTransform="matrix(69.1099 63.8692 -70.8686 954.375 44.3124 -477.188)">
<stop stop-color="#FF0E00"/>
<stop offset="1" stop-color="#FF6535"/>
</linearGradient>
</defs>
</svg>
