<svg width="461" height="446" viewBox="0 0 461 446" fill="none" xmlns="http://www.w3.org/2000/svg">
<mask id="mask0" mask-type="alpha" maskUnits="userSpaceOnUse" x="32" y="0" width="441" height="446">
<path d="M0 4L256.032 0.135368C261.737 0.0492541 267.207 2.40391 271.066 6.60679L426.325 175.709C449.191 200.613 441.262 240.56 410.618 254.843L0.5 446L0 4Z" transform="translate(472.5) scale(-1 1)" fill="url(#paint0_linear)"/>
</mask>
<g mask="url(#mask0)">
<path d="M3.50195 0L1306 0.5L1309.5 861.5H0V197L3.50195 0Z" transform="translate(784.5 -89) scale(-1 1)" fill="url(#paint1_linear)"/>
<path d="M1.5 175L382.002 0H556.461C642.702 0 667.901 117.663 589.225 152.983L0 417.5L1.5 175Z" transform="translate(557.502 145) scale(-1 1)" fill="url(#paint2_linear)" fill-opacity="0.78"/>
<path d="M-nan -nanC-nan -nan -nan -nan -nan -nanL-nan -nanC-nan -nan -nan -nan -nan -nanL-nan -nanC-nan -nan -nan -nan -nan -nanL-nan -nanC-nan -nan -nan -nan -nan -nanL-nan -nanZ" transform="translate(557.502 145) scale(-1 1)" fill="url(#paint3_linear)" fill-opacity="0.78"/>
<path d="M0 1L605.5 0L0 277V1Z" transform="translate(554.5 144.5) scale(-1 1)" fill="url(#paint4_linear)" fill-opacity="0.78"/>
<path d="M-nan -nanC-nan -nan -nan -nan -nan -nanL-nan -nanC-nan -nan -nan -nan -nan -nanL-nan -nanC-nan -nan -nan -nan -nan -nanL-nan -nanC-nan -nan -nan -nan -nan -nanL-nan -nanZ" transform="translate(554.5 144.5) scale(-1 1)" fill="url(#paint5_linear)" fill-opacity="0.78"/>
<path d="M1.5 175L382.002 0H556.461C642.702 0 667.901 117.663 589.225 152.983L0 417.5L1.5 175Z" transform="translate(-67.499 -146.159) rotate(-0.544708)" fill="url(#paint6_linear)" fill-opacity="0.78"/>
<path d="M-nan -nanC-nan -nan -nan -nan -nan -nanL-nan -nanC-nan -nan -nan -nan -nan -nanL-nan -nanC-nan -nan -nan -nan -nan -nanL-nan -nanC-nan -nan -nan -nan -nan -nanL-nan -nanZ" transform="translate(-67.499 -146.159) rotate(-0.544708)" fill="url(#paint7_linear)" fill-opacity="0.78"/>
<path d="M0 1L605.5 0L0 277V1Z" transform="translate(-108.499 -91.0984) rotate(-0.544708)" fill="url(#paint8_linear)" fill-opacity="0.78"/>
<path d="M-nan -nanC-nan -nan -nan -nan -nan -nanL-nan -nanC-nan -nan -nan -nan -nan -nanL-nan -nanC-nan -nan -nan -nan -nan -nanL-nan -nanC-nan -nan -nan -nan -nan -nanL-nan -nanZ" transform="translate(-108.499 -91.0984) rotate(-0.544708)" fill="url(#paint9_linear)" fill-opacity="0.78"/>
</g>
<path d="M0 72.5L64 21.5L11.5 0" transform="translate(333 188)" stroke="#FFC96F"/>
<path d="M0 0L58 0.914286L42.5825 45.9876H15.4175L0 0Z" transform="translate(376 154)" fill="url(#paint10_linear)" fill-opacity="0.83"/>
<path d="M0 0H27.1651V45.0734H0V0Z" transform="translate(391.417 154.914)" fill="url(#paint11_linear)"/>
<path d="M27.5928 9.24769C27.5928 14.3551 21.4635 18.0653 13.9025 18.0653C6.3416 18.0653 0 14.3551 0 9.24769C0 4.14033 6.3416 0 13.9025 0C21.4635 0 27.5928 4.14033 27.5928 9.24769Z" transform="translate(390.037 199.935)" fill="#FF7C5C"/>
<path d="M27.5928 9.24769C27.5928 14.3551 21.4635 18.0653 13.9025 18.0653C6.3416 18.0653 0 14.3551 0 9.24769C0 4.14033 6.3416 0 13.9025 0C21.4635 0 27.5928 4.14033 27.5928 9.24769Z" transform="translate(390.037 198.214)" fill="#FFDB49"/>
<path d="M23.7723 7.92659C23.7723 12.3043 18.4916 15.4845 11.9776 15.4845C5.46354 15.4845 0 12.3043 0 7.92659C0 3.54886 5.46354 0 11.9776 0C18.4916 0 23.7723 3.54886 23.7723 7.92659Z" transform="translate(391.947 199.504)" fill="url(#paint12_linear)"/>
<path d="M0 4.47882C2.0164 1.57545 11.5465 -3.95163 22.0743 4.47882C16.1312 1.03594 8.91461 -2.05908 0 4.47882Z" transform="translate(393.115 199.865)" fill="#D76B5C"/>
<path d="M27.5928 9.24769C27.5928 14.3551 21.4635 18.0653 13.9025 18.0653C6.3416 18.0653 0 14.3551 0 9.24769C0 4.14033 6.3416 0 13.9025 0C21.4635 0 27.5928 4.14033 27.5928 9.24769Z" transform="translate(392.372 196.494)" fill="url(#paint13_linear)"/>
<path d="M27.5928 9.24769C27.5928 14.3551 21.4635 18.0653 13.9025 18.0653C6.3416 18.0653 0 14.3551 0 9.24769C0 4.14033 6.3416 0 13.9025 0C21.4635 0 27.5928 4.14033 27.5928 9.24769Z" transform="translate(392.372 194.773)" fill="#FFDB49"/>
<path d="M23.7723 7.92659C23.7723 12.3043 18.4916 15.4845 11.9776 15.4845C5.46354 15.4845 0 12.3043 0 7.92659C0 3.54886 5.46354 0 11.9776 0C18.4916 0 23.7723 3.54886 23.7723 7.92659Z" transform="translate(394.282 196.063)" fill="url(#paint14_linear)"/>
<path d="M0 4.47882C2.0164 1.57545 11.5465 -3.95163 22.0743 4.47882C16.1312 1.03594 8.91461 -2.05908 0 4.47882Z" transform="translate(395.45 196.424)" fill="#D76B5C"/>
<path d="M27.5928 9.24769C27.5928 14.3551 21.4635 18.0653 13.9025 18.0653C6.3416 18.0653 0 14.3551 0 9.24769C0 4.14033 6.3416 0 13.9025 0C21.4635 0 27.5928 4.14033 27.5928 9.24769Z" transform="translate(391.311 191.547)" fill="#FF7C5C"/>
<path d="M27.5928 9.24769C27.5928 14.3551 21.4635 18.0653 13.9025 18.0653C6.3416 18.0653 0 14.3551 0 9.24769C0 4.14033 6.3416 0 13.9025 0C21.4635 0 27.5928 4.14033 27.5928 9.24769Z" transform="translate(391.311 189.827)" fill="#FFDB49"/>
<path d="M23.7723 7.92659C23.7723 12.3043 18.4916 15.4845 11.9776 15.4845C5.46354 15.4845 0 12.3043 0 7.92659C0 3.54886 5.46354 0 11.9776 0C18.4916 0 23.7723 3.54886 23.7723 7.92659Z" transform="translate(393.221 191.117)" fill="url(#paint15_linear)"/>
<path d="M0 4.47882C2.0164 1.57545 11.5465 -3.95163 22.0743 4.47882C16.1312 1.03594 8.91461 -2.05908 0 4.47882Z" transform="translate(394.388 191.478)" fill="#D76B5C"/>
<path d="M69 26L0 0" transform="translate(239 152)" stroke="#FFC96F"/>
<path d="M36 17.5L0 0" transform="translate(157 223)" stroke="#FFC96F"/>
<path d="M18.1535 0L35.3639 9.42825L17.4462 19.5636L0 8.48543L18.1535 0Z" transform="translate(218.012 124.531) rotate(-1.2307)" fill="url(#paint16_linear)"/>
<path d="M21.384 0.214678C21.6727 0.0797346 22.0084 0.0904681 22.2879 0.243576L40.9765 10.4816C41.6638 10.8581 41.6705 11.8431 40.9884 12.229L21.5143 23.2448C21.193 23.4265 20.7976 23.4165 20.4859 23.2185L1.53977 11.1879C0.873226 10.7646 0.937084 9.77213 1.65237 9.43779L21.384 0.214678Z" transform="translate(214.377 146.62) rotate(-1.2307)" fill="black" fill-opacity="0.21"/>
<path d="M0 0L17.4462 10.8425V32.9989L0 22.1564V0Z" transform="translate(218.193 133.014) rotate(-1.2307)" fill="url(#paint17_linear)"/>
<path d="M0 0L17.9177 9.89966V32.0561L0 21.685V0Z" transform="translate(253.569 133.198) scale(-1 1) rotate(1.2307)" fill="url(#paint18_linear)"/>
<path d="M11.1847 0.326286C11.4956 0.125518 11.8919 0.112831 12.215 0.293308L22.9894 6.31235C23.6594 6.68668 23.6754 7.64513 23.0182 8.04161L13.4515 13.813C13.1569 13.9908 12.7916 14.0046 12.4844 13.8496L1.55788 8.33607C0.868064 7.98799 0.816777 7.02245 1.46584 6.60325L11.1847 0.326286Z" transform="translate(224.038 140.678) scale(1 -1) rotate(1.2307)" fill="#FFE5B1"/>
<path d="M0 0H95.7438L56.6473 60.5083L39.293 59.4278L0 0Z" transform="translate(185.88 75.0371) rotate(-1.2307)" fill="url(#paint19_linear)" fill-opacity="0.7"/>
<path d="M0 0H40.5736L28.6984 60.5083H11.8752L0 0Z" transform="translate(214.279 73.3467) rotate(-1.2307)" fill="url(#paint20_linear)"/>
<ellipse cx="1.8555" cy="1.85508" rx="1.8555" ry="1.85508" transform="translate(271.599 56.7207) rotate(-1.2307)" fill="#FFE69A"/>
<ellipse cx="1.8555" cy="1.85508" rx="1.8555" ry="1.85508" transform="translate(279.45 76.5918) rotate(-1.2307)" fill="#FFE69A"/>
<ellipse cx="1.8555" cy="1.85508" rx="1.8555" ry="1.85508" transform="translate(218.221 60.0935) rotate(-1.2307)" fill="#FFE69A"/>
<ellipse cx="1.8555" cy="1.85508" rx="1.8555" ry="1.85508" transform="translate(248.116 103.984) rotate(-1.2307)" fill="#FFE69A"/>
<ellipse cx="1.8555" cy="1.85508" rx="1.8555" ry="1.85508" transform="translate(243.618 32.8286) rotate(-1.2307)" fill="#FFE69A"/>
<ellipse cx="13.4138" cy="15.7975" rx="13.4138" ry="15.7975" transform="translate(229.95 53.1619) rotate(-1.2307)" fill="#D82E2E"/>
<ellipse cx="13.4138" cy="15.7975" rx="13.4138" ry="15.7975" transform="translate(232.084 53.8342) rotate(-1.2307)" fill="#F2C877"/>
<ellipse cx="10.7379" cy="12.4636" rx="10.7379" ry="12.4636" transform="translate(234.697 56.7537) rotate(-1.2307)" fill="url(#paint21_linear)"/>
<path d="M5.4126 7.98682H9.66064V13.5386C9.37744 13.6313 9.0918 13.7168 8.80371 13.7949C8.51562 13.8682 8.21533 13.9316 7.90283 13.9854C7.59521 14.0342 7.27051 14.0732 6.92871 14.1025C6.5918 14.1318 6.23291 14.1465 5.85205 14.1465C5.05127 14.1465 4.34082 14.0293 3.7207 13.7949C3.10547 13.5557 2.58545 13.2041 2.16064 12.7402C1.74072 12.2715 1.4209 11.6953 1.20117 11.0117C0.981445 10.3232 0.871582 9.52979 0.871582 8.63135C0.871582 7.7915 0.993652 7.03223 1.23779 6.35352C1.48193 5.6748 1.84082 5.09863 2.31445 4.625C2.79297 4.14648 3.37891 3.78027 4.07227 3.52637C4.77051 3.26758 5.56885 3.13818 6.46729 3.13818C7.03857 3.13818 7.59766 3.19922 8.14453 3.32129C8.69141 3.44336 9.19189 3.60205 9.646 3.79736L8.8916 5.61377C8.55957 5.44775 8.18359 5.30859 7.76367 5.19629C7.34863 5.08398 6.91162 5.02783 6.45264 5.02783C5.95459 5.02783 5.50537 5.11572 5.10498 5.2915C4.70947 5.4624 4.37012 5.70654 4.08691 6.02393C3.80371 6.34131 3.58643 6.72461 3.43506 7.17383C3.28369 7.62305 3.20801 8.12354 3.20801 8.67529C3.20801 9.20264 3.25928 9.68604 3.36182 10.1255C3.46924 10.5601 3.63525 10.936 3.85986 11.2534C4.08447 11.5708 4.37256 11.8174 4.72412 11.9932C5.08057 12.1689 5.50537 12.2568 5.99854 12.2568C6.3208 12.2568 6.5918 12.2422 6.81152 12.2129C7.03613 12.1836 7.24609 12.1494 7.44141 12.1104V9.87646H5.4126V7.98682ZM13.9014 9.89111C13.9014 10.7065 14.0161 11.3218 14.2456 11.7368C14.4751 12.147 14.8486 12.3521 15.3662 12.3521C15.8789 12.3521 16.25 12.1445 16.4795 11.7295C16.709 11.3145 16.8237 10.7017 16.8237 9.89111C16.8237 9.07568 16.709 8.46777 16.4795 8.06738C16.25 7.66211 15.874 7.45947 15.3516 7.45947C14.8389 7.45947 14.4678 7.66211 14.2383 8.06738C14.0137 8.46777 13.9014 9.07568 13.9014 9.89111ZM19.1016 9.89111C19.1016 10.5747 19.0137 11.1802 18.8379 11.7075C18.667 12.2349 18.418 12.6792 18.0908 13.0405C17.7686 13.4019 17.373 13.6777 16.9043 13.8682C16.4404 14.0537 15.918 14.1465 15.3369 14.1465C14.7949 14.1465 14.2969 14.0537 13.8428 13.8682C13.3887 13.6777 12.9956 13.4019 12.6636 13.0405C12.3364 12.6792 12.0801 12.2349 11.8945 11.7075C11.709 11.1802 11.6162 10.5747 11.6162 9.89111C11.6162 9.2124 11.7017 8.60938 11.8726 8.08203C12.0483 7.55469 12.2974 7.11279 12.6196 6.75635C12.9468 6.39502 13.3423 6.12158 13.8062 5.93604C14.27 5.75049 14.7949 5.65771 15.3809 5.65771C15.9229 5.65771 16.4209 5.75049 16.875 5.93604C17.3291 6.12158 17.7197 6.39502 18.0469 6.75635C18.3789 7.11279 18.6377 7.55469 18.8232 8.08203C19.0088 8.60938 19.1016 9.2124 19.1016 9.89111Z" transform="matrix(0.994592 0.103876 -0.10669 0.994291 236.048 58.6345)" fill="#E89A40"/>
<ellipse cx="2.5" cy="3.5" rx="2.5" ry="3.5" transform="translate(248 67)" fill="#E89A40"/>
<path d="M1.40059 0C3.57929 4.46229 6.5361 12.9252 0 20.3111C4.20178 17.0798 8.87042 9.23232 1.40059 0Z" transform="translate(251.094 59.1719) rotate(-1.2307)" fill="#E3A938"/>
<path d="M3.16532 1.26499C3.56057 0.665978 4.43943 0.665977 4.83468 1.26499L6.44088 3.69926C6.87957 4.36411 6.40275 5.25 5.6062 5.25H2.3938C1.59725 5.25 1.12043 4.36411 1.55912 3.69926L3.16532 1.26499Z" transform="translate(254 66) rotate(90)" fill="#FEE25B"/>
<ellipse cx="13.7307" cy="15.2117" rx="13.7307" ry="15.2117" transform="translate(220.701 71.9155) rotate(-1.2307)" fill="#D82E2E"/>
<ellipse cx="13.7307" cy="14.8407" rx="13.7307" ry="14.8407" transform="translate(219.251 73.4312) rotate(-1.2307)" fill="#F2C877"/>
<ellipse cx="11.5041" cy="12.6146" rx="11.5041" ry="12.6146" transform="translate(221.525 75.6089) rotate(-1.2307)" fill="url(#paint22_linear)"/>
<path d="M5.4126 7.98682H9.66064V13.5386C9.37744 13.6313 9.0918 13.7168 8.80371 13.7949C8.51562 13.8682 8.21533 13.9316 7.90283 13.9854C7.59521 14.0342 7.27051 14.0732 6.92871 14.1025C6.5918 14.1318 6.23291 14.1465 5.85205 14.1465C5.05127 14.1465 4.34082 14.0293 3.7207 13.7949C3.10547 13.5557 2.58545 13.2041 2.16064 12.7402C1.74072 12.2715 1.4209 11.6953 1.20117 11.0117C0.981445 10.3232 0.871582 9.52979 0.871582 8.63135C0.871582 7.7915 0.993652 7.03223 1.23779 6.35352C1.48193 5.6748 1.84082 5.09863 2.31445 4.625C2.79297 4.14648 3.37891 3.78027 4.07227 3.52637C4.77051 3.26758 5.56885 3.13818 6.46729 3.13818C7.03857 3.13818 7.59766 3.19922 8.14453 3.32129C8.69141 3.44336 9.19189 3.60205 9.646 3.79736L8.8916 5.61377C8.55957 5.44775 8.18359 5.30859 7.76367 5.19629C7.34863 5.08398 6.91162 5.02783 6.45264 5.02783C5.95459 5.02783 5.50537 5.11572 5.10498 5.2915C4.70947 5.4624 4.37012 5.70654 4.08691 6.02393C3.80371 6.34131 3.58643 6.72461 3.43506 7.17383C3.28369 7.62305 3.20801 8.12354 3.20801 8.67529C3.20801 9.20264 3.25928 9.68604 3.36182 10.1255C3.46924 10.5601 3.63525 10.936 3.85986 11.2534C4.08447 11.5708 4.37256 11.8174 4.72412 11.9932C5.08057 12.1689 5.50537 12.2568 5.99854 12.2568C6.3208 12.2568 6.5918 12.2422 6.81152 12.2129C7.03613 12.1836 7.24609 12.1494 7.44141 12.1104V9.87646H5.4126V7.98682ZM13.9014 9.89111C13.9014 10.7065 14.0161 11.3218 14.2456 11.7368C14.4751 12.147 14.8486 12.3521 15.3662 12.3521C15.8789 12.3521 16.25 12.1445 16.4795 11.7295C16.709 11.3145 16.8237 10.7017 16.8237 9.89111C16.8237 9.07568 16.709 8.46777 16.4795 8.06738C16.25 7.66211 15.874 7.45947 15.3516 7.45947C14.8389 7.45947 14.4678 7.66211 14.2383 8.06738C14.0137 8.46777 13.9014 9.07568 13.9014 9.89111ZM19.1016 9.89111C19.1016 10.5747 19.0137 11.1802 18.8379 11.7075C18.667 12.2349 18.418 12.6792 18.0908 13.0405C17.7686 13.4019 17.373 13.6777 16.9043 13.8682C16.4404 14.0537 15.918 14.1465 15.3369 14.1465C14.7949 14.1465 14.2969 14.0537 13.8428 13.8682C13.3887 13.6777 12.9956 13.4019 12.6636 13.0405C12.3364 12.6792 12.0801 12.2349 11.8945 11.7075C11.709 11.1802 11.6162 10.5747 11.6162 9.89111C11.6162 9.2124 11.7017 8.60938 11.8726 8.08203C12.0483 7.55469 12.2974 7.11279 12.6196 6.75635C12.9468 6.39502 13.3423 6.12158 13.8062 5.93604C14.27 5.75049 14.7949 5.65771 15.3809 5.65771C15.9229 5.65771 16.4209 5.75049 16.875 5.93604C17.3291 6.12158 17.7197 6.39502 18.0469 6.75635C18.3789 7.11279 18.6377 7.55469 18.8232 8.08203C19.0088 8.60938 19.1016 9.2124 19.1016 9.89111Z" transform="translate(224 80.4597) rotate(-1.2307)" fill="#E6973B"/>
<ellipse cx="2" cy="3" rx="2" ry="3" transform="translate(238 87)" fill="#E6973B"/>
<path d="M3.16532 1.26499C3.56057 0.665978 4.43943 0.665977 4.83468 1.26499L6.44088 3.69926C6.87957 4.36411 6.40275 5.25 5.6062 5.25H2.3938C1.59725 5.25 1.12043 4.36411 1.55912 3.69926L3.16532 1.26499Z" transform="translate(243 86) rotate(90)" fill="#FEE25B"/>
<path d="M6.70788 0C1.51267 2.96813 -3.31169 11.1305 2.99688 19.6639C1.75988 16.0774 -0.713933 7.42034 6.70788 0Z" transform="translate(221.521 76.7222) rotate(-1.2307)" fill="#E3A938"/>
<path d="M63.2095 2.32898L66.6845 0.403982L66.9268 0.841361L68.4456 0L70.03 0.710221L70.2346 0.253966L73.8596 1.87896L73.655 2.33522L77.28 3.96022L77.4846 3.50397L81.1096 5.12897L80.905 5.58522L84.53 7.21023L84.7346 6.75397L88.3596 8.37897L88.155 8.83523L91.78 10.4602L91.9846 10.004L95.6096 11.629L95.4051 12.0852L99.0301 13.7102L99.234 13.254L102.859 14.879L102.655 15.3352L106.28 16.9603L106.484 16.504L110.109 18.129L109.905 18.5853L113.53 20.2103L113.734 19.754L117.36 21.379L117.155 21.8353L120.78 23.4603L120.984 23.004L124.61 24.629L124.405 25.0853L128.03 26.7103L128.234 26.254L131.86 27.879L131.655 28.3353L135.28 29.9603L135.484 29.504L139.11 31.129L138.905 31.5853L142.53 33.2103L142.734 32.754L146.36 34.379L146.155 34.8353L149.78 36.4603L149.984 36.004L153.61 37.629L153.405 38.0853L157.03 39.7103L157.234 39.254L160.86 40.879L160.655 41.3353L164.28 42.9603L164.484 42.504L168.11 44.129L167.905 44.5853L171.53 46.2103L171.734 45.754L175.36 47.379L175.155 47.8353L178.78 49.4603L178.984 49.004L182.61 50.629L182.405 51.0853L183.371 51.5185L182.428 52.1199L182.697 52.5415L179.247 54.7415L178.978 54.3199L175.528 56.5199L175.797 56.9415L172.347 59.1415L172.078 58.7199L168.628 60.9199L168.897 61.3415L165.447 63.5415L165.178 63.1199L161.728 65.3199L161.997 65.7415L158.547 67.9415L158.278 67.5199L154.828 69.7199L155.097 70.1415L151.647 72.3415L151.378 71.9199L147.928 74.1199L148.197 74.5415L144.747 76.7415L144.478 76.3199L141.028 78.5199L141.297 78.9415L137.847 81.1415L137.578 80.7199L134.128 82.9199L134.397 83.3415L130.947 85.5415L130.678 85.1199L127.228 87.3199L127.497 87.7415L124.047 89.9415L123.778 89.5199L120.328 91.7199L120.597 92.1415L117.147 94.3415L116.878 93.9199L115.391 94.8685L113.823 94.0947L113.602 94.5431L109.961 92.7462L110.182 92.2978L106.542 90.5009L106.32 90.9493L102.68 89.1524L102.901 88.7041L99.26 86.9072L99.039 87.3556L95.3986 85.5587L95.6199 85.1103L91.9792 83.3134L91.7579 83.7618L88.1173 81.9649L88.3387 81.5166L84.6981 79.7197L84.4768 80.1681L80.8361 78.3712L81.0574 77.9228L77.4167 76.1259L77.1954 76.5743L73.5548 74.7774L73.7762 74.3291L70.1356 72.5322L69.9143 72.9806L66.2737 71.1837L66.4949 70.7353L62.8543 68.9384L62.6329 69.3868L58.9924 67.5899L59.2136 67.1416L55.5731 65.3447L55.3517 65.7931L51.7112 63.9962L51.9324 63.5478L48.2918 61.7509L48.0704 62.1993L44.4299 60.4024L44.6511 59.9541L41.0106 58.1572L40.7892 58.6056L37.1487 56.8087L37.3699 56.3603L33.7293 54.5635L33.5079 55.0118L29.8673 53.2149L30.0886 52.7666L26.448 50.9697L26.2268 51.4181L22.5862 49.6212L22.8075 49.1728L19.1667 47.376L18.9454 47.8243L15.3048 46.0274L15.5261 45.5791L11.8855 43.7822L11.6642 44.2306L8.02361 42.4337L8.24491 41.9853L4.60428 40.1885L4.38299 40.6368L0.74236 38.8399L0.96366 38.3916L0 37.916L0.90183 37.4164L0.65954 36.979L4.13454 35.054L4.37683 35.4914L7.85184 33.5664L7.60955 33.129L11.0846 31.204L11.3269 31.6414L14.8018 29.7164L14.5595 29.279L18.0345 27.354L18.2768 27.7914L21.7519 25.8664L21.5096 25.429L24.9846 23.504L25.2269 23.9414L28.7019 22.0164L28.4596 21.579L31.9346 19.654L32.1768 20.0914L35.6519 18.1664L35.4095 17.729L38.8846 15.804L39.1269 16.2414L42.6018 14.3164L42.3596 13.879L45.8345 11.954L46.0769 12.3914L49.5518 10.4664L49.3096 10.029L52.7845 8.10398L53.0269 8.54136L56.5019 6.61636L56.2596 6.17898L59.7346 4.25398L59.9768 4.69136L63.4519 2.76636L63.2095 2.32898Z" transform="translate(213.412 236.488)" stroke="#FFE145" stroke-dasharray="4 4"/>
<path d="M30.1303 122.859V46.797C30.1303 43.1179 32.7818 38.559 35.9957 36.7195L39.6113 34.64L68.1346 18.2439C68.3757 18.084 68.5364 18.004 68.7774 17.924C68.8578 17.924 68.8578 17.844 68.9381 17.844C69.0988 17.7641 69.2595 17.6841 69.4202 17.6841C69.5005 17.6841 69.5809 17.6841 69.5809 17.6041C69.7416 17.6041 69.9023 17.5241 69.9826 17.5241C70.063 17.5241 70.063 17.5241 70.1433 17.5241C70.304 17.5241 70.3844 17.5241 70.5451 17.5241C70.6254 17.5241 70.6254 17.5241 70.7058 17.5241C70.8664 17.5241 70.9468 17.5241 71.1075 17.5241C71.1878 17.5241 71.1878 17.5241 71.2682 17.5241C71.4289 17.5241 71.5092 17.6041 71.5896 17.6041C71.9913 17.7641 72.3127 17.924 72.6341 18.164L72.7948 18.084C72.7948 18.084 50.2172 4.32731 42.8252 0.888142C39.9327 -0.471529 35.7546 -0.151607 32.9425 1.0481C26.836 3.60748 17.9175 8.72625 12.8556 11.6855L6.18675 15.6046C2.73181 17.5241 0.32139 21.4432 0.32139 27.8416L0 104.383C0 107.102 1.20521 108.462 3.37459 110.142L31.2552 126.218C30.532 125.418 30.1303 124.298 30.1303 122.859Z" transform="translate(250.792 225.985) scale(-1 1) rotate(3.89292)" fill="#FFC045"/>
<path d="M36.8279 0.605947C38.3618 -0.226938 40.219 -0.199613 41.7278 0.678037L77.7355 21.6237C81.1227 23.5941 81.0299 28.518 77.5709 30.3593L44.4222 48.0052C42.9443 48.7919 41.1707 48.7867 39.6974 47.9913L2.6247 27.977C-0.870126 26.0902 -0.876146 21.0783 2.61414 19.1831L36.8279 0.605947Z" transform="translate(181.028 317.873) rotate(-4.5504)" fill="black" fill-opacity="0.15"/>
<path d="M30.1303 26.8735C30.1303 26.6336 30.1303 26.3136 30.2106 25.9937C30.2106 25.9137 30.2106 25.8338 30.2106 25.7538C30.2106 25.5138 30.291 25.3539 30.291 25.1139C30.291 25.0339 30.291 24.954 30.3713 24.874C30.532 24.3141 30.6927 23.6743 30.9338 23.1144V23.0344C31.0141 22.7145 31.1748 22.4746 31.3355 22.2346V22.1546C31.8176 21.2749 32.38 20.3951 32.9425 19.5953L1.92834 0C0.883822 1.99952 0.241042 4.5589 0.241042 7.83811L0 84.4596C0 87.1789 1.20521 88.5386 3.37459 90.2182L31.2552 106.294C30.532 105.574 30.1303 104.455 30.1303 103.015V26.8735Z" transform="translate(252.145 245.862) scale(-1 1) rotate(3.89292)" fill="url(#paint23_linear)"/>
<path d="M38.165 0.782165C41.3789 -1.05739 43.95 0.462242 43.95 4.14135V80.203C43.95 83.8821 41.2986 88.441 38.0847 90.2805L5.86536 108.756C2.65147 110.596 0 109.076 0 105.397V29.3353C0 25.6561 2.65147 21.0973 5.86536 19.2577L38.165 0.782165Z" transform="translate(221.996 245.448) scale(-1 1) rotate(3.89292)" fill="url(#paint24_linear)"/>
<path d="M0 26.2391C0 35.1969 6.34745 38.796 14.1411 34.3171C21.9348 29.8382 28.2823 18.9608 28.2823 10.003C28.2823 1.04515 21.9348 -2.55398 14.1411 1.92494C6.34745 6.40386 0 17.2812 0 26.2391Z" transform="translate(213.627 260.904) scale(-1 1) rotate(3.89292)" fill="#EDB02D"/>
<path d="M0 17.3436C0 23.2621 4.17806 25.6615 9.3203 22.7023C14.4625 19.743 18.6406 12.5447 18.6406 6.62615C18.6406 0.707583 14.4625 -1.69184 9.3203 1.26745C4.17806 4.22673 0 11.425 0 17.3436Z" transform="translate(209.236 267.393) scale(-1 1) rotate(3.89292)" fill="#E45C0B"/>
<path d="M0 11.5289C0 15.4479 2.81216 17.0475 6.18675 15.128C9.64169 13.1285 12.3735 8.40964 12.3735 4.4106C12.3735 0.491553 9.64169 -1.10806 6.18675 0.811475C2.73181 2.81099 0 7.60983 0 11.5289Z" transform="translate(206.379 271.573) scale(-1 1) rotate(3.89292)" fill="#80380D"/>
<path d="M0 32.8665C0 44.0638 7.95439 48.6227 17.6764 43.0241C27.4788 37.4254 35.3529 23.7487 35.3529 12.5514C35.3529 1.35415 27.3985 -3.20474 17.6764 2.3939C7.95439 7.99255 0 21.6692 0 32.8665Z" transform="translate(219.977 296.236) scale(-1 1) rotate(3.89292)" fill="#EDB02D"/>
<path d="M0 21.7338C0 29.172 5.22259 32.1312 11.7307 28.4521C18.1585 24.773 23.3811 15.7352 23.3811 8.29702C23.3811 0.858814 18.1585 -2.10047 11.7307 1.57864C5.22259 5.25775 0 14.2956 0 21.7338Z" transform="translate(214.487 304.321) scale(-1 1) rotate(3.89292)" fill="#E45C0B"/>
<path d="M0 14.4209C0 19.3797 3.45494 21.3792 7.7937 18.8998C12.0521 16.4204 15.5874 10.4219 15.5874 5.54304C15.5874 0.58424 12.1325 -1.41527 7.7937 1.06413C3.45494 3.46355 0 9.46209 0 14.4209Z" transform="translate(210.903 309.65) scale(-1 1) rotate(3.89292)" fill="#80380D"/>
<path d="M0.562433 0.10507C0.482085 0.10507 0.482085 0.10507 0.562433 0.10507C0.482085 0.10507 0.482085 0.10507 0.562433 0.10507C0.482085 0.10507 0.482085 0.10507 0.562433 0.10507C0.482085 0.10507 0.482085 0.10507 0.562433 0.10507C0.482085 0.10507 0.482085 0.10507 0.562433 0.10507C0.482085 0.10507 0.482085 0.10507 0.562433 0.10507C0.482085 0.10507 0.482085 0.10507 0.562433 0.10507C0.482085 0.10507 0.482085 0.10507 0.562433 0.10507C0.482085 0.18505 0.482085 0.18505 0.562433 0.10507C0.482085 0.18505 0.482085 0.18505 0.562433 0.10507C0.482085 0.18505 0.482085 0.18505 0.562433 0.10507C0.482085 0.18505 0.482085 0.18505 0.562433 0.10507C0.482085 0.18505 0.482085 0.185055 0.482085 0.185055C0.241043 0.345017 0 0.664937 0 1.14482V3.7042C0 4.66397 0.642779 5.86368 1.5266 6.34356L3.77633 7.62326C4.17807 7.8632 4.5798 7.86319 4.82085 7.70323C5.06189 7.54327 5.30293 7.22335 5.30293 6.74347V4.18409C5.30293 3.22432 4.66015 2.02461 3.77633 1.54472L1.5266 0.265035C1.20521 -0.0548878 0.803475 -0.0548915 0.562433 0.10507Z" transform="translate(235.913 326.867) scale(-1 1) rotate(3.89292)" fill="#80380D"/>
<path d="M0 1.08313V3.64251C0 4.60228 0.642779 5.80199 1.5266 6.28188L3.77633 7.56156C4.5798 8.04144 5.30293 7.64155 5.30293 6.68178V4.12239C5.30293 3.16262 4.66015 1.96292 3.77633 1.48303L1.5266 0.203343C0.723126 -0.276541 0 0.123361 0 1.08313Z" transform="translate(236.832 327.347) scale(-1 1) rotate(3.89292)" fill="#F46C1B"/>
<path d="M0.562433 0.105072C0.482086 0.105072 0.482086 0.105072 0.562433 0.105072C0.482086 0.105072 0.482086 0.105072 0.562433 0.105072C0.482086 0.105072 0.482086 0.105072 0.562433 0.105072C0.482086 0.105072 0.482086 0.105072 0.562433 0.105072C0.482086 0.105072 0.482086 0.105072 0.562433 0.105072C0.482086 0.105072 0.482086 0.105072 0.562433 0.105072C0.482086 0.105072 0.482086 0.105072 0.562433 0.105072C0.482086 0.185053 0.482085 0.185045 0.482085 0.185045C0.241043 0.345007 0 0.664927 0 1.14481V3.70421C0 4.66397 0.642781 5.86367 1.5266 6.34356L3.77633 7.62325C4.17807 7.86319 4.5798 7.8632 4.82085 7.70324C5.06189 7.54328 5.30293 7.22334 5.30293 6.74346V4.18408C5.30293 3.22431 4.66015 2.0246 3.77633 1.54472L1.5266 0.265031C1.20521 -0.0548915 0.883823 -0.0548891 0.562433 0.105072Z" transform="translate(236.801 337.549) scale(-1 1) rotate(3.89292)" fill="#80380D"/>
<path d="M0 1.08313V3.64251C0 4.60228 0.642781 5.80199 1.5266 6.28187L3.77633 7.56157C4.5798 8.04145 5.30293 7.64154 5.30293 6.68178V4.1224C5.30293 3.16263 4.66015 1.96292 3.77633 1.48303L1.5266 0.203342C0.642781 -0.276542 0 0.123366 0 1.08313Z" transform="translate(237.64 338.034) scale(-1 1) rotate(3.89292)" fill="#F46C1B"/>
<path d="M5.46363 2.55938L0.96417 0L0 0.559865L4.49946 3.11925L5.46363 2.55938Z" transform="translate(219.106 257.41) scale(-1 1) rotate(3.89292)" fill="#F46C1B"/>
<path d="M5.46363 2.55938L0.964169 0L0 0.479886L4.49946 3.11925L5.46363 2.55938Z" transform="translate(215.608 255.724) scale(-1 1) rotate(3.89292)" fill="#F46C1B"/>
<path d="M5.46363 2.63936L0.964167 0L0 0.559864L4.49946 3.19923L5.46363 2.63936Z" transform="translate(212.106 253.958) scale(-1 1) rotate(3.89292)" fill="#F46C1B"/>
<path d="M5.46363 2.63936L0.96417 0L0 0.559863L4.49946 3.19923L5.46363 2.63936Z" transform="translate(208.609 252.272) scale(-1 1) rotate(3.89292)" fill="#F46C1B"/>
<path d="M5.46363 2.63936L0.883823 0L0 0.559865L4.49945 3.11925L5.46363 2.63936Z" transform="translate(204.455 250.39) scale(-1 1) rotate(3.89292)" fill="#F46C1B"/>
<path d="M5.46362 2.55938L0.883824 0L0 0.479885L4.49946 3.11925L5.46362 2.55938Z" transform="translate(200.958 248.704) scale(-1 1) rotate(3.89292)" fill="#F46C1B"/>
<path d="M5.46363 2.55938L0.883821 0L0 0.479882L4.49946 3.11925L5.46363 2.55938Z" transform="translate(197.461 247.018) scale(-1 1) rotate(3.89292)" fill="#F46C1B"/>
<path d="M5.46363 2.63936L0.883827 0L0 0.559864L4.49946 3.19923L5.46363 2.63936Z" transform="translate(193.958 245.253) scale(-1 1) rotate(3.89292)" fill="#F46C1B"/>
<path d="M50 0H0V66H50V0Z" transform="translate(309.31 217.534) scale(1 -1) rotate(4.5358)" fill="url(#paint25_linear)"/>
<path d="M0 0L25.7812 14.7955V46.7225L0 31.9271V0Z" transform="translate(304.111 152.018) rotate(-4.5358)" fill="url(#paint26_linear)"/>
<path d="M0 0L25 15.5742L24.2187 47.5013L0 31.9271V0Z" transform="translate(353.894 147.287) scale(-1 1) rotate(4.5358)" fill="url(#paint27_linear)"/>
<path d="M0 0H50V34.2857L0 35V0Z" transform="translate(301.322 116.851) rotate(-4.5358)" fill="url(#paint28_linear)" fill-opacity="0.6"/>
<path d="M0 0L26.4422 9.44868L34.6511 35.9418L6.21471 28.3573L0 0Z" transform="matrix(0.624166 -0.781292 0.783316 0.621624 304.111 152.018)" fill="#FAB144"/>
<path d="M15 12C23.2843 12 30 9.31371 30 6C30 2.68629 23.2843 0 15 0C6.71573 0 0 2.68629 0 6C0 9.31371 6.71573 12 15 12Z" transform="translate(315.53 156.853) scale(1 -1) rotate(4.5358)" fill="url(#paint29_radial)" fill-opacity="0.4"/>
<path opacity="0.96" d="M0 0L50.6078 4.02157" transform="matrix(0.833018 -0.553246 0.544103 0.839018 327.908 150.43)" stroke="url(#paint30_linear)"/>
<path opacity="0.96" d="M0 0.982696L46.2868 9.70709L46.4721 8.72439L0.185224 0L0 0.982696Z" transform="matrix(-0.909828 -0.414985 -0.405011 0.914312 328.958 149.959)" fill="url(#paint31_linear)"/>
<path opacity="0.96" d="M0 5.03249L22.9797 0" transform="matrix(-0.909828 -0.414985 -0.405011 0.914312 330.652 144.991)" stroke="url(#paint32_linear)"/>
<path opacity="0.96" d="M0 18.8956L19.0482 0" transform="matrix(-0.101596 -0.994826 -0.994765 0.102187 348.179 147.601)" stroke="url(#paint33_linear)"/>
<path opacity="0.96" d="M0 18.1591L10.5761 0" transform="matrix(0.651353 0.758775 -0.750642 0.66071 341.539 138.433)" stroke="url(#paint34_linear)"/>
<path opacity="0.96" d="M0 0L23.4122 10.3453" transform="matrix(-0.831577 0.55541 -0.546253 -0.83762 328.675 150.37)" stroke="url(#paint35_linear)"/>
<path d="M3.84615 3.11708C5.97032 3.11708 7.6923 2.4193 7.6923 1.55854C7.6923 0.697782 5.97032 0 3.84615 0C1.72198 0 0 0.697782 0 1.55854C0 2.4193 1.72198 3.11708 3.84615 3.11708Z" transform="translate(325.731 152.167) scale(1 -1) rotate(4.5358)" fill="white" fill-opacity="0.62"/>
<path d="M6.59843 17.2515L5.38444 16.3705L5.19687 16.6289L5.13084 16.9414L6.59843 17.2515ZM17.265 2.55381L18.479 1.67277L17.265 0L16.0511 1.67277L17.265 2.55381ZM27.9317 17.2515L29.3881 16.8924L29.3179 16.6078L29.1458 16.3705L27.9317 17.2515ZM17.8122 51.5538L16.9669 52.7929L17.8193 53.3745L18.6672 52.7862L17.8122 51.5538ZM1.67535 40.5461L0.20777 40.2359L0 41.219L0.830061 41.7852L1.67535 40.5461ZM33.6754 40.5461L34.5306 41.7784L35.379 41.1897L35.1318 40.187L33.6754 40.5461ZM7.81242 18.1326L18.479 3.43485L16.0511 1.67277L5.38444 16.3705L7.81242 18.1326ZM16.0511 3.43485L26.7178 18.1326L29.1458 16.3705L18.479 1.67277L16.0511 3.43485ZM26.493 16.8271L16.3734 51.1294L19.2509 51.9782L29.3705 17.676L26.493 16.8271ZM19.2379 51.0877L8.02418 16.7854L5.17268 17.7176L16.3864 52.0199L19.2379 51.0877ZM5.13084 16.9414L0.20777 40.2359L3.14293 40.8562L8.06601 17.5617L5.13084 16.9414ZM0.830061 41.7852L16.9669 52.7929L18.6574 50.3147L2.52064 39.3069L0.830061 41.7852ZM18.6672 52.7862L34.5306 41.7784L32.8201 39.3137L16.9569 50.3214L18.6672 52.7862ZM35.1318 40.187L29.3881 16.8924L26.4753 17.6106L32.2189 40.9052L35.1318 40.187Z" transform="translate(306.604 90.7979) rotate(-4.5358)" fill="#FEFFD7" fill-opacity="0.86"/>
<path d="M25.2396 0L49.1681 12.9099L24.2563 26.7881L0 11.6189L25.2396 0Z" transform="translate(372.414 253.865) rotate(-8.48088)" fill="#FFDE78" fill-opacity="0.39"/>
<path d="M0 0L24.2563 14.8465V45.1848L0 30.3384V0Z" transform="translate(374.127 265.357) rotate(-8.48088)" fill="#FFDE78" fill-opacity="0.39"/>
<path d="M24.9118 0L0 13.5555V43.8938L24.9118 29.6929V0Z" transform="translate(398.309 263.057) rotate(-8.48088)" fill="#FFDE78" fill-opacity="0.39"/>
<path d="M15.9073 0L30.9883 8.11482L15.2876 16.8382L0 7.30333L15.9073 0Z" transform="translate(383.08 263.761) rotate(-8.48088)" fill="url(#paint36_linear)"/>
<path d="M0 0L15.2876 9.33204V28.4019L0 19.0698V0Z" transform="translate(384.157 270.984) rotate(-8.48088)" fill="url(#paint37_linear)"/>
<path d="M0 0L15.7007 8.52056V27.5904L0 18.6641V0Z" transform="translate(414.926 267.217) scale(-1 1) rotate(8.48088)" fill="url(#paint38_linear)"/>
<path d="M15.9073 0L30.9883 8.11482L15.2876 16.8382L0 7.30333L15.9073 0Z" transform="translate(129 197.076) rotate(-8.48088)" fill="url(#paint39_linear)"/>
<path d="M0 0L15.2876 9.33204V28.4019L0 19.0698V0Z" transform="translate(130.077 204.301) rotate(-8.48088)" fill="url(#paint40_linear)"/>
<path d="M0 0L15.7007 8.52056V27.5904L0 18.6641V0Z" transform="translate(160.847 200.532) scale(-1 1) rotate(8.48088)" fill="url(#paint41_linear)"/>
<defs>
<linearGradient id="paint0_linear" x2="1" gradientUnits="userSpaceOnUse" gradientTransform="matrix(1483.68 683.356 -287.204 1213.6 -769.388 -37.7876)">
<stop stop-color="#FD9E9E"/>
<stop offset="1" stop-color="#FF0000"/>
</linearGradient>
<linearGradient id="paint1_linear" x2="1" gradientUnits="userSpaceOnUse" gradientTransform="matrix(1474.5 329.5 -7.61266 1169.37 -11.6936 -538.688)">
<stop offset="0.0147768" stop-color="#FF4747"/>
<stop offset="1" stop-color="#FF0000"/>
</linearGradient>
<linearGradient id="paint2_linear" x2="1" gradientUnits="userSpaceOnUse" gradientTransform="matrix(-306.5 218 -188.246 -185.005 417.125 111.502)">
<stop offset="0.0147768" stop-color="#FD3C3C" stop-opacity="0"/>
<stop offset="1" stop-color="#FFB066" stop-opacity="0.3"/>
</linearGradient>
<linearGradient id="paint3_linear" x2="1" gradientUnits="userSpaceOnUse" gradientTransform="matrix(-306.5 218 -188.246 -185.005 417.125 111.502)">
<stop offset="0.0147768" stop-color="#FD3C3C" stop-opacity="0"/>
<stop offset="1" stop-color="#FFB066" stop-opacity="0.3"/>
</linearGradient>
<linearGradient id="paint4_linear" x2="1" gradientUnits="userSpaceOnUse" gradientTransform="matrix(-126.498 164.5 -129.185 -67.2061 169.592 -34.3969)">
<stop offset="0.0147768" stop-color="#FD3C3C" stop-opacity="0"/>
<stop offset="1" stop-color="#FFB066" stop-opacity="0.3"/>
</linearGradient>
<linearGradient id="paint5_linear" x2="1" gradientUnits="userSpaceOnUse" gradientTransform="matrix(-126.498 164.5 -129.185 -67.2061 169.592 -34.3969)">
<stop offset="0.0147768" stop-color="#FD3C3C" stop-opacity="0"/>
<stop offset="1" stop-color="#FFB066" stop-opacity="0.3"/>
</linearGradient>
<linearGradient id="paint6_linear" x2="1" gradientUnits="userSpaceOnUse" gradientTransform="matrix(-224.559 110.37 -103.823 -141.603 433.845 79.5917)">
<stop offset="0.0147768" stop-color="#FD3C3C" stop-opacity="0"/>
<stop offset="1" stop-color="#FFB066" stop-opacity="0.3"/>
</linearGradient>
<linearGradient id="paint7_linear" x2="1" gradientUnits="userSpaceOnUse" gradientTransform="matrix(-224.559 110.37 -103.823 -141.603 433.845 79.5917)">
<stop offset="0.0147768" stop-color="#FD3C3C" stop-opacity="0"/>
<stop offset="1" stop-color="#FFB066" stop-opacity="0.3"/>
</linearGradient>
<linearGradient id="paint8_linear" x2="1" gradientUnits="userSpaceOnUse" gradientTransform="matrix(-182.028 107.274 -96.4633 -112.598 353.101 -33.7085)">
<stop stop-color="#FD3C3C" stop-opacity="0"/>
<stop offset="1" stop-color="#FFB066" stop-opacity="0.3"/>
</linearGradient>
<linearGradient id="paint9_linear" x2="1" gradientUnits="userSpaceOnUse" gradientTransform="matrix(-182.028 107.274 -96.4633 -112.598 353.101 -33.7085)">
<stop stop-color="#FD3C3C" stop-opacity="0"/>
<stop offset="1" stop-color="#FFB066" stop-opacity="0.3"/>
</linearGradient>
<linearGradient id="paint10_linear" x2="1" gradientUnits="userSpaceOnUse" gradientTransform="matrix(-1.15106 -35.7711 36.2748 -1.18525 12.0137 45.8875)">
<stop stop-color="#FFD35A" stop-opacity="0.37"/>
<stop offset="1" stop-color="#FFD85D" stop-opacity="0"/>
</linearGradient>
<linearGradient id="paint11_linear" x2="1" gradientUnits="userSpaceOnUse" gradientTransform="matrix(-1.15103 -35.771 36.2754 -1.20174 -3.40412 44.9815)">
<stop stop-color="#FFD35A" stop-opacity="0.42"/>
<stop offset="1" stop-color="#FFD85D" stop-opacity="0"/>
</linearGradient>
<linearGradient id="paint12_linear" x2="1" gradientUnits="userSpaceOnUse" gradientTransform="matrix(-20.7447 1.70785 -2.62194 -32.8343 23.177 22.4515)">
<stop stop-color="#FFE060"/>
<stop offset="1" stop-color="#FFC252"/>
</linearGradient>
<linearGradient id="paint13_linear" x2="1" gradientUnits="userSpaceOnUse" gradientTransform="matrix(23.1355 4.51632 -6.89821 36.279 5.041 -8.03157)">
<stop stop-color="#FF7654"/>
<stop offset="1" stop-color="#DA2D03"/>
</linearGradient>
<linearGradient id="paint14_linear" x2="1" gradientUnits="userSpaceOnUse" gradientTransform="matrix(-20.7447 1.70785 -2.62194 -32.8343 23.177 22.4515)">
<stop stop-color="#FFC654"/>
<stop offset="1" stop-color="#FFB836"/>
</linearGradient>
<linearGradient id="paint15_linear" x2="1" gradientUnits="userSpaceOnUse" gradientTransform="matrix(-20.7447 1.70785 -2.62194 -32.8343 23.177 22.4515)">
<stop stop-color="#FFE060"/>
<stop offset="1" stop-color="#FFC252"/>
</linearGradient>
<linearGradient id="paint16_linear" x2="1" gradientUnits="userSpaceOnUse" gradientTransform="matrix(-1.88607 37.0059 -66.0012 -3.36236 52.8044 -9.39701)">
<stop offset="0.0480002" stop-color="#FFD78A"/>
<stop offset="1" stop-color="#E8BD69"/>
</linearGradient>
<linearGradient id="paint17_linear" x2="1" gradientUnits="userSpaceOnUse" gradientTransform="matrix(5.65822 21.685 -11.4646 2.9901 9.03295 5.34043)">
<stop stop-color="#F4CD41"/>
<stop offset="1" stop-color="#DF7505"/>
</linearGradient>
<linearGradient id="paint18_linear" x2="1" gradientUnits="userSpaceOnUse" gradientTransform="matrix(10.6092 12.2567 -6.48001 5.60644 7.01215 3.08944)">
<stop stop-color="#DF7505"/>
<stop offset="1" stop-color="#E64D0F"/>
</linearGradient>
<linearGradient id="paint19_linear" x2="1" gradientUnits="userSpaceOnUse" gradientTransform="matrix(-0.706855 -41.7507 23.4763 -0.229255 37.8302 58.8076)">
<stop stop-color="#FFE5B1"/>
<stop offset="1" stop-color="#FFE4B0" stop-opacity="0"/>
</linearGradient>
<linearGradient id="paint20_linear" x2="1" gradientUnits="userSpaceOnUse" gradientTransform="matrix(-0.371104 -85.3338 38.3838 0.382747 1.36394 101.838)">
<stop stop-color="#FFE5B1"/>
<stop offset="1" stop-color="#FFE6B6" stop-opacity="0"/>
</linearGradient>
<linearGradient id="paint21_linear" x2="1" gradientUnits="userSpaceOnUse" gradientTransform="matrix(12.8854 17.1375 -15.0177 11.588 13.5936 -4.62553)">
<stop stop-color="#FFEF63"/>
<stop offset="1" stop-color="#F8BA42"/>
</linearGradient>
<linearGradient id="paint22_linear" x2="1" gradientUnits="userSpaceOnUse" gradientTransform="matrix(-11.9269 19.7485 -17.2675 -11.4532 24.5855 6.96043)">
<stop stop-color="#FFEF63"/>
<stop offset="1" stop-color="#F8BA42"/>
</linearGradient>
<linearGradient id="paint23_linear" x2="1" gradientUnits="userSpaceOnUse" gradientTransform="matrix(19.0858 94.96 -11.6575 43.4364 19.1514 2.2175)">
<stop stop-color="#DF7505"/>
<stop offset="1" stop-color="#E64D0F"/>
</linearGradient>
<linearGradient id="paint24_linear" x2="1" gradientUnits="userSpaceOnUse" gradientTransform="matrix(-54 63 -30.8844 5.70484 79.3346 -4.66663)">
<stop stop-color="#F4CD41"/>
<stop offset="1" stop-color="#DF7505"/>
</linearGradient>
<linearGradient id="paint25_linear" x2="1" gradientUnits="userSpaceOnUse" gradientTransform="matrix(0.423728 -55.7586 42.2414 0.578773 -15.1227 63.7143)">
<stop stop-color="#FFD35A" stop-opacity="0.57"/>
<stop offset="1" stop-color="#FFD85D" stop-opacity="0"/>
</linearGradient>
<linearGradient id="paint26_linear" x2="1" gradientUnits="userSpaceOnUse" gradientTransform="translate(1.17187 6.36595) scale(24.6094 13.4911)">
<stop stop-color="#FFDD74"/>
<stop offset="0.999988" stop-color="#FEC36A"/>
</linearGradient>
<linearGradient id="paint27_linear" x2="1" gradientUnits="userSpaceOnUse" gradientTransform="matrix(33.2031 22.5826 -12.4276 19.2643 4.22449 -0.96466)">
<stop stop-color="#FFDF7F"/>
<stop offset="1" stop-color="#FF964C"/>
</linearGradient>
<linearGradient id="paint28_linear" x2="1" gradientUnits="userSpaceOnUse" gradientTransform="translate(-9.46152 39.2857) scale(30.4615 34.2857) rotate(-90)">
<stop stop-color="#FDBA7F" stop-opacity="0.52"/>
<stop offset="1" stop-color="#F2994A" stop-opacity="0"/>
</linearGradient>
<radialGradient id="paint29_radial" cx="0.5" cy="0.5" r="0.5" gradientUnits="userSpaceOnUse" gradientTransform="translate(31 46) scale(32 80) rotate(-180)">
<stop stop-color="white" stop-opacity="0.74"/>
<stop offset="1" stop-color="white" stop-opacity="0"/>
</radialGradient>
<linearGradient id="paint30_linear" x2="1" gradientUnits="userSpaceOnUse" gradientTransform="matrix(42.4678 9.27381 -325.601 1511.97 326.277 -1511.6)">
<stop stop-color="#FFE9E8"/>
<stop offset="1" stop-color="#FFE9E8" stop-opacity="0"/>
</linearGradient>
<linearGradient id="paint31_linear" x2="1" gradientUnits="userSpaceOnUse" gradientTransform="matrix(30.3996 8.81232 -309.398 1082.31 308.814 -1082.19)">
<stop stop-color="#FFE9E8"/>
<stop offset="1" stop-color="#FFE9E8" stop-opacity="0"/>
</linearGradient>
<linearGradient id="paint32_linear" x2="1" gradientUnits="userSpaceOnUse" gradientTransform="matrix(15.3876 -4.79433 168.328 547.84 -173.175 -542.826)">
<stop stop-color="#FFE9E8"/>
<stop offset="1" stop-color="#FFE9E8" stop-opacity="0"/>
</linearGradient>
<linearGradient id="paint33_linear" x2="1" gradientUnits="userSpaceOnUse" gradientTransform="matrix(20.5172 -22.7777 815.812 716.055 -824.257 -691.58)">
<stop stop-color="#FFE9E8"/>
<stop offset="1" stop-color="#FFE9E8" stop-opacity="0"/>
</linearGradient>
<linearGradient id="paint34_linear" x2="1" gradientUnits="userSpaceOnUse" gradientTransform="matrix(19.3549 -21.7471 771.809 681.698 -779.964 -659.492)">
<stop stop-color="#FFE9E8"/>
<stop offset="1" stop-color="#FFE9E8" stop-opacity="0"/>
</linearGradient>
<linearGradient id="paint35_linear" x2="1" gradientUnits="userSpaceOnUse" gradientTransform="matrix(17.2001 9.70616 -340.8 612.336 329.781 -607.85)">
<stop stop-color="#FFE9E8"/>
<stop offset="1" stop-color="#FFE9E8" stop-opacity="0"/>
</linearGradient>
<linearGradient id="paint36_linear" x2="1" gradientUnits="userSpaceOnUse" gradientTransform="matrix(-7.02402 42.197 -76.622 -12.2993 93.9755 2.7644)">
<stop stop-color="#F6FF8A"/>
<stop offset="1" stop-color="#FF7A50"/>
</linearGradient>
<linearGradient id="paint37_linear" x2="1" gradientUnits="userSpaceOnUse" gradientTransform="matrix(4.95813 18.6641 -10.0461 2.57356 12.9384 3.30968)">
<stop stop-color="#F4AC41"/>
<stop offset="1" stop-color="#DF7505"/>
</linearGradient>
<linearGradient id="paint38_linear" x2="1" gradientUnits="userSpaceOnUse" gradientTransform="matrix(9.29649 10.5493 -5.67824 4.82542 8.98366 0.24634)">
<stop stop-color="#EB9D04"/>
<stop offset="1" stop-color="#E64D0F"/>
</linearGradient>
<linearGradient id="paint39_linear" x2="1" gradientUnits="userSpaceOnUse" gradientTransform="matrix(-7.02402 42.197 -76.622 -12.2993 93.9755 2.7644)">
<stop stop-color="#F6FF8A"/>
<stop offset="1" stop-color="#FF7A50"/>
</linearGradient>
<linearGradient id="paint40_linear" x2="1" gradientUnits="userSpaceOnUse" gradientTransform="matrix(4.95813 18.6641 -10.0461 2.57356 12.9384 3.30968)">
<stop stop-color="#F4AC41"/>
<stop offset="1" stop-color="#DF7505"/>
</linearGradient>
<linearGradient id="paint41_linear" x2="1" gradientUnits="userSpaceOnUse" gradientTransform="matrix(9.29649 10.5493 -5.67824 4.82542 8.98366 0.24634)">
<stop stop-color="#EB9D04"/>
<stop offset="1" stop-color="#E64D0F"/>
</linearGradient>
</defs>
</svg>
