<svg width="81" height="73" viewBox="0 0 81 73" fill="none" xmlns="http://www.w3.org/2000/svg">
<rect x="0.5" y="0.5" width="80" height="72" rx="11.5" fill="url(#paint0_linear)" stroke="black"/>
<path d="M19.0578 9.77888V14.216C19.0578 14.6091 18.9272 14.9911 18.6866 15.302L15.8231 19.0023C15.1603 19.8588 14.1382 20.3602 13.0552 20.3602H6.76286C5.72417 20.3602 4.73914 19.8989 4.07416 19.101L0.909721 15.3039C0.644983 14.9862 0.5 14.5858 0.5 14.1723V9.77889C0.5 4.6543 4.6543 0.5 9.77888 0.5C14.9035 0.5 19.0578 4.6543 19.0578 9.77888Z" transform="translate(28.8271 17)" fill="white" stroke="black"/>
<path d="M1.59547 1.04774V2.13951C1.59547 2.21786 1.53196 2.28137 1.45362 2.28137H0.641854C0.56351 2.28137 0.5 2.21786 0.5 2.13951V1.04774C0.5 0.745231 0.745231 0.5 1.04774 0.5C1.35024 0.5 1.59547 0.74523 1.59547 1.04774Z" transform="translate(33.7168 36.4695)" fill="white" stroke="black"/>
<path d="M1.59547 1.04774V2.13951C1.59547 2.21786 1.53196 2.28137 1.45362 2.28137H0.641854C0.56351 2.28137 0.5 2.21786 0.5 2.13951V1.04774C0.5 0.745231 0.745231 0.5 1.04774 0.5C1.35024 0.5 1.59547 0.74523 1.59547 1.04774Z" transform="translate(42.0986 36.4695)" fill="white" stroke="black"/>
<path d="M1.59547 1.04774V2.13951C1.59547 2.21786 1.53196 2.28137 1.45362 2.28137H0.641854C0.56351 2.28137 0.5 2.21786 0.5 2.13951V1.04774C0.5 0.745231 0.745231 0.5 1.04774 0.5C1.35024 0.5 1.59547 0.74523 1.59547 1.04774Z" transform="translate(39.3047 36.4695)" fill="white" stroke="black"/>
<path d="M1.59547 1.04774V2.13951C1.59547 2.21786 1.53196 2.28137 1.45362 2.28137H0.641854C0.56351 2.28137 0.5 2.21786 0.5 2.13951V1.04774C0.5 0.745231 0.745231 0.5 1.04774 0.5C1.35024 0.5 1.59547 0.74523 1.59547 1.04774Z" transform="translate(36.5107 36.4695)" fill="white" stroke="black"/>
<path d="M4.38944 2.78137C4.38944 4.10389 3.4601 5.06273 2.44472 5.06273C1.42934 5.06273 0.5 4.10389 0.5 2.78137C0.5 1.45885 1.42934 0.5 2.44472 0.5C3.4601 0.5 4.38944 1.45885 4.38944 2.78137Z" transform="translate(40.7021 23.9534)" fill="#FF3719" stroke="black"/>
<path d="M4.38944 2.78137C4.38944 4.10389 3.4601 5.06273 2.44472 5.06273C1.42934 5.06273 0.5 4.10389 0.5 2.78137C0.5 1.45885 1.42934 0.5 2.44472 0.5C3.4601 0.5 4.38944 1.45885 4.38944 2.78137Z" transform="translate(32.3193 23.9534)" fill="#FF3719" stroke="black"/>
<path d="M3.21073 1.53379L3.76784 2.3743C3.98814 2.70667 3.74982 3.15054 3.35107 3.15054H2.23686C1.83812 3.15054 1.5998 2.70667 1.82009 2.3743L2.3772 1.53379C2.57495 1.23544 3.01298 1.23544 3.21073 1.53379Z" transform="translate(35.8125 30.2114)" fill="#FF3719" stroke="black"/>
<path d="M1.39068 0.5H8.3882C8.88011 0.5 9.27888 0.898773 9.27888 1.39068C9.27888 1.49857 9.19142 1.58602 9.08354 1.58602H0.695342C0.587457 1.58602 0.5 1.49857 0.5 1.39068C0.5 0.898772 0.898772 0.5 1.39068 0.5Z" transform="translate(34.415 39.9463)" fill="white" stroke="black"/>
<path d="M1.59547 1.04774V1.58602H0.5V1.04774C0.5 0.74523 0.74523 0.5 1.04774 0.5C1.35024 0.5 1.59547 0.74523 1.59547 1.04774Z" transform="translate(35.1133 41.3369) scale(1 -1)" fill="white" stroke="black"/>
<path d="M1.59547 1.04774V1.58602H0.5V1.04774C0.5 0.74523 0.74523 0.5 1.04774 0.5C1.35024 0.5 1.59547 0.74523 1.59547 1.04774Z" transform="translate(40.7021 41.3369) scale(1 -1)" fill="white" stroke="black"/>
<path d="M1.59547 1.04774V1.58602H0.5V1.04774C0.5 0.74523 0.74523 0.5 1.04774 0.5C1.35024 0.5 1.59547 0.74523 1.59547 1.04774Z" transform="translate(37.9072 41.3369) scale(1 -1)" fill="white" stroke="black"/>
<path d="M2.67757 2.69127C2.75061 2.57977 2.81332 2.46013 2.86473 2.33471L24.9262 2.2288C24.9838 2.39297 25.0602 2.54877 25.1536 2.69127C24.9578 2.99018 24.8362 3.3476 24.8076 3.71801L3.02915 3.82257C3.01708 3.41517 2.89176 3.01822 2.67757 2.69127ZM26.6385 1.89379C26.4395 1.60507 26.1588 1.38192 25.8178 1.28271C25.8988 0.783013 26.2597 0.5 26.5661 0.5C26.9136 0.5 27.3312 0.863962 27.3312 1.49515C27.3312 1.70236 27.2862 1.88077 27.2134 2.02696C27.0374 1.94954 26.8448 1.9027 26.6385 1.89379ZM26.0208 4.58212C26.4653 4.37384 26.7806 3.94355 26.9076 3.45452C27.0143 3.43166 27.1164 3.39827 27.2134 3.35557C27.2862 3.50176 27.3312 3.68017 27.3312 3.88739C27.3312 4.51857 26.9136 4.88253 26.5661 4.88253C26.3794 4.88253 26.1723 4.77739 26.0208 4.58212ZM1.34392 3.48845C1.42577 3.86349 1.61772 4.2094 1.89357 4.4551C1.74193 4.73143 1.48893 4.88253 1.26505 4.88253C0.917589 4.88253 0.5 4.51857 0.5 3.88739C0.5 3.68017 0.545005 3.50176 0.617759 3.35557C0.814132 3.44197 1.0313 3.4903 1.26505 3.4903C1.29156 3.4903 1.31785 3.48967 1.34392 3.48845ZM2.02636 1.5973C1.89169 1.69267 1.77306 1.81026 1.67278 1.94371C1.54366 1.91017 1.40743 1.89224 1.26505 1.89224C1.0313 1.89224 0.814131 1.94056 0.617759 2.02696C0.545005 1.88077 0.5 1.70236 0.5 1.49515C0.5 0.863962 0.917589 0.5 1.26505 0.5C1.61252 0.5 2.03011 0.863962 2.03011 1.49515C2.03011 1.53002 2.02883 1.56408 2.02636 1.5973Z" transform="matrix(0.933776 0.357858 -0.373787 0.927514 28.0117 40.4082)" fill="white" stroke="black"/>
<path d="M2.67513 2.69403C2.74826 2.58226 2.81102 2.46232 2.86245 2.3366L24.9009 2.23058C24.9585 2.39508 25.035 2.55123 25.1284 2.69403C24.9325 2.99346 24.811 3.35151 24.7825 3.72235L3.02665 3.82701C3.01468 3.4192 2.88941 3.02154 2.67513 2.69403ZM26.6126 1.89627C26.4139 1.60734 26.1335 1.38391 25.7925 1.28456C25.8733 0.783095 26.2346 0.5 26.5398 0.5C26.8857 0.5 27.3036 0.863636 27.3036 1.49668C27.3036 1.70427 27.2586 1.88289 27.186 2.02922C27.0105 1.95199 26.8184 1.90523 26.6126 1.89627ZM25.9949 4.58654C26.4396 4.37804 26.7546 3.94696 26.8815 3.45748C26.9877 3.43466 27.0894 3.40137 27.186 3.35885C27.2586 3.50517 27.3036 3.68379 27.3036 3.89138C27.3036 4.52443 26.8857 4.88806 26.5398 4.88806C26.3535 4.88806 26.1464 4.78265 25.9949 4.58654ZM1.34204 3.49155C1.42378 3.86694 1.61562 4.21342 1.89154 4.45947C1.73999 4.73677 1.48692 4.88806 1.2638 4.88806C0.917885 4.88806 0.5 4.52443 0.5 3.89138C0.5 3.68379 0.544936 3.50517 0.617535 3.35885C0.813574 3.44511 1.03038 3.49337 1.2638 3.49337C1.29009 3.49337 1.31618 3.49276 1.34204 3.49155ZM2.02383 1.5995C1.88931 1.69493 1.77085 1.81257 1.67071 1.94604C1.54186 1.91258 1.40591 1.8947 1.2638 1.8947C1.03038 1.8947 0.813574 1.94295 0.617535 2.02922C0.544936 1.88289 0.5 1.70427 0.5 1.49668C0.5 0.863636 0.917885 0.5 1.2638 0.5C1.60971 0.5 2.0276 0.863636 2.0276 1.49668C2.0276 1.53179 2.02631 1.56607 2.02383 1.5995Z" transform="matrix(-0.912782 0.408447 0.425768 0.904833 51.542 39.7683)" fill="white" stroke="black"/>
<defs>
<linearGradient id="paint0_linear" x2="1" gradientUnits="userSpaceOnUse" gradientTransform="matrix(69.1099 63.8692 -70.8686 954.375 44.3124 -477.188)">
<stop stop-color="#FF0E00"/>
<stop offset="1" stop-color="#FF6535"/>
</linearGradient>
</defs>
</svg>
