<svg width="384" height="411" viewBox="0 0 384 411" fill="none" xmlns="http://www.w3.org/2000/svg">
<mask id="mask0" mask-type="alpha" maskUnits="userSpaceOnUse" x="-17" y="0" width="346" height="411">
<path d="M0 0H91.2135C105.402 0 119.256 4.31176 130.938 12.3638L319.581 142.383C356.661 167.94 353.417 223.715 313.626 244.802L0 411V0Z" transform="translate(-17)" fill="url(#paint0_linear)"/>
</mask>
<g mask="url(#mask0)">
<path d="M3.50195 0L1306 0.5L1309.5 861.5H0V197L3.50195 0Z" transform="translate(-301 -16)" fill="url(#paint1_linear)"/>
<path d="M1.5 175L382.002 0H556.461C642.702 0 667.901 117.663 589.225 152.983L0 417.5L1.5 175Z" transform="translate(-70 175)" fill="url(#paint2_linear)" fill-opacity="0.78"/>
<path d="M0 1L605.5 0L0 277V1Z" transform="translate(-66.998 174.5)" fill="url(#paint3_linear)" fill-opacity="0.78"/>
<path d="M1.5 175L382.002 0H556.461C642.702 0 667.901 117.663 589.225 152.983L0 417.5L1.5 175Z" transform="translate(555.002 -116.159) scale(-1 1) rotate(-0.544708)" fill="url(#paint4_linear)" fill-opacity="0.78"/>
<path d="M0 1L605.5 0L0 277V1Z" transform="translate(596.002 -61.0984) scale(-1 1) rotate(-0.544708)" fill="url(#paint5_linear)" fill-opacity="0.78"/>
</g>
<path d="M0 0L100 73.5L35 111.5" transform="translate(99.5 196.5)" stroke="#FFE145" stroke-dasharray="4 4"/>
<path d="M129.364 1.40025C130.883 0.531084 132.746 0.519412 134.276 1.36948L217.4 47.5591C220.789 49.4422 220.838 54.2987 217.488 56.2501L93.5107 128.467C91.9357 129.385 89.9862 129.372 88.4229 128.435L7.32051 79.8092C4.04338 77.8444 4.09195 73.0788 7.40844 71.1811L129.364 1.40025Z" transform="translate(83 256.332)" fill="black" fill-opacity="0.15"/>
<path d="M129.364 1.40025C130.883 0.531084 132.746 0.519412 134.276 1.36948L217.4 47.5591C220.789 49.4422 220.838 54.2987 217.488 56.2501L93.5107 128.467C91.9357 129.385 89.9862 129.372 88.4229 128.435L7.32051 79.8092C4.04338 77.8444 4.09195 73.0788 7.40844 71.1811L129.364 1.40025Z" transform="translate(83 241.73)" fill="#AE1212"/>
<path d="M123.228 1.42523C124.757 0.541727 126.638 0.530017 128.178 1.39443L206.495 45.3649C209.867 47.2583 209.905 52.0995 206.563 54.0456L88.7797 122.631C87.2078 123.546 85.2629 123.535 83.701 122.603L7.30943 77.0061C4.03291 75.0504 4.06642 70.2931 7.37018 68.3837L123.228 1.42523Z" transform="translate(88.8457 241)" fill="url(#paint6_linear)"/>
<path d="M100.863 0L175.388 41.3901L73.2827 100.021L0 57.1992L100.863 0Z" transform="translate(111.5 251.221)" fill="white"/>
<path d="M64.4354 1.12488C65.6551 0.42702 67.1515 0.420326 68.3773 1.10725L109.34 24.0611C112.044 25.5763 112.071 29.458 109.39 31.0117L50.2673 65.2655C49.0176 65.9895 47.4747 65.9837 46.2305 65.2502L5.93222 41.4911C3.28772 39.932 3.31266 36.0982 5.97721 34.5736L64.4354 1.12488Z" transform="translate(141.463 268.013)" fill="#FE2929"/>
<path d="M6.24142 0.269781C6.54183 0.101908 6.90744 0.100292 7.20932 0.265504L10.1163 1.85641C10.8039 2.23273 10.8109 3.21792 10.1286 3.60396L5.38231 6.28963C5.07443 6.46385 4.69741 6.46243 4.39084 6.28591L1.52763 4.63724C0.854668 4.24974 0.860923 3.27651 1.53881 2.89769L6.24142 0.269781Z" transform="translate(149.501 301.597)" fill="white"/>
<path d="M6.24142 0.269781C6.54183 0.101908 6.90744 0.100292 7.20932 0.265504L10.1163 1.85641C10.8039 2.23273 10.8109 3.21792 10.1286 3.60396L5.38231 6.28963C5.07443 6.46385 4.69741 6.46243 4.39084 6.28591L1.52763 4.63724C0.854668 4.24974 0.860923 3.27651 1.53881 2.89769L6.24142 0.269781Z" transform="translate(157.539 306.708)" fill="white"/>
<path d="M6.24142 0.269781C6.54183 0.101908 6.90744 0.100292 7.20932 0.265504L10.1163 1.85641C10.8039 2.23273 10.8109 3.21792 10.1286 3.60396L5.38231 6.28963C5.07443 6.46385 4.69741 6.46243 4.39084 6.28591L1.52763 4.63724C0.854668 4.24974 0.860923 3.27651 1.53881 2.89769L6.24142 0.269781Z" transform="translate(166.31 311.818)" fill="white"/>
<path d="M6.24142 0.269781C6.54183 0.101908 6.90744 0.100292 7.20932 0.265504L10.1163 1.85641C10.8039 2.23273 10.8109 3.21792 10.1286 3.60396L5.38231 6.28963C5.07443 6.46385 4.69741 6.46243 4.39084 6.28591L1.52763 4.63724C0.854668 4.24974 0.860923 3.27651 1.53881 2.89769L6.24142 0.269781Z" transform="translate(174.348 316.928)" fill="white"/>
<path d="M6.24142 0.269781C6.54183 0.101908 6.90744 0.100292 7.20932 0.265504L10.1163 1.85641C10.8039 2.23273 10.8109 3.21792 10.1286 3.60396L5.38231 6.28963C5.07443 6.46385 4.69741 6.46243 4.39084 6.28591L1.52763 4.63724C0.854668 4.24974 0.860923 3.27651 1.53881 2.89769L6.24142 0.269781Z" transform="translate(182.386 322.039)" fill="white"/>
<path d="M6.24142 0.269781C6.54183 0.101908 6.90744 0.100292 7.20932 0.265504L10.1163 1.85641C10.8039 2.23273 10.8109 3.21792 10.1286 3.60396L5.38231 6.28963C5.07443 6.46385 4.69741 6.46243 4.39084 6.28591L1.52763 4.63724C0.854668 4.24974 0.860923 3.27651 1.53881 2.89769L6.24142 0.269781Z" transform="translate(201.387 272.394)" fill="white"/>
<path d="M6.24142 0.269781C6.54183 0.101908 6.90744 0.100292 7.20932 0.265504L10.1163 1.85641C10.8039 2.23273 10.8109 3.21792 10.1286 3.60396L5.38231 6.28963C5.07443 6.46385 4.69741 6.46243 4.39084 6.28591L1.52763 4.63724C0.854668 4.24974 0.860923 3.27651 1.53881 2.89769L6.24142 0.269781Z" transform="translate(209.425 277.504)" fill="white"/>
<path d="M6.24142 0.269781C6.54183 0.101908 6.90744 0.100292 7.20932 0.265504L10.1163 1.85641C10.8039 2.23273 10.8109 3.21792 10.1286 3.60396L5.38231 6.28963C5.07443 6.46385 4.69741 6.46243 4.39084 6.28591L1.52763 4.63724C0.854668 4.24974 0.860923 3.27651 1.53881 2.89769L6.24142 0.269781Z" transform="translate(218.195 282.615)" fill="white"/>
<path d="M6.24142 0.269781C6.54183 0.101908 6.90744 0.100292 7.20932 0.265504L10.1163 1.85641C10.8039 2.23273 10.8109 3.21792 10.1286 3.60396L5.38231 6.28963C5.07443 6.46385 4.69741 6.46243 4.39084 6.28591L1.52763 4.63724C0.854668 4.24974 0.860923 3.27651 1.53881 2.89769L6.24142 0.269781Z" transform="translate(226.233 287.725)" fill="white"/>
<path d="M6.24142 0.269781C6.54183 0.101908 6.90744 0.100292 7.20932 0.265504L10.1163 1.85641C10.8039 2.23273 10.8109 3.21792 10.1286 3.60396L5.38231 6.28963C5.07443 6.46385 4.69741 6.46243 4.39084 6.28591L1.52763 4.63724C0.854668 4.24974 0.860923 3.27651 1.53881 2.89769L6.24142 0.269781Z" transform="translate(234.272 292.836)" fill="white"/>
<ellipse cx="5.48086" cy="3.28537" rx="5.48086" ry="3.28537" transform="translate(136.348 331.53)" fill="#FF6666"/>
<path d="M8.49199 0L14.5127 9.41048L0 13.0011L8.49199 0Z" transform="translate(199.271 290.282) scale(1.00047 0.999525) rotate(47.4132)" fill="white"/>
<rect width="50" height="66" transform="translate(63 224) scale(1 -1)" fill="url(#paint7_linear)"/>
<path d="M0 0L25.7812 14.7955V46.7225L0 31.9271V0Z" transform="translate(63 158.277)" fill="url(#paint8_linear)"/>
<path d="M0 0L25 15.5742L24.2187 47.5013L0 31.9271V0Z" transform="translate(113 157.499) scale(-1 1)" fill="url(#paint9_linear)"/>
<path d="M0 0H50V34.2857L0 35V0Z" transform="translate(63 123)" fill="url(#paint10_linear)" fill-opacity="0.6"/>
<path d="M0 0L26.4422 9.44868L34.6511 35.9418L6.21471 28.3573L0 0Z" transform="matrix(0.683998 -0.729484 0.731704 0.681623 63 158.277)" fill="#FA9944"/>
<ellipse cx="15" cy="6" rx="15" ry="6" transform="translate(74 164) scale(1 -1)" fill="url(#paint11_radial)" fill-opacity="0.4"/>
<path opacity="0.96" d="M0 0L50.6078 4.02157" transform="matrix(0.874161 -0.485636 0.476048 0.879419 86.8457 158.577)" stroke="url(#paint12_linear)"/>
<path opacity="0.96" d="M-0.0926119 0.491348L46.1942 9.21574L46.3795 8.23304L0.0926119 -0.491348L-0.0926119 0.491348Z" transform="matrix(-0.874161 -0.485636 -0.476048 0.879419 87.6152 158.577)" fill="url(#paint13_linear)"/>
<path opacity="0.96" d="M-0.000141194 5.03249L22.9796 0" transform="matrix(-0.874161 -0.485636 -0.476048 0.879419 90.0107 153.372)" stroke="url(#paint14_linear)"/>
<path opacity="0.96" d="M0 18.8955L19.0482 -0.000148176" transform="matrix(-0.0226051 -0.999744 -0.999731 0.0231988 107.276 157.359)" stroke="url(#paint15_linear)"/>
<path opacity="0.96" d="M0 18.1591L10.5761 0" transform="matrix(0.589308 0.807908 -0.800541 0.599278 101.383 147.695)" stroke="url(#paint16_linear)"/>
<path opacity="0.96" d="M0 0L23.4122 10.3453" transform="matrix(-0.872895 0.487908 -0.478302 -0.878196 87.6152 158.577)" stroke="url(#paint17_linear)"/>
<ellipse cx="3.84615" cy="1.55854" rx="3.84615" ry="1.55854" transform="translate(84.5381 160.135) scale(1 -1)" fill="white" fill-opacity="0.62"/>
<path d="M4.92308 14.6977L3.70909 13.8167L3.52152 14.0751L3.45549 14.3876L4.92308 14.6977ZM15.5897 0L16.8037 -0.881036L15.5897 -2.55381L14.3758 -0.881036L15.5897 0ZM26.2564 14.6977L27.7128 14.3386L27.6426 14.054L27.4704 13.8167L26.2564 14.6977ZM16.1368 49L15.2915 50.2391L16.144 50.8207L16.9919 50.2324L16.1368 49ZM0 37.9923L-1.46758 37.6821L-1.67535 38.6652L-0.845289 39.2314L0 37.9923ZM32 37.9923L32.8552 39.2246L33.7036 38.6359L33.4564 37.6332L32 37.9923ZM6.13707 15.5788L16.8037 0.881036L14.3758 -0.881036L3.70909 13.8167L6.13707 15.5788ZM14.3758 0.881036L25.0424 15.5788L27.4704 13.8167L16.8037 -0.881036L14.3758 0.881036ZM24.8177 14.2733L14.6981 48.5756L17.5755 49.4244L27.6951 15.1222L24.8177 14.2733ZM17.5625 48.5339L6.34883 14.2316L3.49733 15.1638L14.711 49.4661L17.5625 48.5339ZM3.45549 14.3876L-1.46758 37.6821L1.46758 38.3024L6.39066 15.0079L3.45549 14.3876ZM-0.845289 39.2314L15.2915 50.2391L16.982 47.7609L0.845289 36.7531L-0.845289 39.2314ZM16.9919 50.2324L32.8552 39.2246L31.1448 36.7599L15.2816 47.7676L16.9919 50.2324ZM33.4564 37.6332L27.7128 14.3386L24.8 15.0568L30.5436 38.3514L33.4564 37.6332Z" transform="translate(72 100)" fill="#FEFFD7" fill-opacity="0.86"/>
<path d="M0 45.5L75 0" transform="translate(153 189.5)" stroke="#FFC252"/>
<path d="M0 37L64 0" transform="translate(67 219)" stroke="#FFC252"/>
<path d="M0 0L58 0.914286L42.5825 45.9876H15.4175L0 0Z" transform="translate(209 128)" fill="url(#paint18_linear)" fill-opacity="0.83"/>
<path d="M0 0H27.1651V45.0734H0V0Z" transform="translate(224.417 128.914)" fill="url(#paint19_linear)"/>
<path d="M27.5928 9.24769C27.5928 14.3551 21.4635 18.0653 13.9025 18.0653C6.3416 18.0653 0 14.3551 0 9.24769C0 4.14033 6.3416 0 13.9025 0C21.4635 0 27.5928 4.14033 27.5928 9.24769Z" transform="translate(223.037 173.935)" fill="#FF7C5C"/>
<path d="M27.5928 9.24769C27.5928 14.3551 21.4635 18.0653 13.9025 18.0653C6.3416 18.0653 0 14.3551 0 9.24769C0 4.14033 6.3416 0 13.9025 0C21.4635 0 27.5928 4.14033 27.5928 9.24769Z" transform="translate(223.037 172.214)" fill="#FFDB49"/>
<path d="M23.7723 7.92659C23.7723 12.3043 18.4916 15.4845 11.9776 15.4845C5.46354 15.4845 0 12.3043 0 7.92659C0 3.54886 5.46354 0 11.9776 0C18.4916 0 23.7723 3.54886 23.7723 7.92659Z" transform="translate(224.947 173.504)" fill="url(#paint20_linear)"/>
<path d="M0 4.47882C2.0164 1.57545 11.5465 -3.95163 22.0743 4.47882C16.1312 1.03594 8.91461 -2.05908 0 4.47882Z" transform="translate(226.115 173.865)" fill="#D76B5C"/>
<path d="M27.5928 9.24769C27.5928 14.3551 21.4635 18.0653 13.9025 18.0653C6.3416 18.0653 0 14.3551 0 9.24769C0 4.14033 6.3416 0 13.9025 0C21.4635 0 27.5928 4.14033 27.5928 9.24769Z" transform="translate(225.372 170.494)" fill="url(#paint21_linear)"/>
<path d="M27.5928 9.24769C27.5928 14.3551 21.4635 18.0653 13.9025 18.0653C6.3416 18.0653 0 14.3551 0 9.24769C0 4.14033 6.3416 0 13.9025 0C21.4635 0 27.5928 4.14033 27.5928 9.24769Z" transform="translate(225.372 168.773)" fill="#FFDB49"/>
<path d="M23.7723 7.92659C23.7723 12.3043 18.4916 15.4845 11.9776 15.4845C5.46354 15.4845 0 12.3043 0 7.92659C0 3.54886 5.46354 0 11.9776 0C18.4916 0 23.7723 3.54886 23.7723 7.92659Z" transform="translate(227.282 170.063)" fill="url(#paint22_linear)"/>
<path d="M0 4.47882C2.0164 1.57545 11.5465 -3.95163 22.0743 4.47882C16.1312 1.03594 8.91461 -2.05908 0 4.47882Z" transform="translate(228.45 170.424)" fill="#D76B5C"/>
<path d="M27.5928 9.24769C27.5928 14.3551 21.4635 18.0653 13.9025 18.0653C6.3416 18.0653 0 14.3551 0 9.24769C0 4.14033 6.3416 0 13.9025 0C21.4635 0 27.5928 4.14033 27.5928 9.24769Z" transform="translate(224.311 165.547)" fill="#FF7C5C"/>
<path d="M27.5928 9.24769C27.5928 14.3551 21.4635 18.0653 13.9025 18.0653C6.3416 18.0653 0 14.3551 0 9.24769C0 4.14033 6.3416 0 13.9025 0C21.4635 0 27.5928 4.14033 27.5928 9.24769Z" transform="translate(224.311 163.827)" fill="#FFDB49"/>
<path d="M23.7723 7.92659C23.7723 12.3043 18.4916 15.4845 11.9776 15.4845C5.46354 15.4845 0 12.3043 0 7.92659C0 3.54886 5.46354 0 11.9776 0C18.4916 0 23.7723 3.54886 23.7723 7.92659Z" transform="translate(226.221 165.117)" fill="url(#paint23_linear)"/>
<path d="M0 4.47882C2.0164 1.57545 11.5465 -3.95163 22.0743 4.47882C16.1312 1.03594 8.91461 -2.05908 0 4.47882Z" transform="translate(227.388 165.478)" fill="#D76B5C"/>
<path d="M0 75.5L96 21L62.5 0" transform="translate(101 106.5)" stroke="#FFC252"/>
<path d="M25.2396 0L49.1681 12.9099L24.2563 26.7881L0 11.6189L25.2396 0Z" transform="translate(19 237)" fill="#FFDE78" fill-opacity="0.39"/>
<path d="M0 11.6189L24.2563 26.4654V56.8037L0 41.9573V11.6189Z" transform="translate(19 237)" fill="#FFDE78" fill-opacity="0.39"/>
<path d="M49.1681 12.9099L24.2563 26.4654V56.8037L49.1681 42.6028V12.9099Z" transform="translate(19 237)" fill="#FFDE78" fill-opacity="0.39"/>
<path d="M15.9073 0L30.9883 8.11482L15.2876 16.8382L0 7.30333L15.9073 0Z" transform="translate(28.0898 248.361)" fill="url(#paint24_linear)"/>
<path d="M0 0L15.2876 9.33204V28.4019L0 19.0698V0Z" transform="translate(28.0898 255.664)" fill="url(#paint25_linear)"/>
<path d="M0 0L15.7007 8.52056V27.5904L0 18.6641V0Z" transform="translate(59.0781 256.476) scale(-1 1)" fill="url(#paint26_linear)"/>
<defs>
<linearGradient id="paint0_linear" x2="1" gradientUnits="userSpaceOnUse" gradientTransform="matrix(1483.68 683.356 -287.203 1213.6 -737.385 -117.788)">
<stop stop-color="#FD9E9E"/>
<stop offset="1" stop-color="#FF0000"/>
</linearGradient>
<linearGradient id="paint1_linear" x2="1" gradientUnits="userSpaceOnUse" gradientTransform="matrix(1474.5 329.5 -7.61266 1169.37 -11.6936 -538.688)">
<stop offset="0.0147768" stop-color="#FF4747"/>
<stop offset="1" stop-color="#FF0000"/>
</linearGradient>
<linearGradient id="paint2_linear" x2="1" gradientUnits="userSpaceOnUse" gradientTransform="matrix(-306.5 218 -188.246 -185.005 417.125 111.502)">
<stop offset="0.0147768" stop-color="#FD3C3C" stop-opacity="0"/>
<stop offset="1" stop-color="#FFB066" stop-opacity="0.3"/>
</linearGradient>
<linearGradient id="paint3_linear" x2="1" gradientUnits="userSpaceOnUse" gradientTransform="matrix(-126.498 164.5 -129.185 -67.2061 169.592 -34.3969)">
<stop offset="0.0147768" stop-color="#FD3C3C" stop-opacity="0"/>
<stop offset="1" stop-color="#FFB066" stop-opacity="0.3"/>
</linearGradient>
<linearGradient id="paint4_linear" x2="1" gradientUnits="userSpaceOnUse" gradientTransform="matrix(-224.559 110.37 -103.823 -141.603 433.845 79.5917)">
<stop offset="0.0147768" stop-color="#FD3C3C" stop-opacity="0"/>
<stop offset="1" stop-color="#FFB066" stop-opacity="0.3"/>
</linearGradient>
<linearGradient id="paint5_linear" x2="1" gradientUnits="userSpaceOnUse" gradientTransform="matrix(-182.028 107.274 -96.4633 -112.598 353.101 -33.7085)">
<stop stop-color="#FD3C3C" stop-opacity="0"/>
<stop offset="1" stop-color="#FFB066" stop-opacity="0.3"/>
</linearGradient>
<linearGradient id="paint6_linear" x2="1" gradientUnits="userSpaceOnUse" gradientTransform="matrix(-36.6626 91.1552 -156.156 -67.4252 185.902 33.7126)">
<stop offset="0.224608" stop-color="#F06C34"/>
<stop offset="1" stop-color="#E22D21"/>
</linearGradient>
<linearGradient id="paint7_linear" x2="1" gradientUnits="userSpaceOnUse" gradientTransform="matrix(0.423728 -55.7586 42.2414 0.578773 5.99795 64.0037)">
<stop stop-color="#FFD35A" stop-opacity="0.57"/>
<stop offset="1" stop-color="#FFD85D" stop-opacity="0"/>
</linearGradient>
<linearGradient id="paint8_linear" x2="1" gradientUnits="userSpaceOnUse" gradientTransform="translate(1.17187 13.1115) scale(24.6094 13.4911)">
<stop stop-color="#FFDD74"/>
<stop offset="0.999988" stop-color="#FEC36A"/>
</linearGradient>
<linearGradient id="paint9_linear" x2="1" gradientUnits="userSpaceOnUse" gradientTransform="matrix(33.2031 22.5826 -12.4276 19.2643 -1.98931 8.66749)">
<stop stop-color="#FFDF7F"/>
<stop offset="1" stop-color="#FF964C"/>
</linearGradient>
<linearGradient id="paint10_linear" x2="1" gradientUnits="userSpaceOnUse" gradientTransform="translate(5.76923 39.2857) scale(30.4615 34.2857) rotate(-90)">
<stop stop-color="#FDBA7F" stop-opacity="0.52"/>
<stop offset="1" stop-color="#F2994A" stop-opacity="0"/>
</linearGradient>
<radialGradient id="paint11_radial" cx="0.5" cy="0.5" r="0.5" gradientUnits="userSpaceOnUse" gradientTransform="translate(31 46) scale(32 80) rotate(-180)">
<stop stop-color="white" stop-opacity="0.74"/>
<stop offset="1" stop-color="white" stop-opacity="0"/>
</radialGradient>
<linearGradient id="paint12_linear" x2="1" gradientUnits="userSpaceOnUse" gradientTransform="matrix(42.4678 9.27381 -325.601 1511.97 163.477 -755.61)">
<stop stop-color="#FFE9E8"/>
<stop offset="1" stop-color="#FFE9E8" stop-opacity="0"/>
</linearGradient>
<linearGradient id="paint13_linear" x2="1" gradientUnits="userSpaceOnUse" gradientTransform="matrix(30.3996 8.81232 -309.398 1082.31 154.022 -541.528)">
<stop stop-color="#FFE9E8"/>
<stop offset="1" stop-color="#FFE9E8" stop-opacity="0"/>
</linearGradient>
<linearGradient id="paint14_linear" x2="1" gradientUnits="userSpaceOnUse" gradientTransform="matrix(15.3876 -4.79433 168.328 547.84 -89.0109 -268.906)">
<stop stop-color="#FFE9E8"/>
<stop offset="1" stop-color="#FFE9E8" stop-opacity="0"/>
</linearGradient>
<linearGradient id="paint15_linear" x2="1" gradientUnits="userSpaceOnUse" gradientTransform="matrix(20.5172 -22.7777 815.812 716.055 -416.351 -333.553)">
<stop stop-color="#FFE9E8"/>
<stop offset="1" stop-color="#FFE9E8" stop-opacity="0"/>
</linearGradient>
<linearGradient id="paint16_linear" x2="1" gradientUnits="userSpaceOnUse" gradientTransform="matrix(19.3549 -21.7471 771.809 681.698 -394.059 -318.643)">
<stop stop-color="#FFE9E8"/>
<stop offset="1" stop-color="#FFE9E8" stop-opacity="0"/>
</linearGradient>
<linearGradient id="paint17_linear" x2="1" gradientUnits="userSpaceOnUse" gradientTransform="matrix(17.2001 9.70616 -340.8 612.336 159.381 -301.682)">
<stop stop-color="#FFE9E8"/>
<stop offset="1" stop-color="#FFE9E8" stop-opacity="0"/>
</linearGradient>
<linearGradient id="paint18_linear" x2="1" gradientUnits="userSpaceOnUse" gradientTransform="matrix(-1.15106 -35.7711 36.2748 -1.18525 12.0137 45.8875)">
<stop stop-color="#FFD35A" stop-opacity="0.37"/>
<stop offset="1" stop-color="#FFD85D" stop-opacity="0"/>
</linearGradient>
<linearGradient id="paint19_linear" x2="1" gradientUnits="userSpaceOnUse" gradientTransform="matrix(-1.15103 -35.771 36.2754 -1.20174 -3.40412 44.9815)">
<stop stop-color="#FFD35A" stop-opacity="0.42"/>
<stop offset="1" stop-color="#FFD85D" stop-opacity="0"/>
</linearGradient>
<linearGradient id="paint20_linear" x2="1" gradientUnits="userSpaceOnUse" gradientTransform="matrix(-20.7447 1.70785 -2.62194 -32.8343 23.177 22.4515)">
<stop stop-color="#FFE060"/>
<stop offset="1" stop-color="#FFC252"/>
</linearGradient>
<linearGradient id="paint21_linear" x2="1" gradientUnits="userSpaceOnUse" gradientTransform="matrix(23.1355 4.51632 -6.89821 36.279 5.041 -8.03157)">
<stop stop-color="#FF7654"/>
<stop offset="1" stop-color="#DA2D03"/>
</linearGradient>
<linearGradient id="paint22_linear" x2="1" gradientUnits="userSpaceOnUse" gradientTransform="matrix(-20.7447 1.70785 -2.62194 -32.8343 23.177 22.4515)">
<stop stop-color="#FFC654"/>
<stop offset="1" stop-color="#FFB836"/>
</linearGradient>
<linearGradient id="paint23_linear" x2="1" gradientUnits="userSpaceOnUse" gradientTransform="matrix(-20.7447 1.70785 -2.62194 -32.8343 23.177 22.4515)">
<stop stop-color="#FFE060"/>
<stop offset="1" stop-color="#FFC252"/>
</linearGradient>
<linearGradient id="paint24_linear" x2="1" gradientUnits="userSpaceOnUse" gradientTransform="matrix(-7.02402 42.197 -76.622 -12.2993 55.6645 -3.38525)">
<stop stop-color="#F6FF8A"/>
<stop offset="1" stop-color="#FF7A50"/>
</linearGradient>
<linearGradient id="paint25_linear" x2="1" gradientUnits="userSpaceOnUse" gradientTransform="matrix(4.95813 18.6641 -10.0461 2.57356 7.9153 4.59646)">
<stop stop-color="#F4AC41"/>
<stop offset="1" stop-color="#DF7505"/>
</linearGradient>
<linearGradient id="paint26_linear" x2="1" gradientUnits="userSpaceOnUse" gradientTransform="matrix(9.29649 10.5493 -5.67824 4.82542 6.14454 2.65905)">
<stop stop-color="#EB9D04"/>
<stop offset="1" stop-color="#E64D0F"/>
</linearGradient>
</defs>
</svg>
