<svg width="984" height="376" viewBox="0 0 984 376" fill="none" xmlns="http://www.w3.org/2000/svg">
<rect width="81" height="73" rx="12" transform="translate(566 211)" fill="url(#paint0_linear)"/>
<path d="M72.0995 9.7C72.0995 7.624 70.6475 6.316 68.7755 6.316C66.9155 6.316 65.4515 7.624 65.4515 9.7C65.4515 11.788 66.8675 13.108 68.7275 13.108C70.5995 13.108 72.0995 11.788 72.0995 9.7ZM66.5675 9.7C66.5675 8.044 67.6115 7.264 68.7635 7.264C69.8915 7.264 70.9835 8.044 70.9835 9.7C70.9835 11.368 69.8675 12.148 68.7275 12.148C67.5875 12.148 66.5675 11.368 66.5675 9.7ZM78.3473 13H79.4273V9.124C79.4273 7.24 78.2633 6.304 76.7393 6.304C75.8513 6.304 75.0593 6.676 74.6273 7.36V6.424H73.5353V13H74.6273V9.364C74.6273 7.948 75.3953 7.252 76.5113 7.252C77.6153 7.252 78.3473 7.936 78.3473 9.28V13ZM81.2111 13H82.3031V4.12H81.2111V13ZM86.6602 11.752L84.5962 6.424H83.3842L86.0362 12.928L84.7402 16.096H85.8682L89.8282 6.424H88.7002L86.6602 11.752ZM94.3292 13H95.4212V7.324H96.8012V6.424H95.4212V5.956C95.4212 5.104 95.7452 4.744 96.7292 4.744V3.832C95.0492 3.832 94.3292 4.492 94.3292 5.956V6.424H93.4772V7.324H94.3292V13ZM100.87 7.24C101.998 7.24 102.958 7.948 102.946 9.232H98.7944C98.9144 7.948 99.8024 7.24 100.87 7.24ZM103.942 10.972H102.766C102.526 11.68 101.902 12.184 100.918 12.184C99.8024 12.184 98.8664 11.452 98.7824 10.12H104.038C104.062 9.892 104.074 9.7 104.074 9.46C104.074 7.66 102.826 6.316 100.918 6.316C98.9984 6.316 97.6664 7.624 97.6664 9.7C97.6664 11.788 99.0464 13.108 100.918 13.108C102.55 13.108 103.606 12.172 103.942 10.972ZM106.8 13H107.928L109.512 7.78L111.096 13H112.224L114.276 6.424H113.196L111.708 11.956L110.112 6.424H108.996L107.364 11.944L105.852 6.424H104.736L106.8 13ZM128.051 13H129.131V9.124C129.131 7.24 127.967 6.304 126.467 6.304C125.459 6.304 124.523 6.82 124.139 7.768C123.707 6.784 122.807 6.304 121.727 6.304C120.863 6.304 120.083 6.676 119.651 7.372V6.424H118.559V13H119.651V9.376C119.651 7.96 120.407 7.252 121.511 7.252C122.591 7.252 123.311 7.936 123.311 9.28V13H124.391V9.376C124.391 7.96 125.147 7.252 126.251 7.252C127.331 7.252 128.051 7.936 128.051 9.28V13ZM137.162 9.7C137.162 7.624 135.71 6.316 133.838 6.316C131.978 6.316 130.514 7.624 130.514 9.7C130.514 11.788 131.93 13.108 133.79 13.108C135.662 13.108 137.162 11.788 137.162 9.7ZM131.63 9.7C131.63 8.044 132.674 7.264 133.826 7.264C134.954 7.264 136.046 8.044 136.046 9.7C136.046 11.368 134.93 12.148 133.79 12.148C132.65 12.148 131.63 11.368 131.63 9.7ZM137.818 6.424L140.398 13H141.67L144.25 6.424H143.086L141.046 11.992L138.994 6.424H137.818ZM145.324 13H146.416V6.424H145.324V13ZM145.888 5.356C146.284 5.356 146.608 5.032 146.608 4.612C146.608 4.192 146.284 3.868 145.888 3.868C145.468 3.868 145.144 4.192 145.144 4.612C145.144 5.032 145.468 5.356 145.888 5.356ZM151.074 7.24C152.202 7.24 153.162 7.948 153.15 9.232H148.998C149.118 7.948 150.006 7.24 151.074 7.24ZM154.146 10.972H152.97C152.73 11.68 152.106 12.184 151.122 12.184C150.006 12.184 149.07 11.452 148.986 10.12H154.242C154.266 9.892 154.278 9.7 154.278 9.46C154.278 7.66 153.03 6.316 151.122 6.316C149.202 6.316 147.87 7.624 147.87 9.7C147.87 11.788 149.25 13.108 151.122 13.108C152.754 13.108 153.81 12.172 154.146 10.972ZM160.447 11.212C160.399 8.86 156.583 9.712 156.583 8.152C156.583 7.624 157.063 7.24 157.867 7.24C158.743 7.24 159.247 7.72 159.295 8.38H160.387C160.315 7.096 159.355 6.316 157.903 6.316C156.439 6.316 155.491 7.144 155.491 8.152C155.491 10.6 159.379 9.748 159.379 11.212C159.379 11.752 158.899 12.184 158.035 12.184C157.111 12.184 156.547 11.704 156.487 11.068H155.359C155.431 12.268 156.511 13.108 158.047 13.108C159.499 13.108 160.447 12.292 160.447 11.212ZM18.0117 31H19.0917V27.124C19.0917 25.24 17.9277 24.304 16.4277 24.304C15.4197 24.304 14.4837 24.82 14.0997 25.768C13.6677 24.784 12.7677 24.304 11.6877 24.304C10.8237 24.304 10.0437 24.676 9.6117 25.372V24.424H8.5197V31H9.6117V27.376C9.6117 25.96 10.3677 25.252 11.4717 25.252C12.5517 25.252 13.2717 25.936 13.2717 27.28V31H14.3517V27.376C14.3517 25.96 15.1077 25.252 16.2117 25.252C17.2917 25.252 18.0117 25.936 18.0117 27.28V31ZM20.475 27.688C20.475 29.728 21.831 31.108 23.583 31.108C24.795 31.108 25.647 30.484 26.043 29.776V31H27.147V24.424H26.043V25.624C25.659 24.94 24.819 24.316 23.595 24.316C21.831 24.316 20.475 25.636 20.475 27.688ZM26.043 27.7C26.043 29.248 25.011 30.148 23.811 30.148C22.611 30.148 21.591 29.236 21.591 27.688C21.591 26.14 22.611 25.264 23.811 25.264C25.011 25.264 26.043 26.176 26.043 27.7ZM28.9924 31H30.0844V28.096L32.6644 31H34.1524L31.0444 27.7L34.1404 24.424H32.6164L30.0844 27.34V22.12H28.9924V31ZM37.9641 25.24C39.0921 25.24 40.0521 25.948 40.0401 27.232H35.8881C36.0081 25.948 36.8961 25.24 37.9641 25.24ZM41.0361 28.972H39.8601C39.6201 29.68 38.9961 30.184 38.0121 30.184C36.8961 30.184 35.9601 29.452 35.8761 28.12H41.1321C41.1561 27.892 41.1681 27.7 41.1681 27.46C41.1681 25.66 39.9201 24.316 38.0121 24.316C36.0921 24.316 34.7601 25.624 34.7601 27.7C34.7601 29.788 36.1401 31.108 38.0121 31.108C39.6441 31.108 40.7001 30.172 41.0361 28.972ZM46.0488 29.2C46.0488 30.52 46.7088 31 47.8728 31H48.8568V30.076H48.0528C47.3808 30.076 47.1408 29.848 47.1408 29.2V25.324H48.8568V24.424H47.1408V22.768H46.0488V24.424H45.1968V25.324H46.0488V29.2ZM56.4199 27.7C56.4199 25.624 54.9679 24.316 53.0959 24.316C51.2359 24.316 49.7719 25.624 49.7719 27.7C49.7719 29.788 51.1879 31.108 53.0479 31.108C54.9199 31.108 56.4199 29.788 56.4199 27.7ZM50.8879 27.7C50.8879 26.044 51.9319 25.264 53.0839 25.264C54.2119 25.264 55.3039 26.044 55.3039 27.7C55.3039 29.368 54.1879 30.148 53.0479 30.148C51.9079 30.148 50.8879 29.368 50.8879 27.7ZM62.1469 25.636V24.424H61.0549V34.12H62.1469V29.788C62.5549 30.46 63.4069 31.108 64.6069 31.108C66.3709 31.108 67.7269 29.728 67.7269 27.688C67.7269 25.636 66.3709 24.316 64.6069 24.316C63.4069 24.316 62.5429 24.94 62.1469 25.636ZM66.6109 27.688C66.6109 29.236 65.5909 30.148 64.3789 30.148C63.1909 30.148 62.1469 29.248 62.1469 27.7C62.1469 26.176 63.1909 25.264 64.3789 25.264C65.5909 25.264 66.6109 26.14 66.6109 27.688ZM75.4042 27.7C75.4042 25.624 73.9522 24.316 72.0802 24.316C70.2202 24.316 68.7562 25.624 68.7562 27.7C68.7562 29.788 70.1722 31.108 72.0322 31.108C73.9042 31.108 75.4042 29.788 75.4042 27.7ZM69.8722 27.7C69.8722 26.044 70.9162 25.264 72.0682 25.264C73.1962 25.264 74.2882 26.044 74.2882 27.7C74.2882 29.368 73.1722 30.148 72.0322 30.148C70.8922 30.148 69.8722 29.368 69.8722 27.7ZM77.932 25.636V24.424H76.84V34.12H77.932V29.788C78.34 30.46 79.192 31.108 80.392 31.108C82.156 31.108 83.512 29.728 83.512 27.688C83.512 25.636 82.156 24.316 80.392 24.316C79.192 24.316 78.328 24.94 77.932 25.636ZM82.396 27.688C82.396 29.236 81.376 30.148 80.164 30.148C78.976 30.148 77.932 29.248 77.932 27.7C77.932 26.176 78.976 25.264 80.164 25.264C81.376 25.264 82.396 26.14 82.396 27.688ZM90.7814 24.424H89.6894V28.036C89.6894 29.452 88.9334 30.148 87.8054 30.148C86.7014 30.148 85.9694 29.464 85.9694 28.132V24.424H84.8894V28.276C84.8894 30.16 86.0774 31.096 87.5894 31.096C88.4654 31.096 89.2694 30.712 89.6894 30.028V31H90.7814V24.424ZM92.6252 31H93.7172V22.12H92.6252V31ZM95.1703 27.688C95.1703 29.728 96.5263 31.108 98.2783 31.108C99.4903 31.108 100.342 30.484 100.738 29.776V31H101.842V24.424H100.738V25.624C100.354 24.94 99.5143 24.316 98.2903 24.316C96.5263 24.316 95.1703 25.636 95.1703 27.688ZM100.738 27.7C100.738 29.248 99.7063 30.148 98.5063 30.148C97.3063 30.148 96.2863 29.236 96.2863 27.688C96.2863 26.14 97.3063 25.264 98.5063 25.264C99.7063 25.264 100.738 26.176 100.738 27.7ZM104.78 27.424C104.78 25.9 105.572 25.432 106.616 25.432H106.904V24.304C105.86 24.304 105.152 24.76 104.78 25.492V24.424H103.688V31H104.78V27.424ZM112.455 25.636V24.424H111.363V34.12H112.455V29.788C112.863 30.46 113.715 31.108 114.915 31.108C116.679 31.108 118.035 29.728 118.035 27.688C118.035 25.636 116.679 24.316 114.915 24.316C113.715 24.316 112.851 24.94 112.455 25.636ZM116.919 27.688C116.919 29.236 115.899 30.148 114.687 30.148C113.499 30.148 112.455 29.248 112.455 27.7C112.455 26.176 113.499 25.264 114.687 25.264C115.899 25.264 116.919 26.14 116.919 27.688ZM119.473 31H120.565V22.12H119.473V31ZM122.018 27.688C122.018 29.728 123.374 31.108 125.126 31.108C126.338 31.108 127.19 30.484 127.586 29.776V31H128.69V24.424H127.586V25.624C127.202 24.94 126.362 24.316 125.138 24.316C123.374 24.316 122.018 25.636 122.018 27.688ZM127.586 27.7C127.586 29.248 126.554 30.148 125.354 30.148C124.154 30.148 123.134 29.236 123.134 27.688C123.134 26.14 124.154 25.264 125.354 25.264C126.554 25.264 127.586 26.176 127.586 27.7ZM130.775 29.2C130.775 30.52 131.435 31 132.599 31H133.583V30.076H132.779C132.107 30.076 131.867 29.848 131.867 29.2V25.324H133.583V24.424H131.867V22.768H130.775V24.424H129.923V25.324H130.775V29.2ZM135.11 31H136.202V25.324H137.582V24.424H136.202V23.956C136.202 23.104 136.526 22.744 137.51 22.744V21.832C135.83 21.832 135.11 22.492 135.11 23.956V24.424H134.258V25.324H135.11V31ZM145.096 27.7C145.096 25.624 143.644 24.316 141.772 24.316C139.912 24.316 138.448 25.624 138.448 27.7C138.448 29.788 139.864 31.108 141.724 31.108C143.596 31.108 145.096 29.788 145.096 27.7ZM139.564 27.7C139.564 26.044 140.608 25.264 141.76 25.264C142.888 25.264 143.98 26.044 143.98 27.7C143.98 29.368 142.864 30.148 141.724 30.148C140.584 30.148 139.564 29.368 139.564 27.7ZM147.623 27.424C147.623 25.9 148.415 25.432 149.459 25.432H149.747V24.304C148.703 24.304 147.995 24.76 147.623 25.492V24.424H146.531V31H147.623V27.424ZM160.5 31H161.58V27.124C161.58 25.24 160.416 24.304 158.916 24.304C157.908 24.304 156.972 24.82 156.588 25.768C156.156 24.784 155.256 24.304 154.176 24.304C153.312 24.304 152.532 24.676 152.1 25.372V24.424H151.008V31H152.1V27.376C152.1 25.96 152.856 25.252 153.96 25.252C155.04 25.252 155.76 25.936 155.76 27.28V31H156.84V27.376C156.84 25.96 157.596 25.252 158.7 25.252C159.78 25.252 160.5 25.936 160.5 27.28V31ZM168.099 29.212C168.051 26.86 164.235 27.712 164.235 26.152C164.235 25.624 164.715 25.24 165.519 25.24C166.395 25.24 166.899 25.72 166.947 26.38H168.039C167.967 25.096 167.007 24.316 165.555 24.316C164.091 24.316 163.143 25.144 163.143 26.152C163.143 28.6 167.031 27.748 167.031 29.212C167.031 29.752 166.551 30.184 165.687 30.184C164.763 30.184 164.199 29.704 164.139 29.068H163.011C163.083 30.268 164.163 31.108 165.699 31.108C167.151 31.108 168.099 30.292 168.099 29.212ZM177.568 29.212C177.52 26.86 173.704 27.712 173.704 26.152C173.704 25.624 174.184 25.24 174.988 25.24C175.864 25.24 176.368 25.72 176.416 26.38H177.508C177.436 25.096 176.476 24.316 175.024 24.316C173.56 24.316 172.612 25.144 172.612 26.152C172.612 28.6 176.5 27.748 176.5 29.212C176.5 29.752 176.02 30.184 175.156 30.184C174.232 30.184 173.668 29.704 173.608 29.068H172.48C172.552 30.268 173.632 31.108 175.168 31.108C176.62 31.108 177.568 30.292 177.568 29.212ZM184.942 24.424H183.85V28.036C183.85 29.452 183.094 30.148 181.966 30.148C180.862 30.148 180.13 29.464 180.13 28.132V24.424H179.05V28.276C179.05 30.16 180.238 31.096 181.75 31.096C182.626 31.096 183.43 30.712 183.85 30.028V31H184.942V24.424ZM186.377 27.7C186.377 29.788 187.709 31.108 189.581 31.108C191.213 31.108 192.281 30.196 192.617 28.888H191.441C191.201 29.716 190.553 30.184 189.581 30.184C188.381 30.184 187.493 29.332 187.493 27.7C187.493 26.092 188.381 25.24 189.581 25.24C190.553 25.24 191.213 25.744 191.441 26.536H192.617C192.281 25.156 191.213 24.316 189.581 24.316C187.709 24.316 186.377 25.636 186.377 27.7ZM194.074 31H195.166V27.364C195.166 25.948 195.934 25.252 197.05 25.252C198.154 25.252 198.886 25.936 198.886 27.28V31H199.966V27.124C199.966 25.24 198.802 24.304 197.338 24.304C196.414 24.304 195.598 24.676 195.166 25.372V22.12H194.074V31ZM204.541 27.688C204.541 29.728 205.897 31.108 207.649 31.108C208.861 31.108 209.713 30.484 210.109 29.776V31H211.213V24.424H210.109V25.624C209.725 24.94 208.885 24.316 207.661 24.316C205.897 24.316 204.541 25.636 204.541 27.688ZM210.109 27.7C210.109 29.248 209.077 30.148 207.877 30.148C206.677 30.148 205.657 29.236 205.657 27.688C205.657 26.14 206.677 25.264 207.877 25.264C209.077 25.264 210.109 26.176 210.109 27.7ZM217.787 29.212C217.739 26.86 213.923 27.712 213.923 26.152C213.923 25.624 214.403 25.24 215.207 25.24C216.083 25.24 216.587 25.72 216.635 26.38H217.727C217.655 25.096 216.695 24.316 215.243 24.316C213.779 24.316 212.831 25.144 212.831 26.152C212.831 28.6 216.719 27.748 216.719 29.212C216.719 29.752 216.239 30.184 215.375 30.184C214.451 30.184 213.887 29.704 213.827 29.068H212.699C212.771 30.268 213.851 31.108 215.387 31.108C216.839 31.108 217.787 30.292 217.787 29.212ZM74.0096 41.624V48.272L69.6176 41.624H68.5256V50H69.6176V43.34L74.0096 50H75.1016V41.624H74.0096ZM79.7591 44.24C80.8871 44.24 81.8471 44.948 81.8351 46.232H77.6831C77.8031 44.948 78.6911 44.24 79.7591 44.24ZM82.8311 47.972H81.6551C81.4151 48.68 80.7911 49.184 79.8071 49.184C78.6911 49.184 77.7551 48.452 77.6711 47.12H82.9271C82.9511 46.892 82.9631 46.7 82.9631 46.46C82.9631 44.66 81.7151 43.316 79.8071 43.316C77.8871 43.316 76.5551 44.624 76.5551 46.7C76.5551 48.788 77.9351 50.108 79.8071 50.108C81.4391 50.108 82.4951 49.172 82.8311 47.972ZM84.6445 48.2C84.6445 49.52 85.3045 50 86.4685 50H87.4525V49.076H86.6485C85.9765 49.076 85.7365 48.848 85.7365 48.2V44.324H87.4525V43.424H85.7365V41.768H84.6445V43.424H83.7925V44.324H84.6445V48.2ZM88.9796 50H90.0716V44.324H91.4516V43.424H90.0716V42.956C90.0716 42.104 90.3956 41.744 91.3796 41.744V40.832C89.6996 40.832 88.9796 41.492 88.9796 42.956V43.424H88.1276V44.324H88.9796V50ZM92.7248 50H93.8168V41.12H92.7248V50ZM95.6779 50H96.7699V43.424H95.6779V50ZM96.2419 42.356C96.6379 42.356 96.9619 42.032 96.9619 41.612C96.9619 41.192 96.6379 40.868 96.2419 40.868C95.8219 40.868 95.4979 41.192 95.4979 41.612C95.4979 42.032 95.8219 42.356 96.2419 42.356ZM102.063 50H103.299L101.175 46.676L103.287 43.424H102.147L100.659 45.86L99.099 43.424H97.863L99.987 46.736L97.863 50H99.003L100.503 47.552L102.063 50ZM103.425 51.716H104.157L105.501 48.488H104.301L103.425 51.716ZM115.567 50H116.719L113.707 41.684H112.447L109.423 50H110.575L111.247 48.14H114.895L115.567 50ZM114.583 47.252H111.559L113.071 43.028L114.583 47.252ZM127.529 50H128.609V46.124C128.609 44.24 127.445 43.304 125.945 43.304C124.937 43.304 124.001 43.82 123.617 44.768C123.185 43.784 122.285 43.304 121.205 43.304C120.341 43.304 119.561 43.676 119.129 44.372V43.424H118.037V50H119.129V46.376C119.129 44.96 119.885 44.252 120.989 44.252C122.069 44.252 122.789 44.936 122.789 46.28V50H123.869V46.376C123.869 44.96 124.625 44.252 125.729 44.252C126.809 44.252 127.529 44.936 127.529 46.28V50ZM129.993 46.688C129.993 48.728 131.349 50.108 133.101 50.108C134.313 50.108 135.165 49.484 135.561 48.776V50H136.665V43.424H135.561V44.624C135.177 43.94 134.337 43.316 133.113 43.316C131.349 43.316 129.993 44.636 129.993 46.688ZM135.561 46.7C135.561 48.248 134.529 49.148 133.329 49.148C132.129 49.148 131.109 48.236 131.109 46.688C131.109 45.14 132.129 44.264 133.329 44.264C134.529 44.264 135.561 45.176 135.561 46.7ZM142.53 43.424H138.102V44.312H141.27L138.078 49.1V50H142.554V49.1H139.326L142.53 44.312V43.424ZM150.211 46.7C150.211 44.624 148.759 43.316 146.887 43.316C145.027 43.316 143.563 44.624 143.563 46.7C143.563 48.788 144.979 50.108 146.839 50.108C148.711 50.108 150.211 48.788 150.211 46.7ZM144.679 46.7C144.679 45.044 145.723 44.264 146.875 44.264C148.003 44.264 149.095 45.044 149.095 46.7C149.095 48.368 147.979 49.148 146.839 49.148C145.699 49.148 144.679 48.368 144.679 46.7ZM156.459 50H157.539V46.124C157.539 44.24 156.375 43.304 154.851 43.304C153.963 43.304 153.171 43.676 152.739 44.36V43.424H151.647V50H152.739V46.364C152.739 44.948 153.507 44.252 154.623 44.252C155.727 44.252 156.459 44.936 156.459 46.28V50Z" transform="translate(758 122)" fill="#0A0909"/>
<path d="M4.382 5.228H0.966V15H4.382C7.504 15 9.534 13.082 9.534 10.128C9.534 7.16 7.504 5.228 4.382 5.228ZM2.926 13.334V6.88H4.312C6.37 6.88 7.532 8.098 7.532 10.128C7.532 12.158 6.37 13.334 4.312 13.334H2.926ZM11.0012 15H12.9612V7.244H11.0012V15ZM11.9952 6.32C12.6812 6.32 13.1992 5.816 13.1992 5.172C13.1992 4.528 12.6812 4.024 11.9952 4.024C11.2952 4.024 10.7912 4.528 10.7912 5.172C10.7912 5.816 11.2952 6.32 11.9952 6.32ZM14.3936 11.094C14.3936 13.516 15.9616 15.126 17.9356 15.126C19.1536 15.126 20.0356 14.524 20.4976 13.852V15.056C20.4976 16.498 19.6576 17.114 18.5796 17.114C17.5996 17.114 16.8716 16.652 16.6756 15.952H14.7296C14.9256 17.73 16.4516 18.822 18.6356 18.822C21.1836 18.822 22.4716 17.156 22.4716 15.056V7.244H20.4976V8.35C20.0356 7.678 19.1536 7.118 17.9356 7.118C15.9616 7.118 14.3936 8.672 14.3936 11.094ZM20.4976 11.122C20.4976 12.592 19.5176 13.404 18.4396 13.404C17.3896 13.404 16.3956 12.564 16.3956 11.094C16.3956 9.624 17.3896 8.84 18.4396 8.84C19.5176 8.84 20.4976 9.652 20.4976 11.122ZM24.3859 15H26.3459V7.244H24.3859V15ZM25.3799 6.32C26.0659 6.32 26.5839 5.816 26.5839 5.172C26.5839 4.528 26.0659 4.024 25.3799 4.024C24.6799 4.024 24.1759 4.528 24.1759 5.172C24.1759 5.816 24.6799 6.32 25.3799 6.32ZM28.5904 12.592C28.5904 14.37 29.5844 15 31.0684 15H32.3004V13.348H31.3904C30.7744 13.348 30.5644 13.124 30.5644 12.606V8.854H32.3004V7.244H30.5644V5.326H28.5904V7.244H27.6664V8.854H28.5904V12.592ZM33.2061 11.094C33.2061 13.516 34.7741 15.126 36.7341 15.126C37.9661 15.126 38.8481 14.538 39.3101 13.866V15H41.2841V7.244H39.3101V8.35C38.8481 7.706 37.9941 7.118 36.7481 7.118C34.7741 7.118 33.2061 8.672 33.2061 11.094ZM39.3101 11.122C39.3101 12.592 38.3301 13.404 37.2521 13.404C36.2021 13.404 35.2081 12.564 35.2081 11.094C35.2081 9.624 36.2021 8.84 37.2521 8.84C38.3301 8.84 39.3101 9.652 39.3101 11.122ZM43.1984 15H45.1584V4.64H43.1984V15ZM49.9548 10.1C49.9548 13.026 52.0968 15.084 54.9108 15.084C57.0808 15.084 58.8448 13.936 59.5028 11.92H57.2488C56.7868 12.872 55.9468 13.334 54.8968 13.334C53.1888 13.334 51.9708 12.074 51.9708 10.1C51.9708 8.112 53.1888 6.866 54.8968 6.866C55.9468 6.866 56.7868 7.328 57.2488 8.266H59.5028C58.8448 6.264 57.0808 5.102 54.9108 5.102C52.0968 5.102 49.9548 7.174 49.9548 10.1ZM61.1769 15H63.1369V10.716C63.1369 9.47 63.8229 8.798 64.8869 8.798C65.9229 8.798 66.6089 9.47 66.6089 10.716V15H68.5689V10.45C68.5689 8.308 67.2949 7.132 65.5449 7.132C64.5089 7.132 63.6409 7.552 63.1369 8.21V4.64H61.1769V15ZM69.9288 11.094C69.9288 13.516 71.4968 15.126 73.4568 15.126C74.6888 15.126 75.5708 14.538 76.0328 13.866V15H78.0068V7.244H76.0328V8.35C75.5708 7.706 74.7168 7.118 73.4708 7.118C71.4968 7.118 69.9288 8.672 69.9288 11.094ZM76.0328 11.122C76.0328 12.592 75.0528 13.404 73.9748 13.404C72.9248 13.404 71.9308 12.564 71.9308 11.094C71.9308 9.624 72.9248 8.84 73.9748 8.84C75.0528 8.84 76.0328 9.652 76.0328 11.122ZM85.3531 15H87.3131V10.45C87.3131 8.308 86.0251 7.132 84.2191 7.132C83.2251 7.132 82.3851 7.552 81.8811 8.21V7.244H79.9211V15H81.8811V10.716C81.8811 9.47 82.5671 8.798 83.6311 8.798C84.6671 8.798 85.3531 9.47 85.3531 10.716V15ZM94.6089 15H96.5689V10.45C96.5689 8.308 95.2809 7.132 93.4749 7.132C92.4809 7.132 91.6409 7.552 91.1369 8.21V7.244H89.1769V15H91.1369V10.716C91.1369 9.47 91.8229 8.798 92.8869 8.798C93.9229 8.798 94.6089 9.47 94.6089 10.716V15ZM101.765 8.728C102.773 8.728 103.585 9.372 103.613 10.394H99.9308C100.085 9.33 100.827 8.728 101.765 8.728ZM105.447 12.564H103.333C103.081 13.082 102.619 13.502 101.779 13.502C100.799 13.502 100.015 12.858 99.9168 11.71H105.587C105.629 11.458 105.643 11.206 105.643 10.954C105.643 8.644 104.061 7.118 101.821 7.118C99.5248 7.118 97.9288 8.672 97.9288 11.122C97.9288 13.558 99.5668 15.126 101.821 15.126C103.739 15.126 105.027 13.992 105.447 12.564ZM107.073 15H109.033V4.64H107.073V15ZM116.99 12.788C116.934 9.946 112.636 10.828 112.636 9.414C112.636 8.966 113.014 8.672 113.742 8.672C114.512 8.672 114.988 9.078 115.044 9.68H116.92C116.808 8.14 115.674 7.118 113.798 7.118C111.88 7.118 110.732 8.154 110.732 9.442C110.732 12.284 115.114 11.402 115.114 12.788C115.114 13.236 114.694 13.586 113.924 13.586C113.14 13.586 112.594 13.138 112.524 12.55H110.55C110.634 13.992 111.992 15.126 113.938 15.126C115.828 15.126 116.99 14.118 116.99 12.788Z" transform="translate(812 97)" fill="#FC2E2E"/>
<g filter="url(#filter0_d)">
<rect width="81" height="73" rx="12" transform="translate(831 9)" fill="url(#paint1_linear)"/>
</g>
<rect width="44" height="26" rx="2" transform="translate(849 32)" fill="white" fill-opacity="0.98"/>
<path d="M8.59081 5.72V12.104L4.41481 5.72H1.27881V17H4.41481V10.696L8.59081 17H11.7268V5.72H8.59081Z" transform="translate(864 33)" fill="#FF3115"/>
<rect width="6" height="4" rx="1" transform="translate(852 40) scale(1 -1)" fill="#FF3C1C"/>
<rect width="6" height="4" rx="1" transform="translate(852 47) scale(1 -1)" fill="#FF3C1C"/>
<rect width="6" height="4" rx="1" transform="translate(852 54) scale(1 -1)" fill="#FF3C1C"/>
<rect width="6" height="4" rx="1" transform="translate(882 40) scale(1 -1)" fill="#FF3C1C"/>
<rect width="6" height="4" rx="1" transform="translate(882 47) scale(1 -1)" fill="#FF3C1C"/>
<rect width="6" height="4" rx="1" transform="translate(882 54) scale(1 -1)" fill="#FF3C1C"/>
<path d="M10.7714 9.7C10.7714 7.624 9.31942 6.316 7.44742 6.316C5.58742 6.316 4.12342 7.624 4.12342 9.7C4.12342 11.788 5.53942 13.108 7.39942 13.108C9.27142 13.108 10.7714 11.788 10.7714 9.7ZM5.23942 9.7C5.23942 8.044 6.28342 7.264 7.43542 7.264C8.56342 7.264 9.65542 8.044 9.65542 9.7C9.65542 11.368 8.53942 12.148 7.39942 12.148C6.25942 12.148 5.23942 11.368 5.23942 9.7ZM17.0192 13H18.0992V9.124C18.0992 7.24 16.9352 6.304 15.4112 6.304C14.5232 6.304 13.7312 6.676 13.2992 7.36V6.424H12.2072V13H13.2992V9.364C13.2992 7.948 14.0672 7.252 15.1832 7.252C16.2872 7.252 17.0192 7.936 17.0192 9.28V13ZM23.0822 13H24.1742V4.12H23.0822V13ZM26.0353 13H27.1273V6.424H26.0353V13ZM26.5993 5.356C26.9953 5.356 27.3193 5.032 27.3193 4.612C27.3193 4.192 26.9953 3.868 26.5993 3.868C26.1793 3.868 25.8553 4.192 25.8553 4.612C25.8553 5.032 26.1793 5.356 26.5993 5.356ZM38.4805 13H39.5605V9.124C39.5605 7.24 38.3965 6.304 36.8965 6.304C35.8885 6.304 34.9525 6.82 34.5685 7.768C34.1365 6.784 33.2365 6.304 32.1565 6.304C31.2925 6.304 30.5125 6.676 30.0805 7.372V6.424H28.9885V13H30.0805V9.376C30.0805 7.96 30.8365 7.252 31.9405 7.252C33.0205 7.252 33.7405 7.936 33.7405 9.28V13H34.8205V9.376C34.8205 7.96 35.5765 7.252 36.6805 7.252C37.7605 7.252 38.4805 7.936 38.4805 9.28V13ZM41.3517 13H42.4437V6.424H41.3517V13ZM41.9157 5.356C42.3117 5.356 42.6357 5.032 42.6357 4.612C42.6357 4.192 42.3117 3.868 41.9157 3.868C41.4957 3.868 41.1717 4.192 41.1717 4.612C41.1717 5.032 41.4957 5.356 41.9157 5.356ZM44.5449 11.2C44.5449 12.52 45.2049 13 46.3689 13H47.3529V12.076H46.5489C45.8769 12.076 45.6369 11.848 45.6369 11.2V7.324H47.3529V6.424H45.6369V4.768H44.5449V6.424H43.6929V7.324H44.5449V11.2ZM51.472 7.24C52.6 7.24 53.56 7.948 53.548 9.232H49.396C49.516 7.948 50.404 7.24 51.472 7.24ZM54.544 10.972H53.368C53.128 11.68 52.504 12.184 51.52 12.184C50.404 12.184 49.468 11.452 49.384 10.12H54.64C54.664 9.892 54.676 9.7 54.676 9.46C54.676 7.66 53.428 6.316 51.52 6.316C49.6 6.316 48.268 7.624 48.268 9.7C48.268 11.788 49.648 13.108 51.52 13.108C53.152 13.108 54.208 12.172 54.544 10.972ZM55.7094 9.688C55.7094 11.728 57.0654 13.108 58.8294 13.108C60.0294 13.108 60.8814 12.496 61.2774 11.764V13H62.3814V4.12H61.2774V7.6C60.8214 6.844 59.8734 6.316 58.8414 6.316C57.0654 6.316 55.7094 7.636 55.7094 9.688ZM61.2774 9.7C61.2774 11.248 60.2454 12.148 59.0454 12.148C57.8454 12.148 56.8254 11.236 56.8254 9.688C56.8254 8.14 57.8454 7.264 59.0454 7.264C60.2454 7.264 61.2774 8.176 61.2774 9.7ZM66.91 5.524H69.202V13H70.294V5.524H72.574V4.636H66.91V5.524ZM77.0501 11.848L74.4221 4.636H73.2581L76.4141 13H77.6741L80.8301 4.636H79.6781L77.0501 11.848ZM84.8187 9.7C84.8187 11.788 86.1507 13.108 88.0227 13.108C89.6547 13.108 90.7227 12.196 91.0587 10.888H89.8827C89.6427 11.716 88.9947 12.184 88.0227 12.184C86.8227 12.184 85.9347 11.332 85.9347 9.7C85.9347 8.092 86.8227 7.24 88.0227 7.24C88.9947 7.24 89.6547 7.744 89.8827 8.536H91.0587C90.7227 7.156 89.6547 6.316 88.0227 6.316C86.1507 6.316 84.8187 7.636 84.8187 9.7ZM92.5158 13H93.6078V9.364C93.6078 7.948 94.3758 7.252 95.4918 7.252C96.5958 7.252 97.3278 7.936 97.3278 9.28V13H98.4078V9.124C98.4078 7.24 97.2438 6.304 95.7798 6.304C94.8558 6.304 94.0398 6.676 93.6078 7.372V4.12H92.5158V13ZM99.7836 9.688C99.7836 11.728 101.14 13.108 102.892 13.108C104.104 13.108 104.956 12.484 105.352 11.776V13H106.456V6.424H105.352V7.624C104.968 6.94 104.128 6.316 102.904 6.316C101.14 6.316 99.7836 7.636 99.7836 9.688ZM105.352 9.7C105.352 11.248 104.32 12.148 103.12 12.148C101.92 12.148 100.9 11.236 100.9 9.688C100.9 8.14 101.92 7.264 103.12 7.264C104.32 7.264 105.352 8.176 105.352 9.7ZM113.113 13H114.193V9.124C114.193 7.24 113.029 6.304 111.505 6.304C110.617 6.304 109.825 6.676 109.393 7.36V6.424H108.301V13H109.393V9.364C109.393 7.948 110.161 7.252 111.277 7.252C112.381 7.252 113.113 7.936 113.113 9.28V13ZM120.789 13H121.869V9.124C121.869 7.24 120.705 6.304 119.181 6.304C118.293 6.304 117.501 6.676 117.069 7.36V6.424H115.977V13H117.069V9.364C117.069 7.948 117.837 7.252 118.953 7.252C120.057 7.252 120.789 7.936 120.789 9.28V13ZM126.449 7.24C127.577 7.24 128.537 7.948 128.525 9.232H124.373C124.493 7.948 125.381 7.24 126.449 7.24ZM129.521 10.972H128.345C128.105 11.68 127.481 12.184 126.497 12.184C125.381 12.184 124.445 11.452 124.361 10.12H129.617C129.641 9.892 129.653 9.7 129.653 9.46C129.653 7.66 128.405 6.316 126.497 6.316C124.577 6.316 123.245 7.624 123.245 9.7C123.245 11.788 124.625 13.108 126.497 13.108C128.129 13.108 129.185 12.172 129.521 10.972ZM131.094 13H132.186V4.12H131.094V13ZM138.775 11.212C138.727 8.86 134.911 9.712 134.911 8.152C134.911 7.624 135.391 7.24 136.195 7.24C137.071 7.24 137.575 7.72 137.623 8.38H138.715C138.643 7.096 137.683 6.316 136.231 6.316C134.767 6.316 133.819 7.144 133.819 8.152C133.819 10.6 137.707 9.748 137.707 11.212C137.707 11.752 137.227 12.184 136.363 12.184C135.439 12.184 134.875 11.704 134.815 11.068H133.687C133.759 12.268 134.839 13.108 136.375 13.108C137.827 13.108 138.775 12.292 138.775 11.212ZM21.8693 31H22.9613V24.424H21.8693V31ZM22.4333 23.356C22.8293 23.356 23.1533 23.032 23.1533 22.612C23.1533 22.192 22.8293 21.868 22.4333 21.868C22.0133 21.868 21.6893 22.192 21.6893 22.612C21.6893 23.032 22.0133 23.356 22.4333 23.356ZM29.6344 31H30.7144V27.124C30.7144 25.24 29.5504 24.304 28.0264 24.304C27.1384 24.304 26.3464 24.676 25.9144 25.36V24.424H24.8224V31H25.9144V27.364C25.9144 25.948 26.6824 25.252 27.7984 25.252C28.9024 25.252 29.6344 25.936 29.6344 27.28V31ZM35.6974 31H36.7894V22.12H35.6974V31ZM38.6506 31H39.7426V24.424H38.6506V31ZM39.2146 23.356C39.6106 23.356 39.9346 23.032 39.9346 22.612C39.9346 22.192 39.6106 21.868 39.2146 21.868C38.7946 21.868 38.4706 22.192 38.4706 22.612C38.4706 23.032 38.7946 23.356 39.2146 23.356ZM51.0957 31H52.1757V27.124C52.1757 25.24 51.0117 24.304 49.5117 24.304C48.5037 24.304 47.5677 24.82 47.1837 25.768C46.7517 24.784 45.8517 24.304 44.7717 24.304C43.9077 24.304 43.1277 24.676 42.6957 25.372V24.424H41.6037V31H42.6957V27.376C42.6957 25.96 43.4517 25.252 44.5557 25.252C45.6357 25.252 46.3557 25.936 46.3557 27.28V31H47.4357V27.376C47.4357 25.96 48.1917 25.252 49.2957 25.252C50.3757 25.252 51.0957 25.936 51.0957 27.28V31ZM53.967 31H55.059V24.424H53.967V31ZM54.531 23.356C54.927 23.356 55.251 23.032 55.251 22.612C55.251 22.192 54.927 21.868 54.531 21.868C54.111 21.868 53.787 22.192 53.787 22.612C53.787 23.032 54.111 23.356 54.531 23.356ZM57.1601 29.2C57.1601 30.52 57.8201 31 58.9841 31H59.9681V30.076H59.1641C58.4921 30.076 58.2521 29.848 58.2521 29.2V25.324H59.9681V24.424H58.2521V22.768H57.1601V24.424H56.3081V25.324H57.1601V29.2ZM64.0872 25.24C65.2152 25.24 66.1752 25.948 66.1632 27.232H62.0112C62.1312 25.948 63.0192 25.24 64.0872 25.24ZM67.1592 28.972H65.9832C65.7432 29.68 65.1192 30.184 64.1352 30.184C63.0192 30.184 62.0832 29.452 61.9992 28.12H67.2552C67.2792 27.892 67.2912 27.7 67.2912 27.46C67.2912 25.66 66.0432 24.316 64.1352 24.316C62.2152 24.316 60.8832 25.624 60.8832 27.7C60.8832 29.788 62.2632 31.108 64.1352 31.108C65.7672 31.108 66.8232 30.172 67.1592 28.972ZM68.3246 27.688C68.3246 29.728 69.6806 31.108 71.4446 31.108C72.6446 31.108 73.4966 30.496 73.8926 29.764V31H74.9966V22.12H73.8926V25.6C73.4366 24.844 72.4886 24.316 71.4566 24.316C69.6806 24.316 68.3246 25.636 68.3246 27.688ZM73.8926 27.7C73.8926 29.248 72.8606 30.148 71.6606 30.148C70.4606 30.148 69.4406 29.236 69.4406 27.688C69.4406 26.14 70.4606 25.264 71.6606 25.264C72.8606 25.264 73.8926 26.176 73.8926 27.7ZM89.5332 31H90.6132V27.124C90.6132 25.24 89.4492 24.304 87.9492 24.304C86.9412 24.304 86.0052 24.82 85.6212 25.768C85.1892 24.784 84.2892 24.304 83.2092 24.304C82.3452 24.304 81.5652 24.676 81.1332 25.372V24.424H80.0412V31H81.1332V27.376C81.1332 25.96 81.8892 25.252 82.9932 25.252C84.0732 25.252 84.7932 25.936 84.7932 27.28V31H85.8732V27.376C85.8732 25.96 86.6292 25.252 87.7332 25.252C88.8132 25.252 89.5332 25.936 89.5332 27.28V31ZM91.9965 27.688C91.9965 29.728 93.3525 31.108 95.1045 31.108C96.3165 31.108 97.1685 30.484 97.5645 29.776V31H98.6685V24.424H97.5645V25.624C97.1805 24.94 96.3405 24.316 95.1165 24.316C93.3525 24.316 91.9965 25.636 91.9965 27.688ZM97.5645 27.7C97.5645 29.248 96.5325 30.148 95.3325 30.148C94.1325 30.148 93.1125 29.236 93.1125 27.688C93.1125 26.14 94.1325 25.264 95.3325 25.264C96.5325 25.264 97.5645 26.176 97.5645 27.7ZM101.606 27.424C101.606 25.9 102.398 25.432 103.442 25.432H103.73V24.304C102.686 24.304 101.978 24.76 101.606 25.492V24.424H100.514V31H101.606V27.424ZM104.99 31H106.082V28.096L108.662 31H110.15L107.042 27.7L110.138 24.424H108.614L106.082 27.34V22.12H104.99V31ZM113.962 25.24C115.09 25.24 116.05 25.948 116.038 27.232H111.886C112.006 25.948 112.894 25.24 113.962 25.24ZM117.034 28.972H115.858C115.618 29.68 114.994 30.184 114.01 30.184C112.894 30.184 111.958 29.452 111.874 28.12H117.13C117.154 27.892 117.166 27.7 117.166 27.46C117.166 25.66 115.918 24.316 114.01 24.316C112.09 24.316 110.758 25.624 110.758 27.7C110.758 29.788 112.138 31.108 114.01 31.108C115.642 31.108 116.698 30.172 117.034 28.972ZM118.848 29.2C118.848 30.52 119.508 31 120.672 31H121.656V30.076H120.852C120.18 30.076 119.94 29.848 119.94 29.2V25.324H121.656V24.424H119.94V22.768H118.848V24.424H117.996V25.324H118.848V29.2Z" transform="translate(535 123)" fill="#0A0909"/>
<path d="M7.798 12.172C7.798 8.728 2.786 9.82 2.786 7.86C2.786 7.062 3.36 6.684 4.13 6.712C4.97 6.726 5.488 7.23 5.53 7.874H7.686C7.56 6.11 6.188 5.088 4.186 5.088C2.17 5.088 0.742 6.152 0.742 7.916C0.728 11.458 5.768 10.184 5.768 12.298C5.768 12.998 5.222 13.488 4.298 13.488C3.388 13.488 2.87 12.97 2.814 12.186H0.714C0.742 14.034 2.31 15.098 4.34 15.098C6.566 15.098 7.798 13.712 7.798 12.172ZM8.99325 11.094C8.99325 13.516 10.5612 15.126 12.5212 15.126C13.7532 15.126 14.6352 14.538 15.0973 13.866V15H17.0713V7.244H15.0973V8.35C14.6352 7.706 13.7812 7.118 12.5353 7.118C10.5612 7.118 8.99325 8.672 8.99325 11.094ZM15.0973 11.122C15.0973 12.592 14.1172 13.404 13.0392 13.404C11.9892 13.404 10.9952 12.564 10.9952 11.094C10.9952 9.624 11.9892 8.84 13.0392 8.84C14.1172 8.84 15.0973 9.652 15.0973 11.122ZM19.2935 12.592C19.2935 14.37 20.2875 15 21.7715 15H23.0035V13.348H22.0935C21.4775 13.348 21.2675 13.124 21.2675 12.606V8.854H23.0035V7.244H21.2675V5.326H19.2935V7.244H18.3695V8.854H19.2935V12.592ZM27.7453 8.728C28.7533 8.728 29.5653 9.372 29.5933 10.394H25.9113C26.0653 9.33 26.8073 8.728 27.7453 8.728ZM31.4273 12.564H29.3133C29.0613 13.082 28.5993 13.502 27.7593 13.502C26.7793 13.502 25.9953 12.858 25.8973 11.71H31.5673C31.6093 11.458 31.6233 11.206 31.6233 10.954C31.6233 8.644 30.0413 7.118 27.8013 7.118C25.5053 7.118 23.9093 8.672 23.9093 11.122C23.9093 13.558 25.5473 15.126 27.8013 15.126C29.7193 15.126 31.0073 13.992 31.4273 12.564ZM33.0539 15H35.0139V4.64H33.0539V15ZM36.9504 15H38.9104V4.64H36.9504V15ZM40.8469 15H42.8069V7.244H40.8469V15ZM41.8409 6.32C42.5269 6.32 43.0449 5.816 43.0449 5.172C43.0449 4.528 42.5269 4.024 41.8409 4.024C41.1409 4.024 40.6369 4.528 40.6369 5.172C40.6369 5.816 41.1409 6.32 41.8409 6.32ZM45.0513 12.592C45.0513 14.37 46.0453 15 47.5293 15H48.7613V13.348H47.8513C47.2353 13.348 47.0253 13.124 47.0253 12.606V8.854H48.7613V7.244H47.0253V5.326H45.0513V7.244H44.1273V8.854H45.0513V12.592ZM53.5031 8.728C54.5111 8.728 55.3231 9.372 55.3511 10.394H51.6691C51.8231 9.33 52.5651 8.728 53.5031 8.728ZM57.1851 12.564H55.0711C54.8191 13.082 54.3571 13.502 53.5171 13.502C52.5371 13.502 51.7531 12.858 51.6551 11.71H57.3251C57.3671 11.458 57.3811 11.206 57.3811 10.954C57.3811 8.644 55.7991 7.118 53.5591 7.118C51.2631 7.118 49.6671 8.672 49.6671 11.122C49.6671 13.558 51.3051 15.126 53.5591 15.126C55.4771 15.126 56.7651 13.992 57.1851 12.564ZM67.3276 8.266C67.3276 9.148 66.8376 9.722 65.7456 9.722H64.1076V6.852H65.7456C66.8376 6.852 67.3276 7.398 67.3276 8.266ZM62.1476 5.228V15H64.1076V11.192H65.0316L67.1876 15H69.4556L67.1176 11.038C68.6856 10.618 69.3436 9.414 69.3436 8.224C69.3436 6.586 68.1676 5.228 65.8156 5.228H62.1476ZM74.4484 8.728C75.4564 8.728 76.2684 9.372 76.2964 10.394H72.6144C72.7684 9.33 73.5104 8.728 74.4484 8.728ZM78.1304 12.564H76.0164C75.7644 13.082 75.3024 13.502 74.4624 13.502C73.4824 13.502 72.6984 12.858 72.6004 11.71H78.2704C78.3124 11.458 78.3264 11.206 78.3264 10.954C78.3264 8.644 76.7444 7.118 74.5044 7.118C72.2084 7.118 70.6124 8.672 70.6124 11.122C70.6124 13.558 72.2504 15.126 74.5044 15.126C76.4224 15.126 77.7104 13.992 78.1304 12.564ZM79.757 15H81.717V4.64H79.757V15ZM86.9855 8.728C87.9935 8.728 88.8055 9.372 88.8335 10.394H85.1515C85.3055 9.33 86.0475 8.728 86.9855 8.728ZM90.6675 12.564H88.5535C88.3015 13.082 87.8395 13.502 86.9995 13.502C86.0195 13.502 85.2355 12.858 85.1375 11.71H90.8075C90.8495 11.458 90.8635 11.206 90.8635 10.954C90.8635 8.644 89.2815 7.118 87.0415 7.118C84.7455 7.118 83.1495 8.672 83.1495 11.122C83.1495 13.558 84.7875 15.126 87.0415 15.126C88.9595 15.126 90.2475 13.992 90.6675 12.564ZM91.7901 11.094C91.7901 13.516 93.3581 15.126 95.3181 15.126C96.5501 15.126 97.4321 14.538 97.8941 13.866V15H99.8681V7.244H97.8941V8.35C97.4321 7.706 96.5781 7.118 95.3321 7.118C93.3581 7.118 91.7901 8.672 91.7901 11.094ZM97.8941 11.122C97.8941 12.592 96.9141 13.404 95.8361 13.404C94.7861 13.404 93.7921 12.564 93.7921 11.094C93.7921 9.624 94.7861 8.84 95.8361 8.84C96.9141 8.84 97.8941 9.652 97.8941 11.122ZM107.802 12.788C107.746 9.946 103.448 10.828 103.448 9.414C103.448 8.966 103.826 8.672 104.554 8.672C105.324 8.672 105.8 9.078 105.856 9.68H107.732C107.62 8.14 106.486 7.118 104.61 7.118C102.692 7.118 101.544 8.154 101.544 9.442C101.544 12.284 105.926 11.402 105.926 12.788C105.926 13.236 105.506 13.586 104.736 13.586C103.952 13.586 103.406 13.138 103.336 12.55H101.362C101.446 13.992 102.804 15.126 104.75 15.126C106.64 15.126 107.802 14.118 107.802 12.788ZM112.743 8.728C113.751 8.728 114.563 9.372 114.591 10.394H110.909C111.063 9.33 111.805 8.728 112.743 8.728ZM116.425 12.564H114.311C114.059 13.082 113.597 13.502 112.757 13.502C111.777 13.502 110.993 12.858 110.895 11.71H116.565C116.607 11.458 116.621 11.206 116.621 10.954C116.621 8.644 115.039 7.118 112.799 7.118C110.503 7.118 108.907 8.672 108.907 11.122C108.907 13.558 110.545 15.126 112.799 15.126C114.717 15.126 116.005 13.992 116.425 12.564Z" transform="translate(548 97)" fill="#FC2E2E"/>
<g filter="url(#filter1_d)">
<rect width="81" height="73" rx="12" transform="translate(566 9)" fill="url(#paint2_linear)"/>
</g>
<line y1="-1" x2="8.67377" y2="-1" transform="translate(613.399 34.1426) scale(1.00166 0.998338) rotate(-45)" stroke="white" stroke-width="2"/>
<path d="M0 0H23.3058V0.614069C23.3058 7.04978 18.0886 12.2669 11.6529 12.2669C5.21717 12.2669 0 7.04978 0 0.614069V0Z" transform="translate(605.306 24) scale(1.00166 0.998338) rotate(45.5326)" fill="white"/>
<rect width="3.91" height="14.7183" rx="1.955" transform="matrix(0.731346 0.682007 -0.684427 0.729082 605.447 37.1718)" fill="white"/>
<path d="M9.25255 0L12.472 3.83277L2.88083 14.7986C2.74112 14.9583 2.55526 15.0707 2.34891 15.1203C1.46951 15.3314 0.76788 14.3826 1.22741 13.6036L9.25255 0Z" transform="matrix(-0.644629 0.764496 -0.766601 -0.642124 610.063 54.0107)" fill="white"/>
<circle cx="0.5" cy="0.5" r="1.5" transform="translate(598 48) scale(1 -1)" fill="#EE7272" stroke="#FF9D9D" stroke-width="2"/>
<path d="M6.37215 3.67385C6.37215 5.14745 5.17269 6.34771 3.68608 6.34771C2.19946 6.34771 1 5.14745 1 3.67385C1 2.20025 2.19946 1 3.68608 1C5.17269 1 6.37215 2.20025 6.37215 3.67385Z" transform="translate(614.628 24.3456)" fill="#FF9D9D" stroke="white" stroke-width="2"/>
<path d="M25.4921 9.7C25.4921 7.624 24.0401 6.316 22.1681 6.316C20.3081 6.316 18.8441 7.624 18.8441 9.7C18.8441 11.788 20.2601 13.108 22.1201 13.108C23.9921 13.108 25.4921 11.788 25.4921 9.7ZM19.9601 9.7C19.9601 8.044 21.0041 7.264 22.1561 7.264C23.2841 7.264 24.3761 8.044 24.3761 9.7C24.3761 11.368 23.2601 12.148 22.1201 12.148C20.9801 12.148 19.9601 11.368 19.9601 9.7ZM31.7399 13H32.8199V9.124C32.8199 7.24 31.6559 6.304 30.1319 6.304C29.2439 6.304 28.4519 6.676 28.0199 7.36V6.424H26.9279V13H28.0199V9.364C28.0199 7.948 28.7879 7.252 29.9039 7.252C31.0079 7.252 31.7399 7.936 31.7399 9.28V13ZM34.6037 13H35.6957V4.12H34.6037V13ZM40.0528 11.752L37.9888 6.424H36.7768L39.4288 12.928L38.1328 16.096H39.2608L43.2208 6.424H42.0928L40.0528 11.752ZM47.1098 9.688C47.1098 11.728 48.4658 13.108 50.2177 13.108C51.4297 13.108 52.2818 12.484 52.6778 11.776V13H53.7817V6.424H52.6778V7.624C52.2937 6.94 51.4538 6.316 50.2298 6.316C48.4658 6.316 47.1098 7.636 47.1098 9.688ZM52.6778 9.7C52.6778 11.248 51.6458 12.148 50.4458 12.148C49.2458 12.148 48.2258 11.236 48.2258 9.688C48.2258 8.14 49.2458 7.264 50.4458 7.264C51.6458 7.264 52.6778 8.176 52.6778 9.7ZM54.8471 6.424L57.4271 13H58.6991L61.2791 6.424H60.1151L58.0751 11.992L56.0231 6.424H54.8471ZM65.1497 7.24C66.2777 7.24 67.2377 7.948 67.2257 9.232H63.0737C63.1937 7.948 64.0817 7.24 65.1497 7.24ZM68.2217 10.972H67.0457C66.8057 11.68 66.1817 12.184 65.1977 12.184C64.0817 12.184 63.1457 11.452 63.0617 10.12H68.3177C68.3417 9.892 68.3537 9.7 68.3537 9.46C68.3537 7.66 67.1057 6.316 65.1977 6.316C63.2777 6.316 61.9457 7.624 61.9457 9.7C61.9457 11.788 63.3257 13.108 65.1977 13.108C66.8297 13.108 67.8857 12.172 68.2217 10.972ZM70.8871 9.424C70.8871 7.9 71.6791 7.432 72.7231 7.432H73.0111V6.304C71.9671 6.304 71.2591 6.76 70.8871 7.492V6.424H69.7951V13H70.8871V9.424ZM73.8637 9.688C73.8637 11.728 75.2197 13.108 76.9717 13.108C78.1837 13.108 79.0357 12.484 79.4317 11.776V13H80.5357V6.424H79.4317V7.624C79.0477 6.94 78.2077 6.316 76.9837 6.316C75.2197 6.316 73.8637 7.636 73.8637 9.688ZM79.4317 9.7C79.4317 11.248 78.3997 12.148 77.1997 12.148C75.9997 12.148 74.9797 11.236 74.9797 9.688C74.9797 8.14 75.9997 7.264 77.1997 7.264C78.3997 7.264 79.4317 8.176 79.4317 9.7ZM81.973 9.688C81.973 11.728 83.329 13.108 85.093 13.108C86.293 13.108 87.145 12.472 87.541 11.764V13.144C87.541 14.548 86.665 15.292 85.501 15.292C84.421 15.292 83.641 14.752 83.401 13.96H82.321C82.537 15.364 83.773 16.24 85.501 16.24C87.433 16.24 88.645 14.956 88.645 13.144V6.424H87.541V7.624C87.157 6.916 86.293 6.316 85.093 6.316C83.329 6.316 81.973 7.636 81.973 9.688ZM87.541 9.7C87.541 11.248 86.509 12.148 85.309 12.148C84.109 12.148 83.089 11.236 83.089 9.688C83.089 8.14 84.109 7.264 85.309 7.264C86.509 7.264 87.541 8.176 87.541 9.7ZM93.2864 7.24C94.4144 7.24 95.3744 7.948 95.3624 9.232H91.2104C91.3304 7.948 92.2184 7.24 93.2864 7.24ZM96.3584 10.972H95.1824C94.9424 11.68 94.3184 12.184 93.3344 12.184C92.2184 12.184 91.2824 11.452 91.1984 10.12H96.4544C96.4784 9.892 96.4904 9.7 96.4904 9.46C96.4904 7.66 95.2424 6.316 93.3344 6.316C91.4144 6.316 90.0824 7.624 90.0824 9.7C90.0824 11.788 91.4624 13.108 93.3344 13.108C94.9664 13.108 96.0224 12.172 96.3584 10.972ZM107.371 9.7C107.371 7.624 105.919 6.316 104.047 6.316C102.187 6.316 100.723 7.624 100.723 9.7C100.723 11.788 102.139 13.108 103.999 13.108C105.871 13.108 107.371 11.788 107.371 9.7ZM101.839 9.7C101.839 8.044 102.883 7.264 104.035 7.264C105.163 7.264 106.255 8.044 106.255 9.7C106.255 11.368 105.139 12.148 103.999 12.148C102.859 12.148 101.839 11.368 101.839 9.7ZM109.011 13H110.103V7.324H111.483V6.424H110.103V5.956C110.103 5.104 110.427 4.744 111.411 4.744V3.832C109.731 3.832 109.011 4.492 109.011 5.956V6.424H108.159V7.324H109.011V13ZM116.087 4.312V9.208H117.119C117.407 8.524 118.043 8.068 118.919 8.068C120.179 8.068 120.815 8.788 120.815 10.024C120.815 11.212 120.227 12.1 118.907 12.1C117.887 12.1 117.179 11.56 116.975 10.648H115.907C116.123 12.052 117.167 13.024 118.895 13.024C120.923 13.024 121.859 11.68 121.859 10C121.859 8.656 121.187 7.132 119.075 7.132C118.223 7.132 117.455 7.516 117.095 8.008V5.272H121.307V4.312H116.087ZM123.07 6.28C123.07 7.408 123.826 8.08 124.822 8.08C125.83 8.08 126.574 7.408 126.574 6.28C126.574 5.164 125.83 4.492 124.822 4.492C123.826 4.492 123.07 5.164 123.07 6.28ZM124.822 5.164C125.35 5.164 125.71 5.524 125.71 6.28C125.71 7.024 125.35 7.408 124.822 7.408C124.294 7.408 123.946 7.024 123.946 6.28C123.946 5.524 124.294 5.164 124.822 5.164ZM124.138 13H125.218L130.078 4.624H128.998L124.138 13ZM127.666 11.344C127.666 12.46 128.41 13.144 129.418 13.144C130.414 13.144 131.158 12.46 131.158 11.344C131.158 10.216 130.414 9.544 129.418 9.544C128.41 9.544 127.666 10.216 127.666 11.344ZM129.406 10.228C129.934 10.228 130.294 10.588 130.294 11.344C130.294 12.088 129.934 12.448 129.406 12.448C128.878 12.448 128.518 12.088 128.518 11.344C128.518 10.588 128.878 10.228 129.406 10.228ZM18.9472 31H20.0273V27.124C20.0273 25.24 18.8633 24.304 17.3633 24.304C16.3553 24.304 15.4193 24.82 15.0352 25.768C14.6032 24.784 13.7032 24.304 12.6232 24.304C11.7592 24.304 10.9792 24.676 10.5472 25.372V24.424H9.45525V31H10.5472V27.376C10.5472 25.96 11.3033 25.252 12.4073 25.252C13.4872 25.252 14.2072 25.936 14.2072 27.28V31H15.2873V27.376C15.2873 25.96 16.0432 25.252 17.1472 25.252C18.2273 25.252 18.9472 25.936 18.9472 27.28V31ZM28.0585 27.7C28.0585 25.624 26.6065 24.316 24.7345 24.316C22.8745 24.316 21.4105 25.624 21.4105 27.7C21.4105 29.788 22.8265 31.108 24.6865 31.108C26.5585 31.108 28.0585 29.788 28.0585 27.7ZM22.5265 27.7C22.5265 26.044 23.5705 25.264 24.7225 25.264C25.8505 25.264 26.9425 26.044 26.9425 27.7C26.9425 29.368 25.8265 30.148 24.6865 30.148C23.5465 30.148 22.5265 29.368 22.5265 27.7ZM28.7143 24.424L31.2943 31H32.5663L35.1463 24.424H33.9823L31.9423 29.992L29.8903 24.424H28.7143ZM36.2209 31H37.3129V24.424H36.2209V31ZM36.7849 23.356C37.1809 23.356 37.5049 23.032 37.5049 22.612C37.5049 22.192 37.1809 21.868 36.7849 21.868C36.3649 21.868 36.0409 22.192 36.0409 22.612C36.0409 23.032 36.3649 23.356 36.7849 23.356ZM41.97 25.24C43.098 25.24 44.058 25.948 44.046 27.232H39.894C40.014 25.948 40.902 25.24 41.97 25.24ZM45.042 28.972H43.866C43.626 29.68 43.002 30.184 42.018 30.184C40.902 30.184 39.966 29.452 39.882 28.12H45.138C45.162 27.892 45.174 27.7 45.174 27.46C45.174 25.66 43.926 24.316 42.018 24.316C40.098 24.316 38.766 25.624 38.766 27.7C38.766 29.788 40.146 31.108 42.018 31.108C43.65 31.108 44.706 30.172 45.042 28.972ZM51.3434 29.212C51.2954 26.86 47.4794 27.712 47.4794 26.152C47.4794 25.624 47.9594 25.24 48.7634 25.24C49.6394 25.24 50.1434 25.72 50.1914 26.38H51.2834C51.2114 25.096 50.2514 24.316 48.7994 24.316C47.3354 24.316 46.3874 25.144 46.3874 26.152C46.3874 28.6 50.2754 27.748 50.2754 29.212C50.2754 29.752 49.7954 30.184 48.9314 30.184C48.0074 30.184 47.4434 29.704 47.3834 29.068H46.2554C46.3274 30.268 47.4074 31.108 48.9434 31.108C50.3954 31.108 51.3434 30.292 51.3434 29.212ZM55.6762 27.688C55.6762 29.728 57.0322 31.108 58.7842 31.108C59.9962 31.108 60.8482 30.484 61.2442 29.776V31H62.3482V24.424H61.2442V25.624C60.8602 24.94 60.0202 24.316 58.7962 24.316C57.0322 24.316 55.6762 25.636 55.6762 27.688ZM61.2442 27.7C61.2442 29.248 60.2122 30.148 59.0122 30.148C57.8122 30.148 56.7922 29.236 56.7922 27.688C56.7922 26.14 57.8122 25.264 59.0122 25.264C60.2122 25.264 61.2442 26.176 61.2442 27.7ZM65.2855 27.424C65.2855 25.9 66.0775 25.432 67.1215 25.432H67.4095V24.304C66.3655 24.304 65.6575 24.76 65.2855 25.492V24.424H64.1935V31H65.2855V27.424ZM71.4661 25.24C72.5941 25.24 73.5541 25.948 73.5421 27.232H69.3901C69.5101 25.948 70.3981 25.24 71.4661 25.24ZM74.5381 28.972H73.3621C73.1221 29.68 72.4981 30.184 71.5141 30.184C70.3981 30.184 69.4621 29.452 69.3781 28.12H74.6341C74.6581 27.892 74.6701 27.7 74.6701 27.46C74.6701 25.66 73.4221 24.316 71.5141 24.316C69.5941 24.316 68.2621 25.624 68.2621 27.7C68.2621 29.788 69.6421 31.108 71.5141 31.108C73.1461 31.108 74.2021 30.172 74.5381 28.972ZM84.0387 29.212C83.9907 26.86 80.1747 27.712 80.1747 26.152C80.1747 25.624 80.6547 25.24 81.4587 25.24C82.3347 25.24 82.8387 25.72 82.8867 26.38H83.9787C83.9067 25.096 82.9467 24.316 81.4947 24.316C80.0307 24.316 79.0827 25.144 79.0827 26.152C79.0827 28.6 82.9707 27.748 82.9707 29.212C82.9707 29.752 82.4907 30.184 81.6267 30.184C80.7027 30.184 80.1387 29.704 80.0787 29.068H78.9507C79.0227 30.268 80.1027 31.108 81.6387 31.108C83.0907 31.108 84.0387 30.292 84.0387 29.212ZM91.4123 24.424H90.3203V28.036C90.3203 29.452 89.5643 30.148 88.4362 30.148C87.3323 30.148 86.6003 29.464 86.6003 28.132V24.424H85.5202V28.276C85.5202 30.16 86.7083 31.096 88.2202 31.096C89.0963 31.096 89.9003 30.712 90.3203 30.028V31H91.4123V24.424ZM92.848 27.7C92.848 29.788 94.18 31.108 96.052 31.108C97.684 31.108 98.752 30.196 99.088 28.888H97.912C97.672 29.716 97.024 30.184 96.052 30.184C94.852 30.184 93.964 29.332 93.964 27.7C93.964 26.092 94.852 25.24 96.052 25.24C97.024 25.24 97.684 25.744 97.912 26.536H99.088C98.752 25.156 97.684 24.316 96.052 24.316C94.18 24.316 92.848 25.636 92.848 27.7ZM100.137 27.7C100.137 29.788 101.469 31.108 103.341 31.108C104.973 31.108 106.041 30.196 106.377 28.888H105.201C104.961 29.716 104.313 30.184 103.341 30.184C102.141 30.184 101.253 29.332 101.253 27.7C101.253 26.092 102.141 25.24 103.341 25.24C104.313 25.24 104.973 25.744 105.201 26.536H106.377C106.041 25.156 104.973 24.316 103.341 24.316C101.469 24.316 100.137 25.636 100.137 27.7ZM110.63 25.24C111.758 25.24 112.718 25.948 112.706 27.232H108.554C108.674 25.948 109.562 25.24 110.63 25.24ZM113.702 28.972H112.526C112.286 29.68 111.662 30.184 110.678 30.184C109.562 30.184 108.626 29.452 108.542 28.12H113.798C113.822 27.892 113.834 27.7 113.834 27.46C113.834 25.66 112.586 24.316 110.678 24.316C108.758 24.316 107.426 25.624 107.426 27.7C107.426 29.788 108.806 31.108 110.678 31.108C112.31 31.108 113.366 30.172 113.702 28.972ZM120.004 29.212C119.956 26.86 116.14 27.712 116.14 26.152C116.14 25.624 116.62 25.24 117.424 25.24C118.3 25.24 118.804 25.72 118.852 26.38H119.944C119.872 25.096 118.912 24.316 117.46 24.316C115.996 24.316 115.048 25.144 115.048 26.152C115.048 28.6 118.936 27.748 118.936 29.212C118.936 29.752 118.456 30.184 117.592 30.184C116.668 30.184 116.104 29.704 116.044 29.068H114.916C114.988 30.268 116.068 31.108 117.604 31.108C119.056 31.108 120.004 30.292 120.004 29.212ZM126.273 29.212C126.225 26.86 122.409 27.712 122.409 26.152C122.409 25.624 122.889 25.24 123.693 25.24C124.569 25.24 125.073 25.72 125.121 26.38H126.213C126.141 25.096 125.181 24.316 123.729 24.316C122.265 24.316 121.317 25.144 121.317 26.152C121.317 28.6 125.205 27.748 125.205 29.212C125.205 29.752 124.725 30.184 123.861 30.184C122.937 30.184 122.373 29.704 122.313 29.068H121.185C121.257 30.268 122.337 31.108 123.873 31.108C125.325 31.108 126.273 30.292 126.273 29.212ZM128.019 31H129.111V25.324H130.491V24.424H129.111V23.956C129.111 23.104 129.435 22.744 130.419 22.744V21.832C128.739 21.832 128.019 22.492 128.019 23.956V24.424H127.167V25.324H128.019V31ZM137.596 24.424H136.504V28.036C136.504 29.452 135.748 30.148 134.62 30.148C133.516 30.148 132.784 29.464 132.784 28.132V24.424H131.704V28.276C131.704 30.16 132.892 31.096 134.404 31.096C135.28 31.096 136.084 30.712 136.504 30.028V31H137.596V24.424ZM139.44 31H140.532V22.12H139.44V31Z" transform="translate(249 123)" fill="#0A0909"/>
<path d="M0.49 10.1C0.49 13.026 2.632 15.084 5.446 15.084C7.616 15.084 9.38 13.936 10.038 11.92H7.784C7.322 12.872 6.482 13.334 5.432 13.334C3.724 13.334 2.506 12.074 2.506 10.1C2.506 8.112 3.724 6.866 5.432 6.866C6.482 6.866 7.322 7.328 7.784 8.266H10.038C9.38 6.264 7.616 5.102 5.446 5.102C2.632 5.102 0.49 7.174 0.49 10.1ZM11.7121 15H13.6721V7.244H11.7121V15ZM12.7061 6.32C13.3921 6.32 13.9101 5.816 13.9101 5.172C13.9101 4.528 13.3921 4.024 12.7061 4.024C12.0061 4.024 11.5021 4.528 11.5021 5.172C11.5021 5.816 12.0061 6.32 12.7061 6.32ZM21.0406 15H23.0006V10.45C23.0006 8.308 21.7126 7.132 19.9066 7.132C18.9126 7.132 18.0726 7.552 17.5686 8.21V7.244H15.6086V15H17.5686V10.716C17.5686 9.47 18.2546 8.798 19.3186 8.798C20.3546 8.798 21.0406 9.47 21.0406 10.716V15ZM28.1964 8.728C29.2044 8.728 30.0164 9.372 30.0444 10.394H26.3624C26.5164 9.33 27.2584 8.728 28.1964 8.728ZM31.8784 12.564H29.7644C29.5124 13.082 29.0504 13.502 28.2104 13.502C27.2304 13.502 26.4464 12.858 26.3484 11.71H32.0184C32.0604 11.458 32.0744 11.206 32.0744 10.954C32.0744 8.644 30.4924 7.118 28.2524 7.118C25.9564 7.118 24.3604 8.672 24.3604 11.122C24.3604 13.558 25.9984 15.126 28.2524 15.126C30.1704 15.126 31.4584 13.992 31.8784 12.564ZM44.3551 15H46.3151V10.45C46.3151 8.308 44.9991 7.132 43.1371 7.132C42.0031 7.132 40.9811 7.734 40.4771 8.616C39.9451 7.65 38.9511 7.132 37.7471 7.132C36.7811 7.132 35.9551 7.538 35.4651 8.182V7.244H33.5051V15H35.4651V10.716C35.4651 9.484 36.1511 8.84 37.2151 8.84C38.2511 8.84 38.9371 9.484 38.9371 10.716V15H40.8971V10.716C40.8971 9.484 41.5831 8.84 42.6331 8.84C43.6691 8.84 44.3551 9.484 44.3551 10.716V15ZM47.671 11.094C47.671 13.516 49.239 15.126 51.199 15.126C52.431 15.126 53.313 14.538 53.775 13.866V15H55.749V7.244H53.775V8.35C53.313 7.706 52.459 7.118 51.213 7.118C49.239 7.118 47.671 8.672 47.671 11.094ZM53.775 11.122C53.775 12.592 52.795 13.404 51.717 13.404C50.667 13.404 49.673 12.564 49.673 11.094C49.673 9.624 50.667 8.84 51.717 8.84C52.795 8.84 53.775 9.652 53.775 11.122ZM66.1792 8.266C66.1792 9.148 65.6892 9.722 64.5972 9.722H62.9592V6.852H64.5972C65.6892 6.852 66.1792 7.398 66.1792 8.266ZM60.9992 5.228V15H62.9592V11.192H63.8832L66.0392 15H68.3072L65.9692 11.038C67.5372 10.618 68.1952 9.414 68.1952 8.224C68.1952 6.586 67.0192 5.228 64.6672 5.228H60.9992ZM73.3 8.728C74.308 8.728 75.12 9.372 75.148 10.394H71.466C71.62 9.33 72.362 8.728 73.3 8.728ZM76.982 12.564H74.868C74.616 13.082 74.154 13.502 73.314 13.502C72.334 13.502 71.55 12.858 71.452 11.71H77.122C77.164 11.458 77.178 11.206 77.178 10.954C77.178 8.644 75.596 7.118 73.356 7.118C71.06 7.118 69.464 8.672 69.464 11.122C69.464 13.558 71.102 15.126 73.356 15.126C75.274 15.126 76.562 13.992 76.982 12.564ZM78.6086 15H80.5686V4.64H78.6086V15ZM85.8371 8.728C86.8451 8.728 87.6571 9.372 87.6851 10.394H84.0031C84.1571 9.33 84.8991 8.728 85.8371 8.728ZM89.5191 12.564H87.4051C87.1531 13.082 86.6911 13.502 85.8511 13.502C84.8711 13.502 84.0871 12.858 83.9891 11.71H89.6591C89.7011 11.458 89.7151 11.206 89.7151 10.954C89.7151 8.644 88.1331 7.118 85.8931 7.118C83.5971 7.118 82.0011 8.672 82.0011 11.122C82.0011 13.558 83.6391 15.126 85.8931 15.126C87.8111 15.126 89.0991 13.992 89.5191 12.564ZM90.6417 11.094C90.6417 13.516 92.2097 15.126 94.1697 15.126C95.4017 15.126 96.2837 14.538 96.7457 13.866V15H98.7197V7.244H96.7457V8.35C96.2837 7.706 95.4297 7.118 94.1837 7.118C92.2097 7.118 90.6417 8.672 90.6417 11.094ZM96.7457 11.122C96.7457 12.592 95.7657 13.404 94.6877 13.404C93.6377 13.404 92.6437 12.564 92.6437 11.094C92.6437 9.624 93.6377 8.84 94.6877 8.84C95.7657 8.84 96.7457 9.652 96.7457 11.122ZM106.654 12.788C106.598 9.946 102.3 10.828 102.3 9.414C102.3 8.966 102.678 8.672 103.406 8.672C104.176 8.672 104.652 9.078 104.708 9.68H106.584C106.472 8.14 105.338 7.118 103.462 7.118C101.544 7.118 100.396 8.154 100.396 9.442C100.396 12.284 104.778 11.402 104.778 12.788C104.778 13.236 104.358 13.586 103.588 13.586C102.804 13.586 102.258 13.138 102.188 12.55H100.214C100.298 13.992 101.656 15.126 103.602 15.126C105.492 15.126 106.654 14.118 106.654 12.788ZM111.595 8.728C112.603 8.728 113.415 9.372 113.443 10.394H109.761C109.915 9.33 110.657 8.728 111.595 8.728ZM115.277 12.564H113.163C112.911 13.082 112.449 13.502 111.609 13.502C110.629 13.502 109.845 12.858 109.747 11.71H115.417C115.459 11.458 115.473 11.206 115.473 10.954C115.473 8.644 113.891 7.118 111.651 7.118C109.355 7.118 107.759 8.672 107.759 11.122C107.759 13.558 109.397 15.126 111.651 15.126C113.569 15.126 114.857 13.992 115.277 12.564Z" transform="translate(263 98)" fill="#FC2E2E"/>
<g filter="url(#filter2_d)">
<rect width="81" height="73" rx="12" transform="translate(279 9)" fill="url(#paint3_linear)"/>
</g>
<rect width="44" height="26" rx="2" transform="translate(298 31)" fill="white"/>
<rect width="6" height="4" rx="1" transform="translate(301 39) scale(1 -1)" fill="#FF2B11"/>
<rect width="6" height="4" rx="1" transform="translate(301 46) scale(1 -1)" fill="#FF2B11"/>
<rect width="6" height="4" rx="1" transform="translate(301 53) scale(1 -1)" fill="#FF2B11"/>
<rect width="6" height="4" rx="1" transform="translate(331 39) scale(1 -1)" fill="#FF2B11"/>
<rect width="6" height="4" rx="1" transform="translate(331 46) scale(1 -1)" fill="#FF2B11"/>
<rect width="6" height="4" rx="1" transform="translate(331 53) scale(1 -1)" fill="#FF2B11"/>
<path d="M4.11455 1.687C4.48914 0.973323 5.51086 0.973323 5.88545 1.687L8.56134 6.78526C8.91083 7.45113 8.4279 8.25 7.67589 8.25H2.32411C1.5721 8.25 1.08917 7.45113 1.43866 6.78526L4.11455 1.687Z" transform="translate(325 38) rotate(90)" fill="#FF2B11"/>
<g filter="url(#filter3_d)">
<rect width="81" height="73" rx="12" transform="translate(13 9)" fill="url(#paint4_linear)"/>
</g>
<path d="M0.966 15H2.926V10.87H6.048V9.316H2.926V6.81H7V5.228H0.966V15ZM8.38983 15H10.3498V7.244H8.38983V15ZM9.38383 6.32C10.0698 6.32 10.5878 5.816 10.5878 5.172C10.5878 4.528 10.0698 4.024 9.38383 4.024C8.68383 4.024 8.17983 4.528 8.17983 5.172C8.17983 5.816 8.68383 6.32 9.38383 6.32ZM12.2863 15H14.2463V4.64H12.2863V15ZM27.0328 15H28.9928V10.45C28.9928 8.308 27.6768 7.132 25.8148 7.132C24.6808 7.132 23.6588 7.734 23.1548 8.616C22.6228 7.65 21.6288 7.132 20.4248 7.132C19.4588 7.132 18.6328 7.538 18.1428 8.182V7.244H16.1828V15H18.1428V10.716C18.1428 9.484 18.8288 8.84 19.8928 8.84C20.9288 8.84 21.6148 9.484 21.6148 10.716V15H23.5748V10.716C23.5748 9.484 24.2608 8.84 25.3108 8.84C26.3468 8.84 27.0328 9.484 27.0328 10.716V15ZM36.1487 9.666V6.824H37.7027C38.8087 6.824 39.2987 7.356 39.2987 8.252C39.2987 9.12 38.8087 9.666 37.7027 9.666H36.1487ZM41.3147 8.252C41.3147 6.558 40.1387 5.228 37.7867 5.228H34.1887V15H36.1487V11.248H37.7867C40.3067 11.248 41.3147 9.736 41.3147 8.252ZM44.6662 11.136C44.6662 9.638 45.3662 9.19 46.5282 9.19H47.0462V7.132C45.9682 7.132 45.1562 7.65 44.6662 8.448V7.244H42.7062V15H44.6662V11.136ZM55.8564 11.122C55.8564 8.672 54.1064 7.118 51.8664 7.118C49.6264 7.118 47.8764 8.672 47.8764 11.122C47.8764 13.558 49.5704 15.126 51.8104 15.126C54.0644 15.126 55.8564 13.558 55.8564 11.122ZM49.8644 11.122C49.8644 9.568 50.8024 8.826 51.8384 8.826C52.8744 8.826 53.8404 9.568 53.8404 11.122C53.8404 12.662 52.8464 13.418 51.8104 13.418C50.7604 13.418 49.8644 12.662 49.8644 11.122ZM56.7901 11.094C56.7901 13.516 58.3581 15.126 60.3321 15.126C61.5501 15.126 62.4181 14.566 62.8801 13.852V15H64.8681V4.64H62.8801V8.322C62.3481 7.594 61.3681 7.118 60.3461 7.118C58.3581 7.118 56.7901 8.672 56.7901 11.094ZM62.8941 11.122C62.8941 12.592 61.9141 13.404 60.8361 13.404C59.7861 13.404 58.7921 12.564 58.7921 11.094C58.7921 9.624 59.7861 8.84 60.8361 8.84C61.9141 8.84 62.8941 9.652 62.8941 11.122ZM74.1044 7.244H72.1304V11.514C72.1304 12.76 71.4584 13.432 70.3944 13.432C69.3584 13.432 68.6724 12.76 68.6724 11.514V7.244H66.7124V11.794C66.7124 13.922 68.0144 15.098 69.8204 15.098C70.7864 15.098 71.6404 14.678 72.1304 14.02V15H74.1044V7.244ZM75.5343 11.122C75.5343 13.558 77.1303 15.126 79.3703 15.126C81.3023 15.126 82.6043 14.034 83.0243 12.382H80.9103C80.6723 13.082 80.1683 13.446 79.3563 13.446C78.2643 13.446 77.5363 12.634 77.5363 11.122C77.5363 9.61 78.2643 8.784 79.3563 8.784C80.1683 8.784 80.6863 9.204 80.9103 9.862H83.0243C82.6043 8.126 81.3023 7.118 79.3703 7.118C77.1303 7.118 75.5343 8.686 75.5343 11.122ZM87.7921 8.728C88.8001 8.728 89.6121 9.372 89.6401 10.394H85.9581C86.1121 9.33 86.8541 8.728 87.7921 8.728ZM91.4741 12.564H89.3601C89.1081 13.082 88.6461 13.502 87.8061 13.502C86.8261 13.502 86.0421 12.858 85.9441 11.71H91.6141C91.6561 11.458 91.6701 11.206 91.6701 10.954C91.6701 8.644 90.0881 7.118 87.8481 7.118C85.5521 7.118 83.9561 8.672 83.9561 11.122C83.9561 13.558 85.5941 15.126 87.8481 15.126C89.7661 15.126 91.0541 13.992 91.4741 12.564ZM95.0608 11.136C95.0608 9.638 95.7608 9.19 96.9228 9.19H97.4408V7.132C96.3628 7.132 95.5508 7.65 95.0608 8.448V7.244H93.1008V15H95.0608V11.136Z" transform="translate(6 98)" fill="#FC2E2E"/>
<path d="M2.184 8.189V6.876H1.001V17.38H2.184V12.687C2.626 13.415 3.549 14.117 4.849 14.117C6.76 14.117 8.229 12.622 8.229 10.412C8.229 8.189 6.76 6.759 4.849 6.759C3.549 6.759 2.613 7.435 2.184 8.189ZM7.02 10.412C7.02 12.089 5.915 13.077 4.602 13.077C3.315 13.077 2.184 12.102 2.184 10.425C2.184 8.774 3.315 7.786 4.602 7.786C5.915 7.786 7.02 8.735 7.02 10.412ZM10.9692 10.126C10.9692 8.475 11.8272 7.968 12.9582 7.968H13.2702V6.746C12.1392 6.746 11.3722 7.24 10.9692 8.033V6.876H9.78616V14H10.9692V10.126ZM21.3958 10.425C21.3958 8.176 19.8228 6.759 17.7948 6.759C15.7798 6.759 14.1938 8.176 14.1938 10.425C14.1938 12.687 15.7278 14.117 17.7428 14.117C19.7708 14.117 21.3958 12.687 21.3958 10.425ZM15.4028 10.425C15.4028 8.631 16.5338 7.786 17.7818 7.786C19.0038 7.786 20.1868 8.631 20.1868 10.425C20.1868 12.232 18.9778 13.077 17.7428 13.077C16.5078 13.077 15.4028 12.232 15.4028 10.425ZM22.5092 10.412C22.5092 12.622 23.9782 14.117 25.8892 14.117C27.1892 14.117 28.1122 13.454 28.5412 12.661V14H29.7372V4.38H28.5412V8.15C28.0472 7.331 27.0202 6.759 25.9022 6.759C23.9782 6.759 22.5092 8.189 22.5092 10.412ZM28.5412 10.425C28.5412 12.102 27.4232 13.077 26.1232 13.077C24.8232 13.077 23.7182 12.089 23.7182 10.412C23.7182 8.735 24.8232 7.786 26.1232 7.786C27.4232 7.786 28.5412 8.774 28.5412 10.425ZM38.0544 6.876H36.8714V10.789C36.8714 12.323 36.0524 13.077 34.8304 13.077C33.6344 13.077 32.8414 12.336 32.8414 10.893V6.876H31.6714V11.049C31.6714 13.09 32.9584 14.104 34.5964 14.104C35.5454 14.104 36.4164 13.688 36.8714 12.947V14H38.0544V6.876ZM39.6098 10.425C39.6098 12.687 41.0528 14.117 43.0808 14.117C44.8488 14.117 46.0058 13.129 46.3698 11.712H45.0958C44.8358 12.609 44.1338 13.116 43.0808 13.116C41.7808 13.116 40.8188 12.193 40.8188 10.425C40.8188 8.683 41.7808 7.76 43.0808 7.76C44.1338 7.76 44.8488 8.306 45.0958 9.164H46.3698C46.0058 7.669 44.8488 6.759 43.0808 6.759C41.0528 6.759 39.6098 8.189 39.6098 10.425ZM50.9773 7.76C52.1993 7.76 53.2393 8.527 53.2263 9.918H48.7283C48.8583 8.527 49.8203 7.76 50.9773 7.76ZM54.3053 11.803H53.0313C52.7713 12.57 52.0953 13.116 51.0293 13.116C49.8203 13.116 48.8063 12.323 48.7153 10.88H54.4093C54.4353 10.633 54.4483 10.425 54.4483 10.165C54.4483 8.215 53.0963 6.759 51.0293 6.759C48.9493 6.759 47.5063 8.176 47.5063 10.425C47.5063 12.687 49.0013 14.117 51.0293 14.117C52.7973 14.117 53.9413 13.103 54.3053 11.803ZM61.1318 12.063C61.0798 9.515 56.9458 10.438 56.9458 8.748C56.9458 8.176 57.4658 7.76 58.3368 7.76C59.2858 7.76 59.8318 8.28 59.8838 8.995H61.0668C60.9888 7.604 59.9488 6.759 58.3758 6.759C56.7898 6.759 55.7628 7.656 55.7628 8.748C55.7628 11.4 59.9748 10.477 59.9748 12.063C59.9748 12.648 59.4548 13.116 58.5188 13.116C57.5178 13.116 56.9068 12.596 56.8418 11.907H55.6198C55.6978 13.207 56.8678 14.117 58.5318 14.117C60.1048 14.117 61.1318 13.233 61.1318 12.063ZM65.8256 10.412C65.8256 12.622 67.2946 14.117 69.1926 14.117C70.5056 14.117 71.4286 13.441 71.8576 12.674V14H73.0536V6.876H71.8576V8.176C71.4416 7.435 70.5316 6.759 69.2056 6.759C67.2946 6.759 65.8256 8.189 65.8256 10.412ZM71.8576 10.425C71.8576 12.102 70.7396 13.077 69.4396 13.077C68.1396 13.077 67.0346 12.089 67.0346 10.412C67.0346 8.735 68.1396 7.786 69.4396 7.786C70.7396 7.786 71.8576 8.774 71.8576 10.425ZM78.7396 14H79.9226V7.851H81.4176V6.876H79.9226V6.369C79.9226 5.446 80.2736 5.056 81.3396 5.056V4.068C79.5196 4.068 78.7396 4.783 78.7396 6.369V6.876H77.8166V7.851H78.7396V14ZM82.7969 14H83.9799V6.876H82.7969V14ZM83.4079 5.719C83.8369 5.719 84.1879 5.368 84.1879 4.913C84.1879 4.458 83.8369 4.107 83.4079 4.107C82.9529 4.107 82.6019 4.458 82.6019 4.913C82.6019 5.368 82.9529 5.719 83.4079 5.719ZM85.9961 14H87.1791V4.38H85.9961V14ZM99.4783 14H100.648V9.801C100.648 7.76 99.3873 6.746 97.7623 6.746C96.6703 6.746 95.6563 7.305 95.2403 8.332C94.7723 7.266 93.7973 6.746 92.6273 6.746C91.6913 6.746 90.8463 7.149 90.3783 7.903V6.876H89.1953V14H90.3783V10.074C90.3783 8.54 91.1973 7.773 92.3933 7.773C93.5633 7.773 94.3433 8.514 94.3433 9.97V14H95.5133V10.074C95.5133 8.54 96.3323 7.773 97.5283 7.773C98.6983 7.773 99.4783 8.514 99.4783 9.97V14Z" transform="translate(4 124)" fill="#0A0909"/>
<path fill-rule="evenodd" clip-rule="evenodd" d="M11 21L20.8 13.1L11 5.2V21ZM4.1 0H31.8V6.6L39.4 2H41.7V24.5H39.4L31.9 19.8V26.4H19.7H17.9H14.8H12.8H4.1C1.8 26.4 0 24.6 0 22.3V4.3C0 2 1.8 0 4.1 0Z" transform="translate(36 32)" fill="white"/>
<path d="M2.926 9.666V6.824H4.48C5.586 6.824 6.076 7.356 6.076 8.252C6.076 9.12 5.586 9.666 4.48 9.666H2.926ZM8.092 8.252C8.092 6.558 6.916 5.228 4.564 5.228H0.966V15H2.926V11.248H4.564C7.084 11.248 8.092 9.736 8.092 8.252ZM9.48358 15H11.4436V7.244H9.48358V15ZM10.4776 6.32C11.1636 6.32 11.6816 5.816 11.6816 5.172C11.6816 4.528 11.1636 4.024 10.4776 4.024C9.77758 4.024 9.27358 4.528 9.27358 5.172C9.27358 5.816 9.77758 6.32 10.4776 6.32ZM15.3401 11.136C15.3401 9.638 16.0401 9.19 17.2021 9.19H17.7201V7.132C16.6421 7.132 15.8301 7.65 15.3401 8.448V7.244H13.3801V15H15.3401V11.136ZM18.5362 11.094C18.5362 13.516 20.1042 15.126 22.0642 15.126C23.2962 15.126 24.1782 14.538 24.6402 13.866V15H26.6142V7.244H24.6402V8.35C24.1782 7.706 23.3242 7.118 22.0782 7.118C20.1042 7.118 18.5362 8.672 18.5362 11.094ZM24.6402 11.122C24.6402 12.592 23.6602 13.404 22.5822 13.404C21.5322 13.404 20.5382 12.564 20.5382 11.094C20.5382 9.624 21.5322 8.84 22.5822 8.84C23.6602 8.84 24.6402 9.652 24.6402 11.122ZM28.8365 12.592C28.8365 14.37 29.8305 15 31.3145 15H32.5465V13.348H31.6365C31.0205 13.348 30.8105 13.124 30.8105 12.606V8.854H32.5465V7.244H30.8105V5.326H28.8365V7.244H27.9125V8.854H28.8365V12.592ZM37.2882 8.728C38.2962 8.728 39.1082 9.372 39.1362 10.394H35.4542C35.6082 9.33 36.3502 8.728 37.2882 8.728ZM40.9702 12.564H38.8562C38.6042 13.082 38.1422 13.502 37.3022 13.502C36.3222 13.502 35.5382 12.858 35.4402 11.71H41.1102C41.1522 11.458 41.1662 11.206 41.1662 10.954C41.1662 8.644 39.5842 7.118 37.3442 7.118C35.0482 7.118 33.4522 8.672 33.4522 11.122C33.4522 13.558 35.0902 15.126 37.3442 15.126C39.2622 15.126 40.5502 13.992 40.9702 12.564ZM45.4568 10.1C45.4568 13.026 47.5988 15.084 50.4128 15.084C52.5828 15.084 54.3468 13.936 55.0048 11.92H52.7508C52.2888 12.872 51.4488 13.334 50.3988 13.334C48.6908 13.334 47.4728 12.074 47.4728 10.1C47.4728 8.112 48.6908 6.866 50.3988 6.866C51.4488 6.866 52.2888 7.328 52.7508 8.266H55.0048C54.3468 6.264 52.5828 5.102 50.4128 5.102C47.5988 5.102 45.4568 7.174 45.4568 10.1ZM56.6789 15H58.6389V10.716C58.6389 9.47 59.3249 8.798 60.3889 8.798C61.4249 8.798 62.1109 9.47 62.1109 10.716V15H64.0709V10.45C64.0709 8.308 62.7969 7.132 61.0469 7.132C60.0109 7.132 59.1429 7.552 58.6389 8.21V4.64H56.6789V15ZM65.4307 11.094C65.4307 13.516 66.9987 15.126 68.9587 15.126C70.1907 15.126 71.0727 14.538 71.5348 13.866V15H73.5088V7.244H71.5348V8.35C71.0727 7.706 70.2188 7.118 68.9728 7.118C66.9987 7.118 65.4307 8.672 65.4307 11.094ZM71.5348 11.122C71.5348 12.592 70.5547 13.404 69.4767 13.404C68.4267 13.404 67.4327 12.564 67.4327 11.094C67.4327 9.624 68.4267 8.84 69.4767 8.84C70.5547 8.84 71.5348 9.652 71.5348 11.122ZM80.855 15H82.815V10.45C82.815 8.308 81.527 7.132 79.721 7.132C78.727 7.132 77.887 7.552 77.383 8.21V7.244H75.423V15H77.383V10.716C77.383 9.47 78.069 8.798 79.133 8.798C80.169 8.798 80.855 9.47 80.855 10.716V15ZM90.1109 15H92.0709V10.45C92.0709 8.308 90.7829 7.132 88.9769 7.132C87.9829 7.132 87.1429 7.552 86.6389 8.21V7.244H84.6789V15H86.6389V10.716C86.6389 9.47 87.3249 8.798 88.3889 8.798C89.4249 8.798 90.1109 9.47 90.1109 10.716V15ZM97.2668 8.728C98.2748 8.728 99.0868 9.372 99.1148 10.394H95.4327C95.5868 9.33 96.3287 8.728 97.2668 8.728ZM100.949 12.564H98.8347C98.5827 13.082 98.1208 13.502 97.2807 13.502C96.3008 13.502 95.5167 12.858 95.4187 11.71H101.089C101.131 11.458 101.145 11.206 101.145 10.954C101.145 8.644 99.5627 7.118 97.3227 7.118C95.0267 7.118 93.4307 8.672 93.4307 11.122C93.4307 13.558 95.0688 15.126 97.3227 15.126C99.2408 15.126 100.529 13.992 100.949 12.564ZM102.575 15H104.535V4.64H102.575V15ZM112.492 12.788C112.436 9.946 108.138 10.828 108.138 9.414C108.138 8.966 108.516 8.672 109.244 8.672C110.014 8.672 110.49 9.078 110.546 9.68H112.422C112.31 8.14 111.176 7.118 109.3 7.118C107.382 7.118 106.234 8.154 106.234 9.442C106.234 12.284 110.616 11.402 110.616 12.788C110.616 13.236 110.196 13.586 109.426 13.586C108.642 13.586 108.096 13.138 108.026 12.55H106.052C106.136 13.992 107.494 15.126 109.44 15.126C111.33 15.126 112.492 14.118 112.492 12.788Z" transform="translate(549 298)" fill="#FC2E2E"/>
<path d="M17.715 13H18.807V6.796L21.579 13H22.347L25.107 6.808V13H26.199V4.696H25.035L21.963 11.56L18.891 4.696H17.715V13ZM34.291 9.7C34.291 7.624 32.839 6.316 30.967 6.316C29.107 6.316 27.643 7.624 27.643 9.7C27.643 11.788 29.059 13.108 30.919 13.108C32.791 13.108 34.291 11.788 34.291 9.7ZM28.759 9.7C28.759 8.044 29.803 7.264 30.955 7.264C32.083 7.264 33.175 8.044 33.175 9.7C33.175 11.368 32.059 12.148 30.919 12.148C29.779 12.148 28.759 11.368 28.759 9.7ZM34.9467 6.424L37.5267 13H38.7987L41.3787 6.424H40.2147L38.1747 11.992L36.1227 6.424H34.9467ZM42.4533 13H43.5453V6.424H42.4533V13ZM43.0173 5.356C43.4133 5.356 43.7373 5.032 43.7373 4.612C43.7373 4.192 43.4133 3.868 43.0173 3.868C42.5973 3.868 42.2733 4.192 42.2733 4.612C42.2733 5.032 42.5973 5.356 43.0173 5.356ZM48.2024 7.24C49.3304 7.24 50.2904 7.948 50.2784 9.232H46.1264C46.2464 7.948 47.1344 7.24 48.2024 7.24ZM51.2744 10.972H50.0984C49.8584 11.68 49.2344 12.184 48.2504 12.184C47.1344 12.184 46.1984 11.452 46.1144 10.12H51.3704C51.3944 9.892 51.4064 9.7 51.4064 9.46C51.4064 7.66 50.1584 6.316 48.2504 6.316C46.3304 6.316 44.9984 7.624 44.9984 9.7C44.9984 11.788 46.3784 13.108 48.2504 13.108C49.8824 13.108 50.9384 12.172 51.2744 10.972ZM57.5758 11.212C57.5278 8.86 53.7118 9.712 53.7118 8.152C53.7118 7.624 54.1918 7.24 54.9958 7.24C55.8718 7.24 56.3758 7.72 56.4238 8.38H57.5158C57.4438 7.096 56.4838 6.316 55.0318 6.316C53.5678 6.316 52.6198 7.144 52.6198 8.152C52.6198 10.6 56.5078 9.748 56.5078 11.212C56.5078 11.752 56.0278 12.184 55.1638 12.184C54.2398 12.184 53.6758 11.704 53.6158 11.068H52.4878C52.5598 12.268 53.6398 13.108 55.1758 13.108C56.6278 13.108 57.5758 12.292 57.5758 11.212ZM61.9086 9.688C61.9086 11.728 63.2646 13.108 65.0286 13.108C66.2286 13.108 67.0806 12.472 67.4766 11.764V13.144C67.4766 14.548 66.6006 15.292 65.4366 15.292C64.3566 15.292 63.5766 14.752 63.3366 13.96H62.2566C62.4726 15.364 63.7086 16.24 65.4366 16.24C67.3686 16.24 68.5806 14.956 68.5806 13.144V6.424H67.4766V7.624C67.0926 6.916 66.2286 6.316 65.0286 6.316C63.2646 6.316 61.9086 7.636 61.9086 9.688ZM67.4766 9.7C67.4766 11.248 66.4446 12.148 65.2446 12.148C64.0446 12.148 63.0246 11.236 63.0246 9.688C63.0246 8.14 64.0446 7.264 65.2446 7.264C66.4446 7.264 67.4766 8.176 67.4766 9.7ZM73.222 7.24C74.35 7.24 75.31 7.948 75.298 9.232H71.146C71.266 7.948 72.154 7.24 73.222 7.24ZM76.294 10.972H75.118C74.878 11.68 74.254 12.184 73.27 12.184C72.154 12.184 71.218 11.452 71.134 10.12H76.39C76.414 9.892 76.426 9.7 76.426 9.46C76.426 7.66 75.178 6.316 73.27 6.316C71.35 6.316 70.018 7.624 70.018 9.7C70.018 11.788 71.398 13.108 73.27 13.108C74.902 13.108 75.958 12.172 76.294 10.972ZM78.1074 11.2C78.1074 12.52 78.7674 13 79.9314 13H80.9154V12.076H80.1114C79.4394 12.076 79.1994 11.848 79.1994 11.2V7.324H80.9154V6.424H79.1994V4.768H78.1074V6.424H77.2554V7.324H78.1074V11.2ZM88.2337 7.24C89.3617 7.24 90.3217 7.948 90.3097 9.232H86.1577C86.2777 7.948 87.1657 7.24 88.2337 7.24ZM91.3057 10.972H90.1297C89.8897 11.68 89.2657 12.184 88.2817 12.184C87.1657 12.184 86.2297 11.452 86.1457 10.12H91.4017C91.4257 9.892 91.4377 9.7 91.4377 9.46C91.4377 7.66 90.1897 6.316 88.2817 6.316C86.3617 6.316 85.0297 7.624 85.0297 9.7C85.0297 11.788 86.4097 13.108 88.2817 13.108C89.9137 13.108 90.9697 12.172 91.3057 10.972ZM96.3111 13H97.5471L95.4231 9.676L97.5351 6.424H96.3951L94.9071 8.86L93.3471 6.424H92.1111L94.2351 9.736L92.1111 13H93.2511L94.7511 10.552L96.3111 13ZM99.7133 7.636V6.424H98.6213V16.12H99.7133V11.788C100.121 12.46 100.973 13.108 102.173 13.108C103.937 13.108 105.293 11.728 105.293 9.688C105.293 7.636 103.937 6.316 102.173 6.316C100.973 6.316 100.109 6.94 99.7133 7.636ZM104.177 9.688C104.177 11.236 103.157 12.148 101.945 12.148C100.757 12.148 99.7133 11.248 99.7133 9.7C99.7133 8.176 100.757 7.264 101.945 7.264C103.157 7.264 104.177 8.14 104.177 9.688ZM112.971 9.7C112.971 7.624 111.519 6.316 109.647 6.316C107.787 6.316 106.323 7.624 106.323 9.7C106.323 11.788 107.739 13.108 109.599 13.108C111.471 13.108 112.971 11.788 112.971 9.7ZM107.439 9.7C107.439 8.044 108.483 7.264 109.635 7.264C110.763 7.264 111.855 8.044 111.855 9.7C111.855 11.368 110.739 12.148 109.599 12.148C108.459 12.148 107.439 11.368 107.439 9.7ZM119.134 11.212C119.086 8.86 115.27 9.712 115.27 8.152C115.27 7.624 115.75 7.24 116.554 7.24C117.43 7.24 117.934 7.72 117.982 8.38H119.074C119.002 7.096 118.042 6.316 116.59 6.316C115.126 6.316 114.178 7.144 114.178 8.152C114.178 10.6 118.066 9.748 118.066 11.212C118.066 11.752 117.586 12.184 116.722 12.184C115.798 12.184 115.234 11.704 115.174 11.068H114.046C114.118 12.268 115.198 13.108 116.734 13.108C118.186 13.108 119.134 12.292 119.134 11.212ZM123.472 7.24C124.6 7.24 125.56 7.948 125.548 9.232H121.396C121.516 7.948 122.404 7.24 123.472 7.24ZM126.544 10.972H125.368C125.128 11.68 124.504 12.184 123.52 12.184C122.404 12.184 121.468 11.452 121.384 10.12H126.64C126.664 9.892 126.676 9.7 126.676 9.46C126.676 7.66 125.428 6.316 123.52 6.316C121.6 6.316 120.268 7.624 120.268 9.7C120.268 11.788 121.648 13.108 123.52 13.108C125.152 13.108 126.208 12.172 126.544 10.972ZM127.709 9.688C127.709 11.728 129.065 13.108 130.829 13.108C132.029 13.108 132.881 12.496 133.277 11.764V13H134.381V4.12H133.277V7.6C132.821 6.844 131.873 6.316 130.841 6.316C129.065 6.316 127.709 7.636 127.709 9.688ZM133.277 9.7C133.277 11.248 132.245 12.148 131.045 12.148C129.845 12.148 128.825 11.236 128.825 9.688C128.825 8.14 129.845 7.264 131.045 7.264C132.245 7.264 133.277 8.176 133.277 9.7ZM139.666 11.2C139.666 12.52 140.326 13 141.49 13H142.474V12.076H141.67C140.998 12.076 140.758 11.848 140.758 11.2V7.324H142.474V6.424H140.758V4.768H139.666V6.424H138.814V7.324H139.666V11.2ZM150.037 9.7C150.037 7.624 148.585 6.316 146.713 6.316C144.853 6.316 143.389 7.624 143.389 9.7C143.389 11.788 144.805 13.108 146.665 13.108C148.537 13.108 150.037 11.788 150.037 9.7ZM144.505 9.7C144.505 8.044 145.549 7.264 146.701 7.264C147.829 7.264 148.921 8.044 148.921 9.7C148.921 11.368 147.805 12.148 146.665 12.148C145.525 12.148 144.505 11.368 144.505 9.7ZM155.764 7.636V6.424H154.672V16.12H155.764V11.788C156.172 12.46 157.024 13.108 158.224 13.108C159.988 13.108 161.344 11.728 161.344 9.688C161.344 7.636 159.988 6.316 158.224 6.316C157.024 6.316 156.16 6.94 155.764 7.636ZM160.228 9.688C160.228 11.236 159.208 12.148 157.996 12.148C156.808 12.148 155.764 11.248 155.764 9.7C155.764 8.176 156.808 7.264 157.996 7.264C159.208 7.264 160.228 8.14 160.228 9.688ZM162.781 13H163.873V6.424H162.781V13ZM163.345 5.356C163.741 5.356 164.065 5.032 164.065 4.612C164.065 4.192 163.741 3.868 163.345 3.868C162.925 3.868 162.601 4.192 162.601 4.612C162.601 5.032 162.925 5.356 163.345 5.356ZM166.827 9.424C166.827 7.9 167.619 7.432 168.663 7.432H168.951V6.304C167.907 6.304 167.199 6.76 166.827 7.492V6.424H165.735V13H166.827V9.424ZM169.803 9.688C169.803 11.728 171.159 13.108 172.911 13.108C174.123 13.108 174.975 12.484 175.371 11.776V13H176.475V6.424H175.371V7.624C174.987 6.94 174.147 6.316 172.923 6.316C171.159 6.316 169.803 7.636 169.803 9.688ZM175.371 9.7C175.371 11.248 174.339 12.148 173.139 12.148C171.939 12.148 170.919 11.236 170.919 9.688C170.919 8.14 171.939 7.264 173.139 7.264C174.339 7.264 175.371 8.176 175.371 9.7ZM178.56 11.2C178.56 12.52 179.22 13 180.384 13H181.368V12.076H180.564C179.892 12.076 179.652 11.848 179.652 11.2V7.324H181.368V6.424H179.652V4.768H178.56V6.424H177.708V7.324H178.56V11.2ZM185.488 7.24C186.616 7.24 187.576 7.948 187.564 9.232H183.412C183.532 7.948 184.42 7.24 185.488 7.24ZM188.56 10.972H187.384C187.144 11.68 186.52 12.184 185.536 12.184C184.42 12.184 183.484 11.452 183.4 10.12H188.656C188.68 9.892 188.692 9.7 188.692 9.46C188.692 7.66 187.444 6.316 185.536 6.316C183.616 6.316 182.284 7.624 182.284 9.7C182.284 11.788 183.664 13.108 185.536 13.108C187.168 13.108 188.224 12.172 188.56 10.972ZM19.4808 27.7C19.4808 29.788 20.8128 31.108 22.6848 31.108C24.3168 31.108 25.3848 30.196 25.7208 28.888H24.5448C24.3048 29.716 23.6568 30.184 22.6848 30.184C21.4848 30.184 20.5968 29.332 20.5968 27.7C20.5968 26.092 21.4848 25.24 22.6848 25.24C23.6568 25.24 24.3168 25.744 24.5448 26.536H25.7208C25.3848 25.156 24.3168 24.316 22.6848 24.316C20.8128 24.316 19.4808 25.636 19.4808 27.7ZM27.1779 31H28.2699V27.364C28.2699 25.948 29.0379 25.252 30.1539 25.252C31.2579 25.252 31.9899 25.936 31.9899 27.28V31H33.0699V27.124C33.0699 25.24 31.9059 24.304 30.4419 24.304C29.5179 24.304 28.7019 24.676 28.2699 25.372V22.12H27.1779V31ZM34.4457 27.688C34.4457 29.728 35.8017 31.108 37.5537 31.108C38.7657 31.108 39.6177 30.484 40.0137 29.776V31H41.1177V24.424H40.0137V25.624C39.6297 24.94 38.7897 24.316 37.5657 24.316C35.8017 24.316 34.4457 25.636 34.4457 27.688ZM40.0137 27.7C40.0137 29.248 38.9817 30.148 37.7817 30.148C36.5817 30.148 35.5617 29.236 35.5617 27.688C35.5617 26.14 36.5817 25.264 37.7817 25.264C38.9817 25.264 40.0137 26.176 40.0137 27.7ZM47.7751 31H48.8551V27.124C48.8551 25.24 47.6911 24.304 46.1671 24.304C45.2791 24.304 44.4871 24.676 44.0551 25.36V24.424H42.9631V31H44.0551V27.364C44.0551 25.948 44.8231 25.252 45.9391 25.252C47.0431 25.252 47.7751 25.936 47.7751 27.28V31ZM55.4508 31H56.5308V27.124C56.5308 25.24 55.3668 24.304 53.8428 24.304C52.9548 24.304 52.1628 24.676 51.7308 25.36V24.424H50.6388V31H51.7308V27.364C51.7308 25.948 52.4988 25.252 53.6148 25.252C54.7188 25.252 55.4508 25.936 55.4508 27.28V31ZM61.1106 25.24C62.2386 25.24 63.1986 25.948 63.1866 27.232H59.0346C59.1546 25.948 60.0426 25.24 61.1106 25.24ZM64.1826 28.972H63.0066C62.7666 29.68 62.1426 30.184 61.1586 30.184C60.0426 30.184 59.1066 29.452 59.0226 28.12H64.2786C64.3026 27.892 64.3146 27.7 64.3146 27.46C64.3146 25.66 63.0666 24.316 61.1586 24.316C59.2386 24.316 57.9066 25.624 57.9066 27.7C57.9066 29.788 59.2866 31.108 61.1586 31.108C62.7906 31.108 63.8466 30.172 64.1826 28.972ZM65.756 31H66.848V22.12H65.756V31ZM73.4372 29.212C73.3892 26.86 69.5732 27.712 69.5732 26.152C69.5732 25.624 70.0532 25.24 70.8572 25.24C71.7332 25.24 72.2372 25.72 72.2852 26.38H73.3772C73.3052 25.096 72.3452 24.316 70.8932 24.316C69.4292 24.316 68.4812 25.144 68.4812 26.152C68.4812 28.6 72.3692 27.748 72.3692 29.212C72.3692 29.752 71.8892 30.184 71.0252 30.184C70.1012 30.184 69.5372 29.704 69.4772 29.068H68.3492C68.4212 30.268 69.5012 31.108 71.0372 31.108C72.4892 31.108 73.4372 30.292 73.4372 29.212ZM77.7699 27.688C77.7699 29.728 79.1259 31.108 80.8779 31.108C82.0899 31.108 82.9419 30.484 83.3379 29.776V31H84.4419V24.424H83.3379V25.624C82.9539 24.94 82.1139 24.316 80.8899 24.316C79.1259 24.316 77.7699 25.636 77.7699 27.688ZM83.3379 27.7C83.3379 29.248 82.3059 30.148 81.1059 30.148C79.9059 30.148 78.8859 29.236 78.8859 27.688C78.8859 26.14 79.9059 25.264 81.1059 25.264C82.3059 25.264 83.3379 26.176 83.3379 27.7ZM91.0993 31H92.1793V27.124C92.1793 25.24 91.0153 24.304 89.4913 24.304C88.6033 24.304 87.8113 24.676 87.3793 25.36V24.424H86.2873V31H87.3793V27.364C87.3793 25.948 88.1473 25.252 89.2633 25.252C90.3673 25.252 91.0993 25.936 91.0993 27.28V31ZM93.5551 27.688C93.5551 29.728 94.9111 31.108 96.6751 31.108C97.8751 31.108 98.7271 30.496 99.1231 29.764V31H100.227V22.12H99.1231V25.6C98.6671 24.844 97.7191 24.316 96.6871 24.316C94.9111 24.316 93.5551 25.636 93.5551 27.688ZM99.1231 27.7C99.1231 29.248 98.0911 30.148 96.8911 30.148C95.6911 30.148 94.6711 29.236 94.6711 27.688C94.6711 26.14 95.6911 25.264 96.8911 25.264C98.0911 25.264 99.1231 26.176 99.1231 27.7ZM105.272 31H106.364V22.12H105.272V31ZM114.465 27.7C114.465 25.624 113.013 24.316 111.141 24.316C109.281 24.316 107.817 25.624 107.817 27.7C107.817 29.788 109.233 31.108 111.093 31.108C112.965 31.108 114.465 29.788 114.465 27.7ZM108.933 27.7C108.933 26.044 109.977 25.264 111.129 25.264C112.257 25.264 113.349 26.044 113.349 27.7C113.349 29.368 112.233 30.148 111.093 30.148C109.953 30.148 108.933 29.368 108.933 27.7ZM120.629 29.212C120.581 26.86 116.765 27.712 116.765 26.152C116.765 25.624 117.245 25.24 118.049 25.24C118.925 25.24 119.429 25.72 119.477 26.38H120.569C120.497 25.096 119.537 24.316 118.085 24.316C116.621 24.316 115.673 25.144 115.673 26.152C115.673 28.6 119.561 27.748 119.561 29.212C119.561 29.752 119.081 30.184 118.217 30.184C117.293 30.184 116.729 29.704 116.669 29.068H115.541C115.613 30.268 116.693 31.108 118.229 31.108C119.681 31.108 120.629 30.292 120.629 29.212ZM124.966 25.24C126.094 25.24 127.054 25.948 127.042 27.232H122.89C123.01 25.948 123.898 25.24 124.966 25.24ZM128.038 28.972H126.862C126.622 29.68 125.998 30.184 125.014 30.184C123.898 30.184 122.962 29.452 122.878 28.12H128.134C128.158 27.892 128.17 27.7 128.17 27.46C128.17 25.66 126.922 24.316 125.014 24.316C123.094 24.316 121.762 25.624 121.762 27.7C121.762 29.788 123.142 31.108 125.014 31.108C126.646 31.108 127.702 30.172 128.038 28.972ZM133.903 27.424C133.903 25.9 134.695 25.432 135.739 25.432H136.027V24.304C134.983 24.304 134.275 24.76 133.903 25.492V24.424H132.811V31H133.903V27.424ZM140.083 25.24C141.211 25.24 142.171 25.948 142.159 27.232H138.007C138.127 25.948 139.015 25.24 140.083 25.24ZM143.155 28.972H141.979C141.739 29.68 141.115 30.184 140.131 30.184C139.015 30.184 138.079 29.452 137.995 28.12H143.251C143.275 27.892 143.287 27.7 143.287 27.46C143.287 25.66 142.039 24.316 140.131 24.316C138.211 24.316 136.879 25.624 136.879 27.7C136.879 29.788 138.259 31.108 140.131 31.108C141.763 31.108 142.819 30.172 143.155 28.972ZM143.949 24.424L146.529 31H147.801L150.381 24.424H149.217L147.177 29.992L145.125 24.424H143.949ZM154.251 25.24C155.379 25.24 156.339 25.948 156.327 27.232H152.175C152.295 25.948 153.183 25.24 154.251 25.24ZM157.323 28.972H156.147C155.907 29.68 155.283 30.184 154.299 30.184C153.183 30.184 152.247 29.452 152.163 28.12H157.419C157.443 27.892 157.455 27.7 157.455 27.46C157.455 25.66 156.207 24.316 154.299 24.316C152.379 24.316 151.047 25.624 151.047 27.7C151.047 29.788 152.427 31.108 154.299 31.108C155.931 31.108 156.987 30.172 157.323 28.972ZM163.709 31H164.789V27.124C164.789 25.24 163.625 24.304 162.101 24.304C161.213 24.304 160.421 24.676 159.989 25.36V24.424H158.897V31H159.989V27.364C159.989 25.948 160.757 25.252 161.873 25.252C162.977 25.252 163.709 25.936 163.709 27.28V31ZM172.404 24.424H171.312V28.036C171.312 29.452 170.556 30.148 169.428 30.148C168.324 30.148 167.592 29.464 167.592 28.132V24.424H166.512V28.276C166.512 30.16 167.7 31.096 169.212 31.096C170.088 31.096 170.892 30.712 171.312 30.028V31H172.404V24.424ZM177.044 25.24C178.172 25.24 179.132 25.948 179.12 27.232H174.968C175.088 25.948 175.976 25.24 177.044 25.24ZM180.116 28.972H178.94C178.7 29.68 178.076 30.184 177.092 30.184C175.976 30.184 175.04 29.452 174.956 28.12H180.212C180.236 27.892 180.248 27.7 180.248 27.46C180.248 25.66 179 24.316 177.092 24.316C175.172 24.316 173.84 25.624 173.84 27.7C173.84 29.788 175.22 31.108 177.092 31.108C178.724 31.108 179.78 30.172 180.116 28.972ZM186.418 29.212C186.37 26.86 182.554 27.712 182.554 26.152C182.554 25.624 183.034 25.24 183.838 25.24C184.714 25.24 185.218 25.72 185.266 26.38H186.358C186.286 25.096 185.326 24.316 183.874 24.316C182.41 24.316 181.462 25.144 181.462 26.152C181.462 28.6 185.35 27.748 185.35 29.212C185.35 29.752 184.87 30.184 184.006 30.184C183.082 30.184 182.518 29.704 182.458 29.068H181.33C181.402 30.268 182.482 31.108 184.018 31.108C185.47 31.108 186.418 30.292 186.418 29.212Z" transform="translate(503 327)" fill="#0A0909"/>
<path d="M0 9.77888C0 4.37815 4.37815 0 9.77888 0C15.1796 0 19.5578 4.37815 19.5578 9.77888V14.216C19.5578 14.7199 19.3904 15.2095 19.082 15.608L16.2186 19.3083C15.461 20.2872 14.293 20.8602 13.0552 20.8602H6.76286C5.57579 20.8602 4.45004 20.333 3.69006 19.4211L0.52562 15.624C0.185995 15.2165 0 14.7028 0 14.1723V9.77888Z" transform="translate(594.827 228)" fill="white"/>
<path d="M0 1.04774C0 0.469088 0.469088 0 1.04774 0C1.62639 0 2.09547 0.469088 2.09547 1.04774V2.13951C2.09547 2.494 1.80811 2.78137 1.45362 2.78137H0.641854C0.287368 2.78137 0 2.494 0 2.13951V1.04774Z" transform="translate(599.717 247.47)" fill="white"/>
<path d="M0 1.04774C0 0.469088 0.469088 0 1.04774 0C1.62639 0 2.09547 0.469088 2.09547 1.04774V2.13951C2.09547 2.494 1.80811 2.78137 1.45362 2.78137H0.641854C0.287368 2.78137 0 2.494 0 2.13951V1.04774Z" transform="translate(608.099 247.47)" fill="white"/>
<path d="M0 1.04774C0 0.469088 0.469088 0 1.04774 0C1.62639 0 2.09547 0.469088 2.09547 1.04774V2.13951C2.09547 2.494 1.80811 2.78137 1.45362 2.78137H0.641854C0.287368 2.78137 0 2.494 0 2.13951V1.04774Z" transform="translate(605.305 247.47)" fill="white"/>
<path d="M0 1.04774C0 0.469088 0.469088 0 1.04774 0C1.62639 0 2.09547 0.469088 2.09547 1.04774V2.13951C2.09547 2.494 1.80811 2.78137 1.45362 2.78137H0.641854C0.287368 2.78137 0 2.494 0 2.13951V1.04774Z" transform="translate(602.511 247.47)" fill="white"/>
<ellipse cx="2.44472" cy="2.78137" rx="2.44472" ry="2.78137" transform="translate(606.702 234.953)" fill="#FF3719"/>
<ellipse cx="2.44472" cy="2.78137" rx="2.44472" ry="2.78137" transform="translate(598.319 234.953)" fill="#FF3719"/>
<path d="M1.96044 1.25755C2.35594 0.660855 3.23199 0.660855 3.62749 1.25755L4.1846 2.09807C4.6252 2.76279 4.14856 3.65054 3.35107 3.65054H2.23686C1.43937 3.65054 0.962737 2.76279 1.40333 2.09807L1.96044 1.25755Z" transform="translate(601.812 241.211)" fill="#FF3719"/>
<path d="M0 1.39068C0 0.62263 0.62263 0 1.39068 0H8.3882C9.15625 0 9.77888 0.62263 9.77888 1.39068C9.77888 1.77471 9.46757 2.08602 9.08354 2.08602H0.695341C0.311315 2.08602 0 1.77471 0 1.39068Z" transform="translate(600.415 250.946)" fill="white"/>
<path d="M0 1.04774C0 0.469088 0.469088 0 1.04774 0C1.62639 0 2.09547 0.469088 2.09547 1.04774V1.60463C2.09547 1.8705 1.87995 2.08602 1.61408 2.08602H0.48139C0.215526 2.08602 0 1.8705 0 1.60463V1.04774Z" transform="translate(601.113 252.337) scale(1 -1)" fill="white"/>
<path d="M0 1.04774C0 0.469088 0.469088 0 1.04774 0C1.62639 0 2.09547 0.469088 2.09547 1.04774V1.60463C2.09547 1.8705 1.87995 2.08602 1.61408 2.08602H0.48139C0.215526 2.08602 0 1.8705 0 1.60463V1.04774Z" transform="translate(606.702 252.337) scale(1 -1)" fill="white"/>
<path d="M0 1.04774C0 0.469088 0.469088 0 1.04774 0C1.62639 0 2.09547 0.469088 2.09547 1.04774V1.60463C2.09547 1.8705 1.87995 2.08602 1.61408 2.08602H0.48139C0.215526 2.08602 0 1.8705 0 1.60463V1.04774Z" transform="translate(603.907 252.337) scale(1 -1)" fill="white"/>
<path d="M1.79956 3.08415C1.7972 2.39694 2.26665 1.83758 2.84811 1.83479L25.4127 1.72646C25.9941 1.72366 26.4674 2.2785 26.4698 2.96571C26.4721 3.65292 26.0027 4.21228 25.4212 4.21507L2.85666 4.32341C2.2752 4.3262 1.80193 3.77136 1.79956 3.08415Z" transform="matrix(0.933776 0.357858 -0.373787 0.927514 594.012 251.408)" fill="white"/>
<path d="M27.8312 1.49515C27.8312 2.3209 27.2648 2.9903 26.5661 2.9903C25.8674 2.9903 25.3011 2.3209 25.3011 1.49515C25.3011 0.669401 25.8674 0 26.5661 0C27.2648 0 27.8312 0.669401 27.8312 1.49515Z" transform="matrix(0.933776 0.357858 -0.373787 0.927514 594.012 251.408)" fill="white"/>
<path d="M27.8312 3.88738C27.8312 4.71313 27.2648 5.38253 26.5661 5.38253C25.8674 5.38253 25.3011 4.71313 25.3011 3.88738C25.3011 3.06164 25.8674 2.39224 26.5661 2.39224C27.2648 2.39224 27.8312 3.06164 27.8312 3.88738Z" transform="matrix(0.933776 0.357858 -0.373787 0.927514 594.012 251.408)" fill="white"/>
<path d="M2.53011 1.49515C2.53011 2.3209 1.96372 2.9903 1.26505 2.9903C0.566384 2.9903 0 2.3209 0 1.49515C0 0.669401 0.566384 0 1.26505 0C1.96372 0 2.53011 0.669401 2.53011 1.49515Z" transform="matrix(0.933776 0.357858 -0.373787 0.927514 594.012 251.408)" fill="white"/>
<path d="M2.53011 3.88738C2.53011 4.71313 1.96372 5.38253 1.26505 5.38253C0.566384 5.38253 0 4.71313 0 3.88738C0 3.06164 0.566384 2.39224 1.26505 2.39224C1.96372 2.39224 2.53011 3.06164 2.53011 3.88738Z" transform="matrix(0.933776 0.357858 -0.373787 0.927514 594.012 251.408)" fill="white"/>
<path d="M1.79778 3.08732C1.79542 2.3994 2.2644 1.83947 2.84528 1.83667L25.3875 1.72823C25.9683 1.72544 26.4412 2.28084 26.4435 2.96876C26.4459 3.65668 25.9769 4.21661 25.396 4.21941L2.85383 4.32785C2.27295 4.33064 1.80014 3.77524 1.79778 3.08732Z" transform="matrix(-0.912782 0.408447 0.425768 0.904833 617.542 250.768)" fill="white"/>
<path d="M27.8036 1.49668C27.8036 2.32328 27.2378 2.99337 26.5398 2.99337C25.8418 2.99337 25.276 2.32328 25.276 1.49668C25.276 0.670088 25.8418 0 26.5398 0C27.2378 0 27.8036 0.670088 27.8036 1.49668Z" transform="matrix(-0.912782 0.408447 0.425768 0.904833 617.542 250.768)" fill="white"/>
<path d="M27.8036 3.89138C27.8036 4.71798 27.2378 5.38806 26.5398 5.38806C25.8418 5.38806 25.276 4.71798 25.276 3.89138C25.276 3.06478 25.8418 2.3947 26.5398 2.3947C27.2378 2.3947 27.8036 3.06478 27.8036 3.89138Z" transform="matrix(-0.912782 0.408447 0.425768 0.904833 617.542 250.768)" fill="white"/>
<path d="M2.5276 1.49668C2.5276 2.32328 1.96178 2.99337 1.2638 2.99337C0.565822 2.99337 0 2.32328 0 1.49668C0 0.670088 0.565822 0 1.2638 0C1.96178 0 2.5276 0.670088 2.5276 1.49668Z" transform="matrix(-0.912782 0.408447 0.425768 0.904833 617.542 250.768)" fill="white"/>
<path d="M2.5276 3.89138C2.5276 4.71798 1.96178 5.38806 1.2638 5.38806C0.565822 5.38806 0 4.71798 0 3.89138C0 3.06478 0.565822 2.3947 1.2638 2.3947C1.96178 2.3947 2.5276 3.06478 2.5276 3.89138Z" transform="matrix(-0.912782 0.408447 0.425768 0.904833 617.542 250.768)" fill="white"/>
<path d="M0 93.5L5.7735 83.5H-5.7735L0 93.5ZM1 85.7083V80.5139H-1V85.7083H1ZM1 75.3194V70.125H-1V75.3194H1ZM1 64.9306V59.7361H-1V64.9306H1ZM1 54.5417V49.3472H-1V54.5417H1ZM1 44.1528V38.9583H-1V44.1528H1ZM1 33.7639V28.5694H-1V33.7639H1ZM1 23.375V18.1806H-1V23.375H1ZM1 12.9861V7.79166H-1V12.9861H1ZM1 2.59722V0L-1 0V2.59722H1Z" transform="translate(120 52) rotate(-90)" fill="#FF5959"/>
<path d="M0 93.5L5.7735 83.5H-5.7735L0 93.5ZM1 85.7083V80.5139H-1V85.7083H1ZM1 75.3194V70.125H-1V75.3194H1ZM1 64.9306V59.7361H-1V64.9306H1ZM1 54.5417V49.3472H-1V54.5417H1ZM1 44.1528V38.9583H-1V44.1528H1ZM1 33.7639V28.5694H-1V33.7639H1ZM1 23.375V18.1806H-1V23.375H1ZM1 12.9861V7.79166H-1V12.9861H1ZM1 2.59722V0L-1 0V2.59722H1Z" transform="translate(406 52) rotate(-90)" fill="#FF5959"/>
<path d="M0 93.5L5.7735 83.5H-5.7735L0 93.5ZM1 85.7083V80.5139H-1V85.7083H1ZM1 75.3194V70.125H-1V75.3194H1ZM1 64.9306V59.7361H-1V64.9306H1ZM1 54.5417V49.3472H-1V54.5417H1ZM1 44.1528V38.9583H-1V44.1528H1ZM1 33.7639V28.5694H-1V33.7639H1ZM1 23.375V18.1806H-1V23.375H1ZM1 12.9861V7.79166H-1V12.9861H1ZM1 2.59722V0L-1 0V2.59722H1Z" transform="translate(692 52) rotate(-90)" fill="#FF5959"/>
<path d="M0 157L5.7735 147H-5.7735L0 157ZM1 149.7V144.833H-1V149.7H1ZM1 139.967V135.1H-1V139.967H1ZM1 130.233V125.367H-1V130.233H1ZM1 120.5V115.633H-1V120.5H1ZM1 110.767V105.9H-1V110.767H1ZM1 101.033V96.1667H-1V101.033H1ZM1 91.3V86.4333H-1V91.3H1ZM1 81.5667V76.7H-1V81.5667H1ZM1 71.8333V66.9667H-1V71.8333H1ZM1 62.1V57.2333H-1V62.1H1ZM1 52.3667V47.5H-1V52.3667H1ZM1 42.6333V37.7667H-1V42.6333H1ZM1 32.9V28.0333H-1V32.9H1ZM1 23.1667V18.3H-1V23.1667H1ZM1 13.4333V11H-1V13.4333H1ZM1 11C1 10.3309 1.06558 9.67804 1.19036 9.04729L-0.771613 8.65915C-0.921548 9.41704 -1 10.1999 -1 11H1ZM2.68375 5.44455C3.41412 4.3536 4.3536 3.41412 5.44455 2.68375L4.33191 1.02181C3.02372 1.89762 1.89762 3.02372 1.02181 4.33191L2.68375 5.44455ZM9.04729 1.19036C9.67804 1.06558 10.3309 1 11 1V-1C10.1999 -1 9.41704 -0.921548 8.65915 -0.771613L9.04729 1.19036ZM11 1H13.4643V-1H11V1ZM18.3929 1H23.3214V-1H18.3929V1ZM28.25 1H33.1786V-1H28.25V1ZM38.1071 1H43.0357V-1H38.1071V1ZM47.9643 1H52.8929V-1H47.9643V1ZM57.8214 1H62.75V-1H57.8214V1ZM67.6786 1H72.6071V-1H67.6786V1ZM77.5357 1H80V-1H77.5357V1Z" transform="translate(325 273) rotate(-90)" fill="#FF5959"/>
<path d="M0 157L5.7735 147H-5.7735L0 157ZM1 149.7V144.833H-1V149.7H1ZM1 139.967V135.1H-1V139.967H1ZM1 130.233V125.367H-1V130.233H1ZM1 120.5V115.633H-1V120.5H1ZM1 110.767V105.9H-1V110.767H1ZM1 101.033V96.1667H-1V101.033H1ZM1 91.3V86.4333H-1V91.3H1ZM1 81.5667V76.7H-1V81.5667H1ZM1 71.8333V66.9667H-1V71.8333H1ZM1 62.1V57.2333H-1V62.1H1ZM1 52.3667V47.5H-1V52.3667H1ZM1 42.6333V37.7667H-1V42.6333H1ZM1 32.9V28.0333H-1V32.9H1ZM1 23.1667V18.3H-1V23.1667H1ZM1 13.4333V11H-1V13.4333H1ZM1 11C1 10.3309 1.06558 9.67804 1.19036 9.04729L-0.771613 8.65915C-0.921548 9.41704 -1 10.1999 -1 11H1ZM2.68375 5.44455C3.41412 4.3536 4.3536 3.41412 5.44455 2.68375L4.33191 1.02181C3.02372 1.89762 1.89762 3.02372 1.02181 4.33191L2.68375 5.44455ZM9.04729 1.19036C9.67804 1.06558 10.3309 1 11 1V-1C10.1999 -1 9.41704 -0.921548 8.65915 -0.771613L9.04729 1.19036ZM11 1H13.4643V-1H11V1ZM18.3929 1H23.3214V-1H18.3929V1ZM28.25 1H33.1786V-1H28.25V1ZM38.1071 1H43.0357V-1H38.1071V1ZM47.9643 1H52.8929V-1H47.9643V1ZM57.8214 1H62.75V-1H57.8214V1ZM67.6786 1H72.6071V-1H67.6786V1ZM77.5357 1H80V-1H77.5357V1Z" transform="translate(868 273) scale(-1 1) rotate(-90)" fill="#FF5959"/>
<defs>
<filter id="filter0_d" x="818" y="0" width="107" height="99" filterUnits="userSpaceOnUse" color-interpolation-filters="sRGB">
<feFlood flood-opacity="0" result="BackgroundImageFix"/>
<feColorMatrix in="SourceAlpha" type="matrix" values="0 0 0 0 0 0 0 0 0 0 0 0 0 0 0 0 0 0 255 0"/>
<feOffset dy="4"/>
<feGaussianBlur stdDeviation="6.5"/>
<feColorMatrix type="matrix" values="0 0 0 0 0 0 0 0 0 0 0 0 0 0 0 0 0 0 0.19 0"/>
<feBlend mode="normal" in2="BackgroundImageFix" result="effect1_dropShadow"/>
<feBlend mode="normal" in="SourceGraphic" in2="effect1_dropShadow" result="shape"/>
</filter>
<filter id="filter1_d" x="553" y="0" width="107" height="99" filterUnits="userSpaceOnUse" color-interpolation-filters="sRGB">
<feFlood flood-opacity="0" result="BackgroundImageFix"/>
<feColorMatrix in="SourceAlpha" type="matrix" values="0 0 0 0 0 0 0 0 0 0 0 0 0 0 0 0 0 0 255 0"/>
<feOffset dy="4"/>
<feGaussianBlur stdDeviation="6.5"/>
<feColorMatrix type="matrix" values="0 0 0 0 0 0 0 0 0 0 0 0 0 0 0 0 0 0 0.19 0"/>
<feBlend mode="normal" in2="BackgroundImageFix" result="effect1_dropShadow"/>
<feBlend mode="normal" in="SourceGraphic" in2="effect1_dropShadow" result="shape"/>
</filter>
<filter id="filter2_d" x="266" y="0" width="107" height="99" filterUnits="userSpaceOnUse" color-interpolation-filters="sRGB">
<feFlood flood-opacity="0" result="BackgroundImageFix"/>
<feColorMatrix in="SourceAlpha" type="matrix" values="0 0 0 0 0 0 0 0 0 0 0 0 0 0 0 0 0 0 255 0"/>
<feOffset dy="4"/>
<feGaussianBlur stdDeviation="6.5"/>
<feColorMatrix type="matrix" values="0 0 0 0 0 0 0 0 0 0 0 0 0 0 0 0 0 0 0.19 0"/>
<feBlend mode="normal" in2="BackgroundImageFix" result="effect1_dropShadow"/>
<feBlend mode="normal" in="SourceGraphic" in2="effect1_dropShadow" result="shape"/>
</filter>
<filter id="filter3_d" x="0" y="0" width="107" height="99" filterUnits="userSpaceOnUse" color-interpolation-filters="sRGB">
<feFlood flood-opacity="0" result="BackgroundImageFix"/>
<feColorMatrix in="SourceAlpha" type="matrix" values="0 0 0 0 0 0 0 0 0 0 0 0 0 0 0 0 0 0 255 0"/>
<feOffset dy="4"/>
<feGaussianBlur stdDeviation="6.5"/>
<feColorMatrix type="matrix" values="0 0 0 0 0 0 0 0 0 0 0 0 0 0 0 0 0 0 0.19 0"/>
<feBlend mode="normal" in2="BackgroundImageFix" result="effect1_dropShadow"/>
<feBlend mode="normal" in="SourceGraphic" in2="effect1_dropShadow" result="shape"/>
</filter>
<linearGradient id="paint0_linear" x2="1" gradientUnits="userSpaceOnUse" gradientTransform="matrix(69.1099 63.8692 -70.8686 954.375 44.3124 -477.188)">
<stop stop-color="#FF0E00"/>
<stop offset="1" stop-color="#FF6535"/>
</linearGradient>
<linearGradient id="paint1_linear" x2="1" gradientUnits="userSpaceOnUse" gradientTransform="matrix(69.1099 63.8692 -70.8686 954.375 44.3124 -477.188)">
<stop stop-color="#FF0E00"/>
<stop offset="1" stop-color="#FF6535"/>
</linearGradient>
<linearGradient id="paint2_linear" x2="1" gradientUnits="userSpaceOnUse" gradientTransform="matrix(69.1099 63.8692 -70.8686 954.375 44.3124 -477.188)">
<stop stop-color="#FF0E00"/>
<stop offset="1" stop-color="#FF6535"/>
</linearGradient>
<linearGradient id="paint3_linear" x2="1" gradientUnits="userSpaceOnUse" gradientTransform="matrix(69.1099 63.8692 -70.8686 954.375 44.3124 -477.188)">
<stop stop-color="#FF0E00"/>
<stop offset="1" stop-color="#FF6535"/>
</linearGradient>
<linearGradient id="paint4_linear" x2="1" gradientUnits="userSpaceOnUse" gradientTransform="matrix(69.1099 63.8692 -70.8686 954.375 44.3124 -477.188)">
<stop stop-color="#FF0E00"/>
<stop offset="1" stop-color="#FF6535"/>
</linearGradient>
</defs>
</svg>
