<svg width="826" height="773" viewBox="0 0 826 773" fill="none" xmlns="http://www.w3.org/2000/svg">
<mask id="mask0" mask-type="alpha" maskUnits="userSpaceOnUse" x="365" y="65" width="488" height="518">
<path d="M4 0L470.617 67.8979C480.773 69.3757 488.162 78.3008 487.719 88.5541L483.114 194.958C482.396 211.554 473.483 226.71 459.328 235.403L0 517.5L4 0Z" transform="translate(852.966 65.5) scale(-1 1)" fill="url(#paint0_linear)"/>
<path d="M-nan -nanC-nan -nan -nan -nan -nan -nanL-nan -nanC-nan -nan -nan -nan -nan -nanL-nan -nanC-nan -nan -nan -nan -nan -nanL-nan -nanC-nan -nan -nan -nan -nan -nanL-nan -nanZ" transform="translate(852.966 65.5) scale(-1 1)" fill="url(#paint1_linear)"/>
<path d="M-nan -nanC-nan -nan -nan -nan -nan -nanL-nan -nanC-nan -nan -nan -nan -nan -nanL-nan -nanC-nan -nan -nan -nan -nan -nanL-nan -nanC-nan -nan -nan -nan -nan -nanL-nan -nanZ" transform="translate(852.966 65.5) scale(-1 1)" fill="url(#paint2_linear)"/>
</mask>
<g mask="url(#mask0)">
<path d="M3.50195 0L1306 0.5L1309.5 861.5H0V197L3.50195 0Z" transform="translate(1158.5 57) scale(-1 1)" fill="url(#paint3_linear)"/>
<path d="M-nan -nanC-nan -nan -nan -nan -nan -nanL-nan -nanC-nan -nan -nan -nan -nan -nanL-nan -nanC-nan -nan -nan -nan -nan -nanL-nan -nanC-nan -nan -nan -nan -nan -nanL-nan -nanZ" transform="translate(1158.5 57) scale(-1 1)" fill="url(#paint4_linear)"/>
</g>
<path d="M0 0L82 51" transform="translate(500 264.5)" stroke="#FFC960"/>
<path d="M25.2396 0L49.1681 12.9099L24.2563 26.7881L0 11.6189L25.2396 0Z" transform="translate(445 398)" fill="#FFDE78" fill-opacity="0.39"/>
<path d="M0 11.6189L24.2563 26.4654V56.8037L0 41.9573V11.6189Z" transform="translate(445 398)" fill="#FFDE78" fill-opacity="0.39"/>
<path d="M49.1681 12.9099L24.2563 26.4654V56.8037L49.1681 42.6028V12.9099Z" transform="translate(445 398)" fill="#FFDE78" fill-opacity="0.39"/>
<path d="M15.9073 0L30.9883 8.11482L15.2876 16.8382L0 7.30333L15.9073 0Z" transform="translate(454.09 409.361)" fill="url(#paint5_linear)"/>
<path d="M0 0L15.2876 9.33204V28.4019L0 19.0698V0Z" transform="translate(454.09 416.664)" fill="url(#paint6_linear)"/>
<path d="M0 0L15.7007 8.52056V27.5904L0 18.6641V0Z" transform="translate(485.078 417.476) scale(-1 1)" fill="url(#paint7_linear)"/>
<path d="M37.3798 1.20519C39.0657 0.444668 41.008 0.504102 42.6442 1.36627L64.7307 13.0045C68.9143 15.209 69.0221 21.1615 64.921 23.5161L39.1357 38.32C37.2352 39.4111 34.891 39.3793 33.0208 38.237L9.69171 23.9877C5.57724 21.4746 5.95717 15.3807 10.3519 13.3981L37.3798 1.20519Z" transform="translate(446.466 242.44) rotate(-1.2307)" fill="black" fill-opacity="0.14"/>
<path d="M30.7517 0L59.9059 15.9713L29.5536 33.1405L0 14.3742L30.7517 0Z" transform="translate(452.328 235.492) rotate(-1.2307)" fill="#FFC045"/>
<path d="M0 0L29.5536 18.367L30.2209 24.838L0.667297 6.47103L0 0Z" transform="translate(452.638 249.863) rotate(-1.2307)" fill="url(#paint8_linear)"/>
<path d="M0.667297 0L31.0196 16.7699L30.3523 23.2409L0 5.67246L0.667297 0Z" transform="translate(513.231 250.159) scale(-1 1) rotate(1.2307)" fill="url(#paint9_linear)"/>
<path d="M14.726 0.326286C15.0369 0.125518 15.4332 0.112831 15.7563 0.293308L30.4091 8.47899C31.0791 8.85332 31.0951 9.81177 30.4379 10.2083L17.383 18.084C17.0884 18.2618 16.7231 18.2756 16.416 18.1206L1.55788 10.6232C0.868067 10.2752 0.816777 9.30962 1.46584 8.89042L14.726 0.326286Z" transform="translate(467.51 258.821) scale(1 -1) rotate(1.2307)" fill="#FDFDFD"/>
<path d="M0 0H144.278L85.3626 78.8385L59.211 77.4307L0 0Z" transform="translate(408.03 173.505) rotate(-1.2307)" fill="url(#paint10_linear)" fill-opacity="0.4"/>
<path d="M0 0H52.8649L37.3922 78.8385H15.4726L0 0Z" transform="translate(454.796 171.093) rotate(-1.2307)" fill="url(#paint11_linear)" fill-opacity="0.61"/>
<path d="M0.2087 0L0 9.69771" transform="translate(477.417 224.088) rotate(-1.2307)" stroke="url(#paint12_linear)" stroke-opacity="0.79" stroke-width="5" stroke-linecap="round"/>
<path d="M0.494188 0L0 22.9974" transform="translate(488.217 210.792) rotate(-1.2307)" stroke="url(#paint13_linear)" stroke-opacity="0.79" stroke-width="5" stroke-linecap="round"/>
<rect width="3.13551" height="3.13551" rx="1" transform="translate(488.71 208.009) rotate(45)" fill="#FFEAE9"/>
<rect width="3.13551" height="3.13551" rx="1" transform="translate(505.339 217.987) rotate(45)" fill="#FFC045"/>
<rect width="3.13551" height="3.13551" rx="1" transform="translate(456.008 208.009) rotate(45)" fill="#FFC045"/>
<rect width="3.13551" height="3.13551" rx="1" transform="translate(460.441 226.855) rotate(45)" fill="#FDFCF9"/>
<rect width="3.13551" height="3.13551" rx="1" transform="translate(477.625 221.312) rotate(45)" fill="#FFEAE9"/>
<path d="M0 175L380.502 0H582.765C667.569 0 694.09 114.618 617.906 151.869L0 454V175Z" transform="translate(928.502 319) scale(-1 1)" fill="url(#paint14_linear)" fill-opacity="0.78"/>
<path d="M-nan -nanC-nan -nan -nan -nan -nan -nanL-nan -nanC-nan -nan -nan -nan -nan -nanL-nan -nanC-nan -nan -nan -nan -nan -nanL-nan -nanC-nan -nan -nan -nan -nan -nanL-nan -nanZ" transform="translate(928.502 319) scale(-1 1)" fill="url(#paint15_linear)" fill-opacity="0.78"/>
<path d="M0 62L588.5 0L0 324V62Z" transform="translate(927 257.5) scale(-1 1)" fill="url(#paint16_linear)" fill-opacity="0.78"/>
<path d="M-nan -nanC-nan -nan -nan -nan -nan -nanL-nan -nanC-nan -nan -nan -nan -nan -nanL-nan -nanC-nan -nan -nan -nan -nan -nanL-nan -nanC-nan -nan -nan -nan -nan -nanL-nan -nanZ" transform="translate(927 257.5) scale(-1 1)" fill="url(#paint17_linear)" fill-opacity="0.78"/>
<path d="M1.5 175L382.002 0H556.461C642.702 0 667.901 117.663 589.225 152.983L0 417.5L1.5 175Z" transform="translate(217 58.2809) rotate(-2.91415)" fill="url(#paint18_linear)" fill-opacity="0.78"/>
<path d="M-nan -nanC-nan -nan -nan -nan -nan -nanL-nan -nanC-nan -nan -nan -nan -nan -nanL-nan -nanC-nan -nan -nan -nan -nan -nanL-nan -nanC-nan -nan -nan -nan -nan -nanL-nan -nanZ" transform="translate(217 58.2809) rotate(-2.91415)" fill="url(#paint19_linear)" fill-opacity="0.78"/>
<path d="M0 62L588.5 0L0 324V62Z" transform="translate(253.424 30.7975) rotate(-2.91415)" fill="url(#paint20_linear)" fill-opacity="0.78"/>
<path d="M-nan -nanC-nan -nan -nan -nan -nan -nanL-nan -nanC-nan -nan -nan -nan -nan -nanL-nan -nanC-nan -nan -nan -nan -nan -nanL-nan -nanC-nan -nan -nan -nan -nan -nanL-nan -nanZ" transform="translate(253.424 30.7975) rotate(-2.91415)" fill="url(#paint21_linear)" fill-opacity="0.78"/>
<path d="M72.2159 2.625L75.7386 0.874999L75.9611 1.32279L77.4842 0.566149L78.9494 1.39898L79.1964 0.964295L82.5893 2.89286L82.3422 3.32755L85.7351 5.25612L85.9822 4.82144L89.375 6.75001L89.1279 7.18469L92.5208 9.11326L92.7679 8.67858L96.1607 10.6071L95.9136 11.0418L99.3065 12.9704L99.5536 12.5357L102.946 14.4643L102.699 14.899L106.092 16.8275L106.339 16.3929L109.732 18.3214L109.485 18.7561L112.878 20.6847L113.125 20.25L116.518 22.1786L116.271 22.6133L119.664 24.5418L119.911 24.1071L123.304 26.0357L123.056 26.4704L126.449 28.399L126.696 27.9643L130.089 29.8929L129.842 30.3275L133.235 32.2561L133.482 31.8214L136.875 33.75L136.628 34.1847L140.021 36.1133L140.268 35.6786L143.661 37.6071L143.414 38.0418L146.806 39.9704L147.054 39.5357L150.446 41.4643L150.199 41.899L153.592 43.8275L153.839 43.3929L157.232 45.3214L156.985 45.7561L160.378 47.6847L160.625 47.25L164.018 49.1786L163.771 49.6133L167.164 51.5418L167.411 51.1071L170.804 53.0357L170.556 53.4704L171.531 54.0246L170.506 54.6784L170.775 55.1L167.325 57.3L167.056 56.8784L163.606 59.0784L163.875 59.5L160.425 61.7L160.156 61.2784L156.706 63.4784L156.975 63.9L153.525 66.1L153.256 65.6784L149.806 67.8784L150.075 68.3L146.625 70.5L146.356 70.0784L142.906 72.2784L143.175 72.7L139.725 74.9L139.456 74.4784L136.006 76.6784L136.275 77.1L132.825 79.3L132.556 78.8784L129.106 81.0784L129.375 81.5L125.925 83.7L125.656 83.2784L122.206 85.4784L122.475 85.9L119.025 88.1L118.756 87.6784L115.306 89.8784L115.575 90.3L112.125 92.5L111.856 92.0784L108.406 94.2784L108.675 94.7L105.225 96.9L104.956 96.4784L103.487 97.4156L102.024 96.5749L101.775 97.0083L98.325 95.025L98.5742 94.5915L95.1242 92.6082L94.875 93.0417L91.425 91.0583L91.6742 90.6249L88.2242 88.6415L87.975 89.075L84.525 87.0917L84.7742 86.6582L81.3242 84.6749L81.075 85.1083L77.625 83.125L77.8742 82.6915L74.4242 80.7082L74.175 81.1417L70.725 79.1583L70.9742 78.7249L67.5242 76.7415L67.275 77.175L63.825 75.1917L64.0742 74.7582L60.6242 72.7749L60.375 73.2083L56.925 71.225L57.1742 70.7915L53.7242 68.8082L53.475 69.2417L50.025 67.2583L50.2742 66.8249L46.8242 64.8415L46.575 65.275L43.125 63.2917L43.3742 62.8582L39.9242 60.8749L39.675 61.3083L36.225 59.325L36.4742 58.8915L33.0242 56.9082L32.775 57.3417L29.325 55.3583L29.5742 54.9249L26.1242 52.9415L25.875 53.375L22.425 51.3917L22.6742 50.9582L19.2242 48.9749L18.975 49.4083L15.525 47.425L15.7742 46.9915L12.3242 45.0082L12.075 45.4417L8.625 43.4583L8.8742 43.0249L5.4242 41.0415L5.175 41.475L1.725 39.4917L1.9742 39.0582L1.05914 38.5321L1.98383 38.0728L1.76138 37.625L5.2841 35.875L5.50655 36.3228L9.02927 34.5728L8.80682 34.125L12.3295 32.375L12.552 32.8228L16.0747 31.0728L15.8523 30.625L19.375 28.875L19.5974 29.3228L23.1202 27.5728L22.8977 27.125L26.4205 25.375L26.6429 25.8228L30.1656 24.0728L29.9432 23.625L33.4659 21.875L33.6884 22.3228L37.2111 20.5728L36.9886 20.125L40.5114 18.375L40.7338 18.8228L44.2565 17.0728L44.0341 16.625L47.5568 14.875L47.7793 15.3228L51.302 13.5728L51.0795 13.125L54.6023 11.375L54.8247 11.8228L58.3475 10.0728L58.125 9.625L61.6477 7.875L61.8702 8.32279L65.3929 6.57279L65.1705 6.125L68.6932 4.375L68.9156 4.82279L72.4384 3.07279L72.2159 2.625Z" transform="translate(521 330)" stroke="#FFE145" stroke-dasharray="4 4"/>
<path d="M0 63L112 0L210 44.5" transform="translate(660.5 300.5)" stroke="#FFB65A"/>
<path d="M0 0L58 0.914286L42.5825 45.9876H15.4175L0 0Z" transform="translate(750 250)" fill="url(#paint22_linear)" fill-opacity="0.83"/>
<path d="M0 0H27.1651V45.0734H0V0Z" transform="translate(765.417 250.914)" fill="url(#paint23_linear)"/>
<path d="M27.5928 9.24769C27.5928 14.3551 21.4635 18.0653 13.9025 18.0653C6.3416 18.0653 0 14.3551 0 9.24769C0 4.14033 6.3416 0 13.9025 0C21.4635 0 27.5928 4.14033 27.5928 9.24769Z" transform="translate(764.037 295.935)" fill="#FF7C5C"/>
<path d="M27.5928 9.24769C27.5928 14.3551 21.4635 18.0653 13.9025 18.0653C6.3416 18.0653 0 14.3551 0 9.24769C0 4.14033 6.3416 0 13.9025 0C21.4635 0 27.5928 4.14033 27.5928 9.24769Z" transform="translate(764.037 294.214)" fill="#FFDB49"/>
<path d="M23.7723 7.92659C23.7723 12.3043 18.4916 15.4845 11.9776 15.4845C5.46354 15.4845 0 12.3043 0 7.92659C0 3.54886 5.46354 0 11.9776 0C18.4916 0 23.7723 3.54886 23.7723 7.92659Z" transform="translate(765.947 295.505)" fill="url(#paint24_linear)"/>
<path d="M0 4.47882C2.0164 1.57545 11.5465 -3.95163 22.0743 4.47882C16.1312 1.03594 8.91461 -2.05908 0 4.47882Z" transform="translate(767.115 295.865)" fill="#D76B5C"/>
<path d="M27.5928 9.24769C27.5928 14.3551 21.4635 18.0653 13.9025 18.0653C6.3416 18.0653 0 14.3551 0 9.24769C0 4.14033 6.3416 0 13.9025 0C21.4635 0 27.5928 4.14033 27.5928 9.24769Z" transform="translate(766.372 292.494)" fill="url(#paint25_linear)"/>
<path d="M27.5928 9.24769C27.5928 14.3551 21.4635 18.0653 13.9025 18.0653C6.3416 18.0653 0 14.3551 0 9.24769C0 4.14033 6.3416 0 13.9025 0C21.4635 0 27.5928 4.14033 27.5928 9.24769Z" transform="translate(766.372 290.773)" fill="#FFDB49"/>
<path d="M23.7723 7.92659C23.7723 12.3043 18.4916 15.4845 11.9776 15.4845C5.46354 15.4845 0 12.3043 0 7.92659C0 3.54886 5.46354 0 11.9776 0C18.4916 0 23.7723 3.54886 23.7723 7.92659Z" transform="translate(768.282 292.064)" fill="url(#paint26_linear)"/>
<path d="M0 4.47882C2.0164 1.57545 11.5465 -3.95163 22.0743 4.47882C16.1312 1.03594 8.91461 -2.05908 0 4.47882Z" transform="translate(769.45 292.424)" fill="#D76B5C"/>
<path d="M27.5928 9.24769C27.5928 14.3551 21.4635 18.0653 13.9025 18.0653C6.3416 18.0653 0 14.3551 0 9.24769C0 4.14033 6.3416 0 13.9025 0C21.4635 0 27.5928 4.14033 27.5928 9.24769Z" transform="translate(765.311 287.547)" fill="#FF7C5C"/>
<path d="M27.5928 9.24769C27.5928 14.3551 21.4635 18.0653 13.9025 18.0653C6.3416 18.0653 0 14.3551 0 9.24769C0 4.14033 6.3416 0 13.9025 0C21.4635 0 27.5928 4.14033 27.5928 9.24769Z" transform="translate(765.311 285.827)" fill="#FFDB49"/>
<path d="M23.7723 7.92659C23.7723 12.3043 18.4916 15.4845 11.9776 15.4845C5.46354 15.4845 0 12.3043 0 7.92659C0 3.54886 5.46354 0 11.9776 0C18.4916 0 23.7723 3.54886 23.7723 7.92659Z" transform="translate(767.221 287.117)" fill="url(#paint27_linear)"/>
<path d="M0 4.47882C2.0164 1.57545 11.5465 -3.95163 22.0743 4.47882C16.1312 1.03594 8.91461 -2.05908 0 4.47882Z" transform="translate(768.388 287.478)" fill="#D76B5C"/>
<path d="M0 0L58 0.914286L42.5825 45.9876H15.4175L0 0Z" transform="translate(652 543)" fill="url(#paint28_linear)" fill-opacity="0.83"/>
<path d="M0 0H27.1651V45.0734H0V0Z" transform="translate(667.417 543.914)" fill="url(#paint29_linear)"/>
<path d="M27.5928 9.24769C27.5928 14.3551 21.4635 18.0653 13.9025 18.0653C6.3416 18.0653 0 14.3551 0 9.24769C0 4.14033 6.3416 0 13.9025 0C21.4635 0 27.5928 4.14033 27.5928 9.24769Z" transform="translate(666.037 588.935)" fill="#FF7C5C"/>
<path d="M27.5928 9.24769C27.5928 14.3551 21.4635 18.0653 13.9025 18.0653C6.3416 18.0653 0 14.3551 0 9.24769C0 4.14033 6.3416 0 13.9025 0C21.4635 0 27.5928 4.14033 27.5928 9.24769Z" transform="translate(666.037 587.214)" fill="#FFDB49"/>
<path d="M23.7723 7.92659C23.7723 12.3043 18.4916 15.4845 11.9776 15.4845C5.46354 15.4845 0 12.3043 0 7.92659C0 3.54886 5.46354 0 11.9776 0C18.4916 0 23.7723 3.54886 23.7723 7.92659Z" transform="translate(667.947 588.505)" fill="url(#paint30_linear)"/>
<path d="M0 4.47882C2.0164 1.57545 11.5465 -3.95163 22.0743 4.47882C16.1312 1.03594 8.91461 -2.05908 0 4.47882Z" transform="translate(669.115 588.865)" fill="#D76B5C"/>
<path d="M27.5928 9.24769C27.5928 14.3551 21.4635 18.0653 13.9025 18.0653C6.3416 18.0653 0 14.3551 0 9.24769C0 4.14033 6.3416 0 13.9025 0C21.4635 0 27.5928 4.14033 27.5928 9.24769Z" transform="translate(668.372 585.494)" fill="url(#paint31_linear)"/>
<path d="M27.5928 9.24769C27.5928 14.3551 21.4635 18.0653 13.9025 18.0653C6.3416 18.0653 0 14.3551 0 9.24769C0 4.14033 6.3416 0 13.9025 0C21.4635 0 27.5928 4.14033 27.5928 9.24769Z" transform="translate(668.372 583.773)" fill="#FFDB49"/>
<path d="M23.7723 7.92659C23.7723 12.3043 18.4916 15.4845 11.9776 15.4845C5.46354 15.4845 0 12.3043 0 7.92659C0 3.54886 5.46354 0 11.9776 0C18.4916 0 23.7723 3.54886 23.7723 7.92659Z" transform="translate(670.282 585.064)" fill="url(#paint32_linear)"/>
<path d="M0 4.47882C2.0164 1.57545 11.5465 -3.95163 22.0743 4.47882C16.1312 1.03594 8.91461 -2.05908 0 4.47882Z" transform="translate(671.45 585.424)" fill="#D76B5C"/>
<path d="M27.5928 9.24769C27.5928 14.3551 21.4635 18.0653 13.9025 18.0653C6.3416 18.0653 0 14.3551 0 9.24769C0 4.14033 6.3416 0 13.9025 0C21.4635 0 27.5928 4.14033 27.5928 9.24769Z" transform="translate(667.311 580.547)" fill="#FF7C5C"/>
<path d="M27.5928 9.24769C27.5928 14.3551 21.4635 18.0653 13.9025 18.0653C6.3416 18.0653 0 14.3551 0 9.24769C0 4.14033 6.3416 0 13.9025 0C21.4635 0 27.5928 4.14033 27.5928 9.24769Z" transform="translate(667.311 578.827)" fill="#FFDB49"/>
<path d="M23.7723 7.92659C23.7723 12.3043 18.4916 15.4845 11.9776 15.4845C5.46354 15.4845 0 12.3043 0 7.92659C0 3.54886 5.46354 0 11.9776 0C18.4916 0 23.7723 3.54886 23.7723 7.92659Z" transform="translate(669.221 580.117)" fill="url(#paint33_linear)"/>
<path d="M0 4.47882C2.0164 1.57545 11.5465 -3.95163 22.0743 4.47882C16.1312 1.03594 8.91461 -2.05908 0 4.47882Z" transform="translate(670.388 580.478)" fill="#D76B5C"/>
<path d="M18.1535 0L35.3639 9.42825L17.4462 19.5636L0 8.48543L18.1535 0Z" transform="translate(582.012 302.531) rotate(-1.2307)" fill="url(#paint34_linear)"/>
<path d="M21.384 0.214678C21.6727 0.0797346 22.0084 0.0904681 22.2879 0.243576L40.9765 10.4816C41.6638 10.8581 41.6705 11.8431 40.9884 12.229L21.5143 23.2448C21.193 23.4265 20.7976 23.4165 20.4859 23.2185L1.53977 11.1879C0.873226 10.7646 0.937084 9.77213 1.65237 9.43779L21.384 0.214678Z" transform="translate(578.377 324.62) rotate(-1.2307)" fill="black" fill-opacity="0.21"/>
<path d="M0 0L17.4462 10.8425V32.9989L0 22.1564V0Z" transform="translate(582.193 311.015) rotate(-1.2307)" fill="url(#paint35_linear)"/>
<path d="M0 0L17.9177 9.89966V32.0561L0 21.685V0Z" transform="translate(617.569 311.198) scale(-1 1) rotate(1.2307)" fill="url(#paint36_linear)"/>
<path d="M11.1847 0.326286C11.4956 0.125518 11.8919 0.112831 12.215 0.293308L22.9894 6.31235C23.6594 6.68668 23.6754 7.64513 23.0182 8.04161L13.4515 13.813C13.1569 13.9908 12.7916 14.0046 12.4844 13.8496L1.55788 8.33607C0.868064 7.98799 0.816777 7.02245 1.46584 6.60325L11.1847 0.326286Z" transform="translate(588.038 318.678) scale(1 -1) rotate(1.2307)" fill="#FFE5B1"/>
<path d="M0 0H95.7438L56.6473 60.5083L39.293 59.4278L0 0Z" transform="translate(549.88 253.037) rotate(-1.2307)" fill="url(#paint37_linear)" fill-opacity="0.7"/>
<path d="M0 0H40.5736L28.6984 60.5083H11.8752L0 0Z" transform="translate(578.279 251.347) rotate(-1.2307)" fill="url(#paint38_linear)"/>
<ellipse cx="1.8555" cy="1.85508" rx="1.8555" ry="1.85508" transform="translate(635.599 234.721) rotate(-1.2307)" fill="#FFE69A"/>
<ellipse cx="1.8555" cy="1.85508" rx="1.8555" ry="1.85508" transform="translate(643.45 254.592) rotate(-1.2307)" fill="#FFE69A"/>
<ellipse cx="1.8555" cy="1.85508" rx="1.8555" ry="1.85508" transform="translate(582.221 238.094) rotate(-1.2307)" fill="#FFE69A"/>
<ellipse cx="1.8555" cy="1.85508" rx="1.8555" ry="1.85508" transform="translate(612.116 281.984) rotate(-1.2307)" fill="#FFE69A"/>
<ellipse cx="1.8555" cy="1.85508" rx="1.8555" ry="1.85508" transform="translate(607.618 210.829) rotate(-1.2307)" fill="#FFE69A"/>
<ellipse cx="13.4138" cy="15.7975" rx="13.4138" ry="15.7975" transform="translate(593.95 231.162) rotate(-1.2307)" fill="#D82E2E"/>
<ellipse cx="13.4138" cy="15.7975" rx="13.4138" ry="15.7975" transform="translate(596.084 231.834) rotate(-1.2307)" fill="#F2C877"/>
<ellipse cx="10.7379" cy="12.4636" rx="10.7379" ry="12.4636" transform="translate(598.697 234.754) rotate(-1.2307)" fill="url(#paint39_linear)"/>
<path d="M5.4126 7.98682H9.66064V13.5386C9.37744 13.6313 9.0918 13.7168 8.80371 13.7949C8.51562 13.8682 8.21533 13.9316 7.90283 13.9854C7.59521 14.0342 7.27051 14.0732 6.92871 14.1025C6.5918 14.1318 6.23291 14.1465 5.85205 14.1465C5.05127 14.1465 4.34082 14.0293 3.7207 13.7949C3.10547 13.5557 2.58545 13.2041 2.16064 12.7402C1.74072 12.2715 1.4209 11.6953 1.20117 11.0117C0.981445 10.3232 0.871582 9.52979 0.871582 8.63135C0.871582 7.7915 0.993652 7.03223 1.23779 6.35352C1.48193 5.6748 1.84082 5.09863 2.31445 4.625C2.79297 4.14648 3.37891 3.78027 4.07227 3.52637C4.77051 3.26758 5.56885 3.13818 6.46729 3.13818C7.03857 3.13818 7.59766 3.19922 8.14453 3.32129C8.69141 3.44336 9.19189 3.60205 9.646 3.79736L8.8916 5.61377C8.55957 5.44775 8.18359 5.30859 7.76367 5.19629C7.34863 5.08398 6.91162 5.02783 6.45264 5.02783C5.95459 5.02783 5.50537 5.11572 5.10498 5.2915C4.70947 5.4624 4.37012 5.70654 4.08691 6.02393C3.80371 6.34131 3.58643 6.72461 3.43506 7.17383C3.28369 7.62305 3.20801 8.12354 3.20801 8.67529C3.20801 9.20264 3.25928 9.68604 3.36182 10.1255C3.46924 10.5601 3.63525 10.936 3.85986 11.2534C4.08447 11.5708 4.37256 11.8174 4.72412 11.9932C5.08057 12.1689 5.50537 12.2568 5.99854 12.2568C6.3208 12.2568 6.5918 12.2422 6.81152 12.2129C7.03613 12.1836 7.24609 12.1494 7.44141 12.1104V9.87646H5.4126V7.98682ZM13.9014 9.89111C13.9014 10.7065 14.0161 11.3218 14.2456 11.7368C14.4751 12.147 14.8486 12.3521 15.3662 12.3521C15.8789 12.3521 16.25 12.1445 16.4795 11.7295C16.709 11.3145 16.8237 10.7017 16.8237 9.89111C16.8237 9.07568 16.709 8.46777 16.4795 8.06738C16.25 7.66211 15.874 7.45947 15.3516 7.45947C14.8389 7.45947 14.4678 7.66211 14.2383 8.06738C14.0137 8.46777 13.9014 9.07568 13.9014 9.89111ZM19.1016 9.89111C19.1016 10.5747 19.0137 11.1802 18.8379 11.7075C18.667 12.2349 18.418 12.6792 18.0908 13.0405C17.7686 13.4019 17.373 13.6777 16.9043 13.8682C16.4404 14.0537 15.918 14.1465 15.3369 14.1465C14.7949 14.1465 14.2969 14.0537 13.8428 13.8682C13.3887 13.6777 12.9956 13.4019 12.6636 13.0405C12.3364 12.6792 12.0801 12.2349 11.8945 11.7075C11.709 11.1802 11.6162 10.5747 11.6162 9.89111C11.6162 9.2124 11.7017 8.60938 11.8726 8.08203C12.0483 7.55469 12.2974 7.11279 12.6196 6.75635C12.9468 6.39502 13.3423 6.12158 13.8062 5.93604C14.27 5.75049 14.7949 5.65771 15.3809 5.65771C15.9229 5.65771 16.4209 5.75049 16.875 5.93604C17.3291 6.12158 17.7197 6.39502 18.0469 6.75635C18.3789 7.11279 18.6377 7.55469 18.8232 8.08203C19.0088 8.60938 19.1016 9.2124 19.1016 9.89111Z" transform="matrix(0.994592 0.103876 -0.10669 0.994291 601.048 238.635)" fill="#E89A40"/>
<ellipse cx="2.5" cy="3.5" rx="2.5" ry="3.5" transform="translate(613 246)" fill="#E6973B"/>
<path d="M1.40059 0C3.57929 4.46229 6.5361 12.9252 0 20.3111C4.20178 17.0798 8.87042 9.23232 1.40059 0Z" transform="translate(615.094 237.172) rotate(-1.2307)" fill="#E3A938"/>
<path d="M2.63397 1.5C3.01888 0.833333 3.98113 0.833333 4.36603 1.5L5.66506 3.75C6.04996 4.41667 5.56884 5.25 4.79904 5.25H2.20096C1.43116 5.25 0.950036 4.41667 1.33494 3.75L2.63397 1.5Z" transform="translate(619 246) rotate(90)" fill="#FEE35B"/>
<ellipse cx="13.7307" cy="15.2117" rx="13.7307" ry="15.2117" transform="translate(584.701 249.916) rotate(-1.2307)" fill="#D82E2E"/>
<ellipse cx="13.7307" cy="14.8407" rx="13.7307" ry="14.8407" transform="translate(583.251 251.431) rotate(-1.2307)" fill="#F2C877"/>
<ellipse cx="11.5041" cy="12.6146" rx="11.5041" ry="12.6146" transform="translate(585.525 253.609) rotate(-1.2307)" fill="url(#paint40_linear)"/>
<path d="M5.4126 7.98682H9.66064V13.5386C9.37744 13.6313 9.0918 13.7168 8.80371 13.7949C8.51562 13.8682 8.21533 13.9316 7.90283 13.9854C7.59521 14.0342 7.27051 14.0732 6.92871 14.1025C6.5918 14.1318 6.23291 14.1465 5.85205 14.1465C5.05127 14.1465 4.34082 14.0293 3.7207 13.7949C3.10547 13.5557 2.58545 13.2041 2.16064 12.7402C1.74072 12.2715 1.4209 11.6953 1.20117 11.0117C0.981445 10.3232 0.871582 9.52979 0.871582 8.63135C0.871582 7.7915 0.993652 7.03223 1.23779 6.35352C1.48193 5.6748 1.84082 5.09863 2.31445 4.625C2.79297 4.14648 3.37891 3.78027 4.07227 3.52637C4.77051 3.26758 5.56885 3.13818 6.46729 3.13818C7.03857 3.13818 7.59766 3.19922 8.14453 3.32129C8.69141 3.44336 9.19189 3.60205 9.646 3.79736L8.8916 5.61377C8.55957 5.44775 8.18359 5.30859 7.76367 5.19629C7.34863 5.08398 6.91162 5.02783 6.45264 5.02783C5.95459 5.02783 5.50537 5.11572 5.10498 5.2915C4.70947 5.4624 4.37012 5.70654 4.08691 6.02393C3.80371 6.34131 3.58643 6.72461 3.43506 7.17383C3.28369 7.62305 3.20801 8.12354 3.20801 8.67529C3.20801 9.20264 3.25928 9.68604 3.36182 10.1255C3.46924 10.5601 3.63525 10.936 3.85986 11.2534C4.08447 11.5708 4.37256 11.8174 4.72412 11.9932C5.08057 12.1689 5.50537 12.2568 5.99854 12.2568C6.3208 12.2568 6.5918 12.2422 6.81152 12.2129C7.03613 12.1836 7.24609 12.1494 7.44141 12.1104V9.87646H5.4126V7.98682ZM13.9014 9.89111C13.9014 10.7065 14.0161 11.3218 14.2456 11.7368C14.4751 12.147 14.8486 12.3521 15.3662 12.3521C15.8789 12.3521 16.25 12.1445 16.4795 11.7295C16.709 11.3145 16.8237 10.7017 16.8237 9.89111C16.8237 9.07568 16.709 8.46777 16.4795 8.06738C16.25 7.66211 15.874 7.45947 15.3516 7.45947C14.8389 7.45947 14.4678 7.66211 14.2383 8.06738C14.0137 8.46777 13.9014 9.07568 13.9014 9.89111ZM19.1016 9.89111C19.1016 10.5747 19.0137 11.1802 18.8379 11.7075C18.667 12.2349 18.418 12.6792 18.0908 13.0405C17.7686 13.4019 17.373 13.6777 16.9043 13.8682C16.4404 14.0537 15.918 14.1465 15.3369 14.1465C14.7949 14.1465 14.2969 14.0537 13.8428 13.8682C13.3887 13.6777 12.9956 13.4019 12.6636 13.0405C12.3364 12.6792 12.0801 12.2349 11.8945 11.7075C11.709 11.1802 11.6162 10.5747 11.6162 9.89111C11.6162 9.2124 11.7017 8.60938 11.8726 8.08203C12.0483 7.55469 12.2974 7.11279 12.6196 6.75635C12.9468 6.39502 13.3423 6.12158 13.8062 5.93604C14.27 5.75049 14.7949 5.65771 15.3809 5.65771C15.9229 5.65771 16.4209 5.75049 16.875 5.93604C17.3291 6.12158 17.7197 6.39502 18.0469 6.75635C18.3789 7.11279 18.6377 7.55469 18.8232 8.08203C19.0088 8.60938 19.1016 9.2124 19.1016 9.89111Z" transform="translate(588.491 257.965) rotate(-1.2307)" fill="#E6973B"/>
<ellipse cx="2.5" cy="3.5" rx="2.5" ry="3.5" transform="translate(602 264)" fill="#E6973B"/>
<path d="M2.63397 1.5C3.01888 0.833333 3.98113 0.833333 4.36603 1.5L5.66506 3.75C6.04996 4.41667 5.56884 5.25 4.79904 5.25H2.20096C1.43116 5.25 0.950036 4.41667 1.33494 3.75L2.63397 1.5Z" transform="translate(608 264) rotate(90)" fill="#FEE35B"/>
<path d="M6.70788 0C1.51267 2.96813 -3.31169 11.1305 2.99688 19.6639C1.75988 16.0774 -0.713933 7.42034 6.70788 0Z" transform="translate(585.521 254.722) rotate(-1.2307)" fill="#E3A938"/>
<path d="M4 0L19.5 9L0 12L4 0Z" transform="translate(685.998 335)" fill="#F9E6C9"/>
<path d="M4 0L19.5 9L0 12L4 0Z" transform="translate(692.998 330)" fill="#F9B958"/>
<path d="M4 0L19.5 9L0 12L4 0Z" transform="translate(753 515)" fill="#F9E6C9"/>
<path d="M4 0L19.5 9L0 12L4 0Z" transform="translate(760 510)" fill="#F9B958"/>
<path d="M73.1477 2.625L76.7159 0.874999L76.9361 1.32392L78.4935 0.560069L79.9862 1.33537L80.2166 0.891653L83.65 2.67499L83.4195 3.1187L86.8528 4.90204L87.0833 4.45832L90.5166 6.24166L90.2862 6.68537L93.7195 8.4687L93.95 8.02499L97.3833 9.80832L97.1528 10.252L100.586 12.0354L100.817 11.5917L104.25 13.375L104.02 13.8187L107.453 15.602L107.683 15.1583L111.117 16.9417L110.886 17.3854L114.32 19.1687L114.55 18.725L117.983 20.5083L117.753 20.952L121.186 22.7354L121.417 22.2917L124.85 24.075L124.62 24.5187L128.053 26.302L128.283 25.8583L131.717 27.6417L131.486 28.0854L134.92 29.8687L135.15 29.425L138.583 31.2083L138.353 31.652L141.786 33.4354L142.017 32.9917L145.45 34.775L145.22 35.2187L148.653 37.002L148.883 36.5583L152.317 38.3417L152.086 38.7854L155.52 40.5687L155.75 40.125L159.183 41.9083L158.953 42.352L162.386 44.1354L162.617 43.6917L166.05 45.475L165.82 45.9187L169.253 47.702L169.483 47.2583L172.917 49.0417L172.686 49.4854L176.12 51.2687L176.35 50.825L179.783 52.6083L179.553 53.052L180.444 53.5151L179.439 54.0744L179.682 54.5114L176.045 56.5341L175.802 56.0971L172.166 58.1199L172.409 58.5568L168.773 60.5795L168.53 60.1426L164.893 62.1653L165.136 62.6023L161.5 64.625L161.257 64.188L157.621 66.2108L157.864 66.6477L154.227 68.6704L153.984 68.2335L150.348 70.2562L150.591 70.6932L146.955 72.7159L146.712 72.279L143.075 74.3017L143.318 74.7386L139.682 76.7614L139.439 76.3244L135.802 78.3471L136.045 78.7841L132.409 80.8068L132.166 80.3699L128.53 82.3926L128.773 82.8295L125.136 84.8523L124.893 84.4153L121.257 86.438L121.5 86.875L117.864 88.8977L117.621 88.4608L113.984 90.4835L114.227 90.9205L110.591 92.9432L110.348 92.5062L106.711 94.529L106.955 94.9659L103.318 96.9886L103.075 96.5517L101.507 97.4242L100.061 96.577L99.8084 97.0083L96.425 95.025L96.6779 94.5937L93.2945 92.6103L93.0417 93.0417L89.6583 91.0583L89.9112 90.627L86.5279 88.6437L86.275 89.075L82.8917 87.0917L83.1445 86.6603L79.7612 84.677L79.5083 85.1083L76.125 83.125L76.3779 82.6937L72.9945 80.7103L72.7417 81.1417L69.3583 79.1583L69.6112 78.727L66.2279 76.7437L65.975 77.175L62.5917 75.1917L62.8445 74.7603L59.4612 72.777L59.2083 73.2083L55.825 71.225L56.0779 70.7937L52.6945 68.8103L52.4417 69.2417L49.0583 67.2583L49.3112 66.827L45.9279 64.8437L45.675 65.275L42.2917 63.2917L42.5445 62.8603L39.1612 60.877L38.9083 61.3083L35.525 59.325L35.7779 58.8937L32.3945 56.9103L32.1417 57.3417L28.7583 55.3583L29.0112 54.927L25.6279 52.9436L25.375 53.375L21.9917 51.3917L22.2445 50.9603L18.8612 48.977L18.6083 49.4083L15.225 47.425L15.4779 46.9937L12.0945 45.0103L11.8417 45.4417L8.45833 43.4583L8.71119 43.027L5.32786 41.0437L5.075 41.475L1.69167 39.4917L1.94453 39.0603L1.05556 38.5392L2.00425 38.0739L1.78408 37.625L5.35226 35.875L5.57243 36.3239L9.14062 34.5739L8.92045 34.125L12.4886 32.375L12.7088 32.8239L16.277 31.0739L16.0568 30.625L19.625 28.875L19.8452 29.3239L23.4133 27.5739L23.1932 27.125L26.7614 25.375L26.9815 25.8239L30.5497 24.0739L30.3295 23.625L33.8977 21.875L34.1179 22.3239L37.6861 20.5739L37.4659 20.125L41.0341 18.375L41.2543 18.8239L44.8224 17.0739L44.6023 16.625L48.1705 14.875L48.3906 15.3239L51.9588 13.5739L51.7386 13.125L55.3068 11.375L55.527 11.8239L59.0952 10.0739L58.875 9.625L62.4432 7.875L62.6633 8.32392L66.2315 6.57392L66.0114 6.125L69.5795 4.375L69.7997 4.82392L73.3679 3.07392L73.1477 2.625Z" transform="translate(614 450)" stroke="#FFA360" stroke-dasharray="4 4"/>
<path opacity="0.79" d="M3.53846 10.4984L2.73088 9.90863L2.6048 10.0813L2.56033 10.2904L3.53846 10.4984ZM11.2051 0L12.0127 -0.589754L11.2051 -1.69562L10.3975 -0.589754L11.2051 0ZM18.8718 10.4984L19.8424 10.2576L19.7951 10.0671L19.6794 9.90863L18.8718 10.4984ZM11.5983 35L11.0372 35.8277L11.6031 36.2114L12.166 35.8232L11.5983 35ZM0 27.1373L-0.978127 26.9293L-1.11809 27.5875L-0.56113 27.9651L0 27.1373ZM23 27.1373L23.5677 27.9606L24.1371 27.5679L23.9706 26.8965L23 27.1373ZM4.34604 11.0881L12.0127 0.589754L10.3975 -0.589754L2.73088 9.90863L4.34604 11.0881ZM10.3975 0.589754L18.0642 11.0881L19.6794 9.90863L12.0127 -0.589754L10.3975 0.589754ZM17.9131 10.2138L10.6396 34.7154L12.5569 35.2846L19.8304 10.783L17.9131 10.2138ZM12.5482 34.6875L4.48839 10.1859L2.58854 10.8109L10.6484 35.3125L12.5482 34.6875ZM2.56033 10.2904L-0.978127 26.9293L0.978127 27.3453L4.51659 10.7064L2.56033 10.2904ZM-0.56113 27.9651L11.0372 35.8277L12.1594 34.1723L0.56113 26.3096L-0.56113 27.9651ZM12.166 35.8232L23.5677 27.9606L22.4323 26.3141L11.0306 34.1768L12.166 35.8232ZM23.9706 26.8965L19.8424 10.2576L17.9012 10.7392L22.0294 27.3781L23.9706 26.8965Z" transform="translate(714.571 171)" fill="#FDFF9F" fill-opacity="0.99"/>
<path d="M25.2396 0L49.1681 12.9099L24.2563 26.7881L0 11.6189L25.2396 0Z" transform="translate(699 215.25)" fill="#FFDE78" fill-opacity="0.39"/>
<path d="M0 11.6189L24.2563 26.4654V56.8037L0 41.9573V11.6189Z" transform="translate(699 215.25)" fill="#FFDE78" fill-opacity="0.39"/>
<path d="M49.1681 12.9099L24.2563 26.4654V56.8037L49.1681 42.6028V12.9099Z" transform="translate(699 215.25)" fill="#FFDE78" fill-opacity="0.39"/>
<path d="M15.9073 0L30.9883 8.11482L15.2876 16.8382L0 7.30333L15.9073 0Z" transform="translate(708.09 226.611)" fill="url(#paint41_linear)"/>
<path d="M0 0L15.2876 9.33204V28.4019L0 19.0698V0Z" transform="translate(708.09 233.914)" fill="url(#paint42_linear)"/>
<path d="M0 0L15.7007 8.52056V27.5904L0 18.6641V0Z" transform="translate(739.078 234.725) scale(-1 1)" fill="url(#paint43_linear)"/>
<path d="M3.77824 0L105.569 8.93951L104.374 91.6016L0.54424 23.9632C0.213257 23.7476 0.0402206 23.3573 0.102643 22.9673L3.77824 0Z" transform="translate(599.857 455.976) scale(-1 1) rotate(2.13271)" fill="url(#paint44_linear)"/>
<path d="M19.3765 0L113.36 26.9139V118.043L0.719848 31.6864C0.311438 31.3732 0.207356 30.8013 0.479273 30.3644L19.3765 0Z" transform="translate(615.342 465.322) scale(-1 1) rotate(2.13271)" fill="url(#paint45_linear)"/>
<path d="M34.5158 26.1766C34.5158 39.9166 26.7891 51.055 17.2579 51.055C7.72662 51.055 0 39.9166 0 26.1766C0 12.4367 7.17256 0 16.7038 0C34.6829 0 34.5158 12.4367 34.5158 26.1766Z" transform="matrix(-0.905182 0.425017 0.426737 0.904379 755.587 328.746)" fill="#680F0F"/>
<path d="M29.4102 22.3046C29.4102 34.0121 22.8265 43.5029 14.7051 43.5029C6.58369 43.5029 0 34.0121 0 22.3046C0 10.597 6.11159 0 14.233 0C29.5526 0 29.4102 10.597 29.4102 22.3046Z" transform="matrix(-0.905182 0.425017 0.426737 0.904379 749.994 334.839)" fill="url(#paint46_linear)"/>
<path d="M34.2964 38.7909L35.3571 14.8111C35.3571 14.8111 29.5994 10.4304 25.4571 7.40553C21.8671 4.784 17.325 0 17.325 0L0 39.1435L34.2964 38.7909Z" transform="translate(750.687 342.338) scale(-1 1) rotate(2.13271)" fill="url(#paint47_linear)"/>
<path d="M31.5919 1.31241C33.0848 0.494512 34.8913 0.492346 36.3861 1.30665L130.76 52.716C131.441 53.0867 131.459 54.0573 130.793 54.4536L100.443 72.5078C98.9016 73.4246 96.9874 73.4458 95.4262 72.5633L3.1284 20.3887C1.76364 19.6172 1.77674 17.6468 3.15166 16.8936L31.5919 1.31241Z" transform="translate(772.229 426.62) scale(-1 1) rotate(2.13271)" fill="black" fill-opacity="0.13"/>
<path d="M0 0L90.0261 49.0077C91.6345 49.8832 92.6355 51.5679 92.6355 53.3991V115.728C92.6355 119.598 88.4277 122.001 85.0946 120.034L2.45909 71.2746C0.93518 70.3754 0 68.7377 0 66.9683V0Z" transform="translate(748.15 369.252) scale(-1 1) rotate(2.13271)" fill="#FA8A5A"/>
<path d="M0 0L73.1457 41.8166C74.7031 42.7069 75.6641 44.3634 75.6641 46.1573V65.5923C75.6641 67.1455 73.9709 68.106 72.6378 67.3089L3.05955 25.7099C1.59414 24.8338 0.677085 23.2705 0.627429 21.5639L0 0Z" transform="translate(739.516 384.395) scale(-1 1) rotate(2.13271)" fill="#CE2626"/>
<path d="M0 0L3.53571 2.1229V4.58438L0 2.46851V0Z" transform="translate(736.886 389.786) scale(-1 1) rotate(2.13271)" fill="#F2994A"/>
<path d="M0 0L73.4113 43.0551C74.3688 43.6167 74.957 44.6436 74.957 45.7536V45.7536C74.957 46.7253 73.8976 47.3262 73.0636 46.8276L2.43423 4.60019C0.924398 3.6975 0 2.06781 0 0.308707V0Z" transform="translate(739.596 405.565) scale(-1 1) rotate(2.13271)" fill="#BE1A1A"/>
<path d="M0 0L91.4756 54.2723C91.7563 54.4389 91.9284 54.7411 91.9284 55.0675V55.0675C91.9284 55.3543 91.616 55.532 91.3695 55.3853L0.884308 1.55504C0.335998 1.22885 0 0.638001 0 0V0Z" transform="translate(749.568 407.311) scale(-1 1) rotate(2.13271)" fill="#BE1A1A"/>
<path d="M32.0609 1.37756C33.5915 0.522692 35.4579 0.531852 36.98 1.4017L123.52 50.8585C126.941 52.8135 126.861 57.7729 123.38 59.6177L99.8585 72.0807C98.3642 72.8724 96.5709 72.8552 95.0921 72.0349L7.85498 23.6422C4.42794 21.7411 4.42078 16.8156 7.84227 14.9046L32.0609 1.37756Z" transform="translate(752.227 348.985) scale(-1 1) rotate(2.13271)" fill="url(#paint48_linear)"/>
<path d="M0 21.5113L26.0883 4.25895C28.7938 2.46981 32.3918 4.47544 32.2928 7.71747L30.4071 69.4709L0 89.219V21.5113Z" transform="translate(657.453 404.036) scale(-1 1) rotate(2.13271)" fill="url(#paint49_linear)"/>
<path d="M0 14.8765L22.6285 0L23.3357 0.705289L22.2123 14.0886L1.06071 29.2695L0 28.9168V14.8765Z" transform="translate(651.396 412.378) scale(-1 1) rotate(2.13271)" fill="#800100"/>
<path d="M0 14.5238L22.275 0L21.8587 14.0886L0 28.5642V14.5238Z" transform="translate(650.362 413.122) scale(-1 1) rotate(2.13271)" fill="#FF413E"/>
<path d="M34.5158 26.1766C34.5158 39.9166 26.7891 51.055 17.2579 51.055C7.72662 51.055 0 39.9166 0 26.1766C0 12.4367 7.17256 0 16.7038 0C34.6829 0 34.5158 12.4367 34.5158 26.1766Z" transform="matrix(-0.905182 0.425017 0.426737 0.904379 639.662 427.147)" fill="#AE1212"/>
<path d="M15.7047 17.022C21.121 7.56835 33.1077 4.18932 42.6641 9.42222L61.5213 19.7481L39.9535 65.9445L18.0806 54.1679C8.17303 48.8336 4.61444 36.3791 10.2082 26.6157L15.7047 17.022Z" transform="translate(654.892 430.245) scale(-1 1) rotate(2.13271)" fill="#AE1212"/>
<path d="M34.5158 26.1766C34.5158 39.9166 26.7891 51.055 17.2579 51.055C7.72662 51.055 0 39.9166 0 26.1766C0 12.4367 7.17256 0 16.7038 0C26.2351 0 34.5158 12.4367 34.5158 26.1766Z" transform="matrix(-0.905182 0.425017 0.426737 0.904379 608.579 445.718)" fill="#7D1010"/>
<path d="M29.6614 22.4951C29.6614 34.3026 23.0215 43.8745 14.8307 43.8745C6.63993 43.8745 0 34.3026 0 22.4951C0 10.6876 6.1638 0 14.3546 0C22.5453 0 29.6614 10.6876 29.6614 22.4951Z" transform="matrix(-0.905182 0.425017 0.426737 0.904379 607.208 450.023)" fill="url(#paint50_linear)"/>
<path d="M23.9198 18.1407C23.9198 27.6626 18.5652 35.3817 11.9599 35.3817C5.35463 35.3817 0 27.6626 0 18.1407C0 8.61876 4.97067 0 11.5759 0C18.1812 0 23.9198 8.61876 23.9198 18.1407Z" transform="matrix(-0.905182 0.425017 0.426737 0.904379 606.422 455.084)" fill="#FD7871"/>
<path d="M19.7912 15.0096C19.7912 22.888 15.3608 29.2748 9.89561 29.2748C4.43042 29.2748 0 22.888 0 15.0096C0 7.13115 4.11272 0 9.57792 0C15.0431 0 19.7912 7.13115 19.7912 15.0096Z" transform="matrix(-0.905182 0.425017 0.426737 0.904379 605.149 458.749)" fill="#9B1A1A"/>
<path d="M16.2923 12.356C16.2923 18.8416 12.6451 24.0992 8.14613 24.0992C3.64715 24.0992 0 18.8416 0 12.356C0 5.87041 3.38562 0 7.88461 0C12.3836 0 16.2923 5.87041 16.2923 12.356Z" transform="matrix(-0.905182 0.425017 0.426737 0.904379 604.67 461.833)" fill="url(#paint51_linear)"/>
<path d="M8.24019 2.72267C8.24019 5.22283 9.41492 10.7046 3.1996 9.29013C1.43251 9.29013 0 7.26335 0 4.76318C0 2.26302 1.32979 0 3.09688 0C6.43019 0 8.24019 0.222504 8.24019 2.72267Z" transform="matrix(-0.909232 0.416282 0.435621 0.900133 633.689 417.271)" fill="#AE1212"/>
<path d="M2.4779 3.84109C3.74175 1.69392 6.47341 0.924518 8.67211 2.09641L11.4521 3.57814L7.43732 11.9484L4.32671 10.3183C1.97242 9.08448 1.1296 6.13172 2.4779 3.84109V3.84109Z" transform="translate(636.523 417.83) scale(-1 1) rotate(2.13271)" fill="#AE1212"/>
<path d="M6.3992 4.76318C6.3992 7.26335 4.96669 9.29013 3.1996 9.29013C1.43251 9.29013 0 7.26335 0 4.76318C0 2.26302 1.32979 0 3.09688 0C4.86397 0 6.3992 2.26302 6.3992 4.76318Z" transform="matrix(-0.909232 0.416282 0.435621 0.900133 627.9 420.642)" fill="#7D1010"/>
<path d="M5.49921 4.09328C5.49921 6.24182 4.26817 7.98355 2.7496 7.98355C1.23104 7.98355 0 6.24182 0 4.09328C0 1.94474 1.14276 0 2.66133 0C4.17989 0 5.49921 1.94474 5.49921 4.09328Z" transform="matrix(-0.909232 0.416282 0.435621 0.900133 627.644 421.423)" fill="url(#paint52_linear)"/>
<path d="M4.43472 3.30094C4.43472 5.03358 3.44197 6.43817 2.21736 6.43817C0.992746 6.43817 0 5.03358 0 3.30094C0 1.5683 0.921559 0 2.14617 0C3.37079 0 4.43472 1.5683 4.43472 3.30094Z" transform="matrix(-0.909232 0.416282 0.435621 0.900133 627.496 422.34)" fill="#FD7871"/>
<path d="M58.5018 0L100.117 13.7565L0 114.879" transform="translate(650.304 481.492) scale(-1.00001 0.999992) rotate(8.86094)" stroke="#E5C44E"/>
<path d="M-1.8043e-08 31.0001L55.5 0L158.5 49.5" transform="translate(750.5 400)" stroke="#FFB65A"/>
<path d="M0 53.5L101 0" transform="translate(613 256)" stroke="#FFB65A"/>
<path d="M-2.03709e-08 35L69 0" transform="translate(483 383)" stroke="#FFB65A"/>
<defs>
<linearGradient id="paint0_linear" x2="1" gradientUnits="userSpaceOnUse" gradientTransform="matrix(1483.68 683.357 -287.204 1213.6 -761.419 70.7116)">
<stop stop-color="#FD9E9E"/>
<stop offset="1" stop-color="#FF0000"/>
</linearGradient>
<linearGradient id="paint1_linear" x2="1" gradientUnits="userSpaceOnUse" gradientTransform="matrix(1483.68 683.357 -287.204 1213.6 -761.419 70.7116)">
<stop stop-color="#FD9E9E"/>
<stop offset="1" stop-color="#FF0000"/>
</linearGradient>
<linearGradient id="paint2_linear" x2="1" gradientUnits="userSpaceOnUse" gradientTransform="matrix(1483.68 683.357 -287.204 1213.6 -761.419 70.7116)">
<stop stop-color="#FD9E9E"/>
<stop offset="1" stop-color="#FF0000"/>
</linearGradient>
<linearGradient id="paint3_linear" x2="1" gradientUnits="userSpaceOnUse" gradientTransform="matrix(1474.5 329.5 -7.61266 1169.37 -11.6936 -538.688)">
<stop offset="0.0147768" stop-color="#FF4747"/>
<stop offset="1" stop-color="#FF0000"/>
</linearGradient>
<linearGradient id="paint4_linear" x2="1" gradientUnits="userSpaceOnUse" gradientTransform="matrix(1474.5 329.5 -7.61266 1169.37 -11.6936 -538.688)">
<stop offset="0.0147768" stop-color="#FF4747"/>
<stop offset="1" stop-color="#FF0000"/>
</linearGradient>
<linearGradient id="paint5_linear" x2="1" gradientUnits="userSpaceOnUse" gradientTransform="matrix(-7.02402 42.197 -76.622 -12.2993 55.6645 -3.38525)">
<stop stop-color="#F6FF8A"/>
<stop offset="1" stop-color="#FF7A50"/>
</linearGradient>
<linearGradient id="paint6_linear" x2="1" gradientUnits="userSpaceOnUse" gradientTransform="matrix(4.95813 18.6641 -10.0461 2.57356 7.9153 4.59646)">
<stop stop-color="#F4AC41"/>
<stop offset="1" stop-color="#DF7505"/>
</linearGradient>
<linearGradient id="paint7_linear" x2="1" gradientUnits="userSpaceOnUse" gradientTransform="matrix(9.29649 10.5493 -5.67824 4.82542 6.14454 2.65905)">
<stop stop-color="#EB9D04"/>
<stop offset="1" stop-color="#E64D0F"/>
</linearGradient>
<linearGradient id="paint8_linear" x2="1" gradientUnits="userSpaceOnUse" gradientTransform="matrix(12.9108 19.7389 -10.4363 6.82446 6.7734 7.68109)">
<stop stop-color="#F4CD41"/>
<stop offset="1" stop-color="#DF7505"/>
</linearGradient>
<linearGradient id="paint9_linear" x2="1" gradientUnits="userSpaceOnUse" gradientTransform="matrix(17.9718 20.7627 -10.977 9.49723 12.545 5.23347)">
<stop stop-color="#DF7505"/>
<stop offset="1" stop-color="#E64D0F"/>
</linearGradient>
<linearGradient id="paint10_linear" x2="1" gradientUnits="userSpaceOnUse" gradientTransform="matrix(-2.00617 -48.554 31.5792 -0.759608 58.6287 73.3587)">
<stop stop-color="#FDF5E4"/>
<stop offset="1" stop-color="#FBFBFB" stop-opacity="0"/>
</linearGradient>
<linearGradient id="paint11_linear" x2="1" gradientUnits="userSpaceOnUse" gradientTransform="matrix(-2.34872 -45.5121 20.4855 -0.763249 18.6414 80.0624)">
<stop stop-color="white"/>
<stop offset="1" stop-color="white" stop-opacity="0"/>
</linearGradient>
<linearGradient id="paint12_linear" x2="1" gradientUnits="userSpaceOnUse" gradientTransform="matrix(-0.214288 9.97478 -15.7728 -0.338845 8.09378 0.169375)">
<stop stop-color="white"/>
<stop offset="0.994785" stop-color="#FEED54" stop-opacity="0"/>
</linearGradient>
<linearGradient id="paint13_linear" x2="1" gradientUnits="userSpaceOnUse" gradientTransform="matrix(0.185101 17.1907 -27.1832 0.292701 14.0848 -0.146418)">
<stop offset="0.025226" stop-color="white"/>
<stop offset="0.994785" stop-color="#FEED54" stop-opacity="0"/>
</linearGradient>
<linearGradient id="paint14_linear" x2="1" gradientUnits="userSpaceOnUse" gradientTransform="matrix(-306.5 218 -188.246 -185.005 415.625 111.502)">
<stop offset="0.0147768" stop-color="#FD3C3C" stop-opacity="0"/>
<stop offset="1" stop-color="#FFB066" stop-opacity="0.3"/>
</linearGradient>
<linearGradient id="paint15_linear" x2="1" gradientUnits="userSpaceOnUse" gradientTransform="matrix(-306.5 218 -188.246 -185.005 415.625 111.502)">
<stop offset="0.0147768" stop-color="#FD3C3C" stop-opacity="0"/>
<stop offset="1" stop-color="#FFB066" stop-opacity="0.3"/>
</linearGradient>
<linearGradient id="paint16_linear" x2="1" gradientUnits="userSpaceOnUse" gradientTransform="matrix(-126.498 164.5 -129.185 -67.2061 169.592 26.603)">
<stop offset="0.0147768" stop-color="#FD3C3C" stop-opacity="0"/>
<stop offset="1" stop-color="#FFB066" stop-opacity="0.3"/>
</linearGradient>
<linearGradient id="paint17_linear" x2="1" gradientUnits="userSpaceOnUse" gradientTransform="matrix(-126.498 164.5 -129.185 -67.2061 169.592 26.603)">
<stop offset="0.0147768" stop-color="#FD3C3C" stop-opacity="0"/>
<stop offset="1" stop-color="#FFB066" stop-opacity="0.3"/>
</linearGradient>
<linearGradient id="paint18_linear" x2="1" gradientUnits="userSpaceOnUse" gradientTransform="matrix(-195.475 132.233 -115.359 -118.825 419.32 193.691)">
<stop offset="0.0147768" stop-color="#FD3C3C" stop-opacity="0"/>
<stop offset="1" stop-color="#FFB066" stop-opacity="0.3"/>
</linearGradient>
<linearGradient id="paint19_linear" x2="1" gradientUnits="userSpaceOnUse" gradientTransform="matrix(-195.475 132.233 -115.359 -118.825 419.32 193.691)">
<stop offset="0.0147768" stop-color="#FD3C3C" stop-opacity="0"/>
<stop offset="1" stop-color="#FFB066" stop-opacity="0.3"/>
</linearGradient>
<linearGradient id="paint20_linear" x2="1" gradientUnits="userSpaceOnUse" gradientTransform="matrix(-161.637 126.446 -107.206 -96.1561 330.256 122.442)">
<stop offset="0.0147768" stop-color="#FD3C3C" stop-opacity="0"/>
<stop offset="1" stop-color="#FFB066" stop-opacity="0.3"/>
</linearGradient>
<linearGradient id="paint21_linear" x2="1" gradientUnits="userSpaceOnUse" gradientTransform="matrix(-161.637 126.446 -107.206 -96.1561 330.256 122.442)">
<stop offset="0.0147768" stop-color="#FD3C3C" stop-opacity="0"/>
<stop offset="1" stop-color="#FFB066" stop-opacity="0.3"/>
</linearGradient>
<linearGradient id="paint22_linear" x2="1" gradientUnits="userSpaceOnUse" gradientTransform="matrix(-1.15106 -35.7711 36.2748 -1.18525 12.0137 45.8875)">
<stop stop-color="#FFD35A" stop-opacity="0.37"/>
<stop offset="1" stop-color="#FFD85D" stop-opacity="0"/>
</linearGradient>
<linearGradient id="paint23_linear" x2="1" gradientUnits="userSpaceOnUse" gradientTransform="matrix(-1.15103 -35.771 36.2754 -1.20174 -3.40412 44.9815)">
<stop stop-color="#FFD35A" stop-opacity="0.42"/>
<stop offset="1" stop-color="#FFD85D" stop-opacity="0"/>
</linearGradient>
<linearGradient id="paint24_linear" x2="1" gradientUnits="userSpaceOnUse" gradientTransform="matrix(-20.7447 1.70785 -2.62194 -32.8343 23.177 22.4515)">
<stop stop-color="#FFE060"/>
<stop offset="1" stop-color="#FFC252"/>
</linearGradient>
<linearGradient id="paint25_linear" x2="1" gradientUnits="userSpaceOnUse" gradientTransform="matrix(23.1355 4.51632 -6.89821 36.279 5.041 -8.03157)">
<stop stop-color="#FF7654"/>
<stop offset="1" stop-color="#DA2D03"/>
</linearGradient>
<linearGradient id="paint26_linear" x2="1" gradientUnits="userSpaceOnUse" gradientTransform="matrix(-20.7447 1.70785 -2.62194 -32.8343 23.177 22.4515)">
<stop stop-color="#FFC654"/>
<stop offset="1" stop-color="#FFB836"/>
</linearGradient>
<linearGradient id="paint27_linear" x2="1" gradientUnits="userSpaceOnUse" gradientTransform="matrix(-20.7447 1.70785 -2.62194 -32.8343 23.177 22.4515)">
<stop stop-color="#FFE060"/>
<stop offset="1" stop-color="#FFC252"/>
</linearGradient>
<linearGradient id="paint28_linear" x2="1" gradientUnits="userSpaceOnUse" gradientTransform="matrix(-1.15106 -35.7711 36.2748 -1.18525 12.0137 45.8875)">
<stop stop-color="#FFD35A" stop-opacity="0.37"/>
<stop offset="1" stop-color="#FFD85D" stop-opacity="0"/>
</linearGradient>
<linearGradient id="paint29_linear" x2="1" gradientUnits="userSpaceOnUse" gradientTransform="matrix(-1.15103 -35.771 36.2754 -1.20174 -3.40412 44.9815)">
<stop stop-color="#FFD35A" stop-opacity="0.42"/>
<stop offset="1" stop-color="#FFD85D" stop-opacity="0"/>
</linearGradient>
<linearGradient id="paint30_linear" x2="1" gradientUnits="userSpaceOnUse" gradientTransform="matrix(-20.7447 1.70785 -2.62194 -32.8343 23.177 22.4515)">
<stop stop-color="#FFE060"/>
<stop offset="1" stop-color="#FFC252"/>
</linearGradient>
<linearGradient id="paint31_linear" x2="1" gradientUnits="userSpaceOnUse" gradientTransform="matrix(23.1355 4.51632 -6.89821 36.279 5.041 -8.03157)">
<stop stop-color="#FF7654"/>
<stop offset="1" stop-color="#DA2D03"/>
</linearGradient>
<linearGradient id="paint32_linear" x2="1" gradientUnits="userSpaceOnUse" gradientTransform="matrix(-20.7447 1.70785 -2.62194 -32.8343 23.177 22.4515)">
<stop stop-color="#FFC654"/>
<stop offset="1" stop-color="#FFB836"/>
</linearGradient>
<linearGradient id="paint33_linear" x2="1" gradientUnits="userSpaceOnUse" gradientTransform="matrix(-20.7447 1.70785 -2.62194 -32.8343 23.177 22.4515)">
<stop stop-color="#FFE060"/>
<stop offset="1" stop-color="#FFC252"/>
</linearGradient>
<linearGradient id="paint34_linear" x2="1" gradientUnits="userSpaceOnUse" gradientTransform="matrix(-1.88607 37.0059 -66.0012 -3.36236 52.8044 -9.39701)">
<stop offset="0.0480002" stop-color="#FFD78A"/>
<stop offset="1" stop-color="#E8BD69"/>
</linearGradient>
<linearGradient id="paint35_linear" x2="1" gradientUnits="userSpaceOnUse" gradientTransform="matrix(5.65822 21.685 -11.4646 2.9901 9.03295 5.34043)">
<stop stop-color="#F4CD41"/>
<stop offset="1" stop-color="#DF7505"/>
</linearGradient>
<linearGradient id="paint36_linear" x2="1" gradientUnits="userSpaceOnUse" gradientTransform="matrix(10.6092 12.2567 -6.48001 5.60644 7.01215 3.08944)">
<stop stop-color="#DF7505"/>
<stop offset="1" stop-color="#E64D0F"/>
</linearGradient>
<linearGradient id="paint37_linear" x2="1" gradientUnits="userSpaceOnUse" gradientTransform="matrix(-0.706855 -41.7507 23.4763 -0.229255 37.8302 58.8076)">
<stop stop-color="#FFE5B1"/>
<stop offset="1" stop-color="#FFE4B0" stop-opacity="0"/>
</linearGradient>
<linearGradient id="paint38_linear" x2="1" gradientUnits="userSpaceOnUse" gradientTransform="matrix(-0.371104 -85.3338 38.3838 0.382747 1.36394 101.838)">
<stop stop-color="#FFE5B1"/>
<stop offset="1" stop-color="#FFE6B6" stop-opacity="0"/>
</linearGradient>
<linearGradient id="paint39_linear" x2="1" gradientUnits="userSpaceOnUse" gradientTransform="matrix(12.8854 17.1375 -15.0177 11.588 13.5936 -4.62553)">
<stop stop-color="#FFEF63"/>
<stop offset="1" stop-color="#F8BA42"/>
</linearGradient>
<linearGradient id="paint40_linear" x2="1" gradientUnits="userSpaceOnUse" gradientTransform="matrix(-11.9269 19.7485 -17.2675 -11.4532 24.5855 6.96043)">
<stop stop-color="#FFEF63"/>
<stop offset="1" stop-color="#F8BA42"/>
</linearGradient>
<linearGradient id="paint41_linear" x2="1" gradientUnits="userSpaceOnUse" gradientTransform="matrix(-7.02402 42.197 -76.622 -12.2993 55.6645 -3.38525)">
<stop stop-color="#F6FF8A"/>
<stop offset="1" stop-color="#FF7A50"/>
</linearGradient>
<linearGradient id="paint42_linear" x2="1" gradientUnits="userSpaceOnUse" gradientTransform="matrix(4.95813 18.6641 -10.0461 2.57356 7.9153 4.59646)">
<stop stop-color="#F4AC41"/>
<stop offset="1" stop-color="#DF7505"/>
</linearGradient>
<linearGradient id="paint43_linear" x2="1" gradientUnits="userSpaceOnUse" gradientTransform="matrix(9.29649 10.5493 -5.67824 4.82542 6.14454 2.65905)">
<stop stop-color="#EB9D04"/>
<stop offset="1" stop-color="#E64D0F"/>
</linearGradient>
<linearGradient id="paint44_linear" x2="1" gradientUnits="userSpaceOnUse" gradientTransform="matrix(67.8613 43.0805 -40.6418 63.9911 9.13315 -37.7744)">
<stop stop-color="#F7AE48"/>
<stop offset="1" stop-color="#F49854" stop-opacity="0"/>
</linearGradient>
<linearGradient id="paint45_linear" x2="1" gradientUnits="userSpaceOnUse" gradientTransform="matrix(224.333 145.429 -137.197 211.539 -26.3166 -169.513)">
<stop offset="0.460408" stop-color="#FCD345" stop-opacity="0.91"/>
<stop offset="0.841003" stop-color="#FBFBFB" stop-opacity="0"/>
</linearGradient>
<linearGradient id="paint46_linear" x2="1" gradientUnits="userSpaceOnUse" gradientTransform="matrix(-16.9765 23.8825 -16.1458 -11.4354 31.425 13.4319)">
<stop stop-color="#AE1212"/>
<stop offset="1" stop-color="#7D1010"/>
</linearGradient>
<linearGradient id="paint47_linear" x2="1" gradientUnits="userSpaceOnUse" gradientTransform="matrix(1.06071 33.5012 -29.725 0.936224 31.4803 5.1742)">
<stop stop-color="#AD1212"/>
<stop offset="1" stop-color="#7D1010"/>
</linearGradient>
<linearGradient id="paint48_linear" x2="1" gradientUnits="userSpaceOnUse" gradientTransform="matrix(-22.5 53.8717 -95.8335 -39.8475 114.089 19.9238)">
<stop offset="0.224608" stop-color="#FFE486"/>
<stop offset="1" stop-color="#F91506"/>
</linearGradient>
<linearGradient id="paint49_linear" x2="1" gradientUnits="userSpaceOnUse" gradientTransform="matrix(-13.0821 78.6397 -27.3419 -4.52465 28.8745 4.02555)">
<stop stop-color="#EB1A1A"/>
<stop offset="0.793959" stop-color="#7D1010"/>
</linearGradient>
<linearGradient id="paint50_linear" x2="1" gradientUnits="userSpaceOnUse" gradientTransform="matrix(-16.0931 28.9197 -19.5512 -10.8403 24.6063 5.42014)">
<stop stop-color="#E40000"/>
<stop offset="1" stop-color="#AE1212"/>
</linearGradient>
<linearGradient id="paint51_linear" x2="1" gradientUnits="userSpaceOnUse" gradientTransform="translate(16.2923) scale(16.2923 24.0992) rotate(90)">
<stop stop-color="#FFF2F2"/>
<stop offset="1" stop-color="#C20101"/>
</linearGradient>
<linearGradient id="paint52_linear" x2="1" gradientUnits="userSpaceOnUse" gradientTransform="matrix(-2.98365 5.26232 -3.62478 -1.97253 4.56199 0.986265)">
<stop stop-color="#E40000"/>
<stop offset="1" stop-color="#AE1212"/>
</linearGradient>
</defs>
</svg>
