<svg width="81" height="73" viewBox="0 0 81 73" fill="none" xmlns="http://www.w3.org/2000/svg">
<rect width="81" height="73" rx="12" fill="url(#paint0_linear)"/>
<rect width="45.9448" height="27.4534" rx="2" transform="translate(17.0059 23.7329)" fill="white"/>
<path d="M5.07 4.77C2.34 4.77 0.429 6.694 0.429 9.424C0.429 12.154 2.353 14.065 5.083 14.065C7.488 14.065 9.009 12.492 9.477 10.919V8.852H4.641V10.49H7.462C7.124 11.517 6.357 12.102 5.252 12.102C3.653 12.102 2.691 11.114 2.691 9.424C2.691 7.838 3.64 6.824 5.07 6.824C5.902 6.824 6.526 7.149 6.864 7.76H9.321C8.84 5.888 7.254 4.77 5.07 4.77ZM19.6913 9.411C19.6913 6.668 17.6243 4.744 15.0243 4.744C12.4373 4.744 10.3313 6.668 10.3313 9.411C10.3313 12.154 12.4373 14.091 15.0243 14.091C17.6113 14.091 19.6913 12.154 19.6913 9.411ZM12.6063 9.411C12.6063 7.786 13.5423 6.759 15.0243 6.759C16.4803 6.759 17.4293 7.786 17.4293 9.411C17.4293 11.01 16.4803 12.063 15.0243 12.063C13.5423 12.063 12.6063 11.01 12.6063 9.411Z" transform="translate(29.5361 27.9565)" fill="#FF3216"/>
<circle cx="3.5" cy="3.5" r="3.5" transform="translate(41 34)" fill="#FF3216"/>
<path d="M3.29015 1.29329C3.68436 0.68558 4.57382 0.68558 4.96804 1.29329L6.70328 3.96828C7.13485 4.63359 6.65735 5.5125 5.86433 5.5125H2.39385C1.60083 5.5125 1.12333 4.63359 1.55491 3.96828L3.29015 1.29329Z" transform="translate(48.376 33.2361) rotate(90)" fill="white"/>
<rect width="6.26519" height="4.2236" rx="1" transform="translate(19.0938 32.1802) scale(1 -1)" fill="#FF4521"/>
<rect width="6.26519" height="4.2236" rx="1" transform="translate(19.0938 39.5714) scale(1 -1)" fill="#FF4521"/>
<rect width="6.26519" height="4.2236" rx="1" transform="translate(19.0938 46.9628) scale(1 -1)" fill="#FF4521"/>
<rect width="6.26519" height="4.2236" rx="1" transform="translate(54.5967 32.1802) scale(1 -1)" fill="#FF4521"/>
<rect width="6.26519" height="4.2236" rx="1" transform="translate(54.5967 39.5714) scale(1 -1)" fill="#FF4521"/>
<rect width="6.26519" height="4.2236" rx="1" transform="translate(54.5967 46.9628) scale(1 -1)" fill="#FF4521"/>
<defs>
<linearGradient id="paint0_linear" x2="1" gradientUnits="userSpaceOnUse" gradientTransform="matrix(69.1099 63.8692 -70.8686 954.375 44.3124 -477.188)">
<stop stop-color="#FF0E00"/>
<stop offset="1" stop-color="#FF6535"/>
</linearGradient>
</defs>
</svg>
